%FSLAX46Y46*%
G04 Gerber Fmt 4.6, Leading zero omitted, Abs format (unit mm)*
G04 Created by KiCad (PCBNEW (2014-10-31 BZR 5243)-product) date Sa 04 Apr 2015 22:31:09 CEST*
%MOMM*%
G01*
G04 APERTURE LIST*
%ADD10C,0.100000*%
G04 APERTURE END LIST*
D10*
G36*
X76701139Y-23050000D02*
X76700000Y-23050000D01*
X76000000Y-23050000D01*
X75998860Y-23050000D01*
X75998860Y-22150000D01*
X76000000Y-22150000D01*
X76700000Y-22150000D01*
X76701139Y-22150000D01*
X76701139Y-23050000D01*
X76701139Y-23050000D01*
G37*
G36*
X77601139Y-23050000D02*
X77600000Y-23050000D01*
X76900000Y-23050000D01*
X76898860Y-23050000D01*
X76898860Y-22150000D01*
X76900000Y-22150000D01*
X77600000Y-22150000D01*
X77601139Y-22150000D01*
X77601139Y-23050000D01*
X77601139Y-23050000D01*
G37*
G36*
X78370841Y-40555703D02*
X78368132Y-40749767D01*
X78327842Y-40927101D01*
X78256908Y-41086423D01*
X78155307Y-41230450D01*
X78024965Y-41354574D01*
X77880841Y-41446037D01*
X77707814Y-41513150D01*
X77545162Y-41541831D01*
X77359612Y-41537943D01*
X77192901Y-41501290D01*
X77027972Y-41429233D01*
X76883234Y-41328639D01*
X76762083Y-41203184D01*
X76663574Y-41050326D01*
X76601419Y-40893340D01*
X76567916Y-40710798D01*
X76570248Y-40543815D01*
X76608446Y-40364105D01*
X76676418Y-40205516D01*
X76777046Y-40058550D01*
X76904314Y-39933922D01*
X77048696Y-39839440D01*
X77219036Y-39770619D01*
X77383073Y-39739327D01*
X77568667Y-39740622D01*
X77734058Y-39774573D01*
X77901699Y-39845041D01*
X78046286Y-39942567D01*
X78170487Y-40067639D01*
X78270088Y-40217549D01*
X78335132Y-40375359D01*
X78370841Y-40555703D01*
X78370841Y-40555703D01*
G37*
G36*
X78370841Y-43095703D02*
X78368132Y-43289767D01*
X78327842Y-43467101D01*
X78256908Y-43626423D01*
X78155307Y-43770450D01*
X78024965Y-43894574D01*
X77880841Y-43986037D01*
X77707814Y-44053150D01*
X77545162Y-44081831D01*
X77359612Y-44077943D01*
X77192901Y-44041290D01*
X77027972Y-43969233D01*
X76883234Y-43868639D01*
X76762083Y-43743184D01*
X76663574Y-43590326D01*
X76601419Y-43433340D01*
X76567916Y-43250798D01*
X76570248Y-43083815D01*
X76608446Y-42904105D01*
X76676418Y-42745516D01*
X76777046Y-42598550D01*
X76904314Y-42473922D01*
X77048696Y-42379440D01*
X77219036Y-42310619D01*
X77383073Y-42279327D01*
X77568667Y-42280622D01*
X77734058Y-42314573D01*
X77901699Y-42385041D01*
X78046286Y-42482567D01*
X78170487Y-42607639D01*
X78270088Y-42757549D01*
X78335132Y-42915359D01*
X78370841Y-43095703D01*
X78370841Y-43095703D01*
G37*
G36*
X78370841Y-45635703D02*
X78368132Y-45829767D01*
X78327842Y-46007101D01*
X78256908Y-46166423D01*
X78155307Y-46310450D01*
X78024965Y-46434574D01*
X77880841Y-46526037D01*
X77707814Y-46593150D01*
X77545162Y-46621831D01*
X77359612Y-46617943D01*
X77192901Y-46581290D01*
X77027972Y-46509233D01*
X76883234Y-46408639D01*
X76762083Y-46283184D01*
X76663574Y-46130326D01*
X76601419Y-45973340D01*
X76567916Y-45790798D01*
X76570248Y-45623815D01*
X76608446Y-45444105D01*
X76676418Y-45285516D01*
X76777046Y-45138550D01*
X76904314Y-45013922D01*
X77048696Y-44919440D01*
X77219036Y-44850619D01*
X77383073Y-44819327D01*
X77568667Y-44820622D01*
X77734058Y-44854573D01*
X77901699Y-44925041D01*
X78046286Y-45022567D01*
X78170487Y-45147639D01*
X78270088Y-45297549D01*
X78335132Y-45455359D01*
X78370841Y-45635703D01*
X78370841Y-45635703D01*
G37*
G36*
X78370841Y-48175703D02*
X78368132Y-48369767D01*
X78327842Y-48547101D01*
X78256908Y-48706423D01*
X78155307Y-48850450D01*
X78024965Y-48974574D01*
X77880841Y-49066037D01*
X77707814Y-49133150D01*
X77545162Y-49161831D01*
X77359612Y-49157943D01*
X77192901Y-49121290D01*
X77027972Y-49049233D01*
X76883234Y-48948639D01*
X76762083Y-48823184D01*
X76663574Y-48670326D01*
X76601419Y-48513340D01*
X76567916Y-48330798D01*
X76570248Y-48163815D01*
X76608446Y-47984105D01*
X76676418Y-47825516D01*
X76777046Y-47678550D01*
X76904314Y-47553922D01*
X77048696Y-47459440D01*
X77219036Y-47390619D01*
X77383073Y-47359327D01*
X77568667Y-47360622D01*
X77734058Y-47394573D01*
X77901699Y-47465041D01*
X78046286Y-47562567D01*
X78170487Y-47687639D01*
X78270088Y-47837549D01*
X78335132Y-47995359D01*
X78370841Y-48175703D01*
X78370841Y-48175703D01*
G37*
G36*
X78370841Y-50715703D02*
X78368132Y-50909767D01*
X78327842Y-51087101D01*
X78256908Y-51246423D01*
X78155307Y-51390450D01*
X78024965Y-51514574D01*
X77880841Y-51606037D01*
X77707814Y-51673150D01*
X77545162Y-51701831D01*
X77359612Y-51697943D01*
X77192901Y-51661290D01*
X77027972Y-51589233D01*
X76883234Y-51488639D01*
X76762083Y-51363184D01*
X76663574Y-51210326D01*
X76601419Y-51053340D01*
X76567916Y-50870798D01*
X76570248Y-50703815D01*
X76608446Y-50524105D01*
X76676418Y-50365516D01*
X76777046Y-50218550D01*
X76904314Y-50093922D01*
X77048696Y-49999440D01*
X77219036Y-49930619D01*
X77383073Y-49899327D01*
X77568667Y-49900622D01*
X77734058Y-49934573D01*
X77901699Y-50005041D01*
X78046286Y-50102567D01*
X78170487Y-50227639D01*
X78270088Y-50377549D01*
X78335132Y-50535359D01*
X78370841Y-50715703D01*
X78370841Y-50715703D01*
G37*
G36*
X78370841Y-53255703D02*
X78368132Y-53449767D01*
X78327842Y-53627101D01*
X78256908Y-53786423D01*
X78155307Y-53930450D01*
X78024965Y-54054574D01*
X77880841Y-54146037D01*
X77707814Y-54213150D01*
X77545162Y-54241831D01*
X77359612Y-54237943D01*
X77192901Y-54201290D01*
X77027972Y-54129233D01*
X76883234Y-54028639D01*
X76762083Y-53903184D01*
X76663574Y-53750326D01*
X76601419Y-53593340D01*
X76567916Y-53410798D01*
X76570248Y-53243815D01*
X76608446Y-53064105D01*
X76676418Y-52905516D01*
X76777046Y-52758550D01*
X76904314Y-52633922D01*
X77048696Y-52539440D01*
X77219036Y-52470619D01*
X77383073Y-52439327D01*
X77568667Y-52440622D01*
X77734058Y-52474573D01*
X77901699Y-52545041D01*
X78046286Y-52642567D01*
X78170487Y-52767639D01*
X78270088Y-52917549D01*
X78335132Y-53075359D01*
X78370841Y-53255703D01*
X78370841Y-53255703D01*
G37*
G36*
X78370841Y-55795703D02*
X78368132Y-55989767D01*
X78327842Y-56167101D01*
X78256908Y-56326423D01*
X78155307Y-56470450D01*
X78024965Y-56594574D01*
X77880841Y-56686037D01*
X77707814Y-56753150D01*
X77545162Y-56781831D01*
X77359612Y-56777943D01*
X77192901Y-56741290D01*
X77027972Y-56669233D01*
X76883234Y-56568639D01*
X76762083Y-56443184D01*
X76663574Y-56290326D01*
X76601419Y-56133340D01*
X76567916Y-55950798D01*
X76570248Y-55783815D01*
X76608446Y-55604105D01*
X76676418Y-55445516D01*
X76777046Y-55298550D01*
X76904314Y-55173922D01*
X77048696Y-55079440D01*
X77219036Y-55010619D01*
X77383073Y-54979327D01*
X77568667Y-54980622D01*
X77734058Y-55014573D01*
X77901699Y-55085041D01*
X78046286Y-55182567D01*
X78170487Y-55307639D01*
X78270088Y-55457549D01*
X78335132Y-55615359D01*
X78370841Y-55795703D01*
X78370841Y-55795703D01*
G37*
G36*
X78370841Y-58335703D02*
X78368132Y-58529767D01*
X78327842Y-58707101D01*
X78256908Y-58866423D01*
X78155307Y-59010450D01*
X78024965Y-59134574D01*
X77880841Y-59226037D01*
X77707814Y-59293150D01*
X77545162Y-59321831D01*
X77359612Y-59317943D01*
X77192901Y-59281290D01*
X77027972Y-59209233D01*
X76883234Y-59108639D01*
X76762083Y-58983184D01*
X76663574Y-58830326D01*
X76601419Y-58673340D01*
X76567916Y-58490798D01*
X76570248Y-58323815D01*
X76608446Y-58144105D01*
X76676418Y-57985516D01*
X76777046Y-57838550D01*
X76904314Y-57713922D01*
X77048696Y-57619440D01*
X77219036Y-57550619D01*
X77383073Y-57519327D01*
X77568667Y-57520622D01*
X77734058Y-57554573D01*
X77901699Y-57625041D01*
X78046286Y-57722567D01*
X78170487Y-57847639D01*
X78270088Y-57997549D01*
X78335132Y-58155359D01*
X78370841Y-58335703D01*
X78370841Y-58335703D01*
G37*
G36*
X78551139Y-21700000D02*
X78550000Y-21700000D01*
X77750000Y-21700000D01*
X77748860Y-21700000D01*
X77748860Y-20500000D01*
X77750000Y-20500000D01*
X78550000Y-20500000D01*
X78551139Y-20500000D01*
X78551139Y-21700000D01*
X78551139Y-21700000D01*
G37*
G36*
X78616139Y-31165201D02*
X78615000Y-31165000D01*
X78614999Y-31165000D01*
X76715000Y-31165000D01*
X76713860Y-31165000D01*
X76713860Y-30453023D01*
X76713860Y-30426976D01*
X76713860Y-30253023D01*
X76713860Y-30226976D01*
X76713860Y-29653023D01*
X76713860Y-29626976D01*
X76713860Y-29453023D01*
X76713860Y-29426976D01*
X76713860Y-28853023D01*
X76713860Y-28826976D01*
X76713860Y-28653023D01*
X76713860Y-28626976D01*
X76713860Y-28053023D01*
X76713860Y-28026976D01*
X76713860Y-27853023D01*
X76713860Y-27826976D01*
X76713860Y-27253023D01*
X76713860Y-27226976D01*
X76713860Y-27053023D01*
X76713860Y-27026976D01*
X76713860Y-26453023D01*
X76713860Y-26426976D01*
X76713860Y-26253023D01*
X76713860Y-26226976D01*
X76713860Y-25653023D01*
X76713860Y-25626976D01*
X76713860Y-25453023D01*
X76713860Y-25426976D01*
X76713860Y-24715000D01*
X76715000Y-24715000D01*
X78615000Y-24715000D01*
X78616139Y-24714799D01*
X78616139Y-24728023D01*
X78616139Y-25426976D01*
X78616139Y-25453023D01*
X78616139Y-25626976D01*
X78616139Y-25653023D01*
X78616139Y-26226976D01*
X78616139Y-26253023D01*
X78616139Y-26426976D01*
X78616139Y-26453023D01*
X78616139Y-27026976D01*
X78616139Y-27053023D01*
X78616139Y-27226976D01*
X78616139Y-27253023D01*
X78616139Y-27826976D01*
X78616139Y-27853023D01*
X78616139Y-28026976D01*
X78616139Y-28053023D01*
X78616139Y-28626976D01*
X78616139Y-28653023D01*
X78616139Y-28826976D01*
X78616139Y-28853023D01*
X78616139Y-29426976D01*
X78616139Y-29453023D01*
X78616139Y-29626976D01*
X78616139Y-29653023D01*
X78616139Y-30226976D01*
X78616139Y-30253023D01*
X78616139Y-30426976D01*
X78616139Y-30453023D01*
X78616139Y-31151976D01*
X78616139Y-31165201D01*
X78616139Y-31165201D01*
G37*
G36*
X78767047Y-64246084D02*
X78767018Y-64250308D01*
X78765897Y-64260298D01*
X78765886Y-64261922D01*
X78740520Y-64488067D01*
X78740255Y-64488901D01*
X78740020Y-64490999D01*
X78672989Y-64702307D01*
X78671973Y-64704154D01*
X78671712Y-64704978D01*
X78562082Y-64904394D01*
X78561528Y-64905053D01*
X78559015Y-64909626D01*
X78420072Y-65075212D01*
X78416002Y-65078483D01*
X78415807Y-65078717D01*
X78238459Y-65221309D01*
X78238184Y-65221452D01*
X78235689Y-65223459D01*
X78039235Y-65326163D01*
X77817652Y-65391377D01*
X77591335Y-65411975D01*
X77367177Y-65388414D01*
X77144744Y-65319560D01*
X76951368Y-65215002D01*
X76948329Y-65212488D01*
X76947981Y-65212300D01*
X76772641Y-65067245D01*
X76772394Y-65066942D01*
X76769072Y-65064194D01*
X76631296Y-64895263D01*
X76629275Y-64891462D01*
X76628814Y-64890897D01*
X76521979Y-64689970D01*
X76521769Y-64689274D01*
X76521103Y-64688022D01*
X76456495Y-64474026D01*
X76456357Y-64472619D01*
X76456206Y-64472119D01*
X76434000Y-64245642D01*
X76434000Y-64244612D01*
X76432951Y-64233914D01*
X76432981Y-64229691D01*
X76434102Y-64219690D01*
X76434114Y-64218078D01*
X76459480Y-63991933D01*
X76459743Y-63991103D01*
X76459979Y-63989000D01*
X76527010Y-63777688D01*
X76528032Y-63775828D01*
X76528288Y-63775022D01*
X76637918Y-63575606D01*
X76638462Y-63574957D01*
X76640982Y-63570374D01*
X76640985Y-63570370D01*
X76779927Y-63404787D01*
X76784002Y-63401510D01*
X76784193Y-63401283D01*
X76961541Y-63258691D01*
X76961802Y-63258554D01*
X76964309Y-63256539D01*
X77160764Y-63153836D01*
X77382341Y-63088622D01*
X77608664Y-63068025D01*
X77832826Y-63091585D01*
X78055255Y-63160439D01*
X78248630Y-63264996D01*
X78251671Y-63267512D01*
X78252019Y-63267700D01*
X78427359Y-63412755D01*
X78427608Y-63413060D01*
X78430928Y-63415807D01*
X78568703Y-63584735D01*
X78570724Y-63588537D01*
X78571186Y-63589103D01*
X78678021Y-63790030D01*
X78678232Y-63790729D01*
X78678894Y-63791974D01*
X78743504Y-64005973D01*
X78743641Y-64007376D01*
X78743794Y-64007881D01*
X78766000Y-64234358D01*
X78766000Y-64235405D01*
X78767047Y-64246084D01*
X78767047Y-64246084D01*
G37*
G36*
X78767139Y-62866000D02*
X78766000Y-62866000D01*
X76434000Y-62866000D01*
X76432860Y-62866000D01*
X76432860Y-60534000D01*
X76434000Y-60534000D01*
X78766000Y-60534000D01*
X78767139Y-60534000D01*
X78767139Y-62866000D01*
X78767139Y-62866000D01*
G37*
G36*
X79731139Y-35245000D02*
X79730000Y-35245000D01*
X78380000Y-35245000D01*
X78304999Y-35245000D01*
X78230000Y-35245000D01*
X76880000Y-35245000D01*
X76878860Y-35245000D01*
X76878860Y-33545000D01*
X76880000Y-33545000D01*
X78230000Y-33545000D01*
X78305000Y-33545000D01*
X78380000Y-33545000D01*
X79730000Y-33545000D01*
X79731139Y-33545000D01*
X79731139Y-35245000D01*
X79731139Y-35245000D01*
G37*
G36*
X79731139Y-38845000D02*
X79730000Y-38845000D01*
X78380000Y-38845000D01*
X78304999Y-38845000D01*
X78230000Y-38845000D01*
X76880000Y-38845000D01*
X76878860Y-38845000D01*
X76878860Y-37145000D01*
X76880000Y-37145000D01*
X78230000Y-37145000D01*
X78305000Y-37145000D01*
X78380000Y-37145000D01*
X79730000Y-37145000D01*
X79731139Y-37145000D01*
X79731139Y-38845000D01*
X79731139Y-38845000D01*
G37*
G36*
X80051139Y-21700000D02*
X80050000Y-21700000D01*
X79250000Y-21700000D01*
X79248860Y-21700000D01*
X79248860Y-20500000D01*
X79250000Y-20500000D01*
X80050000Y-20500000D01*
X80051139Y-20500000D01*
X80051139Y-21700000D01*
X80051139Y-21700000D01*
G37*
G36*
X80910841Y-40555703D02*
X80908132Y-40749767D01*
X80867842Y-40927101D01*
X80796908Y-41086423D01*
X80695307Y-41230450D01*
X80564965Y-41354574D01*
X80420841Y-41446037D01*
X80247814Y-41513150D01*
X80085162Y-41541831D01*
X79899612Y-41537943D01*
X79732901Y-41501290D01*
X79567972Y-41429233D01*
X79423234Y-41328639D01*
X79302083Y-41203184D01*
X79203574Y-41050326D01*
X79141419Y-40893340D01*
X79107916Y-40710798D01*
X79110248Y-40543815D01*
X79148446Y-40364105D01*
X79216418Y-40205516D01*
X79317046Y-40058550D01*
X79444314Y-39933922D01*
X79588696Y-39839440D01*
X79759036Y-39770619D01*
X79923073Y-39739327D01*
X80108667Y-39740622D01*
X80274058Y-39774573D01*
X80441699Y-39845041D01*
X80586286Y-39942567D01*
X80710487Y-40067639D01*
X80810088Y-40217549D01*
X80875132Y-40375359D01*
X80910841Y-40555703D01*
X80910841Y-40555703D01*
G37*
G36*
X80910841Y-43095703D02*
X80908132Y-43289767D01*
X80867842Y-43467101D01*
X80796908Y-43626423D01*
X80695307Y-43770450D01*
X80564965Y-43894574D01*
X80420841Y-43986037D01*
X80247814Y-44053150D01*
X80085162Y-44081831D01*
X79899612Y-44077943D01*
X79732901Y-44041290D01*
X79567972Y-43969233D01*
X79423234Y-43868639D01*
X79302083Y-43743184D01*
X79203574Y-43590326D01*
X79141419Y-43433340D01*
X79107916Y-43250798D01*
X79110248Y-43083815D01*
X79148446Y-42904105D01*
X79216418Y-42745516D01*
X79317046Y-42598550D01*
X79444314Y-42473922D01*
X79588696Y-42379440D01*
X79759036Y-42310619D01*
X79923073Y-42279327D01*
X80108667Y-42280622D01*
X80274058Y-42314573D01*
X80441699Y-42385041D01*
X80586286Y-42482567D01*
X80710487Y-42607639D01*
X80810088Y-42757549D01*
X80875132Y-42915359D01*
X80910841Y-43095703D01*
X80910841Y-43095703D01*
G37*
G36*
X80910841Y-45635703D02*
X80908132Y-45829767D01*
X80867842Y-46007101D01*
X80796908Y-46166423D01*
X80695307Y-46310450D01*
X80564965Y-46434574D01*
X80420841Y-46526037D01*
X80247814Y-46593150D01*
X80085162Y-46621831D01*
X79899612Y-46617943D01*
X79732901Y-46581290D01*
X79567972Y-46509233D01*
X79423234Y-46408639D01*
X79302083Y-46283184D01*
X79203574Y-46130326D01*
X79141419Y-45973340D01*
X79107916Y-45790798D01*
X79110248Y-45623815D01*
X79148446Y-45444105D01*
X79216418Y-45285516D01*
X79317046Y-45138550D01*
X79444314Y-45013922D01*
X79588696Y-44919440D01*
X79759036Y-44850619D01*
X79923073Y-44819327D01*
X80108667Y-44820622D01*
X80274058Y-44854573D01*
X80441699Y-44925041D01*
X80586286Y-45022567D01*
X80710487Y-45147639D01*
X80810088Y-45297549D01*
X80875132Y-45455359D01*
X80910841Y-45635703D01*
X80910841Y-45635703D01*
G37*
G36*
X80910841Y-48175703D02*
X80908132Y-48369767D01*
X80867842Y-48547101D01*
X80796908Y-48706423D01*
X80695307Y-48850450D01*
X80564965Y-48974574D01*
X80420841Y-49066037D01*
X80247814Y-49133150D01*
X80085162Y-49161831D01*
X79899612Y-49157943D01*
X79732901Y-49121290D01*
X79567972Y-49049233D01*
X79423234Y-48948639D01*
X79302083Y-48823184D01*
X79203574Y-48670326D01*
X79141419Y-48513340D01*
X79107916Y-48330798D01*
X79110248Y-48163815D01*
X79148446Y-47984105D01*
X79216418Y-47825516D01*
X79317046Y-47678550D01*
X79444314Y-47553922D01*
X79588696Y-47459440D01*
X79759036Y-47390619D01*
X79923073Y-47359327D01*
X80108667Y-47360622D01*
X80274058Y-47394573D01*
X80441699Y-47465041D01*
X80586286Y-47562567D01*
X80710487Y-47687639D01*
X80810088Y-47837549D01*
X80875132Y-47995359D01*
X80910841Y-48175703D01*
X80910841Y-48175703D01*
G37*
G36*
X80910841Y-50715703D02*
X80908132Y-50909767D01*
X80867842Y-51087101D01*
X80796908Y-51246423D01*
X80695307Y-51390450D01*
X80564965Y-51514574D01*
X80420841Y-51606037D01*
X80247814Y-51673150D01*
X80085162Y-51701831D01*
X79899612Y-51697943D01*
X79732901Y-51661290D01*
X79567972Y-51589233D01*
X79423234Y-51488639D01*
X79302083Y-51363184D01*
X79203574Y-51210326D01*
X79141419Y-51053340D01*
X79107916Y-50870798D01*
X79110248Y-50703815D01*
X79148446Y-50524105D01*
X79216418Y-50365516D01*
X79317046Y-50218550D01*
X79444314Y-50093922D01*
X79588696Y-49999440D01*
X79759036Y-49930619D01*
X79923073Y-49899327D01*
X80108667Y-49900622D01*
X80274058Y-49934573D01*
X80441699Y-50005041D01*
X80586286Y-50102567D01*
X80710487Y-50227639D01*
X80810088Y-50377549D01*
X80875132Y-50535359D01*
X80910841Y-50715703D01*
X80910841Y-50715703D01*
G37*
G36*
X80910841Y-53255703D02*
X80908132Y-53449767D01*
X80867842Y-53627101D01*
X80796908Y-53786423D01*
X80695307Y-53930450D01*
X80564965Y-54054574D01*
X80420841Y-54146037D01*
X80247814Y-54213150D01*
X80085162Y-54241831D01*
X79899612Y-54237943D01*
X79732901Y-54201290D01*
X79567972Y-54129233D01*
X79423234Y-54028639D01*
X79302083Y-53903184D01*
X79203574Y-53750326D01*
X79141419Y-53593340D01*
X79107916Y-53410798D01*
X79110248Y-53243815D01*
X79148446Y-53064105D01*
X79216418Y-52905516D01*
X79317046Y-52758550D01*
X79444314Y-52633922D01*
X79588696Y-52539440D01*
X79759036Y-52470619D01*
X79923073Y-52439327D01*
X80108667Y-52440622D01*
X80274058Y-52474573D01*
X80441699Y-52545041D01*
X80586286Y-52642567D01*
X80710487Y-52767639D01*
X80810088Y-52917549D01*
X80875132Y-53075359D01*
X80910841Y-53255703D01*
X80910841Y-53255703D01*
G37*
G36*
X80910841Y-55795703D02*
X80908132Y-55989767D01*
X80867842Y-56167101D01*
X80796908Y-56326423D01*
X80695307Y-56470450D01*
X80564965Y-56594574D01*
X80420841Y-56686037D01*
X80247814Y-56753150D01*
X80085162Y-56781831D01*
X79899612Y-56777943D01*
X79732901Y-56741290D01*
X79567972Y-56669233D01*
X79423234Y-56568639D01*
X79302083Y-56443184D01*
X79203574Y-56290326D01*
X79141419Y-56133340D01*
X79107916Y-55950798D01*
X79110248Y-55783815D01*
X79148446Y-55604105D01*
X79216418Y-55445516D01*
X79317046Y-55298550D01*
X79444314Y-55173922D01*
X79588696Y-55079440D01*
X79759036Y-55010619D01*
X79923073Y-54979327D01*
X80108667Y-54980622D01*
X80274058Y-55014573D01*
X80441699Y-55085041D01*
X80586286Y-55182567D01*
X80710487Y-55307639D01*
X80810088Y-55457549D01*
X80875132Y-55615359D01*
X80910841Y-55795703D01*
X80910841Y-55795703D01*
G37*
G36*
X80910841Y-58335703D02*
X80908132Y-58529767D01*
X80867842Y-58707101D01*
X80796908Y-58866423D01*
X80695307Y-59010450D01*
X80564965Y-59134574D01*
X80420841Y-59226037D01*
X80247814Y-59293150D01*
X80085162Y-59321831D01*
X79899612Y-59317943D01*
X79732901Y-59281290D01*
X79567972Y-59209233D01*
X79423234Y-59108639D01*
X79302083Y-58983184D01*
X79203574Y-58830326D01*
X79141419Y-58673340D01*
X79107916Y-58490798D01*
X79110248Y-58323815D01*
X79148446Y-58144105D01*
X79216418Y-57985516D01*
X79317046Y-57838550D01*
X79444314Y-57713922D01*
X79588696Y-57619440D01*
X79759036Y-57550619D01*
X79923073Y-57519327D01*
X80108667Y-57520622D01*
X80274058Y-57554573D01*
X80441699Y-57625041D01*
X80586286Y-57722567D01*
X80710487Y-57847639D01*
X80810088Y-57997549D01*
X80875132Y-58155359D01*
X80910841Y-58335703D01*
X80910841Y-58335703D01*
G37*
G36*
X80951139Y-69000000D02*
X80950000Y-69000000D01*
X79750000Y-69000000D01*
X79748860Y-69000000D01*
X79748860Y-67000000D01*
X79750000Y-67000000D01*
X80950000Y-67000000D01*
X80951139Y-67000000D01*
X80951139Y-69000000D01*
X80951139Y-69000000D01*
G37*
G36*
X81401139Y-21300000D02*
X81400000Y-21300000D01*
X80600000Y-21300000D01*
X80598860Y-21300000D01*
X80598860Y-20400000D01*
X80600000Y-20400000D01*
X81400000Y-20400000D01*
X81401139Y-20400000D01*
X81401139Y-21300000D01*
X81401139Y-21300000D01*
G37*
G36*
X81401139Y-22400000D02*
X81400000Y-22400000D01*
X80600000Y-22400000D01*
X80598860Y-22400000D01*
X80598860Y-21500000D01*
X80600000Y-21500000D01*
X81400000Y-21500000D01*
X81401139Y-21500000D01*
X81401139Y-22400000D01*
X81401139Y-22400000D01*
G37*
G36*
X83450841Y-40555703D02*
X83448132Y-40749767D01*
X83407842Y-40927101D01*
X83336908Y-41086423D01*
X83235307Y-41230450D01*
X83104965Y-41354574D01*
X82960841Y-41446037D01*
X82787814Y-41513150D01*
X82625162Y-41541831D01*
X82439612Y-41537943D01*
X82272901Y-41501290D01*
X82107972Y-41429233D01*
X81963234Y-41328639D01*
X81842083Y-41203184D01*
X81743574Y-41050326D01*
X81681419Y-40893340D01*
X81647916Y-40710798D01*
X81650248Y-40543815D01*
X81688446Y-40364105D01*
X81756418Y-40205516D01*
X81857046Y-40058550D01*
X81984314Y-39933922D01*
X82128696Y-39839440D01*
X82299036Y-39770619D01*
X82463073Y-39739327D01*
X82648667Y-39740622D01*
X82814058Y-39774573D01*
X82981699Y-39845041D01*
X83126286Y-39942567D01*
X83250487Y-40067639D01*
X83350088Y-40217549D01*
X83415132Y-40375359D01*
X83450841Y-40555703D01*
X83450841Y-40555703D01*
G37*
G36*
X83450841Y-43095703D02*
X83448132Y-43289767D01*
X83407842Y-43467101D01*
X83336908Y-43626423D01*
X83235307Y-43770450D01*
X83104965Y-43894574D01*
X82960841Y-43986037D01*
X82787814Y-44053150D01*
X82625162Y-44081831D01*
X82439612Y-44077943D01*
X82272901Y-44041290D01*
X82107972Y-43969233D01*
X81963234Y-43868639D01*
X81842083Y-43743184D01*
X81743574Y-43590326D01*
X81681419Y-43433340D01*
X81647916Y-43250798D01*
X81650248Y-43083815D01*
X81688446Y-42904105D01*
X81756418Y-42745516D01*
X81857046Y-42598550D01*
X81984314Y-42473922D01*
X82128696Y-42379440D01*
X82299036Y-42310619D01*
X82463073Y-42279327D01*
X82648667Y-42280622D01*
X82814058Y-42314573D01*
X82981699Y-42385041D01*
X83126286Y-42482567D01*
X83250487Y-42607639D01*
X83350088Y-42757549D01*
X83415132Y-42915359D01*
X83450841Y-43095703D01*
X83450841Y-43095703D01*
G37*
G36*
X83450841Y-45635703D02*
X83448132Y-45829767D01*
X83407842Y-46007101D01*
X83336908Y-46166423D01*
X83235307Y-46310450D01*
X83104965Y-46434574D01*
X82960841Y-46526037D01*
X82787814Y-46593150D01*
X82625162Y-46621831D01*
X82439612Y-46617943D01*
X82272901Y-46581290D01*
X82107972Y-46509233D01*
X81963234Y-46408639D01*
X81842083Y-46283184D01*
X81743574Y-46130326D01*
X81681419Y-45973340D01*
X81647916Y-45790798D01*
X81650248Y-45623815D01*
X81688446Y-45444105D01*
X81756418Y-45285516D01*
X81857046Y-45138550D01*
X81984314Y-45013922D01*
X82128696Y-44919440D01*
X82299036Y-44850619D01*
X82463073Y-44819327D01*
X82648667Y-44820622D01*
X82814058Y-44854573D01*
X82981699Y-44925041D01*
X83126286Y-45022567D01*
X83250487Y-45147639D01*
X83350088Y-45297549D01*
X83415132Y-45455359D01*
X83450841Y-45635703D01*
X83450841Y-45635703D01*
G37*
G36*
X83450841Y-48175703D02*
X83448132Y-48369767D01*
X83407842Y-48547101D01*
X83336908Y-48706423D01*
X83235307Y-48850450D01*
X83104965Y-48974574D01*
X82960841Y-49066037D01*
X82787814Y-49133150D01*
X82625162Y-49161831D01*
X82439612Y-49157943D01*
X82272901Y-49121290D01*
X82107972Y-49049233D01*
X81963234Y-48948639D01*
X81842083Y-48823184D01*
X81743574Y-48670326D01*
X81681419Y-48513340D01*
X81647916Y-48330798D01*
X81650248Y-48163815D01*
X81688446Y-47984105D01*
X81756418Y-47825516D01*
X81857046Y-47678550D01*
X81984314Y-47553922D01*
X82128696Y-47459440D01*
X82299036Y-47390619D01*
X82463073Y-47359327D01*
X82648667Y-47360622D01*
X82814058Y-47394573D01*
X82981699Y-47465041D01*
X83126286Y-47562567D01*
X83250487Y-47687639D01*
X83350088Y-47837549D01*
X83415132Y-47995359D01*
X83450841Y-48175703D01*
X83450841Y-48175703D01*
G37*
G36*
X83450841Y-50715703D02*
X83448132Y-50909767D01*
X83407842Y-51087101D01*
X83336908Y-51246423D01*
X83235307Y-51390450D01*
X83104965Y-51514574D01*
X82960841Y-51606037D01*
X82787814Y-51673150D01*
X82625162Y-51701831D01*
X82439612Y-51697943D01*
X82272901Y-51661290D01*
X82107972Y-51589233D01*
X81963234Y-51488639D01*
X81842083Y-51363184D01*
X81743574Y-51210326D01*
X81681419Y-51053340D01*
X81647916Y-50870798D01*
X81650248Y-50703815D01*
X81688446Y-50524105D01*
X81756418Y-50365516D01*
X81857046Y-50218550D01*
X81984314Y-50093922D01*
X82128696Y-49999440D01*
X82299036Y-49930619D01*
X82463073Y-49899327D01*
X82648667Y-49900622D01*
X82814058Y-49934573D01*
X82981699Y-50005041D01*
X83126286Y-50102567D01*
X83250487Y-50227639D01*
X83350088Y-50377549D01*
X83415132Y-50535359D01*
X83450841Y-50715703D01*
X83450841Y-50715703D01*
G37*
G36*
X83450841Y-53255703D02*
X83448132Y-53449767D01*
X83407842Y-53627101D01*
X83336908Y-53786423D01*
X83235307Y-53930450D01*
X83104965Y-54054574D01*
X82960841Y-54146037D01*
X82787814Y-54213150D01*
X82625162Y-54241831D01*
X82439612Y-54237943D01*
X82272901Y-54201290D01*
X82107972Y-54129233D01*
X81963234Y-54028639D01*
X81842083Y-53903184D01*
X81743574Y-53750326D01*
X81681419Y-53593340D01*
X81647916Y-53410798D01*
X81650248Y-53243815D01*
X81688446Y-53064105D01*
X81756418Y-52905516D01*
X81857046Y-52758550D01*
X81984314Y-52633922D01*
X82128696Y-52539440D01*
X82299036Y-52470619D01*
X82463073Y-52439327D01*
X82648667Y-52440622D01*
X82814058Y-52474573D01*
X82981699Y-52545041D01*
X83126286Y-52642567D01*
X83250487Y-52767639D01*
X83350088Y-52917549D01*
X83415132Y-53075359D01*
X83450841Y-53255703D01*
X83450841Y-53255703D01*
G37*
G36*
X83450841Y-55795703D02*
X83448132Y-55989767D01*
X83407842Y-56167101D01*
X83336908Y-56326423D01*
X83235307Y-56470450D01*
X83104965Y-56594574D01*
X82960841Y-56686037D01*
X82787814Y-56753150D01*
X82625162Y-56781831D01*
X82439612Y-56777943D01*
X82272901Y-56741290D01*
X82107972Y-56669233D01*
X81963234Y-56568639D01*
X81842083Y-56443184D01*
X81743574Y-56290326D01*
X81681419Y-56133340D01*
X81647916Y-55950798D01*
X81650248Y-55783815D01*
X81688446Y-55604105D01*
X81756418Y-55445516D01*
X81857046Y-55298550D01*
X81984314Y-55173922D01*
X82128696Y-55079440D01*
X82299036Y-55010619D01*
X82463073Y-54979327D01*
X82648667Y-54980622D01*
X82814058Y-55014573D01*
X82981699Y-55085041D01*
X83126286Y-55182567D01*
X83250487Y-55307639D01*
X83350088Y-55457549D01*
X83415132Y-55615359D01*
X83450841Y-55795703D01*
X83450841Y-55795703D01*
G37*
G36*
X83450841Y-58335703D02*
X83448132Y-58529767D01*
X83407842Y-58707101D01*
X83336908Y-58866423D01*
X83235307Y-59010450D01*
X83104965Y-59134574D01*
X82960841Y-59226037D01*
X82787814Y-59293150D01*
X82625162Y-59321831D01*
X82439612Y-59317943D01*
X82272901Y-59281290D01*
X82107972Y-59209233D01*
X81963234Y-59108639D01*
X81842083Y-58983184D01*
X81743574Y-58830326D01*
X81681419Y-58673340D01*
X81647916Y-58490798D01*
X81650248Y-58323815D01*
X81688446Y-58144105D01*
X81756418Y-57985516D01*
X81857046Y-57838550D01*
X81984314Y-57713922D01*
X82128696Y-57619440D01*
X82299036Y-57550619D01*
X82463073Y-57519327D01*
X82648667Y-57520622D01*
X82814058Y-57554573D01*
X82981699Y-57625041D01*
X83126286Y-57722567D01*
X83250487Y-57847639D01*
X83350088Y-57997549D01*
X83415132Y-58155359D01*
X83450841Y-58335703D01*
X83450841Y-58335703D01*
G37*
G36*
X83651139Y-21600000D02*
X83650000Y-21600000D01*
X82850000Y-21600000D01*
X82848860Y-21600000D01*
X82848860Y-20400000D01*
X82850000Y-20400000D01*
X83650000Y-20400000D01*
X83651139Y-20400000D01*
X83651139Y-21600000D01*
X83651139Y-21600000D01*
G37*
G36*
X83851139Y-69000000D02*
X83850000Y-69000000D01*
X82650000Y-69000000D01*
X82648860Y-69000000D01*
X82648860Y-67000000D01*
X82650000Y-67000000D01*
X83850000Y-67000000D01*
X83851139Y-67000000D01*
X83851139Y-69000000D01*
X83851139Y-69000000D01*
G37*
G36*
X84680679Y-65950250D02*
X84679540Y-65950250D01*
X82657769Y-65950250D01*
X82632118Y-65954773D01*
X82609560Y-65967796D01*
X82592818Y-65987749D01*
X82583909Y-66012226D01*
X82583909Y-66038273D01*
X82583909Y-66154720D01*
X82582770Y-66154720D01*
X80883230Y-66154720D01*
X80882090Y-66154720D01*
X80882090Y-65255280D01*
X80883230Y-65255280D01*
X81505460Y-65255280D01*
X81531111Y-65250756D01*
X81553669Y-65237733D01*
X81570411Y-65217779D01*
X81579320Y-65193303D01*
X81579320Y-65167256D01*
X81579320Y-64972743D01*
X81579320Y-64946696D01*
X81570411Y-64922219D01*
X81553669Y-64902266D01*
X81531111Y-64889243D01*
X81505459Y-64884720D01*
X80883230Y-64884720D01*
X80882090Y-64884720D01*
X80882090Y-63985280D01*
X80883230Y-63985280D01*
X81505460Y-63985280D01*
X81531111Y-63980756D01*
X81553669Y-63967733D01*
X81570411Y-63947779D01*
X81579320Y-63923303D01*
X81579320Y-63897256D01*
X81579320Y-63702743D01*
X81579320Y-63676696D01*
X81570411Y-63652219D01*
X81553669Y-63632266D01*
X81531111Y-63619243D01*
X81505459Y-63614720D01*
X80883230Y-63614720D01*
X80882090Y-63614720D01*
X80882090Y-62715280D01*
X80883230Y-62715280D01*
X81505460Y-62715280D01*
X81531111Y-62710756D01*
X81553669Y-62697733D01*
X81570411Y-62677779D01*
X81579320Y-62653303D01*
X81579320Y-62627256D01*
X81579320Y-62432743D01*
X81579320Y-62406696D01*
X81570411Y-62382219D01*
X81553669Y-62362266D01*
X81531111Y-62349243D01*
X81505459Y-62344720D01*
X80883230Y-62344720D01*
X80882090Y-62344720D01*
X80882090Y-61445280D01*
X80883230Y-61445280D01*
X82582770Y-61445280D01*
X82583909Y-61445280D01*
X82583909Y-61561726D01*
X82583909Y-61587773D01*
X82592818Y-61612249D01*
X82609560Y-61632203D01*
X82632118Y-61645226D01*
X82657770Y-61649750D01*
X84679540Y-61649750D01*
X84680679Y-61649750D01*
X84680679Y-65950250D01*
X84680679Y-65950250D01*
G37*
G36*
X85141139Y-24640201D02*
X85140000Y-24640000D01*
X85139999Y-24640000D01*
X84414999Y-24640000D01*
X84340000Y-24640000D01*
X84290000Y-24640000D01*
X84214999Y-24640000D01*
X83614999Y-24640000D01*
X83540000Y-24640000D01*
X83490000Y-24640000D01*
X83414999Y-24640000D01*
X82814999Y-24640000D01*
X82740000Y-24640000D01*
X82690000Y-24640000D01*
X82614999Y-24640000D01*
X82014999Y-24640000D01*
X81940000Y-24640000D01*
X81890000Y-24640000D01*
X81814999Y-24640000D01*
X81214999Y-24640000D01*
X81140000Y-24640000D01*
X81090000Y-24640000D01*
X81014999Y-24640000D01*
X80414999Y-24640000D01*
X80340000Y-24640000D01*
X80290000Y-24640000D01*
X80214999Y-24640000D01*
X79614999Y-24640000D01*
X79540000Y-24640000D01*
X79490000Y-24640000D01*
X79414999Y-24640000D01*
X78690000Y-24640000D01*
X78689999Y-24640000D01*
X78688860Y-24640200D01*
X78688860Y-24626976D01*
X78688860Y-22740000D01*
X78690000Y-22740000D01*
X79415000Y-22740000D01*
X79490000Y-22740000D01*
X79540000Y-22740000D01*
X79615000Y-22740000D01*
X80215000Y-22740000D01*
X80290000Y-22740000D01*
X80340000Y-22740000D01*
X80415000Y-22740000D01*
X81015000Y-22740000D01*
X81090000Y-22740000D01*
X81140000Y-22740000D01*
X81215000Y-22740000D01*
X81815000Y-22740000D01*
X81890000Y-22740000D01*
X81940000Y-22740000D01*
X82015000Y-22740000D01*
X82615000Y-22740000D01*
X82690000Y-22740000D01*
X82740000Y-22740000D01*
X82815000Y-22740000D01*
X83415000Y-22740000D01*
X83490000Y-22740000D01*
X83540000Y-22740000D01*
X83615000Y-22740000D01*
X84215000Y-22740000D01*
X84290000Y-22740000D01*
X84340000Y-22740000D01*
X84415000Y-22740000D01*
X85140000Y-22740000D01*
X85141139Y-22740000D01*
X85141139Y-24626976D01*
X85141139Y-24640201D01*
X85141139Y-24640201D01*
G37*
G36*
X85141139Y-33140000D02*
X85140000Y-33140000D01*
X85139999Y-33140000D01*
X84414999Y-33140000D01*
X84340000Y-33140000D01*
X84290000Y-33140000D01*
X84214999Y-33140000D01*
X83614999Y-33140000D01*
X83540000Y-33140000D01*
X83490000Y-33140000D01*
X83414999Y-33140000D01*
X82814999Y-33140000D01*
X82740000Y-33140000D01*
X82690000Y-33140000D01*
X82614999Y-33140000D01*
X82014999Y-33140000D01*
X81940000Y-33140000D01*
X81890000Y-33140000D01*
X81814999Y-33140000D01*
X81214999Y-33140000D01*
X81140000Y-33140000D01*
X81090000Y-33140000D01*
X81014999Y-33140000D01*
X80414999Y-33140000D01*
X80340000Y-33140000D01*
X80290000Y-33140000D01*
X80214999Y-33140000D01*
X79614999Y-33140000D01*
X79540000Y-33140000D01*
X79490000Y-33140000D01*
X79414999Y-33140000D01*
X78690000Y-33140000D01*
X78688860Y-33140000D01*
X78688860Y-31253023D01*
X78688860Y-31239798D01*
X78690000Y-31240000D01*
X79415000Y-31240000D01*
X79490000Y-31240000D01*
X79540000Y-31240000D01*
X79615000Y-31240000D01*
X80215000Y-31240000D01*
X80290000Y-31240000D01*
X80340000Y-31240000D01*
X80415000Y-31240000D01*
X81015000Y-31240000D01*
X81090000Y-31240000D01*
X81140000Y-31240000D01*
X81215000Y-31240000D01*
X81815000Y-31240000D01*
X81890000Y-31240000D01*
X81940000Y-31240000D01*
X82015000Y-31240000D01*
X82615000Y-31240000D01*
X82690000Y-31240000D01*
X82740000Y-31240000D01*
X82815000Y-31240000D01*
X83415000Y-31240000D01*
X83490000Y-31240000D01*
X83540000Y-31240000D01*
X83615000Y-31240000D01*
X84215000Y-31240000D01*
X84290000Y-31240000D01*
X84340000Y-31240000D01*
X84415000Y-31240000D01*
X85140000Y-31240000D01*
X85141139Y-31239799D01*
X85141139Y-31253023D01*
X85141139Y-33140000D01*
X85141139Y-33140000D01*
G37*
G36*
X85151139Y-21600000D02*
X85150000Y-21600000D01*
X84350000Y-21600000D01*
X84348860Y-21600000D01*
X84348860Y-20400000D01*
X84350000Y-20400000D01*
X85150000Y-20400000D01*
X85151139Y-20400000D01*
X85151139Y-21600000D01*
X85151139Y-21600000D01*
G37*
G36*
X85251139Y-41200000D02*
X85250000Y-41200000D01*
X84450000Y-41200000D01*
X84448860Y-41200000D01*
X84448860Y-40000000D01*
X84450000Y-40000000D01*
X85250000Y-40000000D01*
X85251139Y-40000000D01*
X85251139Y-41200000D01*
X85251139Y-41200000D01*
G37*
G36*
X85251139Y-43400000D02*
X85250000Y-43400000D01*
X84450000Y-43400000D01*
X84448860Y-43400000D01*
X84448860Y-42200000D01*
X84450000Y-42200000D01*
X85250000Y-42200000D01*
X85251139Y-42200000D01*
X85251139Y-43400000D01*
X85251139Y-43400000D01*
G37*
G36*
X85751139Y-49300000D02*
X85750000Y-49300000D01*
X84550000Y-49300000D01*
X84548860Y-49300000D01*
X84548860Y-47300000D01*
X84550000Y-47300000D01*
X85750000Y-47300000D01*
X85751139Y-47300000D01*
X85751139Y-49300000D01*
X85751139Y-49300000D01*
G37*
G36*
X86701139Y-69700000D02*
X86700000Y-69700000D01*
X84500000Y-69700000D01*
X84498860Y-69700000D01*
X84498860Y-67500000D01*
X84500000Y-67500000D01*
X86700000Y-67500000D01*
X86701139Y-67500000D01*
X86701139Y-69700000D01*
X86701139Y-69700000D01*
G37*
G36*
X86751139Y-41200000D02*
X86750000Y-41200000D01*
X85950000Y-41200000D01*
X85948860Y-41200000D01*
X85948860Y-40000000D01*
X85950000Y-40000000D01*
X86750000Y-40000000D01*
X86751139Y-40000000D01*
X86751139Y-41200000D01*
X86751139Y-41200000D01*
G37*
G36*
X86751139Y-43400000D02*
X86750000Y-43400000D01*
X85950000Y-43400000D01*
X85948860Y-43400000D01*
X85948860Y-42200000D01*
X85950000Y-42200000D01*
X86750000Y-42200000D01*
X86751139Y-42200000D01*
X86751139Y-43400000D01*
X86751139Y-43400000D01*
G37*
G36*
X86868739Y-58367600D02*
X86867600Y-58367600D01*
X84332400Y-58367600D01*
X84331260Y-58367600D01*
X84331260Y-55832400D01*
X84332400Y-55832400D01*
X86867600Y-55832400D01*
X86868739Y-55832400D01*
X86868739Y-58367600D01*
X86868739Y-58367600D01*
G37*
G36*
X87116139Y-31165000D02*
X87115000Y-31165000D01*
X85215000Y-31165000D01*
X85214999Y-31165000D01*
X85213860Y-31165200D01*
X85213860Y-31151976D01*
X85213860Y-30453023D01*
X85213860Y-30426976D01*
X85213860Y-30253023D01*
X85213860Y-30226976D01*
X85213860Y-29653023D01*
X85213860Y-29626976D01*
X85213860Y-29453023D01*
X85213860Y-29426976D01*
X85213860Y-28853023D01*
X85213860Y-28826976D01*
X85213860Y-28653023D01*
X85213860Y-28626976D01*
X85213860Y-28053023D01*
X85213860Y-28026976D01*
X85213860Y-27853023D01*
X85213860Y-27826976D01*
X85213860Y-27253023D01*
X85213860Y-27226976D01*
X85213860Y-27053023D01*
X85213860Y-27026976D01*
X85213860Y-26453023D01*
X85213860Y-26426976D01*
X85213860Y-26253023D01*
X85213860Y-26226976D01*
X85213860Y-25653023D01*
X85213860Y-25626976D01*
X85213860Y-25453023D01*
X85213860Y-25426976D01*
X85213860Y-24728023D01*
X85213860Y-24714798D01*
X85215000Y-24715000D01*
X87115000Y-24715000D01*
X87116139Y-24715000D01*
X87116139Y-25426976D01*
X87116139Y-25453023D01*
X87116139Y-25626976D01*
X87116139Y-25653023D01*
X87116139Y-26226976D01*
X87116139Y-26253023D01*
X87116139Y-26426976D01*
X87116139Y-26453023D01*
X87116139Y-27026976D01*
X87116139Y-27053023D01*
X87116139Y-27226976D01*
X87116139Y-27253023D01*
X87116139Y-27826976D01*
X87116139Y-27853023D01*
X87116139Y-28026976D01*
X87116139Y-28053023D01*
X87116139Y-28626976D01*
X87116139Y-28653023D01*
X87116139Y-28826976D01*
X87116139Y-28853023D01*
X87116139Y-29426976D01*
X87116139Y-29453023D01*
X87116139Y-29626976D01*
X87116139Y-29653023D01*
X87116139Y-30226976D01*
X87116139Y-30253023D01*
X87116139Y-30426976D01*
X87116139Y-30453023D01*
X87116139Y-31165000D01*
X87116139Y-31165000D01*
G37*
G36*
X87917909Y-62344720D02*
X87916770Y-62344720D01*
X86217230Y-62344720D01*
X86216090Y-62344720D01*
X86216090Y-61445280D01*
X86217230Y-61445280D01*
X87916770Y-61445280D01*
X87917909Y-61445280D01*
X87917909Y-62344720D01*
X87917909Y-62344720D01*
G37*
G36*
X87917909Y-63614720D02*
X87916770Y-63614720D01*
X86217230Y-63614720D01*
X86216090Y-63614720D01*
X86216090Y-62715280D01*
X86217230Y-62715280D01*
X87916770Y-62715280D01*
X87917909Y-62715280D01*
X87917909Y-63614720D01*
X87917909Y-63614720D01*
G37*
G36*
X87917909Y-64884720D02*
X87916770Y-64884720D01*
X86217230Y-64884720D01*
X86216090Y-64884720D01*
X86216090Y-63985280D01*
X86217230Y-63985280D01*
X87916770Y-63985280D01*
X87917909Y-63985280D01*
X87917909Y-64884720D01*
X87917909Y-64884720D01*
G37*
G36*
X87917909Y-66154720D02*
X87916770Y-66154720D01*
X86217230Y-66154720D01*
X86216090Y-66154720D01*
X86216090Y-65255280D01*
X86217230Y-65255280D01*
X87916770Y-65255280D01*
X87917909Y-65255280D01*
X87917909Y-66154720D01*
X87917909Y-66154720D01*
G37*
G36*
X88501139Y-30300000D02*
X88500000Y-30300000D01*
X87600000Y-30300000D01*
X87598860Y-30300000D01*
X87598860Y-29500000D01*
X87600000Y-29500000D01*
X88500000Y-29500000D01*
X88501139Y-29500000D01*
X88501139Y-30300000D01*
X88501139Y-30300000D01*
G37*
G36*
X88651139Y-49300000D02*
X88650000Y-49300000D01*
X87450000Y-49300000D01*
X87448860Y-49300000D01*
X87448860Y-47300000D01*
X87450000Y-47300000D01*
X88650000Y-47300000D01*
X88651139Y-47300000D01*
X88651139Y-49300000D01*
X88651139Y-49300000D01*
G37*
G36*
X88701139Y-27800000D02*
X88700000Y-27800000D01*
X87900000Y-27800000D01*
X87898860Y-27800000D01*
X87898860Y-26900000D01*
X87900000Y-26900000D01*
X88700000Y-26900000D01*
X88701139Y-26900000D01*
X88701139Y-27800000D01*
X88701139Y-27800000D01*
G37*
G36*
X88701139Y-28900000D02*
X88700000Y-28900000D01*
X87900000Y-28900000D01*
X87898860Y-28900000D01*
X87898860Y-28000000D01*
X87900000Y-28000000D01*
X88700000Y-28000000D01*
X88701139Y-28000000D01*
X88701139Y-28900000D01*
X88701139Y-28900000D01*
G37*
G36*
X88951139Y-45400000D02*
X88950000Y-45400000D01*
X87950000Y-45400000D01*
X87948860Y-45400000D01*
X87948860Y-43800000D01*
X87950000Y-43800000D01*
X88950000Y-43800000D01*
X88951139Y-43800000D01*
X88951139Y-45400000D01*
X88951139Y-45400000D01*
G37*
G36*
X89526139Y-63500000D02*
X89525000Y-63500000D01*
X88475000Y-63500000D01*
X88473860Y-63500000D01*
X88473860Y-62400000D01*
X88475000Y-62400000D01*
X89525000Y-62400000D01*
X89526139Y-62400000D01*
X89526139Y-63500000D01*
X89526139Y-63500000D01*
G37*
G36*
X89526139Y-65000000D02*
X89525000Y-65000000D01*
X88475000Y-65000000D01*
X88473860Y-65000000D01*
X88473860Y-63900000D01*
X88475000Y-63900000D01*
X89525000Y-63900000D01*
X89526139Y-63900000D01*
X89526139Y-65000000D01*
X89526139Y-65000000D01*
G37*
G36*
X89601139Y-30300000D02*
X89600000Y-30300000D01*
X88700000Y-30300000D01*
X88698860Y-30300000D01*
X88698860Y-29500000D01*
X88700000Y-29500000D01*
X89600000Y-29500000D01*
X89601139Y-29500000D01*
X89601139Y-30300000D01*
X89601139Y-30300000D01*
G37*
G36*
X90200619Y-25748780D02*
X90199480Y-25748780D01*
X89101920Y-25748780D01*
X89100780Y-25748780D01*
X89100780Y-24651220D01*
X89101920Y-24651220D01*
X90199480Y-24651220D01*
X90200619Y-24651220D01*
X90200619Y-25748780D01*
X90200619Y-25748780D01*
G37*
G36*
X90491139Y-23850000D02*
X90490000Y-23850000D01*
X88790000Y-23850000D01*
X88788860Y-23850000D01*
X88788860Y-22438023D01*
X88788860Y-22411976D01*
X88788860Y-21000000D01*
X88790000Y-21000000D01*
X90490000Y-21000000D01*
X90491139Y-21000000D01*
X90491139Y-22411976D01*
X90491139Y-22438023D01*
X90491139Y-23850000D01*
X90491139Y-23850000D01*
G37*
G36*
X90851139Y-45400000D02*
X90850000Y-45400000D01*
X89850000Y-45400000D01*
X89848860Y-45400000D01*
X89848860Y-43800000D01*
X89850000Y-43800000D01*
X90850000Y-43800000D01*
X90851139Y-43800000D01*
X90851139Y-45400000D01*
X90851139Y-45400000D01*
G37*
G36*
X90876139Y-41150000D02*
X90875000Y-41150000D01*
X89325000Y-41150000D01*
X89323860Y-41150000D01*
X89323860Y-39850000D01*
X89325000Y-39850000D01*
X90875000Y-39850000D01*
X90876139Y-39850000D01*
X90876139Y-41150000D01*
X90876139Y-41150000D01*
G37*
G36*
X90876139Y-43150000D02*
X90875000Y-43150000D01*
X89325000Y-43150000D01*
X89323860Y-43150000D01*
X89323860Y-41850000D01*
X89325000Y-41850000D01*
X90875000Y-41850000D01*
X90876139Y-41850000D01*
X90876139Y-43150000D01*
X90876139Y-43150000D01*
G37*
G36*
X91101139Y-63350000D02*
X91100000Y-63350000D01*
X89900000Y-63350000D01*
X89898860Y-63350000D01*
X89898860Y-62550000D01*
X89900000Y-62550000D01*
X91100000Y-62550000D01*
X91101139Y-62550000D01*
X91101139Y-63350000D01*
X91101139Y-63350000D01*
G37*
G36*
X91101139Y-64850000D02*
X91100000Y-64850000D01*
X89900000Y-64850000D01*
X89898860Y-64850000D01*
X89898860Y-64050000D01*
X89900000Y-64050000D01*
X91100000Y-64050000D01*
X91101139Y-64050000D01*
X91101139Y-64850000D01*
X91101139Y-64850000D01*
G37*
G36*
X91699219Y-25748780D02*
X91698080Y-25748780D01*
X90600520Y-25748780D01*
X90599380Y-25748780D01*
X90599380Y-24651220D01*
X90600520Y-24651220D01*
X91698080Y-24651220D01*
X91699219Y-24651220D01*
X91699219Y-25748780D01*
X91699219Y-25748780D01*
G37*
G36*
X91801139Y-26950000D02*
X91800000Y-26950000D01*
X90200000Y-26950000D01*
X90198860Y-26950000D01*
X90198860Y-25950000D01*
X90200000Y-25950000D01*
X91800000Y-25950000D01*
X91801139Y-25950000D01*
X91801139Y-26950000D01*
X91801139Y-26950000D01*
G37*
G36*
X91801139Y-28850000D02*
X91800000Y-28850000D01*
X90200000Y-28850000D01*
X90198860Y-28850000D01*
X90198860Y-27850000D01*
X90200000Y-27850000D01*
X91800000Y-27850000D01*
X91801139Y-27850000D01*
X91801139Y-28850000D01*
X91801139Y-28850000D01*
G37*
G36*
X92626139Y-31200000D02*
X92625000Y-31200000D01*
X91575000Y-31200000D01*
X91573860Y-31200000D01*
X91573860Y-30100000D01*
X91575000Y-30100000D01*
X92625000Y-30100000D01*
X92626139Y-30100000D01*
X92626139Y-31200000D01*
X92626139Y-31200000D01*
G37*
G36*
X92626139Y-32700000D02*
X92625000Y-32700000D01*
X91575000Y-32700000D01*
X91573860Y-32700000D01*
X91573860Y-31600000D01*
X91575000Y-31600000D01*
X92625000Y-31600000D01*
X92626139Y-31600000D01*
X92626139Y-32700000D01*
X92626139Y-32700000D01*
G37*
G36*
X92951139Y-42850000D02*
X92950000Y-42850000D01*
X91650000Y-42850000D01*
X91648860Y-42850000D01*
X91648860Y-40950000D01*
X91650000Y-40950000D01*
X92950000Y-40950000D01*
X92951139Y-40950000D01*
X92951139Y-42850000D01*
X92951139Y-42850000D01*
G37*
G36*
X93451139Y-53850000D02*
X93450000Y-53850000D01*
X91550000Y-53850000D01*
X91548860Y-53850000D01*
X91548860Y-52550000D01*
X91550000Y-52550000D01*
X93450000Y-52550000D01*
X93451139Y-52550000D01*
X93451139Y-53850000D01*
X93451139Y-53850000D01*
G37*
G36*
X93451139Y-56850000D02*
X93450000Y-56850000D01*
X91550000Y-56850000D01*
X91548860Y-56850000D01*
X91548860Y-55550000D01*
X91550000Y-55550000D01*
X93450000Y-55550000D01*
X93451139Y-55550000D01*
X93451139Y-56850000D01*
X93451139Y-56850000D01*
G37*
G36*
X93500769Y-63950180D02*
X93499630Y-63950180D01*
X91500370Y-63950180D01*
X91499230Y-63950180D01*
X91499230Y-62349700D01*
X91500370Y-62349700D01*
X93499630Y-62349700D01*
X93500769Y-62349700D01*
X93500769Y-63950180D01*
X93500769Y-63950180D01*
G37*
G36*
X93500769Y-67450300D02*
X93499630Y-67450300D01*
X91500370Y-67450300D01*
X91499230Y-67450300D01*
X91499230Y-65849820D01*
X91500370Y-65849820D01*
X93499630Y-65849820D01*
X93500769Y-65849820D01*
X93500769Y-67450300D01*
X93500769Y-67450300D01*
G37*
G36*
X93726139Y-50600000D02*
X93725000Y-50600000D01*
X92675000Y-50600000D01*
X92673860Y-50600000D01*
X92673860Y-49500000D01*
X92675000Y-49500000D01*
X93725000Y-49500000D01*
X93726139Y-49500000D01*
X93726139Y-50600000D01*
X93726139Y-50600000D01*
G37*
G36*
X93726139Y-52100000D02*
X93725000Y-52100000D01*
X92675000Y-52100000D01*
X92673860Y-52100000D01*
X92673860Y-51000000D01*
X92675000Y-51000000D01*
X93725000Y-51000000D01*
X93726139Y-51000000D01*
X93726139Y-52100000D01*
X93726139Y-52100000D01*
G37*
G36*
X93750179Y-45180050D02*
X93749040Y-45180050D01*
X92148560Y-45180050D01*
X92147420Y-45180050D01*
X92147420Y-44079950D01*
X92148560Y-44079950D01*
X93749040Y-44079950D01*
X93750179Y-44079950D01*
X93750179Y-45180050D01*
X93750179Y-45180050D01*
G37*
G36*
X93750179Y-47720050D02*
X93749040Y-47720050D01*
X92148560Y-47720050D01*
X92147420Y-47720050D01*
X92147420Y-46619950D01*
X92148560Y-46619950D01*
X93749040Y-46619950D01*
X93750179Y-46619950D01*
X93750179Y-47720050D01*
X93750179Y-47720050D01*
G37*
G36*
X93901139Y-31500000D02*
X93900000Y-31500000D01*
X93100000Y-31500000D01*
X93098860Y-31500000D01*
X93098860Y-30600000D01*
X93100000Y-30600000D01*
X93900000Y-30600000D01*
X93901139Y-30600000D01*
X93901139Y-31500000D01*
X93901139Y-31500000D01*
G37*
G36*
X93901139Y-32600000D02*
X93900000Y-32600000D01*
X93100000Y-32600000D01*
X93098860Y-32600000D01*
X93098860Y-31700000D01*
X93100000Y-31700000D01*
X93900000Y-31700000D01*
X93901139Y-31700000D01*
X93901139Y-32600000D01*
X93901139Y-32600000D01*
G37*
G36*
X94091139Y-23850000D02*
X94090000Y-23850000D01*
X92390000Y-23850000D01*
X92388860Y-23850000D01*
X92388860Y-22438023D01*
X92388860Y-22411976D01*
X92388860Y-21000000D01*
X92390000Y-21000000D01*
X94090000Y-21000000D01*
X94091139Y-21000000D01*
X94091139Y-22411976D01*
X94091139Y-22438023D01*
X94091139Y-23850000D01*
X94091139Y-23850000D01*
G37*
G36*
X94901139Y-62050000D02*
X94900000Y-62050000D01*
X93700000Y-62050000D01*
X93698860Y-62050000D01*
X93698860Y-61250000D01*
X93700000Y-61250000D01*
X94900000Y-61250000D01*
X94901139Y-61250000D01*
X94901139Y-62050000D01*
X94901139Y-62050000D01*
G37*
G36*
X94901139Y-63550000D02*
X94900000Y-63550000D01*
X93700000Y-63550000D01*
X93698860Y-63550000D01*
X93698860Y-62750000D01*
X93700000Y-62750000D01*
X94900000Y-62750000D01*
X94901139Y-62750000D01*
X94901139Y-63550000D01*
X94901139Y-63550000D01*
G37*
G36*
X95201139Y-51000000D02*
X95200000Y-51000000D01*
X94400000Y-51000000D01*
X94398860Y-51000000D01*
X94398860Y-50100000D01*
X94400000Y-50100000D01*
X95200000Y-50100000D01*
X95201139Y-50100000D01*
X95201139Y-51000000D01*
X95201139Y-51000000D01*
G37*
G36*
X95201139Y-52100000D02*
X95200000Y-52100000D01*
X94400000Y-52100000D01*
X94398860Y-52100000D01*
X94398860Y-51200000D01*
X94400000Y-51200000D01*
X95200000Y-51200000D01*
X95201139Y-51200000D01*
X95201139Y-52100000D01*
X95201139Y-52100000D01*
G37*
G36*
X95226139Y-53600000D02*
X95225000Y-53600000D01*
X94175000Y-53600000D01*
X94173860Y-53600000D01*
X94173860Y-52500000D01*
X94175000Y-52500000D01*
X95225000Y-52500000D01*
X95226139Y-52500000D01*
X95226139Y-53600000D01*
X95226139Y-53600000D01*
G37*
G36*
X95226139Y-55100000D02*
X95225000Y-55100000D01*
X94175000Y-55100000D01*
X94173860Y-55100000D01*
X94173860Y-54000000D01*
X94175000Y-54000000D01*
X95225000Y-54000000D01*
X95226139Y-54000000D01*
X95226139Y-55100000D01*
X95226139Y-55100000D01*
G37*
G36*
X95951139Y-42850000D02*
X95950000Y-42850000D01*
X94650000Y-42850000D01*
X94648860Y-42850000D01*
X94648860Y-40950000D01*
X94650000Y-40950000D01*
X95950000Y-40950000D01*
X95951139Y-40950000D01*
X95951139Y-42850000D01*
X95951139Y-42850000D01*
G37*
G36*
X97301139Y-55900000D02*
X97300000Y-55900000D01*
X96400000Y-55900000D01*
X96398860Y-55900000D01*
X96398860Y-55100000D01*
X96400000Y-55100000D01*
X97300000Y-55100000D01*
X97301139Y-55100000D01*
X97301139Y-55900000D01*
X97301139Y-55900000D01*
G37*
G36*
X97543190Y-25406219D02*
X97523551Y-25593081D01*
X97470188Y-25765464D01*
X97468771Y-25768084D01*
X97468754Y-25768140D01*
X97380570Y-25931233D01*
X97380538Y-25931271D01*
X97378159Y-25935672D01*
X97266663Y-26070446D01*
X97262787Y-26073606D01*
X97262386Y-26074092D01*
X97118706Y-26191275D01*
X97118144Y-26191573D01*
X97115986Y-26193334D01*
X96958292Y-26277183D01*
X96955620Y-26277989D01*
X96955001Y-26278319D01*
X96777507Y-26331907D01*
X96776807Y-26331975D01*
X96776634Y-26332028D01*
X96593346Y-26350000D01*
X96592984Y-26350000D01*
X95177016Y-26350000D01*
X95176652Y-26350000D01*
X95162341Y-26349900D01*
X94981169Y-26329578D01*
X94980433Y-26329344D01*
X94979500Y-26329240D01*
X94802771Y-26273179D01*
X94801946Y-26272726D01*
X94798514Y-26271637D01*
X94643622Y-26186484D01*
X94640863Y-26184169D01*
X94640297Y-26183858D01*
X94498267Y-26064680D01*
X94497862Y-26064177D01*
X94494677Y-26061504D01*
X94383921Y-25923751D01*
X94295142Y-25753933D01*
X94243669Y-25579042D01*
X94226808Y-25393779D01*
X94246448Y-25206918D01*
X94299810Y-25034531D01*
X94301235Y-25031895D01*
X94301246Y-25031860D01*
X94389430Y-24868767D01*
X94389455Y-24868736D01*
X94391840Y-24864326D01*
X94503332Y-24729555D01*
X94507220Y-24726383D01*
X94507614Y-24725908D01*
X94651294Y-24608725D01*
X94651842Y-24608433D01*
X94654012Y-24606664D01*
X94811707Y-24522816D01*
X94814385Y-24522007D01*
X94814999Y-24521681D01*
X94992493Y-24468093D01*
X94993181Y-24468025D01*
X94993359Y-24467972D01*
X95176653Y-24450000D01*
X95177016Y-24450000D01*
X96592984Y-24450000D01*
X96593347Y-24450000D01*
X96607658Y-24450100D01*
X96788834Y-24470422D01*
X96789571Y-24470655D01*
X96790500Y-24470760D01*
X96967229Y-24526821D01*
X96968050Y-24527272D01*
X96971485Y-24528362D01*
X97126376Y-24613514D01*
X97129137Y-24615830D01*
X97129703Y-24616142D01*
X97271733Y-24735320D01*
X97272137Y-24735822D01*
X97275323Y-24738496D01*
X97386078Y-24876247D01*
X97474855Y-25046062D01*
X97526330Y-25220957D01*
X97543190Y-25406219D01*
X97543190Y-25406219D01*
G37*
G36*
X97543190Y-27946219D02*
X97523551Y-28133081D01*
X97470188Y-28305464D01*
X97468771Y-28308084D01*
X97468754Y-28308140D01*
X97380570Y-28471233D01*
X97380538Y-28471271D01*
X97378159Y-28475672D01*
X97266663Y-28610446D01*
X97262787Y-28613606D01*
X97262386Y-28614092D01*
X97118706Y-28731275D01*
X97118144Y-28731573D01*
X97115986Y-28733334D01*
X96958292Y-28817183D01*
X96955620Y-28817989D01*
X96955001Y-28818319D01*
X96777507Y-28871907D01*
X96776807Y-28871975D01*
X96776634Y-28872028D01*
X96593346Y-28890000D01*
X96592984Y-28890000D01*
X95177016Y-28890000D01*
X95176652Y-28890000D01*
X95162341Y-28889900D01*
X94981169Y-28869578D01*
X94980433Y-28869344D01*
X94979500Y-28869240D01*
X94802771Y-28813179D01*
X94801946Y-28812726D01*
X94798514Y-28811637D01*
X94643622Y-28726484D01*
X94640863Y-28724169D01*
X94640297Y-28723858D01*
X94498267Y-28604680D01*
X94497862Y-28604177D01*
X94494677Y-28601504D01*
X94383921Y-28463751D01*
X94295142Y-28293933D01*
X94243669Y-28119042D01*
X94226808Y-27933779D01*
X94246448Y-27746918D01*
X94299810Y-27574531D01*
X94301235Y-27571895D01*
X94301246Y-27571860D01*
X94389430Y-27408767D01*
X94389455Y-27408736D01*
X94391840Y-27404326D01*
X94503332Y-27269555D01*
X94507220Y-27266383D01*
X94507614Y-27265908D01*
X94651294Y-27148725D01*
X94651842Y-27148433D01*
X94654012Y-27146664D01*
X94811707Y-27062816D01*
X94814385Y-27062007D01*
X94814999Y-27061681D01*
X94992493Y-27008093D01*
X94993181Y-27008025D01*
X94993359Y-27007972D01*
X95176653Y-26990000D01*
X95177016Y-26990000D01*
X96592984Y-26990000D01*
X96593347Y-26990000D01*
X96607658Y-26990100D01*
X96788834Y-27010422D01*
X96789571Y-27010655D01*
X96790500Y-27010760D01*
X96967229Y-27066821D01*
X96968050Y-27067272D01*
X96971485Y-27068362D01*
X97126376Y-27153514D01*
X97129137Y-27155830D01*
X97129703Y-27156142D01*
X97271733Y-27275320D01*
X97272137Y-27275822D01*
X97275323Y-27278496D01*
X97386078Y-27416247D01*
X97474855Y-27586062D01*
X97526330Y-27760957D01*
X97543190Y-27946219D01*
X97543190Y-27946219D01*
G37*
G36*
X97543190Y-30486219D02*
X97523551Y-30673081D01*
X97470188Y-30845464D01*
X97468771Y-30848084D01*
X97468754Y-30848140D01*
X97380570Y-31011233D01*
X97380538Y-31011271D01*
X97378159Y-31015672D01*
X97266663Y-31150446D01*
X97262787Y-31153606D01*
X97262386Y-31154092D01*
X97118706Y-31271275D01*
X97118144Y-31271573D01*
X97115986Y-31273334D01*
X96958292Y-31357183D01*
X96955620Y-31357989D01*
X96955001Y-31358319D01*
X96777507Y-31411907D01*
X96776807Y-31411975D01*
X96776634Y-31412028D01*
X96593346Y-31430000D01*
X96592984Y-31430000D01*
X95177016Y-31430000D01*
X95176652Y-31430000D01*
X95162341Y-31429900D01*
X94981169Y-31409578D01*
X94980433Y-31409344D01*
X94979500Y-31409240D01*
X94802771Y-31353179D01*
X94801946Y-31352726D01*
X94798514Y-31351637D01*
X94643622Y-31266484D01*
X94640863Y-31264169D01*
X94640297Y-31263858D01*
X94498267Y-31144680D01*
X94497862Y-31144177D01*
X94494677Y-31141504D01*
X94383921Y-31003751D01*
X94295142Y-30833933D01*
X94243669Y-30659042D01*
X94226808Y-30473779D01*
X94246448Y-30286918D01*
X94299810Y-30114531D01*
X94301235Y-30111895D01*
X94301246Y-30111860D01*
X94389430Y-29948767D01*
X94389455Y-29948736D01*
X94391840Y-29944326D01*
X94503332Y-29809555D01*
X94507220Y-29806383D01*
X94507614Y-29805908D01*
X94651294Y-29688725D01*
X94651842Y-29688433D01*
X94654012Y-29686664D01*
X94811707Y-29602816D01*
X94814385Y-29602007D01*
X94814999Y-29601681D01*
X94992493Y-29548093D01*
X94993181Y-29548025D01*
X94993359Y-29547972D01*
X95176653Y-29530000D01*
X95177016Y-29530000D01*
X96592984Y-29530000D01*
X96593347Y-29530000D01*
X96607658Y-29530100D01*
X96788834Y-29550422D01*
X96789571Y-29550655D01*
X96790500Y-29550760D01*
X96967229Y-29606821D01*
X96968050Y-29607272D01*
X96971485Y-29608362D01*
X97126376Y-29693514D01*
X97129137Y-29695830D01*
X97129703Y-29696142D01*
X97271733Y-29815320D01*
X97272137Y-29815822D01*
X97275323Y-29818496D01*
X97386078Y-29956247D01*
X97474855Y-30126062D01*
X97526330Y-30300957D01*
X97543190Y-30486219D01*
X97543190Y-30486219D01*
G37*
G36*
X97543190Y-33026219D02*
X97523551Y-33213081D01*
X97470188Y-33385464D01*
X97468771Y-33388084D01*
X97468754Y-33388140D01*
X97380570Y-33551233D01*
X97380538Y-33551271D01*
X97378159Y-33555672D01*
X97266663Y-33690446D01*
X97262787Y-33693606D01*
X97262386Y-33694092D01*
X97118706Y-33811275D01*
X97118144Y-33811573D01*
X97115986Y-33813334D01*
X96958292Y-33897183D01*
X96955620Y-33897989D01*
X96955001Y-33898319D01*
X96777507Y-33951907D01*
X96776807Y-33951975D01*
X96776634Y-33952028D01*
X96593346Y-33970000D01*
X96592984Y-33970000D01*
X95177016Y-33970000D01*
X95176652Y-33970000D01*
X95162341Y-33969900D01*
X94981169Y-33949578D01*
X94980433Y-33949344D01*
X94979500Y-33949240D01*
X94802771Y-33893179D01*
X94801946Y-33892726D01*
X94798514Y-33891637D01*
X94643622Y-33806484D01*
X94640863Y-33804169D01*
X94640297Y-33803858D01*
X94498267Y-33684680D01*
X94497862Y-33684177D01*
X94494677Y-33681504D01*
X94383921Y-33543751D01*
X94295142Y-33373933D01*
X94243669Y-33199042D01*
X94226808Y-33013779D01*
X94246448Y-32826918D01*
X94299810Y-32654531D01*
X94301235Y-32651895D01*
X94301246Y-32651860D01*
X94389430Y-32488767D01*
X94389455Y-32488736D01*
X94391840Y-32484326D01*
X94503332Y-32349555D01*
X94507220Y-32346383D01*
X94507614Y-32345908D01*
X94651294Y-32228725D01*
X94651842Y-32228433D01*
X94654012Y-32226664D01*
X94811707Y-32142816D01*
X94814385Y-32142007D01*
X94814999Y-32141681D01*
X94992493Y-32088093D01*
X94993181Y-32088025D01*
X94993359Y-32087972D01*
X95176653Y-32070000D01*
X95177016Y-32070000D01*
X96592984Y-32070000D01*
X96593347Y-32070000D01*
X96607658Y-32070100D01*
X96788834Y-32090422D01*
X96789571Y-32090655D01*
X96790500Y-32090760D01*
X96967229Y-32146821D01*
X96968050Y-32147272D01*
X96971485Y-32148362D01*
X97126376Y-32233514D01*
X97129137Y-32235830D01*
X97129703Y-32236142D01*
X97271733Y-32355320D01*
X97272137Y-32355822D01*
X97275323Y-32358496D01*
X97386078Y-32496247D01*
X97474855Y-32666062D01*
X97526330Y-32840957D01*
X97543190Y-33026219D01*
X97543190Y-33026219D01*
G37*
G36*
X97543190Y-35566219D02*
X97523551Y-35753081D01*
X97470188Y-35925464D01*
X97468771Y-35928084D01*
X97468754Y-35928140D01*
X97380570Y-36091233D01*
X97380538Y-36091271D01*
X97378159Y-36095672D01*
X97266663Y-36230446D01*
X97262787Y-36233606D01*
X97262386Y-36234092D01*
X97118706Y-36351275D01*
X97118144Y-36351573D01*
X97115986Y-36353334D01*
X96958292Y-36437183D01*
X96955620Y-36437989D01*
X96955001Y-36438319D01*
X96777507Y-36491907D01*
X96776807Y-36491975D01*
X96776634Y-36492028D01*
X96593346Y-36510000D01*
X96592984Y-36510000D01*
X95177016Y-36510000D01*
X95176652Y-36510000D01*
X95162341Y-36509900D01*
X94981169Y-36489578D01*
X94980433Y-36489344D01*
X94979500Y-36489240D01*
X94802771Y-36433179D01*
X94801946Y-36432726D01*
X94798514Y-36431637D01*
X94643622Y-36346484D01*
X94640863Y-36344169D01*
X94640297Y-36343858D01*
X94498267Y-36224680D01*
X94497862Y-36224177D01*
X94494677Y-36221504D01*
X94383921Y-36083751D01*
X94295142Y-35913933D01*
X94243669Y-35739042D01*
X94226808Y-35553779D01*
X94246448Y-35366918D01*
X94299810Y-35194531D01*
X94301235Y-35191895D01*
X94301246Y-35191860D01*
X94389430Y-35028767D01*
X94389455Y-35028736D01*
X94391840Y-35024326D01*
X94503332Y-34889555D01*
X94507220Y-34886383D01*
X94507614Y-34885908D01*
X94651294Y-34768725D01*
X94651842Y-34768433D01*
X94654012Y-34766664D01*
X94811707Y-34682816D01*
X94814385Y-34682007D01*
X94814999Y-34681681D01*
X94992493Y-34628093D01*
X94993181Y-34628025D01*
X94993359Y-34627972D01*
X95176653Y-34610000D01*
X95177016Y-34610000D01*
X96592984Y-34610000D01*
X96593347Y-34610000D01*
X96607658Y-34610100D01*
X96788834Y-34630422D01*
X96789571Y-34630655D01*
X96790500Y-34630760D01*
X96967229Y-34686821D01*
X96968050Y-34687272D01*
X96971485Y-34688362D01*
X97126376Y-34773514D01*
X97129137Y-34775830D01*
X97129703Y-34776142D01*
X97271733Y-34895320D01*
X97272137Y-34895822D01*
X97275323Y-34898496D01*
X97386078Y-35036247D01*
X97474855Y-35206062D01*
X97526330Y-35380957D01*
X97543190Y-35566219D01*
X97543190Y-35566219D01*
G37*
G36*
X98101139Y-50000000D02*
X98100000Y-50000000D01*
X97200000Y-50000000D01*
X97198860Y-50000000D01*
X97198860Y-49200000D01*
X97200000Y-49200000D01*
X98100000Y-49200000D01*
X98101139Y-49200000D01*
X98101139Y-50000000D01*
X98101139Y-50000000D01*
G37*
G36*
X98401139Y-55900000D02*
X98400000Y-55900000D01*
X97500000Y-55900000D01*
X97498860Y-55900000D01*
X97498860Y-55100000D01*
X97500000Y-55100000D01*
X98400000Y-55100000D01*
X98401139Y-55100000D01*
X98401139Y-55900000D01*
X98401139Y-55900000D01*
G37*
G36*
X99201139Y-50000000D02*
X99200000Y-50000000D01*
X98300000Y-50000000D01*
X98298860Y-50000000D01*
X98298860Y-49200000D01*
X98300000Y-49200000D01*
X99200000Y-49200000D01*
X99201139Y-49200000D01*
X99201139Y-50000000D01*
X99201139Y-50000000D01*
G37*
G36*
X99902762Y-53251681D02*
X99896383Y-53312380D01*
X99880533Y-53363579D01*
X99879116Y-53366199D01*
X99879099Y-53366255D01*
X99851251Y-53417758D01*
X99851217Y-53417798D01*
X99848840Y-53422196D01*
X99818206Y-53459225D01*
X99814333Y-53462383D01*
X99813930Y-53462871D01*
X99768557Y-53499876D01*
X99767998Y-53500172D01*
X99765838Y-53501935D01*
X99720152Y-53526228D01*
X99717480Y-53527034D01*
X99716861Y-53527364D01*
X99660810Y-53544287D01*
X99660107Y-53544355D01*
X99659938Y-53544407D01*
X99602902Y-53550000D01*
X99602540Y-53550000D01*
X99147460Y-53550000D01*
X99147096Y-53550000D01*
X99141860Y-53549963D01*
X99086755Y-53543782D01*
X99086019Y-53543548D01*
X99085086Y-53543444D01*
X99049288Y-53532088D01*
X99024999Y-53527806D01*
X98999348Y-53532329D01*
X98976790Y-53545352D01*
X98961354Y-53563748D01*
X98954776Y-53567546D01*
X98938034Y-53587499D01*
X98929125Y-53611976D01*
X98929125Y-53638023D01*
X98943997Y-53687282D01*
X98944134Y-53688685D01*
X98944287Y-53689190D01*
X98950000Y-53747460D01*
X98950000Y-53748503D01*
X98951139Y-53760120D01*
X98951139Y-54189879D01*
X98951102Y-54195115D01*
X98949982Y-54205097D01*
X98949971Y-54206729D01*
X98943444Y-54264914D01*
X98943179Y-54265748D01*
X98942944Y-54267846D01*
X98927017Y-54318052D01*
X98926003Y-54319895D01*
X98925741Y-54320723D01*
X98897534Y-54372030D01*
X98896980Y-54372689D01*
X98894467Y-54377262D01*
X98864164Y-54413376D01*
X98860097Y-54416645D01*
X98859899Y-54416882D01*
X98814269Y-54453569D01*
X98813994Y-54453712D01*
X98811499Y-54455719D01*
X98764825Y-54480120D01*
X98705380Y-54497615D01*
X98647381Y-54502894D01*
X98591311Y-54497000D01*
X98530333Y-54478125D01*
X98485630Y-54453954D01*
X98482590Y-54451439D01*
X98482242Y-54451251D01*
X98448011Y-54422933D01*
X98425852Y-54410140D01*
X98400200Y-54405617D01*
X98374549Y-54410140D01*
X98352331Y-54422966D01*
X98314269Y-54453569D01*
X98313994Y-54453712D01*
X98311499Y-54455719D01*
X98264825Y-54480120D01*
X98205380Y-54497615D01*
X98147381Y-54502894D01*
X98091311Y-54497000D01*
X98030333Y-54478125D01*
X97985630Y-54453954D01*
X97982590Y-54451439D01*
X97982242Y-54451251D01*
X97948011Y-54422933D01*
X97925852Y-54410140D01*
X97900200Y-54405617D01*
X97874549Y-54410140D01*
X97852331Y-54422966D01*
X97814269Y-54453569D01*
X97813994Y-54453712D01*
X97811499Y-54455719D01*
X97764825Y-54480120D01*
X97705380Y-54497615D01*
X97647381Y-54502894D01*
X97591311Y-54497000D01*
X97530333Y-54478125D01*
X97485630Y-54453954D01*
X97482590Y-54451439D01*
X97482242Y-54451251D01*
X97448011Y-54422933D01*
X97425852Y-54410140D01*
X97400200Y-54405617D01*
X97374549Y-54410140D01*
X97352331Y-54422966D01*
X97314269Y-54453569D01*
X97313994Y-54453712D01*
X97311499Y-54455719D01*
X97264825Y-54480120D01*
X97205380Y-54497615D01*
X97147381Y-54502894D01*
X97091311Y-54497000D01*
X97030333Y-54478125D01*
X96985630Y-54453954D01*
X96982590Y-54451439D01*
X96982242Y-54451251D01*
X96937129Y-54413930D01*
X96936880Y-54413624D01*
X96933561Y-54410879D01*
X96902606Y-54372924D01*
X96900583Y-54369120D01*
X96900124Y-54368557D01*
X96872636Y-54316861D01*
X96872426Y-54316165D01*
X96871760Y-54314913D01*
X96856002Y-54262717D01*
X96855864Y-54261310D01*
X96855713Y-54260810D01*
X96850000Y-54202540D01*
X96850000Y-54201505D01*
X96848860Y-54189879D01*
X96848860Y-53760120D01*
X96848897Y-53754884D01*
X96850017Y-53744891D01*
X96850029Y-53743271D01*
X96856556Y-53685086D01*
X96856819Y-53684256D01*
X96857055Y-53682153D01*
X96871053Y-53638023D01*
X96871053Y-53611976D01*
X96862144Y-53587499D01*
X96845402Y-53567546D01*
X96838183Y-53563378D01*
X96823209Y-53545532D01*
X96800651Y-53532509D01*
X96774999Y-53527986D01*
X96750483Y-53532308D01*
X96710810Y-53544287D01*
X96710107Y-53544355D01*
X96709938Y-53544407D01*
X96652902Y-53550000D01*
X96652540Y-53550000D01*
X96197460Y-53550000D01*
X96197096Y-53550000D01*
X96191860Y-53549963D01*
X96136754Y-53543782D01*
X96136018Y-53543548D01*
X96135086Y-53543444D01*
X96079277Y-53525741D01*
X96078453Y-53525288D01*
X96075020Y-53524199D01*
X96031294Y-53500160D01*
X96028533Y-53497844D01*
X96027970Y-53497534D01*
X95983118Y-53459899D01*
X95982713Y-53459396D01*
X95979528Y-53456723D01*
X95948261Y-53417835D01*
X95918255Y-53360438D01*
X95902599Y-53307244D01*
X95897236Y-53248317D01*
X95903616Y-53187619D01*
X95919465Y-53136416D01*
X95920889Y-53133780D01*
X95920901Y-53133745D01*
X95948749Y-53082242D01*
X95948775Y-53082209D01*
X95951159Y-53077802D01*
X95984333Y-53037700D01*
X95993242Y-53013224D01*
X95993242Y-52987177D01*
X95984333Y-52962700D01*
X95948261Y-52917835D01*
X95918255Y-52860438D01*
X95902599Y-52807244D01*
X95897236Y-52748317D01*
X95903616Y-52687619D01*
X95919465Y-52636416D01*
X95920889Y-52633780D01*
X95920901Y-52633745D01*
X95948749Y-52582242D01*
X95948775Y-52582209D01*
X95951159Y-52577802D01*
X95984333Y-52537700D01*
X95993242Y-52513224D01*
X95993242Y-52487177D01*
X95984333Y-52462700D01*
X95948261Y-52417835D01*
X95918255Y-52360438D01*
X95902599Y-52307244D01*
X95897236Y-52248317D01*
X95903616Y-52187619D01*
X95919465Y-52136416D01*
X95920889Y-52133780D01*
X95920901Y-52133745D01*
X95948749Y-52082242D01*
X95948775Y-52082209D01*
X95951159Y-52077802D01*
X95984333Y-52037700D01*
X95993242Y-52013224D01*
X95993242Y-51987177D01*
X95984333Y-51962700D01*
X95948261Y-51917835D01*
X95918255Y-51860438D01*
X95902599Y-51807244D01*
X95897236Y-51748317D01*
X95903616Y-51687619D01*
X95919465Y-51636416D01*
X95920889Y-51633780D01*
X95920901Y-51633745D01*
X95948749Y-51582242D01*
X95948775Y-51582209D01*
X95951159Y-51577802D01*
X95981789Y-51540775D01*
X95985676Y-51537604D01*
X95986070Y-51537129D01*
X96031443Y-51500124D01*
X96031988Y-51499833D01*
X96034160Y-51498063D01*
X96079847Y-51473771D01*
X96082525Y-51472962D01*
X96083139Y-51472636D01*
X96139190Y-51455713D01*
X96139883Y-51455644D01*
X96140056Y-51455593D01*
X96197097Y-51450000D01*
X96197460Y-51450000D01*
X96652540Y-51450000D01*
X96652903Y-51450000D01*
X96658139Y-51450037D01*
X96713249Y-51456218D01*
X96713986Y-51456451D01*
X96714914Y-51456556D01*
X96750699Y-51467907D01*
X96775000Y-51472193D01*
X96800651Y-51467669D01*
X96823209Y-51454646D01*
X96838642Y-51436251D01*
X96845222Y-51432453D01*
X96861964Y-51412499D01*
X96870873Y-51388023D01*
X96870873Y-51361976D01*
X96856002Y-51312717D01*
X96855864Y-51311310D01*
X96855713Y-51310810D01*
X96850000Y-51252540D01*
X96850000Y-51251505D01*
X96848860Y-51239879D01*
X96848860Y-50810120D01*
X96848897Y-50804884D01*
X96850017Y-50794891D01*
X96850029Y-50793271D01*
X96856556Y-50735086D01*
X96856819Y-50734256D01*
X96857055Y-50732153D01*
X96872981Y-50681944D01*
X96874002Y-50680086D01*
X96874259Y-50679277D01*
X96902466Y-50627970D01*
X96903007Y-50627324D01*
X96905529Y-50622738D01*
X96905533Y-50622733D01*
X96935835Y-50586623D01*
X96939907Y-50583348D01*
X96940101Y-50583118D01*
X96985731Y-50546431D01*
X96985992Y-50546294D01*
X96988499Y-50544279D01*
X97035174Y-50519879D01*
X97094613Y-50502384D01*
X97152618Y-50497106D01*
X97208692Y-50502999D01*
X97269666Y-50521874D01*
X97314368Y-50546044D01*
X97317410Y-50548561D01*
X97317758Y-50548749D01*
X97351984Y-50577064D01*
X97374146Y-50589858D01*
X97399798Y-50594382D01*
X97425449Y-50589858D01*
X97447682Y-50577022D01*
X97485731Y-50546431D01*
X97485989Y-50546295D01*
X97488498Y-50544279D01*
X97535174Y-50519879D01*
X97594613Y-50502384D01*
X97652618Y-50497106D01*
X97708692Y-50502999D01*
X97769666Y-50521874D01*
X97814368Y-50546044D01*
X97817410Y-50548561D01*
X97817758Y-50548749D01*
X97851984Y-50577064D01*
X97874146Y-50589858D01*
X97899798Y-50594382D01*
X97925449Y-50589858D01*
X97947682Y-50577022D01*
X97985731Y-50546431D01*
X97985989Y-50546295D01*
X97988498Y-50544279D01*
X98035174Y-50519879D01*
X98094613Y-50502384D01*
X98152618Y-50497106D01*
X98208692Y-50502999D01*
X98269666Y-50521874D01*
X98314368Y-50546044D01*
X98317410Y-50548561D01*
X98317758Y-50548749D01*
X98351984Y-50577064D01*
X98374146Y-50589858D01*
X98399798Y-50594382D01*
X98425449Y-50589858D01*
X98447682Y-50577022D01*
X98485731Y-50546431D01*
X98485989Y-50546295D01*
X98488498Y-50544279D01*
X98535174Y-50519879D01*
X98594613Y-50502384D01*
X98652618Y-50497106D01*
X98708692Y-50502999D01*
X98769666Y-50521874D01*
X98814368Y-50546044D01*
X98817411Y-50548561D01*
X98817758Y-50548749D01*
X98862871Y-50586070D01*
X98863117Y-50586372D01*
X98866440Y-50589121D01*
X98897393Y-50627074D01*
X98899416Y-50630879D01*
X98899876Y-50631443D01*
X98927364Y-50683139D01*
X98927575Y-50683838D01*
X98928237Y-50685083D01*
X98943997Y-50737282D01*
X98944134Y-50738685D01*
X98944287Y-50739190D01*
X98950000Y-50797460D01*
X98950000Y-50798503D01*
X98951139Y-50810120D01*
X98951139Y-51239879D01*
X98951102Y-51245115D01*
X98949982Y-51255097D01*
X98949971Y-51256729D01*
X98943444Y-51314914D01*
X98943179Y-51315748D01*
X98942944Y-51317846D01*
X98928945Y-51361976D01*
X98928945Y-51388023D01*
X98937854Y-51412499D01*
X98954596Y-51432453D01*
X98961819Y-51436623D01*
X98976790Y-51454466D01*
X98999348Y-51467489D01*
X99025000Y-51472013D01*
X99049533Y-51467686D01*
X99089190Y-51455713D01*
X99089882Y-51455645D01*
X99090055Y-51455593D01*
X99147097Y-51450000D01*
X99147460Y-51450000D01*
X99602540Y-51450000D01*
X99602903Y-51450000D01*
X99608139Y-51450037D01*
X99663248Y-51456218D01*
X99663985Y-51456451D01*
X99664914Y-51456556D01*
X99720723Y-51474259D01*
X99721544Y-51474710D01*
X99724979Y-51475800D01*
X99768704Y-51499838D01*
X99771467Y-51502156D01*
X99772030Y-51502466D01*
X99816882Y-51540101D01*
X99817284Y-51540601D01*
X99820473Y-51543277D01*
X99851738Y-51582163D01*
X99881743Y-51639558D01*
X99897400Y-51692755D01*
X99902762Y-51751681D01*
X99896383Y-51812380D01*
X99880533Y-51863579D01*
X99879116Y-51866199D01*
X99879099Y-51866255D01*
X99851251Y-51917758D01*
X99851217Y-51917798D01*
X99848840Y-51922196D01*
X99815665Y-51962297D01*
X99806756Y-51986774D01*
X99806756Y-52012821D01*
X99815665Y-52037297D01*
X99851738Y-52082163D01*
X99881743Y-52139558D01*
X99897400Y-52192755D01*
X99902762Y-52251681D01*
X99896383Y-52312380D01*
X99880533Y-52363579D01*
X99879116Y-52366199D01*
X99879099Y-52366255D01*
X99851251Y-52417758D01*
X99851217Y-52417798D01*
X99848840Y-52422196D01*
X99815665Y-52462297D01*
X99806756Y-52486774D01*
X99806756Y-52512821D01*
X99815665Y-52537297D01*
X99851738Y-52582163D01*
X99881743Y-52639558D01*
X99897400Y-52692755D01*
X99902762Y-52751681D01*
X99896383Y-52812380D01*
X99880533Y-52863579D01*
X99879116Y-52866199D01*
X99879099Y-52866255D01*
X99851251Y-52917758D01*
X99851217Y-52917798D01*
X99848840Y-52922196D01*
X99815665Y-52962297D01*
X99806756Y-52986774D01*
X99806756Y-53012821D01*
X99815665Y-53037297D01*
X99851738Y-53082163D01*
X99881743Y-53139558D01*
X99897400Y-53192755D01*
X99902762Y-53251681D01*
X99902762Y-53251681D01*
G37*
G36*
X100252579Y-45180050D02*
X100251440Y-45180050D01*
X98650960Y-45180050D01*
X98649820Y-45180050D01*
X98649820Y-44079950D01*
X98650960Y-44079950D01*
X100251440Y-44079950D01*
X100252579Y-44079950D01*
X100252579Y-45180050D01*
X100252579Y-45180050D01*
G37*
G36*
X100252579Y-47720050D02*
X100251440Y-47720050D01*
X98650960Y-47720050D01*
X98649820Y-47720050D01*
X98649820Y-46619950D01*
X98650960Y-46619950D01*
X100251440Y-46619950D01*
X100252579Y-46619950D01*
X100252579Y-47720050D01*
X100252579Y-47720050D01*
G37*
G36*
X100601139Y-60950000D02*
X100600000Y-60950000D01*
X97800000Y-60950000D01*
X97798860Y-60950000D01*
X97798860Y-59650000D01*
X97800000Y-59650000D01*
X100600000Y-59650000D01*
X100601139Y-59650000D01*
X100601139Y-60950000D01*
X100601139Y-60950000D01*
G37*
G36*
X100601139Y-63950000D02*
X100600000Y-63950000D01*
X97800000Y-63950000D01*
X97798860Y-63950000D01*
X97798860Y-62650000D01*
X97800000Y-62650000D01*
X100600000Y-62650000D01*
X100601139Y-62650000D01*
X100601139Y-63950000D01*
X100601139Y-63950000D01*
G37*
G36*
X101301139Y-54550000D02*
X101300000Y-54550000D01*
X100600000Y-54550000D01*
X100598860Y-54550000D01*
X100598860Y-53738023D01*
X100598860Y-53711976D01*
X100598860Y-53588023D01*
X100598860Y-53561976D01*
X100598860Y-52738023D01*
X100598860Y-52711976D01*
X100598860Y-52688023D01*
X100598860Y-52661976D01*
X100598860Y-51750000D01*
X100600000Y-51750000D01*
X101300000Y-51750000D01*
X101301139Y-51750000D01*
X101301139Y-52661976D01*
X101301139Y-52688023D01*
X101301139Y-52711976D01*
X101301139Y-52738023D01*
X101301139Y-53561976D01*
X101301139Y-53588023D01*
X101301139Y-53711976D01*
X101301139Y-53738023D01*
X101301139Y-54550000D01*
X101301139Y-54550000D01*
G37*
G36*
X102051139Y-45375000D02*
X102050000Y-45375000D01*
X100750000Y-45375000D01*
X100748860Y-45375000D01*
X100748860Y-43825000D01*
X100750000Y-43825000D01*
X102050000Y-43825000D01*
X102051139Y-43825000D01*
X102051139Y-45375000D01*
X102051139Y-45375000D01*
G37*
G36*
X102201139Y-54550000D02*
X102200000Y-54550000D01*
X101500000Y-54550000D01*
X101498860Y-54550000D01*
X101498860Y-53738023D01*
X101498860Y-53711976D01*
X101498860Y-53588023D01*
X101498860Y-53561976D01*
X101498860Y-52738023D01*
X101498860Y-52711976D01*
X101498860Y-52688023D01*
X101498860Y-52661976D01*
X101498860Y-51750000D01*
X101500000Y-51750000D01*
X102200000Y-51750000D01*
X102201139Y-51750000D01*
X102201139Y-52661976D01*
X102201139Y-52688023D01*
X102201139Y-52711976D01*
X102201139Y-52738023D01*
X102201139Y-53561976D01*
X102201139Y-53588023D01*
X102201139Y-53711976D01*
X102201139Y-53738023D01*
X102201139Y-54550000D01*
X102201139Y-54550000D01*
G37*
G36*
X103801139Y-60950000D02*
X103800000Y-60950000D01*
X101000000Y-60950000D01*
X100998860Y-60950000D01*
X100998860Y-59650000D01*
X101000000Y-59650000D01*
X103800000Y-59650000D01*
X103801139Y-59650000D01*
X103801139Y-60950000D01*
X103801139Y-60950000D01*
G37*
G36*
X103801139Y-63950000D02*
X103800000Y-63950000D01*
X101000000Y-63950000D01*
X100998860Y-63950000D01*
X100998860Y-62650000D01*
X101000000Y-62650000D01*
X103800000Y-62650000D01*
X103801139Y-62650000D01*
X103801139Y-63950000D01*
X103801139Y-63950000D01*
G37*
G36*
X104051139Y-45375000D02*
X104050000Y-45375000D01*
X102750000Y-45375000D01*
X102748860Y-45375000D01*
X102748860Y-43825000D01*
X102750000Y-43825000D01*
X104050000Y-43825000D01*
X104051139Y-43825000D01*
X104051139Y-45375000D01*
X104051139Y-45375000D01*
G37*
G36*
X104601139Y-67200000D02*
X104600000Y-67200000D01*
X103700000Y-67200000D01*
X103698860Y-67200000D01*
X103698860Y-66400000D01*
X103700000Y-66400000D01*
X104600000Y-66400000D01*
X104601139Y-66400000D01*
X104601139Y-67200000D01*
X104601139Y-67200000D01*
G37*
G36*
X104868139Y-57096000D02*
X104867000Y-57096000D01*
X103167000Y-57096000D01*
X103165860Y-57096000D01*
X103165860Y-55344023D01*
X103165860Y-55317976D01*
X103165860Y-53566000D01*
X103167000Y-53566000D01*
X104867000Y-53566000D01*
X104868139Y-53566000D01*
X104868139Y-55317976D01*
X104868139Y-55344023D01*
X104868139Y-57096000D01*
X104868139Y-57096000D01*
G37*
G36*
X105701139Y-67200000D02*
X105700000Y-67200000D01*
X104800000Y-67200000D01*
X104798860Y-67200000D01*
X104798860Y-66400000D01*
X104800000Y-66400000D01*
X105700000Y-66400000D01*
X105701139Y-66400000D01*
X105701139Y-67200000D01*
X105701139Y-67200000D01*
G37*
G36*
X106251139Y-49100000D02*
X106250000Y-49100000D01*
X104950000Y-49100000D01*
X104948860Y-49100000D01*
X104948860Y-46300000D01*
X104950000Y-46300000D01*
X106250000Y-46300000D01*
X106251139Y-46300000D01*
X106251139Y-49100000D01*
X106251139Y-49100000D01*
G37*
G36*
X106251139Y-52800000D02*
X106250000Y-52800000D01*
X104950000Y-52800000D01*
X104948860Y-52800000D01*
X104948860Y-50000000D01*
X104950000Y-50000000D01*
X106250000Y-50000000D01*
X106251139Y-50000000D01*
X106251139Y-52800000D01*
X106251139Y-52800000D01*
G37*
G36*
X106826139Y-61775000D02*
X106825000Y-61775000D01*
X104375000Y-61775000D01*
X104373860Y-61775000D01*
X104373860Y-61025000D01*
X104375000Y-61025000D01*
X106825000Y-61025000D01*
X106826139Y-61025000D01*
X106826139Y-61775000D01*
X106826139Y-61775000D01*
G37*
G36*
X106826139Y-63045000D02*
X106825000Y-63045000D01*
X104375000Y-63045000D01*
X104373860Y-63045000D01*
X104373860Y-62295000D01*
X104375000Y-62295000D01*
X106825000Y-62295000D01*
X106826139Y-62295000D01*
X106826139Y-63045000D01*
X106826139Y-63045000D01*
G37*
G36*
X106826139Y-64315000D02*
X106825000Y-64315000D01*
X104375000Y-64315000D01*
X104373860Y-64315000D01*
X104373860Y-63565000D01*
X104375000Y-63565000D01*
X106825000Y-63565000D01*
X106826139Y-63565000D01*
X106826139Y-64315000D01*
X106826139Y-64315000D01*
G37*
G36*
X106826139Y-65585000D02*
X106825000Y-65585000D01*
X104375000Y-65585000D01*
X104373860Y-65585000D01*
X104373860Y-64835000D01*
X104375000Y-64835000D01*
X106825000Y-64835000D01*
X106826139Y-64835000D01*
X106826139Y-65585000D01*
X106826139Y-65585000D01*
G37*
G36*
X109251139Y-49100000D02*
X109250000Y-49100000D01*
X107950000Y-49100000D01*
X107948860Y-49100000D01*
X107948860Y-46300000D01*
X107950000Y-46300000D01*
X109250000Y-46300000D01*
X109251139Y-46300000D01*
X109251139Y-49100000D01*
X109251139Y-49100000D01*
G37*
G36*
X109251139Y-52800000D02*
X109250000Y-52800000D01*
X107950000Y-52800000D01*
X107948860Y-52800000D01*
X107948860Y-50000000D01*
X107950000Y-50000000D01*
X109250000Y-50000000D01*
X109251139Y-50000000D01*
X109251139Y-52800000D01*
X109251139Y-52800000D01*
G37*
G36*
X109843639Y-64907500D02*
X109842500Y-64907500D01*
X108710999Y-64907500D01*
X108636000Y-64907500D01*
X108342500Y-64907500D01*
X108267499Y-64907500D01*
X107136000Y-64907500D01*
X107134860Y-64907500D01*
X107134860Y-64043023D01*
X107134860Y-64016976D01*
X107134860Y-63545523D01*
X107134860Y-63519476D01*
X107134860Y-63090523D01*
X107134860Y-63064476D01*
X107134860Y-62593023D01*
X107134860Y-62566976D01*
X107134860Y-61702500D01*
X107136000Y-61702500D01*
X108267500Y-61702500D01*
X108342500Y-61702500D01*
X108636000Y-61702500D01*
X108711000Y-61702500D01*
X109842500Y-61702500D01*
X109843639Y-61702500D01*
X109843639Y-62566976D01*
X109843639Y-62593023D01*
X109843639Y-63064476D01*
X109843639Y-63090523D01*
X109843639Y-63519476D01*
X109843639Y-63545523D01*
X109843639Y-64016976D01*
X109843639Y-64043023D01*
X109843639Y-64907500D01*
X109843639Y-64907500D01*
G37*
G36*
X110001139Y-67150000D02*
X110000000Y-67150000D01*
X109300000Y-67150000D01*
X109298860Y-67150000D01*
X109298860Y-66250000D01*
X109300000Y-66250000D01*
X110000000Y-66250000D01*
X110001139Y-66250000D01*
X110001139Y-67150000D01*
X110001139Y-67150000D01*
G37*
G36*
X110580139Y-57161000D02*
X110579000Y-57161000D01*
X105419000Y-57161000D01*
X105417860Y-57161000D01*
X105417860Y-53501000D01*
X105419000Y-53501000D01*
X110579000Y-53501000D01*
X110580139Y-53501000D01*
X110580139Y-57161000D01*
X110580139Y-57161000D01*
G37*
G36*
X110901139Y-67150000D02*
X110900000Y-67150000D01*
X110200000Y-67150000D01*
X110198860Y-67150000D01*
X110198860Y-66250000D01*
X110200000Y-66250000D01*
X110900000Y-66250000D01*
X110901139Y-66250000D01*
X110901139Y-67150000D01*
X110901139Y-67150000D01*
G37*
G36*
X112201139Y-66950000D02*
X112200000Y-66950000D01*
X111500000Y-66950000D01*
X111498860Y-66950000D01*
X111498860Y-66050000D01*
X111500000Y-66050000D01*
X112200000Y-66050000D01*
X112201139Y-66050000D01*
X112201139Y-66950000D01*
X112201139Y-66950000D01*
G37*
G36*
X112368739Y-45267600D02*
X112367600Y-45267600D01*
X109832400Y-45267600D01*
X109831260Y-45267600D01*
X109831260Y-42732400D01*
X109832400Y-42732400D01*
X112367600Y-42732400D01*
X112368739Y-42732400D01*
X112368739Y-45267600D01*
X112368739Y-45267600D01*
G37*
G36*
X112501139Y-60400000D02*
X112500000Y-60400000D01*
X111600000Y-60400000D01*
X111598860Y-60400000D01*
X111598860Y-59600000D01*
X111600000Y-59600000D01*
X112500000Y-59600000D01*
X112501139Y-59600000D01*
X112501139Y-60400000D01*
X112501139Y-60400000D01*
G37*
G36*
X112604639Y-61775000D02*
X112603500Y-61775000D01*
X110153500Y-61775000D01*
X110152360Y-61775000D01*
X110152360Y-61025000D01*
X110153500Y-61025000D01*
X112603500Y-61025000D01*
X112604639Y-61025000D01*
X112604639Y-61775000D01*
X112604639Y-61775000D01*
G37*
G36*
X112604639Y-63045000D02*
X112603500Y-63045000D01*
X110153500Y-63045000D01*
X110152360Y-63045000D01*
X110152360Y-62295000D01*
X110153500Y-62295000D01*
X112603500Y-62295000D01*
X112604639Y-62295000D01*
X112604639Y-63045000D01*
X112604639Y-63045000D01*
G37*
G36*
X112604639Y-64315000D02*
X112603500Y-64315000D01*
X110153500Y-64315000D01*
X110152360Y-64315000D01*
X110152360Y-63565000D01*
X110153500Y-63565000D01*
X112603500Y-63565000D01*
X112604639Y-63565000D01*
X112604639Y-64315000D01*
X112604639Y-64315000D01*
G37*
G36*
X112604639Y-65585000D02*
X112603500Y-65585000D01*
X110153500Y-65585000D01*
X110152360Y-65585000D01*
X110152360Y-64835000D01*
X110153500Y-64835000D01*
X112603500Y-64835000D01*
X112604639Y-64835000D01*
X112604639Y-65585000D01*
X112604639Y-65585000D01*
G37*
G36*
X113101139Y-66950000D02*
X113100000Y-66950000D01*
X112400000Y-66950000D01*
X112398860Y-66950000D01*
X112398860Y-66050000D01*
X112400000Y-66050000D01*
X113100000Y-66050000D01*
X113101139Y-66050000D01*
X113101139Y-66950000D01*
X113101139Y-66950000D01*
G37*
G36*
X113601139Y-60400000D02*
X113600000Y-60400000D01*
X112700000Y-60400000D01*
X112698860Y-60400000D01*
X112698860Y-59600000D01*
X112700000Y-59600000D01*
X113600000Y-59600000D01*
X113601139Y-59600000D01*
X113601139Y-60400000D01*
X113601139Y-60400000D01*
G37*
G36*
X114876139Y-63350000D02*
X114875000Y-63350000D01*
X113325000Y-63350000D01*
X113323860Y-63350000D01*
X113323860Y-62050000D01*
X113325000Y-62050000D01*
X114875000Y-62050000D01*
X114876139Y-62050000D01*
X114876139Y-63350000D01*
X114876139Y-63350000D01*
G37*
G36*
X114876139Y-65350000D02*
X114875000Y-65350000D01*
X113325000Y-65350000D01*
X113323860Y-65350000D01*
X113323860Y-64050000D01*
X113325000Y-64050000D01*
X114875000Y-64050000D01*
X114876139Y-64050000D01*
X114876139Y-65350000D01*
X114876139Y-65350000D01*
G37*
G36*
X114901139Y-66750000D02*
X114900000Y-66750000D01*
X114200000Y-66750000D01*
X114198860Y-66750000D01*
X114198860Y-65850000D01*
X114200000Y-65850000D01*
X114900000Y-65850000D01*
X114901139Y-65850000D01*
X114901139Y-66750000D01*
X114901139Y-66750000D01*
G37*
G36*
X115801139Y-66750000D02*
X115800000Y-66750000D01*
X115100000Y-66750000D01*
X115098860Y-66750000D01*
X115098860Y-65850000D01*
X115100000Y-65850000D01*
X115800000Y-65850000D01*
X115801139Y-65850000D01*
X115801139Y-66750000D01*
X115801139Y-66750000D01*
G37*
G36*
X116876139Y-63350000D02*
X116875000Y-63350000D01*
X115325000Y-63350000D01*
X115323860Y-63350000D01*
X115323860Y-62050000D01*
X115325000Y-62050000D01*
X116875000Y-62050000D01*
X116876139Y-62050000D01*
X116876139Y-63350000D01*
X116876139Y-63350000D01*
G37*
G36*
X116876139Y-65350000D02*
X116875000Y-65350000D01*
X115325000Y-65350000D01*
X115323860Y-65350000D01*
X115323860Y-64050000D01*
X115325000Y-64050000D01*
X116875000Y-64050000D01*
X116876139Y-64050000D01*
X116876139Y-65350000D01*
X116876139Y-65350000D01*
G37*
G36*
X119663190Y-22866219D02*
X119643551Y-23053081D01*
X119590188Y-23225464D01*
X119588771Y-23228084D01*
X119588754Y-23228140D01*
X119500570Y-23391233D01*
X119500538Y-23391271D01*
X119498159Y-23395672D01*
X119386663Y-23530446D01*
X119382787Y-23533606D01*
X119382386Y-23534092D01*
X119238706Y-23651275D01*
X119238144Y-23651573D01*
X119235986Y-23653334D01*
X119078292Y-23737183D01*
X119075620Y-23737989D01*
X119075001Y-23738319D01*
X118897507Y-23791907D01*
X118896807Y-23791975D01*
X118896634Y-23792028D01*
X118713346Y-23810000D01*
X118712984Y-23810000D01*
X117297016Y-23810000D01*
X117296652Y-23810000D01*
X117282341Y-23809900D01*
X117101169Y-23789578D01*
X117100433Y-23789344D01*
X117099500Y-23789240D01*
X116922771Y-23733179D01*
X116921946Y-23732726D01*
X116918514Y-23731637D01*
X116763622Y-23646484D01*
X116760863Y-23644169D01*
X116760297Y-23643858D01*
X116618267Y-23524680D01*
X116617862Y-23524177D01*
X116614677Y-23521504D01*
X116503921Y-23383751D01*
X116415142Y-23213933D01*
X116363669Y-23039042D01*
X116346808Y-22853779D01*
X116366448Y-22666918D01*
X116419810Y-22494531D01*
X116421235Y-22491895D01*
X116421246Y-22491860D01*
X116509430Y-22328767D01*
X116509455Y-22328736D01*
X116511840Y-22324326D01*
X116623332Y-22189555D01*
X116627220Y-22186383D01*
X116627614Y-22185908D01*
X116771294Y-22068725D01*
X116771842Y-22068433D01*
X116774012Y-22066664D01*
X116931707Y-21982816D01*
X116934385Y-21982007D01*
X116934999Y-21981681D01*
X117112493Y-21928093D01*
X117113181Y-21928025D01*
X117113359Y-21927972D01*
X117296653Y-21910000D01*
X117297016Y-21910000D01*
X118712984Y-21910000D01*
X118713347Y-21910000D01*
X118727658Y-21910100D01*
X118908834Y-21930422D01*
X118909571Y-21930655D01*
X118910500Y-21930760D01*
X119087229Y-21986821D01*
X119088050Y-21987272D01*
X119091485Y-21988362D01*
X119246376Y-22073514D01*
X119249137Y-22075830D01*
X119249703Y-22076142D01*
X119391733Y-22195320D01*
X119392137Y-22195822D01*
X119395323Y-22198496D01*
X119506078Y-22336247D01*
X119594855Y-22506062D01*
X119646330Y-22680957D01*
X119663190Y-22866219D01*
X119663190Y-22866219D01*
G37*
G36*
X119663190Y-25406219D02*
X119643551Y-25593081D01*
X119590188Y-25765464D01*
X119588771Y-25768084D01*
X119588754Y-25768140D01*
X119500570Y-25931233D01*
X119500538Y-25931271D01*
X119498159Y-25935672D01*
X119386663Y-26070446D01*
X119382787Y-26073606D01*
X119382386Y-26074092D01*
X119238706Y-26191275D01*
X119238144Y-26191573D01*
X119235986Y-26193334D01*
X119078292Y-26277183D01*
X119075620Y-26277989D01*
X119075001Y-26278319D01*
X118897507Y-26331907D01*
X118896807Y-26331975D01*
X118896634Y-26332028D01*
X118713346Y-26350000D01*
X118712984Y-26350000D01*
X117297016Y-26350000D01*
X117296652Y-26350000D01*
X117282341Y-26349900D01*
X117101169Y-26329578D01*
X117100433Y-26329344D01*
X117099500Y-26329240D01*
X116922771Y-26273179D01*
X116921946Y-26272726D01*
X116918514Y-26271637D01*
X116763622Y-26186484D01*
X116760863Y-26184169D01*
X116760297Y-26183858D01*
X116618267Y-26064680D01*
X116617862Y-26064177D01*
X116614677Y-26061504D01*
X116503921Y-25923751D01*
X116415142Y-25753933D01*
X116363669Y-25579042D01*
X116346808Y-25393779D01*
X116366448Y-25206918D01*
X116419810Y-25034531D01*
X116421235Y-25031895D01*
X116421246Y-25031860D01*
X116509430Y-24868767D01*
X116509455Y-24868736D01*
X116511840Y-24864326D01*
X116623332Y-24729555D01*
X116627220Y-24726383D01*
X116627614Y-24725908D01*
X116771294Y-24608725D01*
X116771842Y-24608433D01*
X116774012Y-24606664D01*
X116931707Y-24522816D01*
X116934385Y-24522007D01*
X116934999Y-24521681D01*
X117112493Y-24468093D01*
X117113181Y-24468025D01*
X117113359Y-24467972D01*
X117296653Y-24450000D01*
X117297016Y-24450000D01*
X118712984Y-24450000D01*
X118713347Y-24450000D01*
X118727658Y-24450100D01*
X118908834Y-24470422D01*
X118909571Y-24470655D01*
X118910500Y-24470760D01*
X119087229Y-24526821D01*
X119088050Y-24527272D01*
X119091485Y-24528362D01*
X119246376Y-24613514D01*
X119249137Y-24615830D01*
X119249703Y-24616142D01*
X119391733Y-24735320D01*
X119392137Y-24735822D01*
X119395323Y-24738496D01*
X119506078Y-24876247D01*
X119594855Y-25046062D01*
X119646330Y-25220957D01*
X119663190Y-25406219D01*
X119663190Y-25406219D01*
G37*
G36*
X119663190Y-27946219D02*
X119643551Y-28133081D01*
X119590188Y-28305464D01*
X119588771Y-28308084D01*
X119588754Y-28308140D01*
X119500570Y-28471233D01*
X119500538Y-28471271D01*
X119498159Y-28475672D01*
X119386663Y-28610446D01*
X119382787Y-28613606D01*
X119382386Y-28614092D01*
X119238706Y-28731275D01*
X119238144Y-28731573D01*
X119235986Y-28733334D01*
X119078292Y-28817183D01*
X119075620Y-28817989D01*
X119075001Y-28818319D01*
X118897507Y-28871907D01*
X118896807Y-28871975D01*
X118896634Y-28872028D01*
X118713346Y-28890000D01*
X118712984Y-28890000D01*
X117297016Y-28890000D01*
X117296652Y-28890000D01*
X117282341Y-28889900D01*
X117101169Y-28869578D01*
X117100433Y-28869344D01*
X117099500Y-28869240D01*
X116922771Y-28813179D01*
X116921946Y-28812726D01*
X116918514Y-28811637D01*
X116763622Y-28726484D01*
X116760863Y-28724169D01*
X116760297Y-28723858D01*
X116618267Y-28604680D01*
X116617862Y-28604177D01*
X116614677Y-28601504D01*
X116503921Y-28463751D01*
X116415142Y-28293933D01*
X116363669Y-28119042D01*
X116346808Y-27933779D01*
X116366448Y-27746918D01*
X116419810Y-27574531D01*
X116421235Y-27571895D01*
X116421246Y-27571860D01*
X116509430Y-27408767D01*
X116509455Y-27408736D01*
X116511840Y-27404326D01*
X116623332Y-27269555D01*
X116627220Y-27266383D01*
X116627614Y-27265908D01*
X116771294Y-27148725D01*
X116771842Y-27148433D01*
X116774012Y-27146664D01*
X116931707Y-27062816D01*
X116934385Y-27062007D01*
X116934999Y-27061681D01*
X117112493Y-27008093D01*
X117113181Y-27008025D01*
X117113359Y-27007972D01*
X117296653Y-26990000D01*
X117297016Y-26990000D01*
X118712984Y-26990000D01*
X118713347Y-26990000D01*
X118727658Y-26990100D01*
X118908834Y-27010422D01*
X118909571Y-27010655D01*
X118910500Y-27010760D01*
X119087229Y-27066821D01*
X119088050Y-27067272D01*
X119091485Y-27068362D01*
X119246376Y-27153514D01*
X119249137Y-27155830D01*
X119249703Y-27156142D01*
X119391733Y-27275320D01*
X119392137Y-27275822D01*
X119395323Y-27278496D01*
X119506078Y-27416247D01*
X119594855Y-27586062D01*
X119646330Y-27760957D01*
X119663190Y-27946219D01*
X119663190Y-27946219D01*
G37*
G36*
X119663190Y-30486219D02*
X119643551Y-30673081D01*
X119590188Y-30845464D01*
X119588771Y-30848084D01*
X119588754Y-30848140D01*
X119500570Y-31011233D01*
X119500538Y-31011271D01*
X119498159Y-31015672D01*
X119386663Y-31150446D01*
X119382787Y-31153606D01*
X119382386Y-31154092D01*
X119238706Y-31271275D01*
X119238144Y-31271573D01*
X119235986Y-31273334D01*
X119078292Y-31357183D01*
X119075620Y-31357989D01*
X119075001Y-31358319D01*
X118897507Y-31411907D01*
X118896807Y-31411975D01*
X118896634Y-31412028D01*
X118713346Y-31430000D01*
X118712984Y-31430000D01*
X117297016Y-31430000D01*
X117296652Y-31430000D01*
X117282341Y-31429900D01*
X117101169Y-31409578D01*
X117100433Y-31409344D01*
X117099500Y-31409240D01*
X116922771Y-31353179D01*
X116921946Y-31352726D01*
X116918514Y-31351637D01*
X116763622Y-31266484D01*
X116760863Y-31264169D01*
X116760297Y-31263858D01*
X116618267Y-31144680D01*
X116617862Y-31144177D01*
X116614677Y-31141504D01*
X116503921Y-31003751D01*
X116415142Y-30833933D01*
X116363669Y-30659042D01*
X116346808Y-30473779D01*
X116366448Y-30286918D01*
X116419810Y-30114531D01*
X116421235Y-30111895D01*
X116421246Y-30111860D01*
X116509430Y-29948767D01*
X116509455Y-29948736D01*
X116511840Y-29944326D01*
X116623332Y-29809555D01*
X116627220Y-29806383D01*
X116627614Y-29805908D01*
X116771294Y-29688725D01*
X116771842Y-29688433D01*
X116774012Y-29686664D01*
X116931707Y-29602816D01*
X116934385Y-29602007D01*
X116934999Y-29601681D01*
X117112493Y-29548093D01*
X117113181Y-29548025D01*
X117113359Y-29547972D01*
X117296653Y-29530000D01*
X117297016Y-29530000D01*
X118712984Y-29530000D01*
X118713347Y-29530000D01*
X118727658Y-29530100D01*
X118908834Y-29550422D01*
X118909571Y-29550655D01*
X118910500Y-29550760D01*
X119087229Y-29606821D01*
X119088050Y-29607272D01*
X119091485Y-29608362D01*
X119246376Y-29693514D01*
X119249137Y-29695830D01*
X119249703Y-29696142D01*
X119391733Y-29815320D01*
X119392137Y-29815822D01*
X119395323Y-29818496D01*
X119506078Y-29956247D01*
X119594855Y-30126062D01*
X119646330Y-30300957D01*
X119663190Y-30486219D01*
X119663190Y-30486219D01*
G37*
G36*
X119663190Y-33026219D02*
X119643551Y-33213081D01*
X119590188Y-33385464D01*
X119588771Y-33388084D01*
X119588754Y-33388140D01*
X119500570Y-33551233D01*
X119500538Y-33551271D01*
X119498159Y-33555672D01*
X119386663Y-33690446D01*
X119382787Y-33693606D01*
X119382386Y-33694092D01*
X119238706Y-33811275D01*
X119238144Y-33811573D01*
X119235986Y-33813334D01*
X119078292Y-33897183D01*
X119075620Y-33897989D01*
X119075001Y-33898319D01*
X118897507Y-33951907D01*
X118896807Y-33951975D01*
X118896634Y-33952028D01*
X118713346Y-33970000D01*
X118712984Y-33970000D01*
X117297016Y-33970000D01*
X117296652Y-33970000D01*
X117282341Y-33969900D01*
X117101169Y-33949578D01*
X117100433Y-33949344D01*
X117099500Y-33949240D01*
X116922771Y-33893179D01*
X116921946Y-33892726D01*
X116918514Y-33891637D01*
X116763622Y-33806484D01*
X116760863Y-33804169D01*
X116760297Y-33803858D01*
X116618267Y-33684680D01*
X116617862Y-33684177D01*
X116614677Y-33681504D01*
X116503921Y-33543751D01*
X116415142Y-33373933D01*
X116363669Y-33199042D01*
X116346808Y-33013779D01*
X116366448Y-32826918D01*
X116419810Y-32654531D01*
X116421235Y-32651895D01*
X116421246Y-32651860D01*
X116509430Y-32488767D01*
X116509455Y-32488736D01*
X116511840Y-32484326D01*
X116623332Y-32349555D01*
X116627220Y-32346383D01*
X116627614Y-32345908D01*
X116771294Y-32228725D01*
X116771842Y-32228433D01*
X116774012Y-32226664D01*
X116931707Y-32142816D01*
X116934385Y-32142007D01*
X116934999Y-32141681D01*
X117112493Y-32088093D01*
X117113181Y-32088025D01*
X117113359Y-32087972D01*
X117296653Y-32070000D01*
X117297016Y-32070000D01*
X118712984Y-32070000D01*
X118713347Y-32070000D01*
X118727658Y-32070100D01*
X118908834Y-32090422D01*
X118909571Y-32090655D01*
X118910500Y-32090760D01*
X119087229Y-32146821D01*
X119088050Y-32147272D01*
X119091485Y-32148362D01*
X119246376Y-32233514D01*
X119249137Y-32235830D01*
X119249703Y-32236142D01*
X119391733Y-32355320D01*
X119392137Y-32355822D01*
X119395323Y-32358496D01*
X119506078Y-32496247D01*
X119594855Y-32666062D01*
X119646330Y-32840957D01*
X119663190Y-33026219D01*
X119663190Y-33026219D01*
G37*
G36*
X119663190Y-35566219D02*
X119643551Y-35753081D01*
X119590188Y-35925464D01*
X119588771Y-35928084D01*
X119588754Y-35928140D01*
X119500570Y-36091233D01*
X119500538Y-36091271D01*
X119498159Y-36095672D01*
X119386663Y-36230446D01*
X119382787Y-36233606D01*
X119382386Y-36234092D01*
X119238706Y-36351275D01*
X119238144Y-36351573D01*
X119235986Y-36353334D01*
X119078292Y-36437183D01*
X119075620Y-36437989D01*
X119075001Y-36438319D01*
X118897507Y-36491907D01*
X118896807Y-36491975D01*
X118896634Y-36492028D01*
X118713346Y-36510000D01*
X118712984Y-36510000D01*
X117297016Y-36510000D01*
X117296652Y-36510000D01*
X117282341Y-36509900D01*
X117101169Y-36489578D01*
X117100433Y-36489344D01*
X117099500Y-36489240D01*
X116922771Y-36433179D01*
X116921946Y-36432726D01*
X116918514Y-36431637D01*
X116763622Y-36346484D01*
X116760863Y-36344169D01*
X116760297Y-36343858D01*
X116618267Y-36224680D01*
X116617862Y-36224177D01*
X116614677Y-36221504D01*
X116503921Y-36083751D01*
X116415142Y-35913933D01*
X116363669Y-35739042D01*
X116346808Y-35553779D01*
X116366448Y-35366918D01*
X116419810Y-35194531D01*
X116421235Y-35191895D01*
X116421246Y-35191860D01*
X116509430Y-35028767D01*
X116509455Y-35028736D01*
X116511840Y-35024326D01*
X116623332Y-34889555D01*
X116627220Y-34886383D01*
X116627614Y-34885908D01*
X116771294Y-34768725D01*
X116771842Y-34768433D01*
X116774012Y-34766664D01*
X116931707Y-34682816D01*
X116934385Y-34682007D01*
X116934999Y-34681681D01*
X117112493Y-34628093D01*
X117113181Y-34628025D01*
X117113359Y-34627972D01*
X117296653Y-34610000D01*
X117297016Y-34610000D01*
X118712984Y-34610000D01*
X118713347Y-34610000D01*
X118727658Y-34610100D01*
X118908834Y-34630422D01*
X118909571Y-34630655D01*
X118910500Y-34630760D01*
X119087229Y-34686821D01*
X119088050Y-34687272D01*
X119091485Y-34688362D01*
X119246376Y-34773514D01*
X119249137Y-34775830D01*
X119249703Y-34776142D01*
X119391733Y-34895320D01*
X119392137Y-34895822D01*
X119395323Y-34898496D01*
X119506078Y-35036247D01*
X119594855Y-35206062D01*
X119646330Y-35380957D01*
X119663190Y-35566219D01*
X119663190Y-35566219D01*
G37*
G36*
X120051159Y-49199410D02*
X120050020Y-49199410D01*
X114349980Y-49199410D01*
X114348840Y-49199410D01*
X114348840Y-43999750D01*
X114349980Y-43999750D01*
X120050020Y-43999750D01*
X120051159Y-43999750D01*
X120051159Y-49199410D01*
X120051159Y-49199410D01*
G37*
G36*
X120051159Y-61000250D02*
X120050020Y-61000250D01*
X114349980Y-61000250D01*
X114348840Y-61000250D01*
X114348840Y-55800590D01*
X114349980Y-55800590D01*
X120050020Y-55800590D01*
X120051159Y-55800590D01*
X120051159Y-61000250D01*
X120051159Y-61000250D01*
G37*
G36*
X120568739Y-69467600D02*
X120567600Y-69467600D01*
X118032400Y-69467600D01*
X118031260Y-69467600D01*
X118031260Y-66932400D01*
X118032400Y-66932400D01*
X120567600Y-66932400D01*
X120568739Y-66932400D01*
X120568739Y-69467600D01*
X120568739Y-69467600D01*
G37*
G36*
X124988329Y-25685367D02*
X124513600Y-25969988D01*
X124496858Y-25989941D01*
X124487949Y-26014418D01*
X124487949Y-26040465D01*
X124487949Y-26050000D01*
X124486810Y-26050000D01*
X124399089Y-26050000D01*
X124373438Y-26054523D01*
X124350880Y-26067546D01*
X124185670Y-26166596D01*
X124185670Y-26138023D01*
X124185670Y-26111976D01*
X124176761Y-26087499D01*
X124160019Y-26067546D01*
X124137461Y-26054523D01*
X124111809Y-26050000D01*
X120115190Y-26050000D01*
X120114050Y-26050000D01*
X120114050Y-24750000D01*
X120115190Y-24750000D01*
X124111810Y-24750000D01*
X124137461Y-24745476D01*
X124160019Y-24732453D01*
X124176761Y-24712499D01*
X124185670Y-24688023D01*
X124185670Y-24661976D01*
X124185670Y-24633402D01*
X124350880Y-24732453D01*
X124373438Y-24745476D01*
X124399090Y-24750000D01*
X124486810Y-24750000D01*
X124487949Y-24750000D01*
X124487949Y-24759533D01*
X124487949Y-24785580D01*
X124496858Y-24810056D01*
X124513600Y-24830010D01*
X124988329Y-25114631D01*
X124988329Y-25685367D01*
X124988329Y-25685367D01*
G37*
G36*
X125004839Y-23147160D02*
X125003700Y-23147160D01*
X120131700Y-23147160D01*
X120130560Y-23147160D01*
X120130560Y-21323160D01*
X120131700Y-21323160D01*
X125003700Y-21323160D01*
X125004839Y-21323160D01*
X125004839Y-23147160D01*
X125004839Y-23147160D01*
G37*
G36*
X125004839Y-29471760D02*
X125003700Y-29471760D01*
X120131700Y-29471760D01*
X120130560Y-29471760D01*
X120130560Y-27647760D01*
X120131700Y-27647760D01*
X125003700Y-27647760D01*
X125004839Y-27647760D01*
X125004839Y-29471760D01*
X125004839Y-29471760D01*
G37*
M02*
