%FSLAX46Y46*%
G04 Gerber Fmt 4.6, Leading zero omitted, Abs format (unit mm)*
G04 Created by KiCad (PCBNEW (2014-10-31 BZR 5243)-product) date So 05 Apr 2015 19:44:44 CEST*
%MOMM*%
G01*
G04 APERTURE LIST*
%ADD10C,0.100000*%
%ADD11R,2.032000X2.032000*%
%ADD12O,2.032000X2.032000*%
%ADD13R,0.900000X0.900000*%
%ADD14R,1.200000X1.000000*%
%ADD15C,1.500000*%
%ADD16R,1.000000X1.000000*%
%ADD17R,2.235200X2.235200*%
%ADD18R,1.900000X1.900000*%
%ADD19C,0.889000*%
%ADD20C,0.800000*%
%ADD21C,0.254000*%
G04 APERTURE END LIST*
D10*
D11*
X77600000Y-61700000D03*
D12*
X77600000Y-64240000D03*
D13*
X98350000Y-52050000D03*
X97450000Y-52050000D03*
X98350000Y-52950000D03*
X97450000Y-52950000D03*
D14*
X109092500Y-64257500D03*
X107886000Y-64257500D03*
X107886000Y-62352500D03*
X107886000Y-63305000D03*
X109092500Y-63305000D03*
X109092500Y-62352500D03*
D15*
X77470000Y-40640000D03*
X80010000Y-40640000D03*
X82550000Y-40640000D03*
X77470000Y-43180000D03*
X80010000Y-43180000D03*
X82550000Y-43180000D03*
X77470000Y-45720000D03*
X80010000Y-45720000D03*
X82550000Y-45720000D03*
X77470000Y-48260000D03*
X80010000Y-48260000D03*
X82550000Y-48260000D03*
X77470000Y-50800000D03*
X80010000Y-50800000D03*
X82550000Y-50800000D03*
X77470000Y-53340000D03*
X80010000Y-53340000D03*
X82550000Y-53340000D03*
X77470000Y-55880000D03*
X80010000Y-55880000D03*
X82550000Y-55880000D03*
X77470000Y-58420000D03*
X80010000Y-58420000D03*
X82550000Y-58420000D03*
D16*
X90700000Y-36381000D03*
X91462000Y-36381000D03*
X89938000Y-36381000D03*
X89938000Y-35619000D03*
X91462000Y-35619000D03*
X90700000Y-35619000D03*
X89938000Y-34857000D03*
X91462000Y-34857000D03*
X90700000Y-34857000D03*
X90700000Y-33333000D03*
X91462000Y-33333000D03*
X89938000Y-33333000D03*
X89938000Y-34095000D03*
X91462000Y-34095000D03*
X90700000Y-34095000D03*
X90700000Y-37143000D03*
X91462000Y-37143000D03*
X89938000Y-37143000D03*
X90700000Y-37905000D03*
X91462000Y-37905000D03*
X89938000Y-37905000D03*
X89938000Y-38667000D03*
X91462000Y-38667000D03*
X90700000Y-38667000D03*
D13*
X91750000Y-60650000D03*
X91750000Y-61550000D03*
X90850000Y-60650000D03*
X90850000Y-61550000D03*
D17*
X111100000Y-44000000D03*
D18*
X85600000Y-68600000D03*
D17*
X85600000Y-57100000D03*
X119300000Y-68200000D03*
D19*
X79500000Y-27600000D03*
D20*
X93900000Y-29800000D03*
X98600000Y-36400000D03*
X123000000Y-30100000D03*
X121200000Y-30100000D03*
X115800000Y-27100000D03*
X117400000Y-21200000D03*
X119200000Y-21300000D03*
X114600000Y-23200000D03*
X114400000Y-32200000D03*
X106000000Y-22200000D03*
X75900000Y-25500000D03*
X97300000Y-59400000D03*
X96300000Y-60300000D03*
X102800000Y-52200000D03*
X102800000Y-53200000D03*
X91900000Y-54800000D03*
X93100000Y-54900000D03*
X90700000Y-56200000D03*
X90700000Y-55000000D03*
X92600000Y-48900000D03*
X93900000Y-48900000D03*
X95000000Y-49400000D03*
X100700000Y-48400000D03*
X92182828Y-49960279D03*
X76800000Y-36200000D03*
X76100000Y-30800000D03*
X101900000Y-59100000D03*
X99500000Y-59100000D03*
X98300000Y-59100000D03*
X100600000Y-59100000D03*
X81000000Y-60500000D03*
X79800000Y-60500000D03*
X79600000Y-61600000D03*
X78700000Y-60000000D03*
X79300000Y-62700000D03*
X97600000Y-68600000D03*
X95100000Y-65500000D03*
X96500000Y-68600000D03*
X88400000Y-68400000D03*
X87400000Y-68400000D03*
D19*
X121600000Y-68200000D03*
X121600000Y-66600000D03*
X119300000Y-66100000D03*
X116900000Y-68200000D03*
X87600000Y-57100000D03*
X87500000Y-55800000D03*
X84900000Y-59100000D03*
D20*
X119600000Y-29100000D03*
X116100000Y-24100000D03*
X95100000Y-21600000D03*
X84800164Y-27716176D03*
X93000000Y-29800000D03*
X99400000Y-21500000D03*
X99400000Y-23000000D03*
X95500000Y-45500000D03*
X80000000Y-28872980D03*
X76400000Y-24000000D03*
X75800000Y-28700000D03*
X90400000Y-67400000D03*
X90400000Y-68600000D03*
X94300000Y-45500000D03*
X97200000Y-45000000D03*
X89300000Y-21400000D03*
X84518604Y-29791620D03*
X81500000Y-30500000D03*
X103585734Y-29183627D03*
X79055000Y-36200000D03*
X98500000Y-34600000D03*
X84600000Y-25900000D03*
X89900000Y-24900000D03*
X88200000Y-53700000D03*
X105000000Y-31100000D03*
X88300000Y-52400000D03*
X89500000Y-53900000D03*
X90600000Y-53100000D03*
X103200000Y-31200000D03*
X84587884Y-45009217D03*
X100000000Y-33500000D03*
X86700000Y-41800000D03*
X100300000Y-30200000D03*
X90900000Y-24400000D03*
X80581220Y-25902999D03*
X76000000Y-29700000D03*
X76300000Y-32000000D03*
X102500000Y-24800000D03*
X82800000Y-33700000D03*
X83413998Y-28108380D03*
X84806517Y-31293487D03*
X98100000Y-30000000D03*
X85700000Y-33300000D03*
X100700000Y-25300000D03*
X92711449Y-25569816D03*
X81400000Y-27700000D03*
X92000000Y-24300000D03*
X90135919Y-31635919D03*
X79073943Y-26367234D03*
X112300000Y-28900000D03*
X111300000Y-22800000D03*
X120300000Y-33000000D03*
X113000000Y-23200000D03*
X105300000Y-43200000D03*
X110700000Y-25700000D03*
X79300000Y-21200000D03*
X82350000Y-21500000D03*
X84100000Y-21500000D03*
X115700000Y-30400000D03*
X112200000Y-26200000D03*
X120600000Y-35500000D03*
X110900000Y-60000000D03*
X105400000Y-60200000D03*
X80700000Y-34400000D03*
X95800000Y-38100000D03*
X85200000Y-45800000D03*
X110200000Y-49100000D03*
X110100000Y-50700000D03*
X111500000Y-50700000D03*
X113000000Y-50600000D03*
X113000000Y-49200000D03*
X113000000Y-47700000D03*
X111600000Y-47800000D03*
X111600000Y-49100000D03*
X110100000Y-52100000D03*
X111500000Y-52100000D03*
X113000000Y-52100000D03*
X110200000Y-47800000D03*
X113400000Y-67500000D03*
X90700000Y-51300000D03*
X89900000Y-52000000D03*
X94400000Y-68600000D03*
X92100000Y-68600000D03*
X93200000Y-68600000D03*
X76200000Y-34000000D03*
X78400000Y-22000000D03*
X80700000Y-21600000D03*
X91900000Y-27400000D03*
X88000000Y-26200000D03*
X93600000Y-26500000D03*
D21*
X110200000Y-47800000D02*
X110200000Y-49100000D01*
D10*
G36*
X124530000Y-69530000D02*
X121370133Y-69530000D01*
X121370133Y-35347510D01*
X121253155Y-35064400D01*
X121070133Y-34881059D01*
X121070133Y-32847510D01*
X120953155Y-32564400D01*
X120736739Y-32347607D01*
X120453834Y-32230134D01*
X120147510Y-32229867D01*
X119864400Y-32346845D01*
X119647607Y-32563261D01*
X119530134Y-32846166D01*
X119529867Y-33152490D01*
X119646845Y-33435600D01*
X119863261Y-33652393D01*
X120146166Y-33769866D01*
X120452490Y-33770133D01*
X120735600Y-33653155D01*
X120952393Y-33436739D01*
X121069866Y-33153834D01*
X121070133Y-32847510D01*
X121070133Y-34881059D01*
X121036739Y-34847607D01*
X120753834Y-34730134D01*
X120447510Y-34729867D01*
X120164400Y-34846845D01*
X119947607Y-35063261D01*
X119830134Y-35346166D01*
X119829867Y-35652490D01*
X119946845Y-35935600D01*
X120163261Y-36152393D01*
X120446166Y-36269866D01*
X120752490Y-36270133D01*
X121035600Y-36153155D01*
X121252393Y-35936739D01*
X121369866Y-35653834D01*
X121370133Y-35347510D01*
X121370133Y-69530000D01*
X116470133Y-69530000D01*
X116470133Y-30247510D01*
X116353155Y-29964400D01*
X116136739Y-29747607D01*
X115853834Y-29630134D01*
X115547510Y-29629867D01*
X115264400Y-29746845D01*
X115047607Y-29963261D01*
X114930134Y-30246166D01*
X114929867Y-30552490D01*
X115046845Y-30835600D01*
X115263261Y-31052393D01*
X115546166Y-31169866D01*
X115852490Y-31170133D01*
X116135600Y-31053155D01*
X116352393Y-30836739D01*
X116469866Y-30553834D01*
X116470133Y-30247510D01*
X116470133Y-69530000D01*
X114170133Y-69530000D01*
X114170133Y-67347510D01*
X114053155Y-67064400D01*
X113836739Y-66847607D01*
X113770133Y-66819949D01*
X113770133Y-51947510D01*
X113653155Y-51664400D01*
X113436739Y-51447607D01*
X113201446Y-51349904D01*
X113435600Y-51253155D01*
X113652393Y-51036739D01*
X113769866Y-50753834D01*
X113770133Y-50447510D01*
X113653155Y-50164400D01*
X113436739Y-49947607D01*
X113322157Y-49900028D01*
X113435600Y-49853155D01*
X113652393Y-49636739D01*
X113769866Y-49353834D01*
X113770133Y-49047510D01*
X113653155Y-48764400D01*
X113436739Y-48547607D01*
X113201446Y-48449904D01*
X113435600Y-48353155D01*
X113652393Y-48136739D01*
X113769866Y-47853834D01*
X113770133Y-47547510D01*
X113770133Y-23047510D01*
X113653155Y-22764400D01*
X113436739Y-22547607D01*
X113153834Y-22430134D01*
X112847510Y-22429867D01*
X112564400Y-22546845D01*
X112347607Y-22763261D01*
X112230134Y-23046166D01*
X112229867Y-23352490D01*
X112346845Y-23635600D01*
X112563261Y-23852393D01*
X112846166Y-23969866D01*
X113152490Y-23970133D01*
X113435600Y-23853155D01*
X113652393Y-23636739D01*
X113769866Y-23353834D01*
X113770133Y-23047510D01*
X113770133Y-47547510D01*
X113653155Y-47264400D01*
X113436739Y-47047607D01*
X113153834Y-46930134D01*
X113070133Y-46930061D01*
X113070133Y-28747510D01*
X112970133Y-28505490D01*
X112970133Y-26047510D01*
X112853155Y-25764400D01*
X112636739Y-25547607D01*
X112353834Y-25430134D01*
X112070133Y-25429886D01*
X112070133Y-22647510D01*
X111953155Y-22364400D01*
X111736739Y-22147607D01*
X111453834Y-22030134D01*
X111147510Y-22029867D01*
X110864400Y-22146845D01*
X110647607Y-22363261D01*
X110530134Y-22646166D01*
X110529867Y-22952490D01*
X110646845Y-23235600D01*
X110863261Y-23452393D01*
X111146166Y-23569866D01*
X111452490Y-23570133D01*
X111735600Y-23453155D01*
X111952393Y-23236739D01*
X112069866Y-22953834D01*
X112070133Y-22647510D01*
X112070133Y-25429886D01*
X112047510Y-25429867D01*
X111764400Y-25546845D01*
X111547607Y-25763261D01*
X111470133Y-25949838D01*
X111470133Y-25547510D01*
X111353155Y-25264400D01*
X111136739Y-25047607D01*
X110853834Y-24930134D01*
X110547510Y-24929867D01*
X110264400Y-25046845D01*
X110047607Y-25263261D01*
X109930134Y-25546166D01*
X109929867Y-25852490D01*
X110046845Y-26135600D01*
X110263261Y-26352393D01*
X110546166Y-26469866D01*
X110852490Y-26470133D01*
X111135600Y-26353155D01*
X111352393Y-26136739D01*
X111469866Y-25853834D01*
X111470133Y-25547510D01*
X111470133Y-25949838D01*
X111430134Y-26046166D01*
X111429867Y-26352490D01*
X111546845Y-26635600D01*
X111763261Y-26852393D01*
X112046166Y-26969866D01*
X112352490Y-26970133D01*
X112635600Y-26853155D01*
X112852393Y-26636739D01*
X112969866Y-26353834D01*
X112970133Y-26047510D01*
X112970133Y-28505490D01*
X112953155Y-28464400D01*
X112736739Y-28247607D01*
X112453834Y-28130134D01*
X112147510Y-28129867D01*
X111864400Y-28246845D01*
X111647607Y-28463261D01*
X111530134Y-28746166D01*
X111529867Y-29052490D01*
X111646845Y-29335600D01*
X111863261Y-29552393D01*
X112146166Y-29669866D01*
X112452490Y-29670133D01*
X112735600Y-29553155D01*
X112952393Y-29336739D01*
X113069866Y-29053834D01*
X113070133Y-28747510D01*
X113070133Y-46930061D01*
X112847510Y-46929867D01*
X112587600Y-47037259D01*
X112587600Y-45191197D01*
X112587600Y-45044002D01*
X112587600Y-42808802D01*
X112531271Y-42672811D01*
X112427188Y-42568729D01*
X112291197Y-42512400D01*
X112144002Y-42512400D01*
X109908802Y-42512400D01*
X109772811Y-42568729D01*
X109668729Y-42672812D01*
X109612400Y-42808803D01*
X109612400Y-42955998D01*
X109612400Y-45191198D01*
X109668729Y-45327189D01*
X109772812Y-45431271D01*
X109908803Y-45487600D01*
X110055998Y-45487600D01*
X112291198Y-45487600D01*
X112427189Y-45431271D01*
X112531271Y-45327188D01*
X112587600Y-45191197D01*
X112587600Y-47037259D01*
X112564400Y-47046845D01*
X112347607Y-47263261D01*
X112279317Y-47427719D01*
X112253155Y-47364400D01*
X112036739Y-47147607D01*
X111753834Y-47030134D01*
X111447510Y-47029867D01*
X111164400Y-47146845D01*
X110947607Y-47363261D01*
X110900028Y-47477842D01*
X110853155Y-47364400D01*
X110636739Y-47147607D01*
X110353834Y-47030134D01*
X110047510Y-47029867D01*
X109764400Y-47146845D01*
X109547607Y-47363261D01*
X109430134Y-47646166D01*
X109429867Y-47952490D01*
X109546845Y-48235600D01*
X109703000Y-48392027D01*
X109703000Y-48508138D01*
X109547607Y-48663261D01*
X109430134Y-48946166D01*
X109429867Y-49252490D01*
X109546845Y-49535600D01*
X109763261Y-49752393D01*
X110046166Y-49869866D01*
X110352490Y-49870133D01*
X110635600Y-49753155D01*
X110852393Y-49536739D01*
X110899971Y-49422157D01*
X110946845Y-49535600D01*
X111163261Y-49752393D01*
X111446166Y-49869866D01*
X111752490Y-49870133D01*
X112035600Y-49753155D01*
X112252393Y-49536739D01*
X112279261Y-49472033D01*
X112346845Y-49635600D01*
X112563261Y-49852393D01*
X112677842Y-49899971D01*
X112564400Y-49946845D01*
X112347607Y-50163261D01*
X112230134Y-50446166D01*
X112230130Y-50450694D01*
X112153155Y-50264400D01*
X111936739Y-50047607D01*
X111653834Y-49930134D01*
X111347510Y-49929867D01*
X111064400Y-50046845D01*
X110847607Y-50263261D01*
X110800028Y-50377842D01*
X110753155Y-50264400D01*
X110536739Y-50047607D01*
X110253834Y-49930134D01*
X109947510Y-49929867D01*
X109664400Y-50046845D01*
X109447607Y-50263261D01*
X109330134Y-50546166D01*
X109329867Y-50852490D01*
X109446845Y-51135600D01*
X109663261Y-51352393D01*
X109777842Y-51399971D01*
X109664400Y-51446845D01*
X109447607Y-51663261D01*
X109330134Y-51946166D01*
X109329867Y-52252490D01*
X109446845Y-52535600D01*
X109663261Y-52752393D01*
X109946166Y-52869866D01*
X110252490Y-52870133D01*
X110535600Y-52753155D01*
X110752393Y-52536739D01*
X110799971Y-52422157D01*
X110846845Y-52535600D01*
X111063261Y-52752393D01*
X111346166Y-52869866D01*
X111652490Y-52870133D01*
X111935600Y-52753155D01*
X112152393Y-52536739D01*
X112250095Y-52301446D01*
X112346845Y-52535600D01*
X112563261Y-52752393D01*
X112846166Y-52869866D01*
X113152490Y-52870133D01*
X113435600Y-52753155D01*
X113652393Y-52536739D01*
X113769866Y-52253834D01*
X113770133Y-51947510D01*
X113770133Y-66819949D01*
X113553834Y-66730134D01*
X113247510Y-66729867D01*
X112964400Y-66846845D01*
X112747607Y-67063261D01*
X112630134Y-67346166D01*
X112629867Y-67652490D01*
X112746845Y-67935600D01*
X112963261Y-68152393D01*
X113246166Y-68269866D01*
X113552490Y-68270133D01*
X113835600Y-68153155D01*
X114052393Y-67936739D01*
X114169866Y-67653834D01*
X114170133Y-67347510D01*
X114170133Y-69530000D01*
X111670133Y-69530000D01*
X111670133Y-59847510D01*
X111553155Y-59564400D01*
X111336739Y-59347607D01*
X111053834Y-59230134D01*
X110747510Y-59229867D01*
X110464400Y-59346845D01*
X110247607Y-59563261D01*
X110130134Y-59846166D01*
X110129867Y-60152490D01*
X110246845Y-60435600D01*
X110463261Y-60652393D01*
X110746166Y-60769866D01*
X111052490Y-60770133D01*
X111335600Y-60653155D01*
X111552393Y-60436739D01*
X111669866Y-60153834D01*
X111670133Y-59847510D01*
X111670133Y-69530000D01*
X106170133Y-69530000D01*
X106170133Y-60047510D01*
X106070133Y-59805490D01*
X106070133Y-43047510D01*
X105953155Y-42764400D01*
X105770133Y-42581059D01*
X105770133Y-30947510D01*
X105653155Y-30664400D01*
X105436739Y-30447607D01*
X105153834Y-30330134D01*
X104847510Y-30329867D01*
X104564400Y-30446845D01*
X104355867Y-30655015D01*
X104355867Y-29031137D01*
X104238889Y-28748027D01*
X104022473Y-28531234D01*
X103739568Y-28413761D01*
X103433244Y-28413494D01*
X103270133Y-28480889D01*
X103270133Y-24647510D01*
X103153155Y-24364400D01*
X102936739Y-24147607D01*
X102653834Y-24030134D01*
X102347510Y-24029867D01*
X102064400Y-24146845D01*
X101847607Y-24363261D01*
X101730134Y-24646166D01*
X101729867Y-24952490D01*
X101846845Y-25235600D01*
X102063261Y-25452393D01*
X102346166Y-25569866D01*
X102652490Y-25570133D01*
X102935600Y-25453155D01*
X103152393Y-25236739D01*
X103269866Y-24953834D01*
X103270133Y-24647510D01*
X103270133Y-28480889D01*
X103150134Y-28530472D01*
X102933341Y-28746888D01*
X102815868Y-29029793D01*
X102815601Y-29336117D01*
X102932579Y-29619227D01*
X103148995Y-29836020D01*
X103431900Y-29953493D01*
X103738224Y-29953760D01*
X104021334Y-29836782D01*
X104238127Y-29620366D01*
X104355600Y-29337461D01*
X104355867Y-29031137D01*
X104355867Y-30655015D01*
X104347607Y-30663261D01*
X104230134Y-30946166D01*
X104229867Y-31252490D01*
X104346845Y-31535600D01*
X104563261Y-31752393D01*
X104846166Y-31869866D01*
X105152490Y-31870133D01*
X105435600Y-31753155D01*
X105652393Y-31536739D01*
X105769866Y-31253834D01*
X105770133Y-30947510D01*
X105770133Y-42581059D01*
X105736739Y-42547607D01*
X105453834Y-42430134D01*
X105147510Y-42429867D01*
X104864400Y-42546845D01*
X104647607Y-42763261D01*
X104530134Y-43046166D01*
X104529867Y-43352490D01*
X104646845Y-43635600D01*
X104863261Y-43852393D01*
X105146166Y-43969866D01*
X105452490Y-43970133D01*
X105735600Y-43853155D01*
X105952393Y-43636739D01*
X106069866Y-43353834D01*
X106070133Y-43047510D01*
X106070133Y-59805490D01*
X106053155Y-59764400D01*
X105836739Y-59547607D01*
X105553834Y-59430134D01*
X105247510Y-59429867D01*
X104964400Y-59546845D01*
X104747607Y-59763261D01*
X104630134Y-60046166D01*
X104629867Y-60352490D01*
X104746845Y-60635600D01*
X104963261Y-60852393D01*
X105246166Y-60969866D01*
X105552490Y-60970133D01*
X105835600Y-60853155D01*
X106052393Y-60636739D01*
X106169866Y-60353834D01*
X106170133Y-60047510D01*
X106170133Y-69530000D01*
X103970133Y-69530000D01*
X103970133Y-31047510D01*
X103853155Y-30764400D01*
X103636739Y-30547607D01*
X103353834Y-30430134D01*
X103047510Y-30429867D01*
X102764400Y-30546845D01*
X102547607Y-30763261D01*
X102430134Y-31046166D01*
X102429867Y-31352490D01*
X102546845Y-31635600D01*
X102763261Y-31852393D01*
X103046166Y-31969866D01*
X103352490Y-31970133D01*
X103635600Y-31853155D01*
X103852393Y-31636739D01*
X103969866Y-31353834D01*
X103970133Y-31047510D01*
X103970133Y-69530000D01*
X101470133Y-69530000D01*
X101470133Y-25147510D01*
X101353155Y-24864400D01*
X101136739Y-24647607D01*
X100853834Y-24530134D01*
X100547510Y-24529867D01*
X100264400Y-24646845D01*
X100170133Y-24740948D01*
X100170133Y-22847510D01*
X100053155Y-22564400D01*
X99836739Y-22347607D01*
X99601446Y-22249904D01*
X99835600Y-22153155D01*
X100052393Y-21936739D01*
X100169866Y-21653834D01*
X100170133Y-21347510D01*
X100053155Y-21064400D01*
X99836739Y-20847607D01*
X99553834Y-20730134D01*
X99247510Y-20729867D01*
X98964400Y-20846845D01*
X98747607Y-21063261D01*
X98630134Y-21346166D01*
X98629867Y-21652490D01*
X98746845Y-21935600D01*
X98963261Y-22152393D01*
X99198553Y-22250095D01*
X98964400Y-22346845D01*
X98747607Y-22563261D01*
X98630134Y-22846166D01*
X98629867Y-23152490D01*
X98746845Y-23435600D01*
X98963261Y-23652393D01*
X99246166Y-23769866D01*
X99552490Y-23770133D01*
X99835600Y-23653155D01*
X100052393Y-23436739D01*
X100169866Y-23153834D01*
X100170133Y-22847510D01*
X100170133Y-24740948D01*
X100047607Y-24863261D01*
X99930134Y-25146166D01*
X99929867Y-25452490D01*
X100046845Y-25735600D01*
X100263261Y-25952393D01*
X100546166Y-26069866D01*
X100852490Y-26070133D01*
X101135600Y-25953155D01*
X101352393Y-25736739D01*
X101469866Y-25453834D01*
X101470133Y-25147510D01*
X101470133Y-69530000D01*
X101070133Y-69530000D01*
X101070133Y-30047510D01*
X100953155Y-29764400D01*
X100736739Y-29547607D01*
X100453834Y-29430134D01*
X100147510Y-29429867D01*
X99864400Y-29546845D01*
X99647607Y-29763261D01*
X99530134Y-30046166D01*
X99529867Y-30352490D01*
X99646845Y-30635600D01*
X99863261Y-30852393D01*
X100146166Y-30969866D01*
X100452490Y-30970133D01*
X100735600Y-30853155D01*
X100952393Y-30636739D01*
X101069866Y-30353834D01*
X101070133Y-30047510D01*
X101070133Y-69530000D01*
X100770133Y-69530000D01*
X100770133Y-33347510D01*
X100653155Y-33064400D01*
X100436739Y-32847607D01*
X100153834Y-32730134D01*
X99847510Y-32729867D01*
X99564400Y-32846845D01*
X99347607Y-33063261D01*
X99230134Y-33346166D01*
X99229867Y-33652490D01*
X99346845Y-33935600D01*
X99563261Y-34152393D01*
X99846166Y-34269866D01*
X100152490Y-34270133D01*
X100435600Y-34153155D01*
X100652393Y-33936739D01*
X100769866Y-33653834D01*
X100770133Y-33347510D01*
X100770133Y-69530000D01*
X99270133Y-69530000D01*
X99270133Y-34447510D01*
X99153155Y-34164400D01*
X98936739Y-33947607D01*
X98870133Y-33919949D01*
X98870133Y-29847510D01*
X98753155Y-29564400D01*
X98536739Y-29347607D01*
X98253834Y-29230134D01*
X97947510Y-29229867D01*
X97664400Y-29346845D01*
X97447607Y-29563261D01*
X97330134Y-29846166D01*
X97329867Y-30152490D01*
X97446845Y-30435600D01*
X97663261Y-30652393D01*
X97946166Y-30769866D01*
X98252490Y-30770133D01*
X98535600Y-30653155D01*
X98752393Y-30436739D01*
X98869866Y-30153834D01*
X98870133Y-29847510D01*
X98870133Y-33919949D01*
X98653834Y-33830134D01*
X98347510Y-33829867D01*
X98064400Y-33946845D01*
X97847607Y-34163261D01*
X97730134Y-34446166D01*
X97729867Y-34752490D01*
X97846845Y-35035600D01*
X98063261Y-35252393D01*
X98346166Y-35369866D01*
X98652490Y-35370133D01*
X98935600Y-35253155D01*
X99152393Y-35036739D01*
X99269866Y-34753834D01*
X99270133Y-34447510D01*
X99270133Y-69530000D01*
X97970133Y-69530000D01*
X97970133Y-44847510D01*
X97853155Y-44564400D01*
X97636739Y-44347607D01*
X97353834Y-44230134D01*
X97047510Y-44229867D01*
X96764400Y-44346845D01*
X96570133Y-44540774D01*
X96570133Y-37947510D01*
X96453155Y-37664400D01*
X96236739Y-37447607D01*
X95953834Y-37330134D01*
X95647510Y-37329867D01*
X95364400Y-37446845D01*
X95147607Y-37663261D01*
X95030134Y-37946166D01*
X95029867Y-38252490D01*
X95146845Y-38535600D01*
X95363261Y-38752393D01*
X95646166Y-38869866D01*
X95952490Y-38870133D01*
X96235600Y-38753155D01*
X96452393Y-38536739D01*
X96569866Y-38253834D01*
X96570133Y-37947510D01*
X96570133Y-44540774D01*
X96547607Y-44563261D01*
X96430134Y-44846166D01*
X96429867Y-45152490D01*
X96546845Y-45435600D01*
X96763261Y-45652393D01*
X97046166Y-45769866D01*
X97352490Y-45770133D01*
X97635600Y-45653155D01*
X97852393Y-45436739D01*
X97969866Y-45153834D01*
X97970133Y-44847510D01*
X97970133Y-69530000D01*
X96270133Y-69530000D01*
X96270133Y-45347510D01*
X96153155Y-45064400D01*
X95936739Y-44847607D01*
X95653834Y-44730134D01*
X95347510Y-44729867D01*
X95064400Y-44846845D01*
X94899903Y-45011055D01*
X94736739Y-44847607D01*
X94453834Y-44730134D01*
X94370133Y-44730061D01*
X94370133Y-26347510D01*
X94253155Y-26064400D01*
X94036739Y-25847607D01*
X93753834Y-25730134D01*
X93478722Y-25729894D01*
X93481315Y-25723650D01*
X93481582Y-25417326D01*
X93364604Y-25134216D01*
X93148188Y-24917423D01*
X92865283Y-24799950D01*
X92589312Y-24799709D01*
X92652393Y-24736739D01*
X92769866Y-24453834D01*
X92770133Y-24147510D01*
X92653155Y-23864400D01*
X92436739Y-23647607D01*
X92153834Y-23530134D01*
X91847510Y-23529867D01*
X91564400Y-23646845D01*
X91399990Y-23810968D01*
X91336739Y-23747607D01*
X91053834Y-23630134D01*
X90747510Y-23629867D01*
X90464400Y-23746845D01*
X90247607Y-23963261D01*
X90160008Y-24174221D01*
X90070133Y-24136901D01*
X90070133Y-21247510D01*
X89953155Y-20964400D01*
X89736739Y-20747607D01*
X89453834Y-20630134D01*
X89147510Y-20629867D01*
X88864400Y-20746845D01*
X88647607Y-20963261D01*
X88530134Y-21246166D01*
X88529867Y-21552490D01*
X88646845Y-21835600D01*
X88863261Y-22052393D01*
X89146166Y-22169866D01*
X89452490Y-22170133D01*
X89735600Y-22053155D01*
X89952393Y-21836739D01*
X90069866Y-21553834D01*
X90070133Y-21247510D01*
X90070133Y-24136901D01*
X90053834Y-24130134D01*
X89747510Y-24129867D01*
X89464400Y-24246845D01*
X89247607Y-24463261D01*
X89130134Y-24746166D01*
X89129867Y-25052490D01*
X89246845Y-25335600D01*
X89463261Y-25552393D01*
X89746166Y-25669866D01*
X90052490Y-25670133D01*
X90335600Y-25553155D01*
X90552393Y-25336739D01*
X90639991Y-25125778D01*
X90746166Y-25169866D01*
X91052490Y-25170133D01*
X91335600Y-25053155D01*
X91500009Y-24889031D01*
X91563261Y-24952393D01*
X91846166Y-25069866D01*
X92122136Y-25070106D01*
X92059056Y-25133077D01*
X91941583Y-25415982D01*
X91941316Y-25722306D01*
X92058294Y-26005416D01*
X92274710Y-26222209D01*
X92557615Y-26339682D01*
X92832726Y-26339921D01*
X92830134Y-26346166D01*
X92829867Y-26652490D01*
X92946845Y-26935600D01*
X93163261Y-27152393D01*
X93446166Y-27269866D01*
X93752490Y-27270133D01*
X94035600Y-27153155D01*
X94252393Y-26936739D01*
X94369866Y-26653834D01*
X94370133Y-26347510D01*
X94370133Y-44730061D01*
X94147510Y-44729867D01*
X93864400Y-44846845D01*
X93647607Y-45063261D01*
X93530134Y-45346166D01*
X93529867Y-45652490D01*
X93646845Y-45935600D01*
X93863261Y-46152393D01*
X94146166Y-46269866D01*
X94452490Y-46270133D01*
X94735600Y-46153155D01*
X94900096Y-45988944D01*
X95063261Y-46152393D01*
X95346166Y-46269866D01*
X95652490Y-46270133D01*
X95935600Y-46153155D01*
X96152393Y-45936739D01*
X96269866Y-45653834D01*
X96270133Y-45347510D01*
X96270133Y-69530000D01*
X95170133Y-69530000D01*
X95170133Y-68447510D01*
X95053155Y-68164400D01*
X94836739Y-67947607D01*
X94553834Y-67830134D01*
X94247510Y-67829867D01*
X93964400Y-67946845D01*
X93799903Y-68111055D01*
X93636739Y-67947607D01*
X93353834Y-67830134D01*
X93047510Y-67829867D01*
X92764400Y-67946845D01*
X92670133Y-68040947D01*
X92670133Y-27247510D01*
X92553155Y-26964400D01*
X92336739Y-26747607D01*
X92053834Y-26630134D01*
X91747510Y-26629867D01*
X91464400Y-26746845D01*
X91247607Y-26963261D01*
X91130134Y-27246166D01*
X91129867Y-27552490D01*
X91246845Y-27835600D01*
X91463261Y-28052393D01*
X91746166Y-28169866D01*
X92052490Y-28170133D01*
X92335600Y-28053155D01*
X92552393Y-27836739D01*
X92669866Y-27553834D01*
X92670133Y-27247510D01*
X92670133Y-68040947D01*
X92649990Y-68061055D01*
X92536739Y-67947607D01*
X92253834Y-67830134D01*
X91947510Y-67829867D01*
X91664400Y-67946845D01*
X91470133Y-68140774D01*
X91470133Y-51147510D01*
X91353155Y-50864400D01*
X91136739Y-50647607D01*
X90906052Y-50551816D01*
X90906052Y-31483429D01*
X90789074Y-31200319D01*
X90572658Y-30983526D01*
X90289753Y-30866053D01*
X89983429Y-30865786D01*
X89700319Y-30982764D01*
X89483526Y-31199180D01*
X89366053Y-31482085D01*
X89365786Y-31788409D01*
X89482764Y-32071519D01*
X89699180Y-32288312D01*
X89982085Y-32405785D01*
X90288409Y-32406052D01*
X90571519Y-32289074D01*
X90788312Y-32072658D01*
X90905785Y-31789753D01*
X90906052Y-31483429D01*
X90906052Y-50551816D01*
X90853834Y-50530134D01*
X90547510Y-50529867D01*
X90264400Y-50646845D01*
X90047607Y-50863261D01*
X89930134Y-51146166D01*
X89930060Y-51230026D01*
X89747510Y-51229867D01*
X89464400Y-51346845D01*
X89247607Y-51563261D01*
X89130134Y-51846166D01*
X89129867Y-52152490D01*
X89246845Y-52435600D01*
X89463261Y-52652393D01*
X89746166Y-52769866D01*
X89903283Y-52770002D01*
X89830134Y-52946166D01*
X89829909Y-53203247D01*
X89653834Y-53130134D01*
X89347510Y-53129867D01*
X89064400Y-53246845D01*
X88909707Y-53401268D01*
X88853155Y-53264400D01*
X88669529Y-53080454D01*
X88735600Y-53053155D01*
X88952393Y-52836739D01*
X89069866Y-52553834D01*
X89070133Y-52247510D01*
X88953155Y-51964400D01*
X88770133Y-51781059D01*
X88770133Y-26047510D01*
X88653155Y-25764400D01*
X88436739Y-25547607D01*
X88153834Y-25430134D01*
X87847510Y-25429867D01*
X87564400Y-25546845D01*
X87347607Y-25763261D01*
X87230134Y-26046166D01*
X87229867Y-26352490D01*
X87346845Y-26635600D01*
X87563261Y-26852393D01*
X87846166Y-26969866D01*
X88152490Y-26970133D01*
X88435600Y-26853155D01*
X88652393Y-26636739D01*
X88769866Y-26353834D01*
X88770133Y-26047510D01*
X88770133Y-51781059D01*
X88736739Y-51747607D01*
X88453834Y-51630134D01*
X88147510Y-51629867D01*
X87864400Y-51746845D01*
X87647607Y-51963261D01*
X87530134Y-52246166D01*
X87529867Y-52552490D01*
X87646845Y-52835600D01*
X87830470Y-53019545D01*
X87764400Y-53046845D01*
X87547607Y-53263261D01*
X87470133Y-53449838D01*
X87470133Y-41647510D01*
X87353155Y-41364400D01*
X87136739Y-41147607D01*
X86853834Y-41030134D01*
X86547510Y-41029867D01*
X86470133Y-41061838D01*
X86470133Y-33147510D01*
X86353155Y-32864400D01*
X86136739Y-32647607D01*
X85853834Y-32530134D01*
X85576650Y-32529892D01*
X85576650Y-31140997D01*
X85459672Y-30857887D01*
X85370133Y-30768192D01*
X85370133Y-25747510D01*
X85253155Y-25464400D01*
X85036739Y-25247607D01*
X84870133Y-25178425D01*
X84870133Y-21347510D01*
X84753155Y-21064400D01*
X84536739Y-20847607D01*
X84253834Y-20730134D01*
X83947510Y-20729867D01*
X83664400Y-20846845D01*
X83447607Y-21063261D01*
X83330134Y-21346166D01*
X83329867Y-21652490D01*
X83446845Y-21935600D01*
X83663261Y-22152393D01*
X83946166Y-22269866D01*
X84252490Y-22270133D01*
X84535600Y-22153155D01*
X84752393Y-21936739D01*
X84869866Y-21653834D01*
X84870133Y-21347510D01*
X84870133Y-25178425D01*
X84753834Y-25130134D01*
X84447510Y-25129867D01*
X84164400Y-25246845D01*
X83947607Y-25463261D01*
X83830134Y-25746166D01*
X83829867Y-26052490D01*
X83946845Y-26335600D01*
X84163261Y-26552393D01*
X84446166Y-26669866D01*
X84752490Y-26670133D01*
X85035600Y-26553155D01*
X85252393Y-26336739D01*
X85369866Y-26053834D01*
X85370133Y-25747510D01*
X85370133Y-30768192D01*
X85243256Y-30641094D01*
X84960351Y-30523621D01*
X84763795Y-30523449D01*
X84954204Y-30444775D01*
X85170997Y-30228359D01*
X85288470Y-29945454D01*
X85288737Y-29639130D01*
X85171759Y-29356020D01*
X84955343Y-29139227D01*
X84672438Y-29021754D01*
X84366114Y-29021487D01*
X84184131Y-29096680D01*
X84184131Y-27955890D01*
X84067153Y-27672780D01*
X83850737Y-27455987D01*
X83567832Y-27338514D01*
X83261508Y-27338247D01*
X83120133Y-27396661D01*
X83120133Y-21347510D01*
X83003155Y-21064400D01*
X82786739Y-20847607D01*
X82503834Y-20730134D01*
X82197510Y-20729867D01*
X81914400Y-20846845D01*
X81697607Y-21063261D01*
X81580134Y-21346166D01*
X81579867Y-21652490D01*
X81696845Y-21935600D01*
X81913261Y-22152393D01*
X82196166Y-22269866D01*
X82502490Y-22270133D01*
X82785600Y-22153155D01*
X83002393Y-21936739D01*
X83119866Y-21653834D01*
X83120133Y-21347510D01*
X83120133Y-27396661D01*
X82978398Y-27455225D01*
X82761605Y-27671641D01*
X82644132Y-27954546D01*
X82643865Y-28260870D01*
X82760843Y-28543980D01*
X82977259Y-28760773D01*
X83260164Y-28878246D01*
X83566488Y-28878513D01*
X83849598Y-28761535D01*
X84066391Y-28545119D01*
X84183864Y-28262214D01*
X84184131Y-27955890D01*
X84184131Y-29096680D01*
X84083004Y-29138465D01*
X83866211Y-29354881D01*
X83748738Y-29637786D01*
X83748471Y-29944110D01*
X83865449Y-30227220D01*
X84081865Y-30444013D01*
X84364770Y-30561486D01*
X84561325Y-30561657D01*
X84370917Y-30640332D01*
X84154124Y-30856748D01*
X84036651Y-31139653D01*
X84036384Y-31445977D01*
X84153362Y-31729087D01*
X84369778Y-31945880D01*
X84652683Y-32063353D01*
X84959007Y-32063620D01*
X85242117Y-31946642D01*
X85458910Y-31730226D01*
X85576383Y-31447321D01*
X85576650Y-31140997D01*
X85576650Y-32529892D01*
X85547510Y-32529867D01*
X85264400Y-32646845D01*
X85047607Y-32863261D01*
X84930134Y-33146166D01*
X84929867Y-33452490D01*
X85046845Y-33735600D01*
X85263261Y-33952393D01*
X85546166Y-34069866D01*
X85852490Y-34070133D01*
X86135600Y-33953155D01*
X86352393Y-33736739D01*
X86469866Y-33453834D01*
X86470133Y-33147510D01*
X86470133Y-41061838D01*
X86264400Y-41146845D01*
X86047607Y-41363261D01*
X85930134Y-41646166D01*
X85929867Y-41952490D01*
X86046845Y-42235600D01*
X86263261Y-42452393D01*
X86546166Y-42569866D01*
X86852490Y-42570133D01*
X87135600Y-42453155D01*
X87352393Y-42236739D01*
X87469866Y-41953834D01*
X87470133Y-41647510D01*
X87470133Y-53449838D01*
X87430134Y-53546166D01*
X87429867Y-53852490D01*
X87546845Y-54135600D01*
X87763261Y-54352393D01*
X88046166Y-54469866D01*
X88352490Y-54470133D01*
X88635600Y-54353155D01*
X88790292Y-54198731D01*
X88846845Y-54335600D01*
X89063261Y-54552393D01*
X89346166Y-54669866D01*
X89652490Y-54670133D01*
X89935600Y-54553155D01*
X90152393Y-54336739D01*
X90269866Y-54053834D01*
X90270090Y-53796752D01*
X90446166Y-53869866D01*
X90752490Y-53870133D01*
X91035600Y-53753155D01*
X91252393Y-53536739D01*
X91369866Y-53253834D01*
X91370133Y-52947510D01*
X91253155Y-52664400D01*
X91036739Y-52447607D01*
X90753834Y-52330134D01*
X90596716Y-52329997D01*
X90669866Y-52153834D01*
X90669939Y-52069973D01*
X90852490Y-52070133D01*
X91135600Y-51953155D01*
X91352393Y-51736739D01*
X91469866Y-51453834D01*
X91470133Y-51147510D01*
X91470133Y-68140774D01*
X91447607Y-68163261D01*
X91330134Y-68446166D01*
X91329867Y-68752490D01*
X91446845Y-69035600D01*
X91663261Y-69252393D01*
X91946166Y-69369866D01*
X92252490Y-69370133D01*
X92535600Y-69253155D01*
X92650009Y-69138944D01*
X92763261Y-69252393D01*
X93046166Y-69369866D01*
X93352490Y-69370133D01*
X93635600Y-69253155D01*
X93800096Y-69088944D01*
X93963261Y-69252393D01*
X94246166Y-69369866D01*
X94552490Y-69370133D01*
X94835600Y-69253155D01*
X95052393Y-69036739D01*
X95169866Y-68753834D01*
X95170133Y-68447510D01*
X95170133Y-69530000D01*
X91170133Y-69530000D01*
X91170133Y-68447510D01*
X91053155Y-68164400D01*
X90888944Y-67999903D01*
X91052393Y-67836739D01*
X91169866Y-67553834D01*
X91170133Y-67247510D01*
X91053155Y-66964400D01*
X90836739Y-66747607D01*
X90553834Y-66630134D01*
X90247510Y-66629867D01*
X89964400Y-66746845D01*
X89747607Y-66963261D01*
X89630134Y-67246166D01*
X89629867Y-67552490D01*
X89746845Y-67835600D01*
X89911055Y-68000096D01*
X89747607Y-68163261D01*
X89630134Y-68446166D01*
X89629867Y-68752490D01*
X89746845Y-69035600D01*
X89963261Y-69252393D01*
X90246166Y-69369866D01*
X90552490Y-69370133D01*
X90835600Y-69253155D01*
X91052393Y-69036739D01*
X91169866Y-68753834D01*
X91170133Y-68447510D01*
X91170133Y-69530000D01*
X86920000Y-69530000D01*
X86920000Y-69476402D01*
X86920000Y-67576402D01*
X86863671Y-67440411D01*
X86759588Y-67336329D01*
X86623597Y-67280000D01*
X86476402Y-67280000D01*
X85970133Y-67280000D01*
X85970133Y-45647510D01*
X85853155Y-45364400D01*
X85636739Y-45147607D01*
X85357864Y-45031807D01*
X85358017Y-44856727D01*
X85241039Y-44573617D01*
X85024623Y-44356824D01*
X84741718Y-44239351D01*
X84435394Y-44239084D01*
X84152284Y-44356062D01*
X83935491Y-44572478D01*
X83818018Y-44855383D01*
X83817751Y-45161707D01*
X83934729Y-45444817D01*
X84151145Y-45661610D01*
X84430019Y-45777409D01*
X84429867Y-45952490D01*
X84546845Y-46235600D01*
X84763261Y-46452393D01*
X85046166Y-46569866D01*
X85352490Y-46570133D01*
X85635600Y-46453155D01*
X85852393Y-46236739D01*
X85969866Y-45953834D01*
X85970133Y-45647510D01*
X85970133Y-67280000D01*
X84576402Y-67280000D01*
X84440411Y-67336329D01*
X84336329Y-67440412D01*
X84280000Y-67576403D01*
X84280000Y-67723598D01*
X84280000Y-69530000D01*
X83670194Y-69530000D01*
X83670194Y-58198196D01*
X83670194Y-55658196D01*
X83670194Y-53118196D01*
X83670194Y-50578196D01*
X83670194Y-48038196D01*
X83670194Y-45498196D01*
X83670194Y-42958196D01*
X83670194Y-40418196D01*
X83570133Y-40176030D01*
X83570133Y-33547510D01*
X83453155Y-33264400D01*
X83236739Y-33047607D01*
X82953834Y-32930134D01*
X82647510Y-32929867D01*
X82364400Y-33046845D01*
X82270133Y-33140948D01*
X82270133Y-30347510D01*
X82170133Y-30105490D01*
X82170133Y-27547510D01*
X82053155Y-27264400D01*
X81836739Y-27047607D01*
X81553834Y-26930134D01*
X81351353Y-26929957D01*
X81351353Y-25750509D01*
X81234375Y-25467399D01*
X81017959Y-25250606D01*
X80735054Y-25133133D01*
X80428730Y-25132866D01*
X80145620Y-25249844D01*
X79928827Y-25466260D01*
X79811354Y-25749165D01*
X79811087Y-26055489D01*
X79928065Y-26338599D01*
X80144481Y-26555392D01*
X80427386Y-26672865D01*
X80733710Y-26673132D01*
X81016820Y-26556154D01*
X81233613Y-26339738D01*
X81351086Y-26056833D01*
X81351353Y-25750509D01*
X81351353Y-26929957D01*
X81247510Y-26929867D01*
X80964400Y-27046845D01*
X80747607Y-27263261D01*
X80630134Y-27546166D01*
X80629867Y-27852490D01*
X80746845Y-28135600D01*
X80963261Y-28352393D01*
X81246166Y-28469866D01*
X81552490Y-28470133D01*
X81835600Y-28353155D01*
X82052393Y-28136739D01*
X82169866Y-27853834D01*
X82170133Y-27547510D01*
X82170133Y-30105490D01*
X82153155Y-30064400D01*
X81936739Y-29847607D01*
X81653834Y-29730134D01*
X81347510Y-29729867D01*
X81064400Y-29846845D01*
X80847607Y-30063261D01*
X80770133Y-30249838D01*
X80770133Y-28720490D01*
X80653155Y-28437380D01*
X80436739Y-28220587D01*
X80153834Y-28103114D01*
X79847510Y-28102847D01*
X79844076Y-28104265D01*
X79844076Y-26214744D01*
X79727098Y-25931634D01*
X79510682Y-25714841D01*
X79227777Y-25597368D01*
X78921453Y-25597101D01*
X78638343Y-25714079D01*
X78421550Y-25930495D01*
X78304077Y-26213400D01*
X78303810Y-26519724D01*
X78420788Y-26802834D01*
X78637204Y-27019627D01*
X78920109Y-27137100D01*
X79226433Y-27137367D01*
X79509543Y-27020389D01*
X79726336Y-26803973D01*
X79843809Y-26521068D01*
X79844076Y-26214744D01*
X79844076Y-28104265D01*
X79564400Y-28219825D01*
X79347607Y-28436241D01*
X79230134Y-28719146D01*
X79229867Y-29025470D01*
X79346845Y-29308580D01*
X79563261Y-29525373D01*
X79846166Y-29642846D01*
X80152490Y-29643113D01*
X80435600Y-29526135D01*
X80652393Y-29309719D01*
X80769866Y-29026814D01*
X80770133Y-28720490D01*
X80770133Y-30249838D01*
X80730134Y-30346166D01*
X80729867Y-30652490D01*
X80846845Y-30935600D01*
X81063261Y-31152393D01*
X81346166Y-31269866D01*
X81652490Y-31270133D01*
X81935600Y-31153155D01*
X82152393Y-30936739D01*
X82269866Y-30653834D01*
X82270133Y-30347510D01*
X82270133Y-33140948D01*
X82147607Y-33263261D01*
X82030134Y-33546166D01*
X82029867Y-33852490D01*
X82146845Y-34135600D01*
X82363261Y-34352393D01*
X82646166Y-34469866D01*
X82952490Y-34470133D01*
X83235600Y-34353155D01*
X83452393Y-34136739D01*
X83569866Y-33853834D01*
X83570133Y-33547510D01*
X83570133Y-40176030D01*
X83500043Y-40006400D01*
X83185257Y-39691064D01*
X82773759Y-39520195D01*
X82328196Y-39519806D01*
X81916400Y-39689957D01*
X81601064Y-40004743D01*
X81470133Y-40320059D01*
X81470133Y-34247510D01*
X81353155Y-33964400D01*
X81136739Y-33747607D01*
X80853834Y-33630134D01*
X80547510Y-33629867D01*
X80264400Y-33746845D01*
X80047607Y-33963261D01*
X79930134Y-34246166D01*
X79929867Y-34552490D01*
X80046845Y-34835600D01*
X80263261Y-35052393D01*
X80546166Y-35169866D01*
X80852490Y-35170133D01*
X81135600Y-35053155D01*
X81352393Y-34836739D01*
X81469866Y-34553834D01*
X81470133Y-34247510D01*
X81470133Y-40320059D01*
X81430195Y-40416241D01*
X81429806Y-40861804D01*
X81599957Y-41273600D01*
X81914743Y-41588936D01*
X82326241Y-41759805D01*
X82771804Y-41760194D01*
X83183600Y-41590043D01*
X83498936Y-41275257D01*
X83669805Y-40863759D01*
X83670194Y-40418196D01*
X83670194Y-42958196D01*
X83500043Y-42546400D01*
X83185257Y-42231064D01*
X82773759Y-42060195D01*
X82328196Y-42059806D01*
X81916400Y-42229957D01*
X81601064Y-42544743D01*
X81430195Y-42956241D01*
X81429806Y-43401804D01*
X81599957Y-43813600D01*
X81914743Y-44128936D01*
X82326241Y-44299805D01*
X82771804Y-44300194D01*
X83183600Y-44130043D01*
X83498936Y-43815257D01*
X83669805Y-43403759D01*
X83670194Y-42958196D01*
X83670194Y-45498196D01*
X83500043Y-45086400D01*
X83185257Y-44771064D01*
X82773759Y-44600195D01*
X82328196Y-44599806D01*
X81916400Y-44769957D01*
X81601064Y-45084743D01*
X81430195Y-45496241D01*
X81429806Y-45941804D01*
X81599957Y-46353600D01*
X81914743Y-46668936D01*
X82326241Y-46839805D01*
X82771804Y-46840194D01*
X83183600Y-46670043D01*
X83498936Y-46355257D01*
X83669805Y-45943759D01*
X83670194Y-45498196D01*
X83670194Y-48038196D01*
X83500043Y-47626400D01*
X83185257Y-47311064D01*
X82773759Y-47140195D01*
X82328196Y-47139806D01*
X81916400Y-47309957D01*
X81601064Y-47624743D01*
X81430195Y-48036241D01*
X81429806Y-48481804D01*
X81599957Y-48893600D01*
X81914743Y-49208936D01*
X82326241Y-49379805D01*
X82771804Y-49380194D01*
X83183600Y-49210043D01*
X83498936Y-48895257D01*
X83669805Y-48483759D01*
X83670194Y-48038196D01*
X83670194Y-50578196D01*
X83500043Y-50166400D01*
X83185257Y-49851064D01*
X82773759Y-49680195D01*
X82328196Y-49679806D01*
X81916400Y-49849957D01*
X81601064Y-50164743D01*
X81430195Y-50576241D01*
X81429806Y-51021804D01*
X81599957Y-51433600D01*
X81914743Y-51748936D01*
X82326241Y-51919805D01*
X82771804Y-51920194D01*
X83183600Y-51750043D01*
X83498936Y-51435257D01*
X83669805Y-51023759D01*
X83670194Y-50578196D01*
X83670194Y-53118196D01*
X83500043Y-52706400D01*
X83185257Y-52391064D01*
X82773759Y-52220195D01*
X82328196Y-52219806D01*
X81916400Y-52389957D01*
X81601064Y-52704743D01*
X81430195Y-53116241D01*
X81429806Y-53561804D01*
X81599957Y-53973600D01*
X81914743Y-54288936D01*
X82326241Y-54459805D01*
X82771804Y-54460194D01*
X83183600Y-54290043D01*
X83498936Y-53975257D01*
X83669805Y-53563759D01*
X83670194Y-53118196D01*
X83670194Y-55658196D01*
X83500043Y-55246400D01*
X83185257Y-54931064D01*
X82773759Y-54760195D01*
X82328196Y-54759806D01*
X81916400Y-54929957D01*
X81601064Y-55244743D01*
X81430195Y-55656241D01*
X81429806Y-56101804D01*
X81599957Y-56513600D01*
X81914743Y-56828936D01*
X82326241Y-56999805D01*
X82771804Y-57000194D01*
X83183600Y-56830043D01*
X83498936Y-56515257D01*
X83669805Y-56103759D01*
X83670194Y-55658196D01*
X83670194Y-58198196D01*
X83500043Y-57786400D01*
X83185257Y-57471064D01*
X82773759Y-57300195D01*
X82328196Y-57299806D01*
X81916400Y-57469957D01*
X81601064Y-57784743D01*
X81430195Y-58196241D01*
X81429806Y-58641804D01*
X81599957Y-59053600D01*
X81914743Y-59368936D01*
X82326241Y-59539805D01*
X82771804Y-59540194D01*
X83183600Y-59370043D01*
X83498936Y-59055257D01*
X83669805Y-58643759D01*
X83670194Y-58198196D01*
X83670194Y-69530000D01*
X81130194Y-69530000D01*
X81130194Y-58198196D01*
X81130194Y-55658196D01*
X81130194Y-53118196D01*
X81130194Y-50578196D01*
X81130194Y-48038196D01*
X81130194Y-45498196D01*
X81130194Y-42958196D01*
X81130194Y-40418196D01*
X80960043Y-40006400D01*
X80645257Y-39691064D01*
X80233759Y-39520195D01*
X79825133Y-39519838D01*
X79825133Y-36047510D01*
X79708155Y-35764400D01*
X79491739Y-35547607D01*
X79208834Y-35430134D01*
X78902510Y-35429867D01*
X78619400Y-35546845D01*
X78402607Y-35763261D01*
X78285134Y-36046166D01*
X78284867Y-36352490D01*
X78401845Y-36635600D01*
X78618261Y-36852393D01*
X78901166Y-36969866D01*
X79207490Y-36970133D01*
X79490600Y-36853155D01*
X79707393Y-36636739D01*
X79824866Y-36353834D01*
X79825133Y-36047510D01*
X79825133Y-39519838D01*
X79788196Y-39519806D01*
X79376400Y-39689957D01*
X79061064Y-40004743D01*
X78890195Y-40416241D01*
X78889806Y-40861804D01*
X79059957Y-41273600D01*
X79374743Y-41588936D01*
X79786241Y-41759805D01*
X80231804Y-41760194D01*
X80643600Y-41590043D01*
X80958936Y-41275257D01*
X81129805Y-40863759D01*
X81130194Y-40418196D01*
X81130194Y-42958196D01*
X80960043Y-42546400D01*
X80645257Y-42231064D01*
X80233759Y-42060195D01*
X79788196Y-42059806D01*
X79376400Y-42229957D01*
X79061064Y-42544743D01*
X78890195Y-42956241D01*
X78889806Y-43401804D01*
X79059957Y-43813600D01*
X79374743Y-44128936D01*
X79786241Y-44299805D01*
X80231804Y-44300194D01*
X80643600Y-44130043D01*
X80958936Y-43815257D01*
X81129805Y-43403759D01*
X81130194Y-42958196D01*
X81130194Y-45498196D01*
X80960043Y-45086400D01*
X80645257Y-44771064D01*
X80233759Y-44600195D01*
X79788196Y-44599806D01*
X79376400Y-44769957D01*
X79061064Y-45084743D01*
X78890195Y-45496241D01*
X78889806Y-45941804D01*
X79059957Y-46353600D01*
X79374743Y-46668936D01*
X79786241Y-46839805D01*
X80231804Y-46840194D01*
X80643600Y-46670043D01*
X80958936Y-46355257D01*
X81129805Y-45943759D01*
X81130194Y-45498196D01*
X81130194Y-48038196D01*
X80960043Y-47626400D01*
X80645257Y-47311064D01*
X80233759Y-47140195D01*
X79788196Y-47139806D01*
X79376400Y-47309957D01*
X79061064Y-47624743D01*
X78890195Y-48036241D01*
X78889806Y-48481804D01*
X79059957Y-48893600D01*
X79374743Y-49208936D01*
X79786241Y-49379805D01*
X80231804Y-49380194D01*
X80643600Y-49210043D01*
X80958936Y-48895257D01*
X81129805Y-48483759D01*
X81130194Y-48038196D01*
X81130194Y-50578196D01*
X80960043Y-50166400D01*
X80645257Y-49851064D01*
X80233759Y-49680195D01*
X79788196Y-49679806D01*
X79376400Y-49849957D01*
X79061064Y-50164743D01*
X78890195Y-50576241D01*
X78889806Y-51021804D01*
X79059957Y-51433600D01*
X79374743Y-51748936D01*
X79786241Y-51919805D01*
X80231804Y-51920194D01*
X80643600Y-51750043D01*
X80958936Y-51435257D01*
X81129805Y-51023759D01*
X81130194Y-50578196D01*
X81130194Y-53118196D01*
X80960043Y-52706400D01*
X80645257Y-52391064D01*
X80233759Y-52220195D01*
X79788196Y-52219806D01*
X79376400Y-52389957D01*
X79061064Y-52704743D01*
X78890195Y-53116241D01*
X78889806Y-53561804D01*
X79059957Y-53973600D01*
X79374743Y-54288936D01*
X79786241Y-54459805D01*
X80231804Y-54460194D01*
X80643600Y-54290043D01*
X80958936Y-53975257D01*
X81129805Y-53563759D01*
X81130194Y-53118196D01*
X81130194Y-55658196D01*
X80960043Y-55246400D01*
X80645257Y-54931064D01*
X80233759Y-54760195D01*
X79788196Y-54759806D01*
X79376400Y-54929957D01*
X79061064Y-55244743D01*
X78890195Y-55656241D01*
X78889806Y-56101804D01*
X79059957Y-56513600D01*
X79374743Y-56828936D01*
X79786241Y-56999805D01*
X80231804Y-57000194D01*
X80643600Y-56830043D01*
X80958936Y-56515257D01*
X81129805Y-56103759D01*
X81130194Y-55658196D01*
X81130194Y-58198196D01*
X80960043Y-57786400D01*
X80645257Y-57471064D01*
X80233759Y-57300195D01*
X79788196Y-57299806D01*
X79376400Y-57469957D01*
X79061064Y-57784743D01*
X78890195Y-58196241D01*
X78889806Y-58641804D01*
X79059957Y-59053600D01*
X79374743Y-59368936D01*
X79786241Y-59539805D01*
X80231804Y-59540194D01*
X80643600Y-59370043D01*
X80958936Y-59055257D01*
X81129805Y-58643759D01*
X81130194Y-58198196D01*
X81130194Y-69530000D01*
X78986000Y-69530000D01*
X78986000Y-64267153D01*
X78986000Y-64212847D01*
X78880497Y-63682448D01*
X78590194Y-63247978D01*
X78590194Y-48038196D01*
X78590194Y-45498196D01*
X78420043Y-45086400D01*
X78105257Y-44771064D01*
X77693759Y-44600195D01*
X77248196Y-44599806D01*
X77170133Y-44632061D01*
X77170133Y-23847510D01*
X77053155Y-23564400D01*
X76836739Y-23347607D01*
X76553834Y-23230134D01*
X76247510Y-23229867D01*
X75964400Y-23346845D01*
X75747607Y-23563261D01*
X75630134Y-23846166D01*
X75629867Y-24152490D01*
X75746845Y-24435600D01*
X75963261Y-24652393D01*
X76246166Y-24769866D01*
X76552490Y-24770133D01*
X76835600Y-24653155D01*
X77052393Y-24436739D01*
X77169866Y-24153834D01*
X77170133Y-23847510D01*
X77170133Y-44632061D01*
X77070133Y-44673380D01*
X77070133Y-31847510D01*
X76953155Y-31564400D01*
X76736739Y-31347607D01*
X76453834Y-31230134D01*
X76147510Y-31229867D01*
X75864400Y-31346845D01*
X75647607Y-31563261D01*
X75530134Y-31846166D01*
X75529867Y-32152490D01*
X75646845Y-32435600D01*
X75863261Y-32652393D01*
X76146166Y-32769866D01*
X76452490Y-32770133D01*
X76735600Y-32653155D01*
X76952393Y-32436739D01*
X77069866Y-32153834D01*
X77070133Y-31847510D01*
X77070133Y-44673380D01*
X76836400Y-44769957D01*
X76521064Y-45084743D01*
X76350195Y-45496241D01*
X76349806Y-45941804D01*
X76519957Y-46353600D01*
X76834743Y-46668936D01*
X77246241Y-46839805D01*
X77691804Y-46840194D01*
X78103600Y-46670043D01*
X78418936Y-46355257D01*
X78589805Y-45943759D01*
X78590194Y-45498196D01*
X78590194Y-48038196D01*
X78420043Y-47626400D01*
X78105257Y-47311064D01*
X77693759Y-47140195D01*
X77248196Y-47139806D01*
X76836400Y-47309957D01*
X76521064Y-47624743D01*
X76350195Y-48036241D01*
X76349806Y-48481804D01*
X76519957Y-48893600D01*
X76834743Y-49208936D01*
X77246241Y-49379805D01*
X77691804Y-49380194D01*
X78103600Y-49210043D01*
X78418936Y-48895257D01*
X78589805Y-48483759D01*
X78590194Y-48038196D01*
X78590194Y-63247978D01*
X78580050Y-63232797D01*
X78130399Y-62932350D01*
X77600000Y-62826847D01*
X77069601Y-62932350D01*
X76619950Y-63232797D01*
X76319503Y-63682448D01*
X76214000Y-64212847D01*
X76214000Y-64267153D01*
X76319503Y-64797552D01*
X76619950Y-65247203D01*
X77069601Y-65547650D01*
X77600000Y-65653153D01*
X78130399Y-65547650D01*
X78580050Y-65247203D01*
X78880497Y-64797552D01*
X78986000Y-64267153D01*
X78986000Y-69530000D01*
X75470000Y-69530000D01*
X75470000Y-34249619D01*
X75546845Y-34435600D01*
X75763261Y-34652393D01*
X76046166Y-34769866D01*
X76352490Y-34770133D01*
X76635600Y-34653155D01*
X76852393Y-34436739D01*
X76969866Y-34153834D01*
X76970133Y-33847510D01*
X76853155Y-33564400D01*
X76636739Y-33347607D01*
X76353834Y-33230134D01*
X76047510Y-33229867D01*
X75764400Y-33346845D01*
X75547607Y-33563261D01*
X75470000Y-33750158D01*
X75470000Y-30258969D01*
X75563261Y-30352393D01*
X75846166Y-30469866D01*
X76152490Y-30470133D01*
X76435600Y-30353155D01*
X76652393Y-30136739D01*
X76769866Y-29853834D01*
X76770133Y-29547510D01*
X76653155Y-29264400D01*
X76473932Y-29084865D01*
X76569866Y-28853834D01*
X76570133Y-28547510D01*
X76453155Y-28264400D01*
X76236739Y-28047607D01*
X75953834Y-27930134D01*
X75647510Y-27929867D01*
X75470000Y-28003212D01*
X75470000Y-20470000D01*
X79050380Y-20470000D01*
X78864400Y-20546845D01*
X78647607Y-20763261D01*
X78530134Y-21046166D01*
X78529973Y-21230113D01*
X78247510Y-21229867D01*
X77964400Y-21346845D01*
X77747607Y-21563261D01*
X77630134Y-21846166D01*
X77629867Y-22152490D01*
X77746845Y-22435600D01*
X77963261Y-22652393D01*
X78246166Y-22769866D01*
X78552490Y-22770133D01*
X78835600Y-22653155D01*
X79052393Y-22436739D01*
X79169866Y-22153834D01*
X79170026Y-21969886D01*
X79452490Y-21970133D01*
X79735600Y-21853155D01*
X79929948Y-21659144D01*
X79929867Y-21752490D01*
X80046845Y-22035600D01*
X80263261Y-22252393D01*
X80546166Y-22369866D01*
X80852490Y-22370133D01*
X81135600Y-22253155D01*
X81352393Y-22036739D01*
X81469866Y-21753834D01*
X81470133Y-21447510D01*
X81353155Y-21164400D01*
X81136739Y-20947607D01*
X80853834Y-20830134D01*
X80547510Y-20829867D01*
X80264400Y-20946845D01*
X80070051Y-21140855D01*
X80070133Y-21047510D01*
X79953155Y-20764400D01*
X79736739Y-20547607D01*
X79549841Y-20470000D01*
X124530000Y-20470000D01*
X124530000Y-22908000D01*
X116251661Y-22908000D01*
X115599836Y-25406665D01*
X116361614Y-27692000D01*
X124530000Y-27692000D01*
X124530000Y-69530000D01*
X124530000Y-69530000D01*
G37*
X124530000Y-69530000D02*
X121370133Y-69530000D01*
X121370133Y-35347510D01*
X121253155Y-35064400D01*
X121070133Y-34881059D01*
X121070133Y-32847510D01*
X120953155Y-32564400D01*
X120736739Y-32347607D01*
X120453834Y-32230134D01*
X120147510Y-32229867D01*
X119864400Y-32346845D01*
X119647607Y-32563261D01*
X119530134Y-32846166D01*
X119529867Y-33152490D01*
X119646845Y-33435600D01*
X119863261Y-33652393D01*
X120146166Y-33769866D01*
X120452490Y-33770133D01*
X120735600Y-33653155D01*
X120952393Y-33436739D01*
X121069866Y-33153834D01*
X121070133Y-32847510D01*
X121070133Y-34881059D01*
X121036739Y-34847607D01*
X120753834Y-34730134D01*
X120447510Y-34729867D01*
X120164400Y-34846845D01*
X119947607Y-35063261D01*
X119830134Y-35346166D01*
X119829867Y-35652490D01*
X119946845Y-35935600D01*
X120163261Y-36152393D01*
X120446166Y-36269866D01*
X120752490Y-36270133D01*
X121035600Y-36153155D01*
X121252393Y-35936739D01*
X121369866Y-35653834D01*
X121370133Y-35347510D01*
X121370133Y-69530000D01*
X116470133Y-69530000D01*
X116470133Y-30247510D01*
X116353155Y-29964400D01*
X116136739Y-29747607D01*
X115853834Y-29630134D01*
X115547510Y-29629867D01*
X115264400Y-29746845D01*
X115047607Y-29963261D01*
X114930134Y-30246166D01*
X114929867Y-30552490D01*
X115046845Y-30835600D01*
X115263261Y-31052393D01*
X115546166Y-31169866D01*
X115852490Y-31170133D01*
X116135600Y-31053155D01*
X116352393Y-30836739D01*
X116469866Y-30553834D01*
X116470133Y-30247510D01*
X116470133Y-69530000D01*
X114170133Y-69530000D01*
X114170133Y-67347510D01*
X114053155Y-67064400D01*
X113836739Y-66847607D01*
X113770133Y-66819949D01*
X113770133Y-51947510D01*
X113653155Y-51664400D01*
X113436739Y-51447607D01*
X113201446Y-51349904D01*
X113435600Y-51253155D01*
X113652393Y-51036739D01*
X113769866Y-50753834D01*
X113770133Y-50447510D01*
X113653155Y-50164400D01*
X113436739Y-49947607D01*
X113322157Y-49900028D01*
X113435600Y-49853155D01*
X113652393Y-49636739D01*
X113769866Y-49353834D01*
X113770133Y-49047510D01*
X113653155Y-48764400D01*
X113436739Y-48547607D01*
X113201446Y-48449904D01*
X113435600Y-48353155D01*
X113652393Y-48136739D01*
X113769866Y-47853834D01*
X113770133Y-47547510D01*
X113770133Y-23047510D01*
X113653155Y-22764400D01*
X113436739Y-22547607D01*
X113153834Y-22430134D01*
X112847510Y-22429867D01*
X112564400Y-22546845D01*
X112347607Y-22763261D01*
X112230134Y-23046166D01*
X112229867Y-23352490D01*
X112346845Y-23635600D01*
X112563261Y-23852393D01*
X112846166Y-23969866D01*
X113152490Y-23970133D01*
X113435600Y-23853155D01*
X113652393Y-23636739D01*
X113769866Y-23353834D01*
X113770133Y-23047510D01*
X113770133Y-47547510D01*
X113653155Y-47264400D01*
X113436739Y-47047607D01*
X113153834Y-46930134D01*
X113070133Y-46930061D01*
X113070133Y-28747510D01*
X112970133Y-28505490D01*
X112970133Y-26047510D01*
X112853155Y-25764400D01*
X112636739Y-25547607D01*
X112353834Y-25430134D01*
X112070133Y-25429886D01*
X112070133Y-22647510D01*
X111953155Y-22364400D01*
X111736739Y-22147607D01*
X111453834Y-22030134D01*
X111147510Y-22029867D01*
X110864400Y-22146845D01*
X110647607Y-22363261D01*
X110530134Y-22646166D01*
X110529867Y-22952490D01*
X110646845Y-23235600D01*
X110863261Y-23452393D01*
X111146166Y-23569866D01*
X111452490Y-23570133D01*
X111735600Y-23453155D01*
X111952393Y-23236739D01*
X112069866Y-22953834D01*
X112070133Y-22647510D01*
X112070133Y-25429886D01*
X112047510Y-25429867D01*
X111764400Y-25546845D01*
X111547607Y-25763261D01*
X111470133Y-25949838D01*
X111470133Y-25547510D01*
X111353155Y-25264400D01*
X111136739Y-25047607D01*
X110853834Y-24930134D01*
X110547510Y-24929867D01*
X110264400Y-25046845D01*
X110047607Y-25263261D01*
X109930134Y-25546166D01*
X109929867Y-25852490D01*
X110046845Y-26135600D01*
X110263261Y-26352393D01*
X110546166Y-26469866D01*
X110852490Y-26470133D01*
X111135600Y-26353155D01*
X111352393Y-26136739D01*
X111469866Y-25853834D01*
X111470133Y-25547510D01*
X111470133Y-25949838D01*
X111430134Y-26046166D01*
X111429867Y-26352490D01*
X111546845Y-26635600D01*
X111763261Y-26852393D01*
X112046166Y-26969866D01*
X112352490Y-26970133D01*
X112635600Y-26853155D01*
X112852393Y-26636739D01*
X112969866Y-26353834D01*
X112970133Y-26047510D01*
X112970133Y-28505490D01*
X112953155Y-28464400D01*
X112736739Y-28247607D01*
X112453834Y-28130134D01*
X112147510Y-28129867D01*
X111864400Y-28246845D01*
X111647607Y-28463261D01*
X111530134Y-28746166D01*
X111529867Y-29052490D01*
X111646845Y-29335600D01*
X111863261Y-29552393D01*
X112146166Y-29669866D01*
X112452490Y-29670133D01*
X112735600Y-29553155D01*
X112952393Y-29336739D01*
X113069866Y-29053834D01*
X113070133Y-28747510D01*
X113070133Y-46930061D01*
X112847510Y-46929867D01*
X112587600Y-47037259D01*
X112587600Y-45191197D01*
X112587600Y-45044002D01*
X112587600Y-42808802D01*
X112531271Y-42672811D01*
X112427188Y-42568729D01*
X112291197Y-42512400D01*
X112144002Y-42512400D01*
X109908802Y-42512400D01*
X109772811Y-42568729D01*
X109668729Y-42672812D01*
X109612400Y-42808803D01*
X109612400Y-42955998D01*
X109612400Y-45191198D01*
X109668729Y-45327189D01*
X109772812Y-45431271D01*
X109908803Y-45487600D01*
X110055998Y-45487600D01*
X112291198Y-45487600D01*
X112427189Y-45431271D01*
X112531271Y-45327188D01*
X112587600Y-45191197D01*
X112587600Y-47037259D01*
X112564400Y-47046845D01*
X112347607Y-47263261D01*
X112279317Y-47427719D01*
X112253155Y-47364400D01*
X112036739Y-47147607D01*
X111753834Y-47030134D01*
X111447510Y-47029867D01*
X111164400Y-47146845D01*
X110947607Y-47363261D01*
X110900028Y-47477842D01*
X110853155Y-47364400D01*
X110636739Y-47147607D01*
X110353834Y-47030134D01*
X110047510Y-47029867D01*
X109764400Y-47146845D01*
X109547607Y-47363261D01*
X109430134Y-47646166D01*
X109429867Y-47952490D01*
X109546845Y-48235600D01*
X109703000Y-48392027D01*
X109703000Y-48508138D01*
X109547607Y-48663261D01*
X109430134Y-48946166D01*
X109429867Y-49252490D01*
X109546845Y-49535600D01*
X109763261Y-49752393D01*
X110046166Y-49869866D01*
X110352490Y-49870133D01*
X110635600Y-49753155D01*
X110852393Y-49536739D01*
X110899971Y-49422157D01*
X110946845Y-49535600D01*
X111163261Y-49752393D01*
X111446166Y-49869866D01*
X111752490Y-49870133D01*
X112035600Y-49753155D01*
X112252393Y-49536739D01*
X112279261Y-49472033D01*
X112346845Y-49635600D01*
X112563261Y-49852393D01*
X112677842Y-49899971D01*
X112564400Y-49946845D01*
X112347607Y-50163261D01*
X112230134Y-50446166D01*
X112230130Y-50450694D01*
X112153155Y-50264400D01*
X111936739Y-50047607D01*
X111653834Y-49930134D01*
X111347510Y-49929867D01*
X111064400Y-50046845D01*
X110847607Y-50263261D01*
X110800028Y-50377842D01*
X110753155Y-50264400D01*
X110536739Y-50047607D01*
X110253834Y-49930134D01*
X109947510Y-49929867D01*
X109664400Y-50046845D01*
X109447607Y-50263261D01*
X109330134Y-50546166D01*
X109329867Y-50852490D01*
X109446845Y-51135600D01*
X109663261Y-51352393D01*
X109777842Y-51399971D01*
X109664400Y-51446845D01*
X109447607Y-51663261D01*
X109330134Y-51946166D01*
X109329867Y-52252490D01*
X109446845Y-52535600D01*
X109663261Y-52752393D01*
X109946166Y-52869866D01*
X110252490Y-52870133D01*
X110535600Y-52753155D01*
X110752393Y-52536739D01*
X110799971Y-52422157D01*
X110846845Y-52535600D01*
X111063261Y-52752393D01*
X111346166Y-52869866D01*
X111652490Y-52870133D01*
X111935600Y-52753155D01*
X112152393Y-52536739D01*
X112250095Y-52301446D01*
X112346845Y-52535600D01*
X112563261Y-52752393D01*
X112846166Y-52869866D01*
X113152490Y-52870133D01*
X113435600Y-52753155D01*
X113652393Y-52536739D01*
X113769866Y-52253834D01*
X113770133Y-51947510D01*
X113770133Y-66819949D01*
X113553834Y-66730134D01*
X113247510Y-66729867D01*
X112964400Y-66846845D01*
X112747607Y-67063261D01*
X112630134Y-67346166D01*
X112629867Y-67652490D01*
X112746845Y-67935600D01*
X112963261Y-68152393D01*
X113246166Y-68269866D01*
X113552490Y-68270133D01*
X113835600Y-68153155D01*
X114052393Y-67936739D01*
X114169866Y-67653834D01*
X114170133Y-67347510D01*
X114170133Y-69530000D01*
X111670133Y-69530000D01*
X111670133Y-59847510D01*
X111553155Y-59564400D01*
X111336739Y-59347607D01*
X111053834Y-59230134D01*
X110747510Y-59229867D01*
X110464400Y-59346845D01*
X110247607Y-59563261D01*
X110130134Y-59846166D01*
X110129867Y-60152490D01*
X110246845Y-60435600D01*
X110463261Y-60652393D01*
X110746166Y-60769866D01*
X111052490Y-60770133D01*
X111335600Y-60653155D01*
X111552393Y-60436739D01*
X111669866Y-60153834D01*
X111670133Y-59847510D01*
X111670133Y-69530000D01*
X106170133Y-69530000D01*
X106170133Y-60047510D01*
X106070133Y-59805490D01*
X106070133Y-43047510D01*
X105953155Y-42764400D01*
X105770133Y-42581059D01*
X105770133Y-30947510D01*
X105653155Y-30664400D01*
X105436739Y-30447607D01*
X105153834Y-30330134D01*
X104847510Y-30329867D01*
X104564400Y-30446845D01*
X104355867Y-30655015D01*
X104355867Y-29031137D01*
X104238889Y-28748027D01*
X104022473Y-28531234D01*
X103739568Y-28413761D01*
X103433244Y-28413494D01*
X103270133Y-28480889D01*
X103270133Y-24647510D01*
X103153155Y-24364400D01*
X102936739Y-24147607D01*
X102653834Y-24030134D01*
X102347510Y-24029867D01*
X102064400Y-24146845D01*
X101847607Y-24363261D01*
X101730134Y-24646166D01*
X101729867Y-24952490D01*
X101846845Y-25235600D01*
X102063261Y-25452393D01*
X102346166Y-25569866D01*
X102652490Y-25570133D01*
X102935600Y-25453155D01*
X103152393Y-25236739D01*
X103269866Y-24953834D01*
X103270133Y-24647510D01*
X103270133Y-28480889D01*
X103150134Y-28530472D01*
X102933341Y-28746888D01*
X102815868Y-29029793D01*
X102815601Y-29336117D01*
X102932579Y-29619227D01*
X103148995Y-29836020D01*
X103431900Y-29953493D01*
X103738224Y-29953760D01*
X104021334Y-29836782D01*
X104238127Y-29620366D01*
X104355600Y-29337461D01*
X104355867Y-29031137D01*
X104355867Y-30655015D01*
X104347607Y-30663261D01*
X104230134Y-30946166D01*
X104229867Y-31252490D01*
X104346845Y-31535600D01*
X104563261Y-31752393D01*
X104846166Y-31869866D01*
X105152490Y-31870133D01*
X105435600Y-31753155D01*
X105652393Y-31536739D01*
X105769866Y-31253834D01*
X105770133Y-30947510D01*
X105770133Y-42581059D01*
X105736739Y-42547607D01*
X105453834Y-42430134D01*
X105147510Y-42429867D01*
X104864400Y-42546845D01*
X104647607Y-42763261D01*
X104530134Y-43046166D01*
X104529867Y-43352490D01*
X104646845Y-43635600D01*
X104863261Y-43852393D01*
X105146166Y-43969866D01*
X105452490Y-43970133D01*
X105735600Y-43853155D01*
X105952393Y-43636739D01*
X106069866Y-43353834D01*
X106070133Y-43047510D01*
X106070133Y-59805490D01*
X106053155Y-59764400D01*
X105836739Y-59547607D01*
X105553834Y-59430134D01*
X105247510Y-59429867D01*
X104964400Y-59546845D01*
X104747607Y-59763261D01*
X104630134Y-60046166D01*
X104629867Y-60352490D01*
X104746845Y-60635600D01*
X104963261Y-60852393D01*
X105246166Y-60969866D01*
X105552490Y-60970133D01*
X105835600Y-60853155D01*
X106052393Y-60636739D01*
X106169866Y-60353834D01*
X106170133Y-60047510D01*
X106170133Y-69530000D01*
X103970133Y-69530000D01*
X103970133Y-31047510D01*
X103853155Y-30764400D01*
X103636739Y-30547607D01*
X103353834Y-30430134D01*
X103047510Y-30429867D01*
X102764400Y-30546845D01*
X102547607Y-30763261D01*
X102430134Y-31046166D01*
X102429867Y-31352490D01*
X102546845Y-31635600D01*
X102763261Y-31852393D01*
X103046166Y-31969866D01*
X103352490Y-31970133D01*
X103635600Y-31853155D01*
X103852393Y-31636739D01*
X103969866Y-31353834D01*
X103970133Y-31047510D01*
X103970133Y-69530000D01*
X101470133Y-69530000D01*
X101470133Y-25147510D01*
X101353155Y-24864400D01*
X101136739Y-24647607D01*
X100853834Y-24530134D01*
X100547510Y-24529867D01*
X100264400Y-24646845D01*
X100170133Y-24740948D01*
X100170133Y-22847510D01*
X100053155Y-22564400D01*
X99836739Y-22347607D01*
X99601446Y-22249904D01*
X99835600Y-22153155D01*
X100052393Y-21936739D01*
X100169866Y-21653834D01*
X100170133Y-21347510D01*
X100053155Y-21064400D01*
X99836739Y-20847607D01*
X99553834Y-20730134D01*
X99247510Y-20729867D01*
X98964400Y-20846845D01*
X98747607Y-21063261D01*
X98630134Y-21346166D01*
X98629867Y-21652490D01*
X98746845Y-21935600D01*
X98963261Y-22152393D01*
X99198553Y-22250095D01*
X98964400Y-22346845D01*
X98747607Y-22563261D01*
X98630134Y-22846166D01*
X98629867Y-23152490D01*
X98746845Y-23435600D01*
X98963261Y-23652393D01*
X99246166Y-23769866D01*
X99552490Y-23770133D01*
X99835600Y-23653155D01*
X100052393Y-23436739D01*
X100169866Y-23153834D01*
X100170133Y-22847510D01*
X100170133Y-24740948D01*
X100047607Y-24863261D01*
X99930134Y-25146166D01*
X99929867Y-25452490D01*
X100046845Y-25735600D01*
X100263261Y-25952393D01*
X100546166Y-26069866D01*
X100852490Y-26070133D01*
X101135600Y-25953155D01*
X101352393Y-25736739D01*
X101469866Y-25453834D01*
X101470133Y-25147510D01*
X101470133Y-69530000D01*
X101070133Y-69530000D01*
X101070133Y-30047510D01*
X100953155Y-29764400D01*
X100736739Y-29547607D01*
X100453834Y-29430134D01*
X100147510Y-29429867D01*
X99864400Y-29546845D01*
X99647607Y-29763261D01*
X99530134Y-30046166D01*
X99529867Y-30352490D01*
X99646845Y-30635600D01*
X99863261Y-30852393D01*
X100146166Y-30969866D01*
X100452490Y-30970133D01*
X100735600Y-30853155D01*
X100952393Y-30636739D01*
X101069866Y-30353834D01*
X101070133Y-30047510D01*
X101070133Y-69530000D01*
X100770133Y-69530000D01*
X100770133Y-33347510D01*
X100653155Y-33064400D01*
X100436739Y-32847607D01*
X100153834Y-32730134D01*
X99847510Y-32729867D01*
X99564400Y-32846845D01*
X99347607Y-33063261D01*
X99230134Y-33346166D01*
X99229867Y-33652490D01*
X99346845Y-33935600D01*
X99563261Y-34152393D01*
X99846166Y-34269866D01*
X100152490Y-34270133D01*
X100435600Y-34153155D01*
X100652393Y-33936739D01*
X100769866Y-33653834D01*
X100770133Y-33347510D01*
X100770133Y-69530000D01*
X99270133Y-69530000D01*
X99270133Y-34447510D01*
X99153155Y-34164400D01*
X98936739Y-33947607D01*
X98870133Y-33919949D01*
X98870133Y-29847510D01*
X98753155Y-29564400D01*
X98536739Y-29347607D01*
X98253834Y-29230134D01*
X97947510Y-29229867D01*
X97664400Y-29346845D01*
X97447607Y-29563261D01*
X97330134Y-29846166D01*
X97329867Y-30152490D01*
X97446845Y-30435600D01*
X97663261Y-30652393D01*
X97946166Y-30769866D01*
X98252490Y-30770133D01*
X98535600Y-30653155D01*
X98752393Y-30436739D01*
X98869866Y-30153834D01*
X98870133Y-29847510D01*
X98870133Y-33919949D01*
X98653834Y-33830134D01*
X98347510Y-33829867D01*
X98064400Y-33946845D01*
X97847607Y-34163261D01*
X97730134Y-34446166D01*
X97729867Y-34752490D01*
X97846845Y-35035600D01*
X98063261Y-35252393D01*
X98346166Y-35369866D01*
X98652490Y-35370133D01*
X98935600Y-35253155D01*
X99152393Y-35036739D01*
X99269866Y-34753834D01*
X99270133Y-34447510D01*
X99270133Y-69530000D01*
X97970133Y-69530000D01*
X97970133Y-44847510D01*
X97853155Y-44564400D01*
X97636739Y-44347607D01*
X97353834Y-44230134D01*
X97047510Y-44229867D01*
X96764400Y-44346845D01*
X96570133Y-44540774D01*
X96570133Y-37947510D01*
X96453155Y-37664400D01*
X96236739Y-37447607D01*
X95953834Y-37330134D01*
X95647510Y-37329867D01*
X95364400Y-37446845D01*
X95147607Y-37663261D01*
X95030134Y-37946166D01*
X95029867Y-38252490D01*
X95146845Y-38535600D01*
X95363261Y-38752393D01*
X95646166Y-38869866D01*
X95952490Y-38870133D01*
X96235600Y-38753155D01*
X96452393Y-38536739D01*
X96569866Y-38253834D01*
X96570133Y-37947510D01*
X96570133Y-44540774D01*
X96547607Y-44563261D01*
X96430134Y-44846166D01*
X96429867Y-45152490D01*
X96546845Y-45435600D01*
X96763261Y-45652393D01*
X97046166Y-45769866D01*
X97352490Y-45770133D01*
X97635600Y-45653155D01*
X97852393Y-45436739D01*
X97969866Y-45153834D01*
X97970133Y-44847510D01*
X97970133Y-69530000D01*
X96270133Y-69530000D01*
X96270133Y-45347510D01*
X96153155Y-45064400D01*
X95936739Y-44847607D01*
X95653834Y-44730134D01*
X95347510Y-44729867D01*
X95064400Y-44846845D01*
X94899903Y-45011055D01*
X94736739Y-44847607D01*
X94453834Y-44730134D01*
X94370133Y-44730061D01*
X94370133Y-26347510D01*
X94253155Y-26064400D01*
X94036739Y-25847607D01*
X93753834Y-25730134D01*
X93478722Y-25729894D01*
X93481315Y-25723650D01*
X93481582Y-25417326D01*
X93364604Y-25134216D01*
X93148188Y-24917423D01*
X92865283Y-24799950D01*
X92589312Y-24799709D01*
X92652393Y-24736739D01*
X92769866Y-24453834D01*
X92770133Y-24147510D01*
X92653155Y-23864400D01*
X92436739Y-23647607D01*
X92153834Y-23530134D01*
X91847510Y-23529867D01*
X91564400Y-23646845D01*
X91399990Y-23810968D01*
X91336739Y-23747607D01*
X91053834Y-23630134D01*
X90747510Y-23629867D01*
X90464400Y-23746845D01*
X90247607Y-23963261D01*
X90160008Y-24174221D01*
X90070133Y-24136901D01*
X90070133Y-21247510D01*
X89953155Y-20964400D01*
X89736739Y-20747607D01*
X89453834Y-20630134D01*
X89147510Y-20629867D01*
X88864400Y-20746845D01*
X88647607Y-20963261D01*
X88530134Y-21246166D01*
X88529867Y-21552490D01*
X88646845Y-21835600D01*
X88863261Y-22052393D01*
X89146166Y-22169866D01*
X89452490Y-22170133D01*
X89735600Y-22053155D01*
X89952393Y-21836739D01*
X90069866Y-21553834D01*
X90070133Y-21247510D01*
X90070133Y-24136901D01*
X90053834Y-24130134D01*
X89747510Y-24129867D01*
X89464400Y-24246845D01*
X89247607Y-24463261D01*
X89130134Y-24746166D01*
X89129867Y-25052490D01*
X89246845Y-25335600D01*
X89463261Y-25552393D01*
X89746166Y-25669866D01*
X90052490Y-25670133D01*
X90335600Y-25553155D01*
X90552393Y-25336739D01*
X90639991Y-25125778D01*
X90746166Y-25169866D01*
X91052490Y-25170133D01*
X91335600Y-25053155D01*
X91500009Y-24889031D01*
X91563261Y-24952393D01*
X91846166Y-25069866D01*
X92122136Y-25070106D01*
X92059056Y-25133077D01*
X91941583Y-25415982D01*
X91941316Y-25722306D01*
X92058294Y-26005416D01*
X92274710Y-26222209D01*
X92557615Y-26339682D01*
X92832726Y-26339921D01*
X92830134Y-26346166D01*
X92829867Y-26652490D01*
X92946845Y-26935600D01*
X93163261Y-27152393D01*
X93446166Y-27269866D01*
X93752490Y-27270133D01*
X94035600Y-27153155D01*
X94252393Y-26936739D01*
X94369866Y-26653834D01*
X94370133Y-26347510D01*
X94370133Y-44730061D01*
X94147510Y-44729867D01*
X93864400Y-44846845D01*
X93647607Y-45063261D01*
X93530134Y-45346166D01*
X93529867Y-45652490D01*
X93646845Y-45935600D01*
X93863261Y-46152393D01*
X94146166Y-46269866D01*
X94452490Y-46270133D01*
X94735600Y-46153155D01*
X94900096Y-45988944D01*
X95063261Y-46152393D01*
X95346166Y-46269866D01*
X95652490Y-46270133D01*
X95935600Y-46153155D01*
X96152393Y-45936739D01*
X96269866Y-45653834D01*
X96270133Y-45347510D01*
X96270133Y-69530000D01*
X95170133Y-69530000D01*
X95170133Y-68447510D01*
X95053155Y-68164400D01*
X94836739Y-67947607D01*
X94553834Y-67830134D01*
X94247510Y-67829867D01*
X93964400Y-67946845D01*
X93799903Y-68111055D01*
X93636739Y-67947607D01*
X93353834Y-67830134D01*
X93047510Y-67829867D01*
X92764400Y-67946845D01*
X92670133Y-68040947D01*
X92670133Y-27247510D01*
X92553155Y-26964400D01*
X92336739Y-26747607D01*
X92053834Y-26630134D01*
X91747510Y-26629867D01*
X91464400Y-26746845D01*
X91247607Y-26963261D01*
X91130134Y-27246166D01*
X91129867Y-27552490D01*
X91246845Y-27835600D01*
X91463261Y-28052393D01*
X91746166Y-28169866D01*
X92052490Y-28170133D01*
X92335600Y-28053155D01*
X92552393Y-27836739D01*
X92669866Y-27553834D01*
X92670133Y-27247510D01*
X92670133Y-68040947D01*
X92649990Y-68061055D01*
X92536739Y-67947607D01*
X92253834Y-67830134D01*
X91947510Y-67829867D01*
X91664400Y-67946845D01*
X91470133Y-68140774D01*
X91470133Y-51147510D01*
X91353155Y-50864400D01*
X91136739Y-50647607D01*
X90906052Y-50551816D01*
X90906052Y-31483429D01*
X90789074Y-31200319D01*
X90572658Y-30983526D01*
X90289753Y-30866053D01*
X89983429Y-30865786D01*
X89700319Y-30982764D01*
X89483526Y-31199180D01*
X89366053Y-31482085D01*
X89365786Y-31788409D01*
X89482764Y-32071519D01*
X89699180Y-32288312D01*
X89982085Y-32405785D01*
X90288409Y-32406052D01*
X90571519Y-32289074D01*
X90788312Y-32072658D01*
X90905785Y-31789753D01*
X90906052Y-31483429D01*
X90906052Y-50551816D01*
X90853834Y-50530134D01*
X90547510Y-50529867D01*
X90264400Y-50646845D01*
X90047607Y-50863261D01*
X89930134Y-51146166D01*
X89930060Y-51230026D01*
X89747510Y-51229867D01*
X89464400Y-51346845D01*
X89247607Y-51563261D01*
X89130134Y-51846166D01*
X89129867Y-52152490D01*
X89246845Y-52435600D01*
X89463261Y-52652393D01*
X89746166Y-52769866D01*
X89903283Y-52770002D01*
X89830134Y-52946166D01*
X89829909Y-53203247D01*
X89653834Y-53130134D01*
X89347510Y-53129867D01*
X89064400Y-53246845D01*
X88909707Y-53401268D01*
X88853155Y-53264400D01*
X88669529Y-53080454D01*
X88735600Y-53053155D01*
X88952393Y-52836739D01*
X89069866Y-52553834D01*
X89070133Y-52247510D01*
X88953155Y-51964400D01*
X88770133Y-51781059D01*
X88770133Y-26047510D01*
X88653155Y-25764400D01*
X88436739Y-25547607D01*
X88153834Y-25430134D01*
X87847510Y-25429867D01*
X87564400Y-25546845D01*
X87347607Y-25763261D01*
X87230134Y-26046166D01*
X87229867Y-26352490D01*
X87346845Y-26635600D01*
X87563261Y-26852393D01*
X87846166Y-26969866D01*
X88152490Y-26970133D01*
X88435600Y-26853155D01*
X88652393Y-26636739D01*
X88769866Y-26353834D01*
X88770133Y-26047510D01*
X88770133Y-51781059D01*
X88736739Y-51747607D01*
X88453834Y-51630134D01*
X88147510Y-51629867D01*
X87864400Y-51746845D01*
X87647607Y-51963261D01*
X87530134Y-52246166D01*
X87529867Y-52552490D01*
X87646845Y-52835600D01*
X87830470Y-53019545D01*
X87764400Y-53046845D01*
X87547607Y-53263261D01*
X87470133Y-53449838D01*
X87470133Y-41647510D01*
X87353155Y-41364400D01*
X87136739Y-41147607D01*
X86853834Y-41030134D01*
X86547510Y-41029867D01*
X86470133Y-41061838D01*
X86470133Y-33147510D01*
X86353155Y-32864400D01*
X86136739Y-32647607D01*
X85853834Y-32530134D01*
X85576650Y-32529892D01*
X85576650Y-31140997D01*
X85459672Y-30857887D01*
X85370133Y-30768192D01*
X85370133Y-25747510D01*
X85253155Y-25464400D01*
X85036739Y-25247607D01*
X84870133Y-25178425D01*
X84870133Y-21347510D01*
X84753155Y-21064400D01*
X84536739Y-20847607D01*
X84253834Y-20730134D01*
X83947510Y-20729867D01*
X83664400Y-20846845D01*
X83447607Y-21063261D01*
X83330134Y-21346166D01*
X83329867Y-21652490D01*
X83446845Y-21935600D01*
X83663261Y-22152393D01*
X83946166Y-22269866D01*
X84252490Y-22270133D01*
X84535600Y-22153155D01*
X84752393Y-21936739D01*
X84869866Y-21653834D01*
X84870133Y-21347510D01*
X84870133Y-25178425D01*
X84753834Y-25130134D01*
X84447510Y-25129867D01*
X84164400Y-25246845D01*
X83947607Y-25463261D01*
X83830134Y-25746166D01*
X83829867Y-26052490D01*
X83946845Y-26335600D01*
X84163261Y-26552393D01*
X84446166Y-26669866D01*
X84752490Y-26670133D01*
X85035600Y-26553155D01*
X85252393Y-26336739D01*
X85369866Y-26053834D01*
X85370133Y-25747510D01*
X85370133Y-30768192D01*
X85243256Y-30641094D01*
X84960351Y-30523621D01*
X84763795Y-30523449D01*
X84954204Y-30444775D01*
X85170997Y-30228359D01*
X85288470Y-29945454D01*
X85288737Y-29639130D01*
X85171759Y-29356020D01*
X84955343Y-29139227D01*
X84672438Y-29021754D01*
X84366114Y-29021487D01*
X84184131Y-29096680D01*
X84184131Y-27955890D01*
X84067153Y-27672780D01*
X83850737Y-27455987D01*
X83567832Y-27338514D01*
X83261508Y-27338247D01*
X83120133Y-27396661D01*
X83120133Y-21347510D01*
X83003155Y-21064400D01*
X82786739Y-20847607D01*
X82503834Y-20730134D01*
X82197510Y-20729867D01*
X81914400Y-20846845D01*
X81697607Y-21063261D01*
X81580134Y-21346166D01*
X81579867Y-21652490D01*
X81696845Y-21935600D01*
X81913261Y-22152393D01*
X82196166Y-22269866D01*
X82502490Y-22270133D01*
X82785600Y-22153155D01*
X83002393Y-21936739D01*
X83119866Y-21653834D01*
X83120133Y-21347510D01*
X83120133Y-27396661D01*
X82978398Y-27455225D01*
X82761605Y-27671641D01*
X82644132Y-27954546D01*
X82643865Y-28260870D01*
X82760843Y-28543980D01*
X82977259Y-28760773D01*
X83260164Y-28878246D01*
X83566488Y-28878513D01*
X83849598Y-28761535D01*
X84066391Y-28545119D01*
X84183864Y-28262214D01*
X84184131Y-27955890D01*
X84184131Y-29096680D01*
X84083004Y-29138465D01*
X83866211Y-29354881D01*
X83748738Y-29637786D01*
X83748471Y-29944110D01*
X83865449Y-30227220D01*
X84081865Y-30444013D01*
X84364770Y-30561486D01*
X84561325Y-30561657D01*
X84370917Y-30640332D01*
X84154124Y-30856748D01*
X84036651Y-31139653D01*
X84036384Y-31445977D01*
X84153362Y-31729087D01*
X84369778Y-31945880D01*
X84652683Y-32063353D01*
X84959007Y-32063620D01*
X85242117Y-31946642D01*
X85458910Y-31730226D01*
X85576383Y-31447321D01*
X85576650Y-31140997D01*
X85576650Y-32529892D01*
X85547510Y-32529867D01*
X85264400Y-32646845D01*
X85047607Y-32863261D01*
X84930134Y-33146166D01*
X84929867Y-33452490D01*
X85046845Y-33735600D01*
X85263261Y-33952393D01*
X85546166Y-34069866D01*
X85852490Y-34070133D01*
X86135600Y-33953155D01*
X86352393Y-33736739D01*
X86469866Y-33453834D01*
X86470133Y-33147510D01*
X86470133Y-41061838D01*
X86264400Y-41146845D01*
X86047607Y-41363261D01*
X85930134Y-41646166D01*
X85929867Y-41952490D01*
X86046845Y-42235600D01*
X86263261Y-42452393D01*
X86546166Y-42569866D01*
X86852490Y-42570133D01*
X87135600Y-42453155D01*
X87352393Y-42236739D01*
X87469866Y-41953834D01*
X87470133Y-41647510D01*
X87470133Y-53449838D01*
X87430134Y-53546166D01*
X87429867Y-53852490D01*
X87546845Y-54135600D01*
X87763261Y-54352393D01*
X88046166Y-54469866D01*
X88352490Y-54470133D01*
X88635600Y-54353155D01*
X88790292Y-54198731D01*
X88846845Y-54335600D01*
X89063261Y-54552393D01*
X89346166Y-54669866D01*
X89652490Y-54670133D01*
X89935600Y-54553155D01*
X90152393Y-54336739D01*
X90269866Y-54053834D01*
X90270090Y-53796752D01*
X90446166Y-53869866D01*
X90752490Y-53870133D01*
X91035600Y-53753155D01*
X91252393Y-53536739D01*
X91369866Y-53253834D01*
X91370133Y-52947510D01*
X91253155Y-52664400D01*
X91036739Y-52447607D01*
X90753834Y-52330134D01*
X90596716Y-52329997D01*
X90669866Y-52153834D01*
X90669939Y-52069973D01*
X90852490Y-52070133D01*
X91135600Y-51953155D01*
X91352393Y-51736739D01*
X91469866Y-51453834D01*
X91470133Y-51147510D01*
X91470133Y-68140774D01*
X91447607Y-68163261D01*
X91330134Y-68446166D01*
X91329867Y-68752490D01*
X91446845Y-69035600D01*
X91663261Y-69252393D01*
X91946166Y-69369866D01*
X92252490Y-69370133D01*
X92535600Y-69253155D01*
X92650009Y-69138944D01*
X92763261Y-69252393D01*
X93046166Y-69369866D01*
X93352490Y-69370133D01*
X93635600Y-69253155D01*
X93800096Y-69088944D01*
X93963261Y-69252393D01*
X94246166Y-69369866D01*
X94552490Y-69370133D01*
X94835600Y-69253155D01*
X95052393Y-69036739D01*
X95169866Y-68753834D01*
X95170133Y-68447510D01*
X95170133Y-69530000D01*
X91170133Y-69530000D01*
X91170133Y-68447510D01*
X91053155Y-68164400D01*
X90888944Y-67999903D01*
X91052393Y-67836739D01*
X91169866Y-67553834D01*
X91170133Y-67247510D01*
X91053155Y-66964400D01*
X90836739Y-66747607D01*
X90553834Y-66630134D01*
X90247510Y-66629867D01*
X89964400Y-66746845D01*
X89747607Y-66963261D01*
X89630134Y-67246166D01*
X89629867Y-67552490D01*
X89746845Y-67835600D01*
X89911055Y-68000096D01*
X89747607Y-68163261D01*
X89630134Y-68446166D01*
X89629867Y-68752490D01*
X89746845Y-69035600D01*
X89963261Y-69252393D01*
X90246166Y-69369866D01*
X90552490Y-69370133D01*
X90835600Y-69253155D01*
X91052393Y-69036739D01*
X91169866Y-68753834D01*
X91170133Y-68447510D01*
X91170133Y-69530000D01*
X86920000Y-69530000D01*
X86920000Y-69476402D01*
X86920000Y-67576402D01*
X86863671Y-67440411D01*
X86759588Y-67336329D01*
X86623597Y-67280000D01*
X86476402Y-67280000D01*
X85970133Y-67280000D01*
X85970133Y-45647510D01*
X85853155Y-45364400D01*
X85636739Y-45147607D01*
X85357864Y-45031807D01*
X85358017Y-44856727D01*
X85241039Y-44573617D01*
X85024623Y-44356824D01*
X84741718Y-44239351D01*
X84435394Y-44239084D01*
X84152284Y-44356062D01*
X83935491Y-44572478D01*
X83818018Y-44855383D01*
X83817751Y-45161707D01*
X83934729Y-45444817D01*
X84151145Y-45661610D01*
X84430019Y-45777409D01*
X84429867Y-45952490D01*
X84546845Y-46235600D01*
X84763261Y-46452393D01*
X85046166Y-46569866D01*
X85352490Y-46570133D01*
X85635600Y-46453155D01*
X85852393Y-46236739D01*
X85969866Y-45953834D01*
X85970133Y-45647510D01*
X85970133Y-67280000D01*
X84576402Y-67280000D01*
X84440411Y-67336329D01*
X84336329Y-67440412D01*
X84280000Y-67576403D01*
X84280000Y-67723598D01*
X84280000Y-69530000D01*
X83670194Y-69530000D01*
X83670194Y-58198196D01*
X83670194Y-55658196D01*
X83670194Y-53118196D01*
X83670194Y-50578196D01*
X83670194Y-48038196D01*
X83670194Y-45498196D01*
X83670194Y-42958196D01*
X83670194Y-40418196D01*
X83570133Y-40176030D01*
X83570133Y-33547510D01*
X83453155Y-33264400D01*
X83236739Y-33047607D01*
X82953834Y-32930134D01*
X82647510Y-32929867D01*
X82364400Y-33046845D01*
X82270133Y-33140948D01*
X82270133Y-30347510D01*
X82170133Y-30105490D01*
X82170133Y-27547510D01*
X82053155Y-27264400D01*
X81836739Y-27047607D01*
X81553834Y-26930134D01*
X81351353Y-26929957D01*
X81351353Y-25750509D01*
X81234375Y-25467399D01*
X81017959Y-25250606D01*
X80735054Y-25133133D01*
X80428730Y-25132866D01*
X80145620Y-25249844D01*
X79928827Y-25466260D01*
X79811354Y-25749165D01*
X79811087Y-26055489D01*
X79928065Y-26338599D01*
X80144481Y-26555392D01*
X80427386Y-26672865D01*
X80733710Y-26673132D01*
X81016820Y-26556154D01*
X81233613Y-26339738D01*
X81351086Y-26056833D01*
X81351353Y-25750509D01*
X81351353Y-26929957D01*
X81247510Y-26929867D01*
X80964400Y-27046845D01*
X80747607Y-27263261D01*
X80630134Y-27546166D01*
X80629867Y-27852490D01*
X80746845Y-28135600D01*
X80963261Y-28352393D01*
X81246166Y-28469866D01*
X81552490Y-28470133D01*
X81835600Y-28353155D01*
X82052393Y-28136739D01*
X82169866Y-27853834D01*
X82170133Y-27547510D01*
X82170133Y-30105490D01*
X82153155Y-30064400D01*
X81936739Y-29847607D01*
X81653834Y-29730134D01*
X81347510Y-29729867D01*
X81064400Y-29846845D01*
X80847607Y-30063261D01*
X80770133Y-30249838D01*
X80770133Y-28720490D01*
X80653155Y-28437380D01*
X80436739Y-28220587D01*
X80153834Y-28103114D01*
X79847510Y-28102847D01*
X79844076Y-28104265D01*
X79844076Y-26214744D01*
X79727098Y-25931634D01*
X79510682Y-25714841D01*
X79227777Y-25597368D01*
X78921453Y-25597101D01*
X78638343Y-25714079D01*
X78421550Y-25930495D01*
X78304077Y-26213400D01*
X78303810Y-26519724D01*
X78420788Y-26802834D01*
X78637204Y-27019627D01*
X78920109Y-27137100D01*
X79226433Y-27137367D01*
X79509543Y-27020389D01*
X79726336Y-26803973D01*
X79843809Y-26521068D01*
X79844076Y-26214744D01*
X79844076Y-28104265D01*
X79564400Y-28219825D01*
X79347607Y-28436241D01*
X79230134Y-28719146D01*
X79229867Y-29025470D01*
X79346845Y-29308580D01*
X79563261Y-29525373D01*
X79846166Y-29642846D01*
X80152490Y-29643113D01*
X80435600Y-29526135D01*
X80652393Y-29309719D01*
X80769866Y-29026814D01*
X80770133Y-28720490D01*
X80770133Y-30249838D01*
X80730134Y-30346166D01*
X80729867Y-30652490D01*
X80846845Y-30935600D01*
X81063261Y-31152393D01*
X81346166Y-31269866D01*
X81652490Y-31270133D01*
X81935600Y-31153155D01*
X82152393Y-30936739D01*
X82269866Y-30653834D01*
X82270133Y-30347510D01*
X82270133Y-33140948D01*
X82147607Y-33263261D01*
X82030134Y-33546166D01*
X82029867Y-33852490D01*
X82146845Y-34135600D01*
X82363261Y-34352393D01*
X82646166Y-34469866D01*
X82952490Y-34470133D01*
X83235600Y-34353155D01*
X83452393Y-34136739D01*
X83569866Y-33853834D01*
X83570133Y-33547510D01*
X83570133Y-40176030D01*
X83500043Y-40006400D01*
X83185257Y-39691064D01*
X82773759Y-39520195D01*
X82328196Y-39519806D01*
X81916400Y-39689957D01*
X81601064Y-40004743D01*
X81470133Y-40320059D01*
X81470133Y-34247510D01*
X81353155Y-33964400D01*
X81136739Y-33747607D01*
X80853834Y-33630134D01*
X80547510Y-33629867D01*
X80264400Y-33746845D01*
X80047607Y-33963261D01*
X79930134Y-34246166D01*
X79929867Y-34552490D01*
X80046845Y-34835600D01*
X80263261Y-35052393D01*
X80546166Y-35169866D01*
X80852490Y-35170133D01*
X81135600Y-35053155D01*
X81352393Y-34836739D01*
X81469866Y-34553834D01*
X81470133Y-34247510D01*
X81470133Y-40320059D01*
X81430195Y-40416241D01*
X81429806Y-40861804D01*
X81599957Y-41273600D01*
X81914743Y-41588936D01*
X82326241Y-41759805D01*
X82771804Y-41760194D01*
X83183600Y-41590043D01*
X83498936Y-41275257D01*
X83669805Y-40863759D01*
X83670194Y-40418196D01*
X83670194Y-42958196D01*
X83500043Y-42546400D01*
X83185257Y-42231064D01*
X82773759Y-42060195D01*
X82328196Y-42059806D01*
X81916400Y-42229957D01*
X81601064Y-42544743D01*
X81430195Y-42956241D01*
X81429806Y-43401804D01*
X81599957Y-43813600D01*
X81914743Y-44128936D01*
X82326241Y-44299805D01*
X82771804Y-44300194D01*
X83183600Y-44130043D01*
X83498936Y-43815257D01*
X83669805Y-43403759D01*
X83670194Y-42958196D01*
X83670194Y-45498196D01*
X83500043Y-45086400D01*
X83185257Y-44771064D01*
X82773759Y-44600195D01*
X82328196Y-44599806D01*
X81916400Y-44769957D01*
X81601064Y-45084743D01*
X81430195Y-45496241D01*
X81429806Y-45941804D01*
X81599957Y-46353600D01*
X81914743Y-46668936D01*
X82326241Y-46839805D01*
X82771804Y-46840194D01*
X83183600Y-46670043D01*
X83498936Y-46355257D01*
X83669805Y-45943759D01*
X83670194Y-45498196D01*
X83670194Y-48038196D01*
X83500043Y-47626400D01*
X83185257Y-47311064D01*
X82773759Y-47140195D01*
X82328196Y-47139806D01*
X81916400Y-47309957D01*
X81601064Y-47624743D01*
X81430195Y-48036241D01*
X81429806Y-48481804D01*
X81599957Y-48893600D01*
X81914743Y-49208936D01*
X82326241Y-49379805D01*
X82771804Y-49380194D01*
X83183600Y-49210043D01*
X83498936Y-48895257D01*
X83669805Y-48483759D01*
X83670194Y-48038196D01*
X83670194Y-50578196D01*
X83500043Y-50166400D01*
X83185257Y-49851064D01*
X82773759Y-49680195D01*
X82328196Y-49679806D01*
X81916400Y-49849957D01*
X81601064Y-50164743D01*
X81430195Y-50576241D01*
X81429806Y-51021804D01*
X81599957Y-51433600D01*
X81914743Y-51748936D01*
X82326241Y-51919805D01*
X82771804Y-51920194D01*
X83183600Y-51750043D01*
X83498936Y-51435257D01*
X83669805Y-51023759D01*
X83670194Y-50578196D01*
X83670194Y-53118196D01*
X83500043Y-52706400D01*
X83185257Y-52391064D01*
X82773759Y-52220195D01*
X82328196Y-52219806D01*
X81916400Y-52389957D01*
X81601064Y-52704743D01*
X81430195Y-53116241D01*
X81429806Y-53561804D01*
X81599957Y-53973600D01*
X81914743Y-54288936D01*
X82326241Y-54459805D01*
X82771804Y-54460194D01*
X83183600Y-54290043D01*
X83498936Y-53975257D01*
X83669805Y-53563759D01*
X83670194Y-53118196D01*
X83670194Y-55658196D01*
X83500043Y-55246400D01*
X83185257Y-54931064D01*
X82773759Y-54760195D01*
X82328196Y-54759806D01*
X81916400Y-54929957D01*
X81601064Y-55244743D01*
X81430195Y-55656241D01*
X81429806Y-56101804D01*
X81599957Y-56513600D01*
X81914743Y-56828936D01*
X82326241Y-56999805D01*
X82771804Y-57000194D01*
X83183600Y-56830043D01*
X83498936Y-56515257D01*
X83669805Y-56103759D01*
X83670194Y-55658196D01*
X83670194Y-58198196D01*
X83500043Y-57786400D01*
X83185257Y-57471064D01*
X82773759Y-57300195D01*
X82328196Y-57299806D01*
X81916400Y-57469957D01*
X81601064Y-57784743D01*
X81430195Y-58196241D01*
X81429806Y-58641804D01*
X81599957Y-59053600D01*
X81914743Y-59368936D01*
X82326241Y-59539805D01*
X82771804Y-59540194D01*
X83183600Y-59370043D01*
X83498936Y-59055257D01*
X83669805Y-58643759D01*
X83670194Y-58198196D01*
X83670194Y-69530000D01*
X81130194Y-69530000D01*
X81130194Y-58198196D01*
X81130194Y-55658196D01*
X81130194Y-53118196D01*
X81130194Y-50578196D01*
X81130194Y-48038196D01*
X81130194Y-45498196D01*
X81130194Y-42958196D01*
X81130194Y-40418196D01*
X80960043Y-40006400D01*
X80645257Y-39691064D01*
X80233759Y-39520195D01*
X79825133Y-39519838D01*
X79825133Y-36047510D01*
X79708155Y-35764400D01*
X79491739Y-35547607D01*
X79208834Y-35430134D01*
X78902510Y-35429867D01*
X78619400Y-35546845D01*
X78402607Y-35763261D01*
X78285134Y-36046166D01*
X78284867Y-36352490D01*
X78401845Y-36635600D01*
X78618261Y-36852393D01*
X78901166Y-36969866D01*
X79207490Y-36970133D01*
X79490600Y-36853155D01*
X79707393Y-36636739D01*
X79824866Y-36353834D01*
X79825133Y-36047510D01*
X79825133Y-39519838D01*
X79788196Y-39519806D01*
X79376400Y-39689957D01*
X79061064Y-40004743D01*
X78890195Y-40416241D01*
X78889806Y-40861804D01*
X79059957Y-41273600D01*
X79374743Y-41588936D01*
X79786241Y-41759805D01*
X80231804Y-41760194D01*
X80643600Y-41590043D01*
X80958936Y-41275257D01*
X81129805Y-40863759D01*
X81130194Y-40418196D01*
X81130194Y-42958196D01*
X80960043Y-42546400D01*
X80645257Y-42231064D01*
X80233759Y-42060195D01*
X79788196Y-42059806D01*
X79376400Y-42229957D01*
X79061064Y-42544743D01*
X78890195Y-42956241D01*
X78889806Y-43401804D01*
X79059957Y-43813600D01*
X79374743Y-44128936D01*
X79786241Y-44299805D01*
X80231804Y-44300194D01*
X80643600Y-44130043D01*
X80958936Y-43815257D01*
X81129805Y-43403759D01*
X81130194Y-42958196D01*
X81130194Y-45498196D01*
X80960043Y-45086400D01*
X80645257Y-44771064D01*
X80233759Y-44600195D01*
X79788196Y-44599806D01*
X79376400Y-44769957D01*
X79061064Y-45084743D01*
X78890195Y-45496241D01*
X78889806Y-45941804D01*
X79059957Y-46353600D01*
X79374743Y-46668936D01*
X79786241Y-46839805D01*
X80231804Y-46840194D01*
X80643600Y-46670043D01*
X80958936Y-46355257D01*
X81129805Y-45943759D01*
X81130194Y-45498196D01*
X81130194Y-48038196D01*
X80960043Y-47626400D01*
X80645257Y-47311064D01*
X80233759Y-47140195D01*
X79788196Y-47139806D01*
X79376400Y-47309957D01*
X79061064Y-47624743D01*
X78890195Y-48036241D01*
X78889806Y-48481804D01*
X79059957Y-48893600D01*
X79374743Y-49208936D01*
X79786241Y-49379805D01*
X80231804Y-49380194D01*
X80643600Y-49210043D01*
X80958936Y-48895257D01*
X81129805Y-48483759D01*
X81130194Y-48038196D01*
X81130194Y-50578196D01*
X80960043Y-50166400D01*
X80645257Y-49851064D01*
X80233759Y-49680195D01*
X79788196Y-49679806D01*
X79376400Y-49849957D01*
X79061064Y-50164743D01*
X78890195Y-50576241D01*
X78889806Y-51021804D01*
X79059957Y-51433600D01*
X79374743Y-51748936D01*
X79786241Y-51919805D01*
X80231804Y-51920194D01*
X80643600Y-51750043D01*
X80958936Y-51435257D01*
X81129805Y-51023759D01*
X81130194Y-50578196D01*
X81130194Y-53118196D01*
X80960043Y-52706400D01*
X80645257Y-52391064D01*
X80233759Y-52220195D01*
X79788196Y-52219806D01*
X79376400Y-52389957D01*
X79061064Y-52704743D01*
X78890195Y-53116241D01*
X78889806Y-53561804D01*
X79059957Y-53973600D01*
X79374743Y-54288936D01*
X79786241Y-54459805D01*
X80231804Y-54460194D01*
X80643600Y-54290043D01*
X80958936Y-53975257D01*
X81129805Y-53563759D01*
X81130194Y-53118196D01*
X81130194Y-55658196D01*
X80960043Y-55246400D01*
X80645257Y-54931064D01*
X80233759Y-54760195D01*
X79788196Y-54759806D01*
X79376400Y-54929957D01*
X79061064Y-55244743D01*
X78890195Y-55656241D01*
X78889806Y-56101804D01*
X79059957Y-56513600D01*
X79374743Y-56828936D01*
X79786241Y-56999805D01*
X80231804Y-57000194D01*
X80643600Y-56830043D01*
X80958936Y-56515257D01*
X81129805Y-56103759D01*
X81130194Y-55658196D01*
X81130194Y-58198196D01*
X80960043Y-57786400D01*
X80645257Y-57471064D01*
X80233759Y-57300195D01*
X79788196Y-57299806D01*
X79376400Y-57469957D01*
X79061064Y-57784743D01*
X78890195Y-58196241D01*
X78889806Y-58641804D01*
X79059957Y-59053600D01*
X79374743Y-59368936D01*
X79786241Y-59539805D01*
X80231804Y-59540194D01*
X80643600Y-59370043D01*
X80958936Y-59055257D01*
X81129805Y-58643759D01*
X81130194Y-58198196D01*
X81130194Y-69530000D01*
X78986000Y-69530000D01*
X78986000Y-64267153D01*
X78986000Y-64212847D01*
X78880497Y-63682448D01*
X78590194Y-63247978D01*
X78590194Y-48038196D01*
X78590194Y-45498196D01*
X78420043Y-45086400D01*
X78105257Y-44771064D01*
X77693759Y-44600195D01*
X77248196Y-44599806D01*
X77170133Y-44632061D01*
X77170133Y-23847510D01*
X77053155Y-23564400D01*
X76836739Y-23347607D01*
X76553834Y-23230134D01*
X76247510Y-23229867D01*
X75964400Y-23346845D01*
X75747607Y-23563261D01*
X75630134Y-23846166D01*
X75629867Y-24152490D01*
X75746845Y-24435600D01*
X75963261Y-24652393D01*
X76246166Y-24769866D01*
X76552490Y-24770133D01*
X76835600Y-24653155D01*
X77052393Y-24436739D01*
X77169866Y-24153834D01*
X77170133Y-23847510D01*
X77170133Y-44632061D01*
X77070133Y-44673380D01*
X77070133Y-31847510D01*
X76953155Y-31564400D01*
X76736739Y-31347607D01*
X76453834Y-31230134D01*
X76147510Y-31229867D01*
X75864400Y-31346845D01*
X75647607Y-31563261D01*
X75530134Y-31846166D01*
X75529867Y-32152490D01*
X75646845Y-32435600D01*
X75863261Y-32652393D01*
X76146166Y-32769866D01*
X76452490Y-32770133D01*
X76735600Y-32653155D01*
X76952393Y-32436739D01*
X77069866Y-32153834D01*
X77070133Y-31847510D01*
X77070133Y-44673380D01*
X76836400Y-44769957D01*
X76521064Y-45084743D01*
X76350195Y-45496241D01*
X76349806Y-45941804D01*
X76519957Y-46353600D01*
X76834743Y-46668936D01*
X77246241Y-46839805D01*
X77691804Y-46840194D01*
X78103600Y-46670043D01*
X78418936Y-46355257D01*
X78589805Y-45943759D01*
X78590194Y-45498196D01*
X78590194Y-48038196D01*
X78420043Y-47626400D01*
X78105257Y-47311064D01*
X77693759Y-47140195D01*
X77248196Y-47139806D01*
X76836400Y-47309957D01*
X76521064Y-47624743D01*
X76350195Y-48036241D01*
X76349806Y-48481804D01*
X76519957Y-48893600D01*
X76834743Y-49208936D01*
X77246241Y-49379805D01*
X77691804Y-49380194D01*
X78103600Y-49210043D01*
X78418936Y-48895257D01*
X78589805Y-48483759D01*
X78590194Y-48038196D01*
X78590194Y-63247978D01*
X78580050Y-63232797D01*
X78130399Y-62932350D01*
X77600000Y-62826847D01*
X77069601Y-62932350D01*
X76619950Y-63232797D01*
X76319503Y-63682448D01*
X76214000Y-64212847D01*
X76214000Y-64267153D01*
X76319503Y-64797552D01*
X76619950Y-65247203D01*
X77069601Y-65547650D01*
X77600000Y-65653153D01*
X78130399Y-65547650D01*
X78580050Y-65247203D01*
X78880497Y-64797552D01*
X78986000Y-64267153D01*
X78986000Y-69530000D01*
X75470000Y-69530000D01*
X75470000Y-34249619D01*
X75546845Y-34435600D01*
X75763261Y-34652393D01*
X76046166Y-34769866D01*
X76352490Y-34770133D01*
X76635600Y-34653155D01*
X76852393Y-34436739D01*
X76969866Y-34153834D01*
X76970133Y-33847510D01*
X76853155Y-33564400D01*
X76636739Y-33347607D01*
X76353834Y-33230134D01*
X76047510Y-33229867D01*
X75764400Y-33346845D01*
X75547607Y-33563261D01*
X75470000Y-33750158D01*
X75470000Y-30258969D01*
X75563261Y-30352393D01*
X75846166Y-30469866D01*
X76152490Y-30470133D01*
X76435600Y-30353155D01*
X76652393Y-30136739D01*
X76769866Y-29853834D01*
X76770133Y-29547510D01*
X76653155Y-29264400D01*
X76473932Y-29084865D01*
X76569866Y-28853834D01*
X76570133Y-28547510D01*
X76453155Y-28264400D01*
X76236739Y-28047607D01*
X75953834Y-27930134D01*
X75647510Y-27929867D01*
X75470000Y-28003212D01*
X75470000Y-20470000D01*
X79050380Y-20470000D01*
X78864400Y-20546845D01*
X78647607Y-20763261D01*
X78530134Y-21046166D01*
X78529973Y-21230113D01*
X78247510Y-21229867D01*
X77964400Y-21346845D01*
X77747607Y-21563261D01*
X77630134Y-21846166D01*
X77629867Y-22152490D01*
X77746845Y-22435600D01*
X77963261Y-22652393D01*
X78246166Y-22769866D01*
X78552490Y-22770133D01*
X78835600Y-22653155D01*
X79052393Y-22436739D01*
X79169866Y-22153834D01*
X79170026Y-21969886D01*
X79452490Y-21970133D01*
X79735600Y-21853155D01*
X79929948Y-21659144D01*
X79929867Y-21752490D01*
X80046845Y-22035600D01*
X80263261Y-22252393D01*
X80546166Y-22369866D01*
X80852490Y-22370133D01*
X81135600Y-22253155D01*
X81352393Y-22036739D01*
X81469866Y-21753834D01*
X81470133Y-21447510D01*
X81353155Y-21164400D01*
X81136739Y-20947607D01*
X80853834Y-20830134D01*
X80547510Y-20829867D01*
X80264400Y-20946845D01*
X80070051Y-21140855D01*
X80070133Y-21047510D01*
X79953155Y-20764400D01*
X79736739Y-20547607D01*
X79549841Y-20470000D01*
X124530000Y-20470000D01*
X124530000Y-22908000D01*
X116251661Y-22908000D01*
X115599836Y-25406665D01*
X116361614Y-27692000D01*
X124530000Y-27692000D01*
X124530000Y-69530000D01*
M02*
