%FSLAX46Y46*%
G04 Gerber Fmt 4.6, Leading zero omitted, Abs format (unit mm)*
G04 Created by KiCad (PCBNEW (2014-10-31 BZR 5243)-product) date So 05 Apr 2015 19:44:44 CEST*
%MOMM*%
G01*
G04 APERTURE LIST*
%ADD10C,0.100000*%
%ADD11R,0.800000X1.600000*%
%ADD12R,2.100000X3.000000*%
%ADD13R,2.032000X2.032000*%
%ADD14O,2.032000X2.032000*%
%ADD15R,0.900000X0.900000*%
%ADD16R,0.500000X0.600000*%
%ADD17R,0.750000X0.800000*%
%ADD18R,0.600000X0.500000*%
%ADD19R,0.800000X0.750000*%
%ADD20R,0.900000X0.500000*%
%ADD21R,1.270000X2.540000*%
%ADD22R,1.300000X0.700000*%
%ADD23R,1.000000X1.250000*%
%ADD24R,0.900000X0.400000*%
%ADD25R,1.800000X0.600000*%
%ADD26R,1.950720X2.499360*%
%ADD27R,0.508000X1.143000*%
%ADD28R,1.200000X1.000000*%
%ADD29C,1.500000*%
%ADD30R,1.600200X0.899160*%
%ADD31R,0.701040X1.000760*%
%ADD32R,1.000000X1.000000*%
%ADD33R,1.100000X0.400000*%
%ADD34R,4.572000X1.524000*%
%ADD35R,1.000000X1.600000*%
%ADD36O,0.750000X0.300000*%
%ADD37O,0.300000X0.750000*%
%ADD38R,0.500000X0.900000*%
%ADD39R,2.235200X2.235200*%
%ADD40R,1.900000X1.900000*%
%ADD41C,0.225000*%
%ADD42R,0.600000X1.550000*%
%ADD43R,0.800100X1.300480*%
%ADD44R,2.301240X2.499360*%
%ADD45C,0.889000*%
%ADD46C,0.800000*%
%ADD47C,1.500000*%
%ADD48C,1.000000*%
%ADD49C,0.254000*%
%ADD50C,0.203200*%
%ADD51C,0.152400*%
%ADD52C,0.508000*%
%ADD53C,2.000000*%
%ADD54C,0.160000*%
%ADD55C,0.400000*%
%ADD56C,0.500000*%
G04 APERTURE END LIST*
D10*
G36*
X115541339Y-48731582D02*
X115542040Y-48738649D01*
X115548781Y-48791993D01*
X115558960Y-48841277D01*
X115576096Y-48892947D01*
X115603710Y-48953450D01*
X115645319Y-49029233D01*
X115704444Y-49126743D01*
X115784605Y-49252426D01*
X115785111Y-49253200D01*
X115785111Y-48761254D01*
X115798479Y-48638691D01*
X115843278Y-48554826D01*
X115926554Y-48497452D01*
X115941027Y-48491113D01*
X116028862Y-48465813D01*
X116095210Y-48480402D01*
X116155224Y-48540714D01*
X116184542Y-48584878D01*
X116256159Y-48685745D01*
X116362600Y-48815929D01*
X116496225Y-48967558D01*
X116649396Y-49132761D01*
X116814473Y-49303668D01*
X116983818Y-49472407D01*
X117149791Y-49631107D01*
X117304753Y-49771899D01*
X117441065Y-49886909D01*
X117471287Y-49910676D01*
X117562908Y-49981433D01*
X117437026Y-50064813D01*
X117291664Y-50180137D01*
X117154609Y-50323059D01*
X117040479Y-50476437D01*
X116966270Y-50617038D01*
X116932380Y-50715535D01*
X116913030Y-50813247D01*
X116905170Y-50931141D01*
X116904897Y-51039058D01*
X116908128Y-51298893D01*
X116819342Y-51326496D01*
X116677492Y-51365608D01*
X116569775Y-51381146D01*
X116479389Y-51373859D01*
X116391987Y-51345526D01*
X116309619Y-51295353D01*
X116270587Y-51229327D01*
X116275626Y-51144091D01*
X116325473Y-51036283D01*
X116420861Y-50902547D01*
X116512627Y-50794505D01*
X116587805Y-50708120D01*
X116627349Y-50656258D01*
X116634743Y-50632752D01*
X116613472Y-50631436D01*
X116603261Y-50634085D01*
X116486365Y-50659390D01*
X116365650Y-50672173D01*
X116260013Y-50671503D01*
X116188356Y-50656448D01*
X116184852Y-50654699D01*
X116135318Y-50601060D01*
X116127247Y-50529045D01*
X116161839Y-50459843D01*
X116173167Y-50448907D01*
X116229080Y-50417297D01*
X116315360Y-50385245D01*
X116363667Y-50371829D01*
X116445264Y-50346214D01*
X116543384Y-50307238D01*
X116644422Y-50261460D01*
X116734770Y-50215444D01*
X116800822Y-50175749D01*
X116828972Y-50148938D01*
X116829182Y-50147345D01*
X116810526Y-50122833D01*
X116758302Y-50063542D01*
X116677994Y-49975452D01*
X116575081Y-49864542D01*
X116455047Y-49736791D01*
X116384682Y-49662531D01*
X116204193Y-49469104D01*
X116061791Y-49307589D01*
X115953596Y-49172151D01*
X115875727Y-49056956D01*
X115824303Y-48956170D01*
X115795443Y-48863961D01*
X115785266Y-48774494D01*
X115785111Y-48761254D01*
X115785111Y-49253200D01*
X115889320Y-49412730D01*
X116009793Y-49595454D01*
X116373535Y-50146192D01*
X116269823Y-50211639D01*
X116189819Y-50257714D01*
X116119178Y-50291318D01*
X116104938Y-50296484D01*
X116038476Y-50328087D01*
X115970883Y-50373211D01*
X115909003Y-50449495D01*
X115898570Y-50534764D01*
X115936723Y-50622622D01*
X116020600Y-50706672D01*
X116147342Y-50780516D01*
X116154482Y-50783706D01*
X116262532Y-50831378D01*
X116195088Y-50893883D01*
X116123762Y-50995541D01*
X116089032Y-51122896D01*
X116091280Y-51258353D01*
X116130887Y-51384314D01*
X116182825Y-51459326D01*
X116287040Y-51530931D01*
X116432736Y-51572165D01*
X116613258Y-51582126D01*
X116821947Y-51559915D01*
X116865714Y-51551687D01*
X116956194Y-51535014D01*
X117010716Y-51534066D01*
X117048617Y-51553227D01*
X117089230Y-51596877D01*
X117094916Y-51603626D01*
X117144663Y-51653873D01*
X117196380Y-51700496D01*
X117196380Y-51127917D01*
X117210799Y-51004525D01*
X117249257Y-50857335D01*
X117304077Y-50709239D01*
X117367580Y-50583132D01*
X117390965Y-50547695D01*
X117490486Y-50431042D01*
X117605222Y-50340203D01*
X117743159Y-50272184D01*
X117912280Y-50223990D01*
X118120572Y-50192627D01*
X118376020Y-50175101D01*
X118385672Y-50174711D01*
X118551613Y-50167226D01*
X118670761Y-50159071D01*
X118752761Y-50148802D01*
X118807261Y-50134980D01*
X118843907Y-50116162D01*
X118859061Y-50103966D01*
X118895272Y-50059347D01*
X118897278Y-50029835D01*
X118852211Y-50005692D01*
X118770223Y-49974312D01*
X118669350Y-49941331D01*
X118567629Y-49912389D01*
X118483095Y-49893123D01*
X118444943Y-49888433D01*
X118393408Y-49885629D01*
X118394656Y-49876707D01*
X118429299Y-49861729D01*
X118504509Y-49805129D01*
X118567134Y-49708770D01*
X118592185Y-49643277D01*
X118598782Y-49600552D01*
X118574534Y-49583002D01*
X118514263Y-49579777D01*
X118417488Y-49596810D01*
X118338940Y-49640835D01*
X118287668Y-49701239D01*
X118272718Y-49767409D01*
X118302533Y-49828133D01*
X118309354Y-49846970D01*
X118277672Y-49857572D01*
X118199931Y-49861733D01*
X118159808Y-49862000D01*
X118039193Y-49867531D01*
X117918669Y-49881740D01*
X117855304Y-49894208D01*
X117774996Y-49911540D01*
X117723838Y-49907165D01*
X117676618Y-49874551D01*
X117639211Y-49838236D01*
X117586141Y-49782618D01*
X117569450Y-49750192D01*
X117585081Y-49724769D01*
X117606460Y-49707542D01*
X117705962Y-49645449D01*
X117837685Y-49581994D01*
X117978568Y-49527215D01*
X118101534Y-49492002D01*
X118238486Y-49475181D01*
X118407835Y-49472586D01*
X118587683Y-49483024D01*
X118756128Y-49505305D01*
X118879391Y-49534342D01*
X118965342Y-49565092D01*
X119011970Y-49596586D01*
X119034875Y-49642593D01*
X119042948Y-49678725D01*
X119062295Y-49745967D01*
X119096037Y-49773078D01*
X119137779Y-49776901D01*
X119204762Y-49772088D01*
X119250474Y-49752418D01*
X119279430Y-49708698D01*
X119296147Y-49631737D01*
X119305139Y-49512343D01*
X119308282Y-49429817D01*
X119317786Y-49136602D01*
X119034798Y-48278690D01*
X118896374Y-47853555D01*
X118777948Y-47477135D01*
X118678740Y-47145665D01*
X118597970Y-46855380D01*
X118534860Y-46602512D01*
X118488629Y-46383297D01*
X118458499Y-46193967D01*
X118443690Y-46030759D01*
X118443423Y-45889905D01*
X118456918Y-45767640D01*
X118483396Y-45660198D01*
X118489258Y-45642777D01*
X118528952Y-45547197D01*
X118586864Y-45428580D01*
X118650935Y-45311525D01*
X118655288Y-45304111D01*
X118779330Y-45115223D01*
X118902674Y-44976250D01*
X119034214Y-44881478D01*
X119182841Y-44825198D01*
X119357447Y-44801700D01*
X119439889Y-44800225D01*
X119560343Y-44806094D01*
X119677041Y-44823777D01*
X119800455Y-44856618D01*
X119941057Y-44907959D01*
X120109320Y-44981145D01*
X120315718Y-45079518D01*
X120317490Y-45080386D01*
X120579156Y-45208522D01*
X120482245Y-45410742D01*
X120419431Y-45560854D01*
X120389473Y-45684776D01*
X120385333Y-45748539D01*
X120385333Y-45884116D01*
X120298639Y-45839284D01*
X120215356Y-45815012D01*
X120158690Y-45836966D01*
X120135571Y-45901043D01*
X120136962Y-45935069D01*
X120148845Y-45971266D01*
X120181092Y-46007482D01*
X120242263Y-46050057D01*
X120340918Y-46105327D01*
X120427480Y-46150187D01*
X120577525Y-46231394D01*
X120587326Y-46237846D01*
X120587326Y-45783070D01*
X120592406Y-45709454D01*
X120613572Y-45600034D01*
X120646991Y-45492012D01*
X120656243Y-45469565D01*
X120704787Y-45360555D01*
X120725473Y-45509138D01*
X120768346Y-45660506D01*
X120846740Y-45786533D01*
X120952025Y-45874280D01*
X120977444Y-45886944D01*
X121044549Y-45923661D01*
X121056413Y-45950913D01*
X121013165Y-45970199D01*
X120985055Y-45975341D01*
X120850114Y-45991209D01*
X120756438Y-45988957D01*
X120691157Y-45966455D01*
X120641406Y-45921571D01*
X120638494Y-45917944D01*
X120599390Y-45854162D01*
X120587326Y-45783070D01*
X120587326Y-46237846D01*
X120674493Y-46295236D01*
X120718814Y-46342319D01*
X120710920Y-46373245D01*
X120651240Y-46388618D01*
X120599069Y-46390666D01*
X120519896Y-46387850D01*
X120482075Y-46373928D01*
X120470586Y-46340691D01*
X120470000Y-46320111D01*
X120452824Y-46264083D01*
X120406454Y-46250798D01*
X120338633Y-46280313D01*
X120290677Y-46318763D01*
X120230612Y-46397205D01*
X120221662Y-46469288D01*
X120264192Y-46527863D01*
X120279500Y-46537665D01*
X120350747Y-46559192D01*
X120461078Y-46571514D01*
X120593951Y-46575014D01*
X120732826Y-46570075D01*
X120861164Y-46557082D01*
X120962422Y-46536418D01*
X121002551Y-46520897D01*
X121064463Y-46482146D01*
X121087401Y-46440208D01*
X121084185Y-46370047D01*
X121083286Y-46363238D01*
X121068915Y-46256093D01*
X121225720Y-46224602D01*
X121336399Y-46203670D01*
X121405596Y-46199441D01*
X121447223Y-46217793D01*
X121475194Y-46264602D01*
X121501954Y-46341277D01*
X121531469Y-46430306D01*
X121554914Y-46499704D01*
X121563686Y-46524722D01*
X121550949Y-46552079D01*
X121498258Y-46559999D01*
X121439283Y-46566961D01*
X121333707Y-46586560D01*
X121189464Y-46616872D01*
X121014487Y-46655970D01*
X120816709Y-46701927D01*
X120604062Y-46752819D01*
X120384480Y-46806718D01*
X120165896Y-46861699D01*
X119956242Y-46915836D01*
X119763452Y-46967201D01*
X119595458Y-47013870D01*
X119460193Y-47053917D01*
X119446944Y-47058058D01*
X119322775Y-47101023D01*
X119252274Y-47135657D01*
X119233577Y-47163740D01*
X119264821Y-47187050D01*
X119300387Y-47197925D01*
X119337575Y-47204316D01*
X119386256Y-47206391D01*
X119451428Y-47203433D01*
X119538091Y-47194725D01*
X119651242Y-47179551D01*
X119795880Y-47157194D01*
X119977003Y-47126936D01*
X120199611Y-47088061D01*
X120468701Y-47039852D01*
X120717895Y-46994611D01*
X120947790Y-46952957D01*
X121159463Y-46915080D01*
X121346672Y-46882060D01*
X121503175Y-46854977D01*
X121622731Y-46834912D01*
X121699098Y-46822945D01*
X121726012Y-46820105D01*
X121738633Y-46847177D01*
X121770341Y-46918705D01*
X121817905Y-47027299D01*
X121878096Y-47165570D01*
X121947683Y-47326128D01*
X121988583Y-47420777D01*
X122244427Y-48013444D01*
X122289758Y-48490985D01*
X122316531Y-48934621D01*
X122311305Y-49355544D01*
X122274913Y-49749341D01*
X122208190Y-50111598D01*
X122111969Y-50437902D01*
X121987084Y-50723841D01*
X121834370Y-50965001D01*
X121818356Y-50985534D01*
X121714421Y-51095238D01*
X121570995Y-51216966D01*
X121400844Y-51341410D01*
X121216737Y-51459261D01*
X121031440Y-51561213D01*
X121022827Y-51565502D01*
X120836138Y-51647037D01*
X120610636Y-51728016D01*
X120363739Y-51802956D01*
X120112861Y-51866375D01*
X119976111Y-51895008D01*
X119818793Y-51934416D01*
X119692478Y-51984672D01*
X119607529Y-52041193D01*
X119585385Y-52067733D01*
X119576627Y-52105494D01*
X119593772Y-52160784D01*
X119640977Y-52244971D01*
X119662807Y-52279399D01*
X119732929Y-52389285D01*
X119804814Y-52503772D01*
X119850343Y-52577563D01*
X119926222Y-52678997D01*
X120004517Y-52727927D01*
X120096495Y-52727594D01*
X120212424Y-52681752D01*
X120290126Y-52642077D01*
X120346067Y-52613631D01*
X120361883Y-52605672D01*
X120367967Y-52621598D01*
X120355701Y-52678060D01*
X120328876Y-52763671D01*
X120291286Y-52867047D01*
X120246723Y-52976803D01*
X120213513Y-53051111D01*
X120128141Y-53210378D01*
X120047088Y-53313729D01*
X119970491Y-53361089D01*
X119898486Y-53352381D01*
X119831208Y-53287530D01*
X119819577Y-53269833D01*
X119717443Y-53083327D01*
X119608838Y-52842900D01*
X119494660Y-52550590D01*
X119457646Y-52447987D01*
X119326310Y-52077444D01*
X119162999Y-52068939D01*
X119053546Y-52070384D01*
X118916738Y-52082100D01*
X118780209Y-52101629D01*
X118766033Y-52104217D01*
X118546516Y-52137114D01*
X118363393Y-52142632D01*
X118201967Y-52117391D01*
X118047545Y-52058013D01*
X117885433Y-51961120D01*
X117766282Y-51874362D01*
X117584674Y-51732047D01*
X117445196Y-51613563D01*
X117342612Y-51512051D01*
X117271683Y-51420649D01*
X117227171Y-51332496D01*
X117203837Y-51240731D01*
X117196443Y-51138493D01*
X117196380Y-51127917D01*
X117196380Y-51700496D01*
X117228297Y-51729270D01*
X117334844Y-51820714D01*
X117453330Y-51919099D01*
X117572782Y-52015321D01*
X117682225Y-52100276D01*
X117770686Y-52164858D01*
X117774778Y-52167675D01*
X117840931Y-52205609D01*
X117940931Y-52254487D01*
X118055864Y-52305193D01*
X118085222Y-52317293D01*
X118242869Y-52372829D01*
X118387453Y-52402162D01*
X118535476Y-52405866D01*
X118703439Y-52384514D01*
X118882702Y-52344992D01*
X118995881Y-52318229D01*
X119086339Y-52299380D01*
X119141708Y-52290886D01*
X119152871Y-52291665D01*
X119166596Y-52319976D01*
X119199252Y-52391522D01*
X119247048Y-52497869D01*
X119306192Y-52630583D01*
X119366737Y-52767294D01*
X119466126Y-52987256D01*
X119551226Y-53162994D01*
X119627065Y-53303320D01*
X119698670Y-53417046D01*
X119771069Y-53512985D01*
X119830516Y-53580277D01*
X119917666Y-53650741D01*
X120001242Y-53666768D01*
X120090136Y-53628973D01*
X120126988Y-53600770D01*
X120201381Y-53523592D01*
X120289663Y-53410063D01*
X120382113Y-53275099D01*
X120469010Y-53133620D01*
X120540634Y-53000542D01*
X120584703Y-52898301D01*
X120640791Y-52705655D01*
X120662178Y-52549174D01*
X120648596Y-52431982D01*
X120628398Y-52388774D01*
X120589131Y-52343617D01*
X120536106Y-52322948D01*
X120448279Y-52318571D01*
X120448183Y-52318572D01*
X120337257Y-52328810D01*
X120226748Y-52352733D01*
X120201889Y-52360841D01*
X120129006Y-52384500D01*
X120085214Y-52383479D01*
X120047034Y-52353648D01*
X120025500Y-52329806D01*
X119982016Y-52271188D01*
X119962128Y-52226089D01*
X119962000Y-52223780D01*
X119987999Y-52201761D01*
X120058689Y-52174342D01*
X120163108Y-52145548D01*
X120194833Y-52138245D01*
X120420112Y-52081390D01*
X120643492Y-52012460D01*
X120846014Y-51937769D01*
X120989062Y-51873733D01*
X121127125Y-51804321D01*
X121203602Y-51884438D01*
X121245560Y-51928763D01*
X121297642Y-51984054D01*
X121297642Y-51704973D01*
X121329775Y-51678460D01*
X121392558Y-51639803D01*
X121416099Y-51626889D01*
X121520205Y-51571445D01*
X121580714Y-51654588D01*
X121654337Y-51750951D01*
X121742118Y-51858526D01*
X121836209Y-51968576D01*
X121928763Y-52072361D01*
X122011934Y-52161145D01*
X122077875Y-52226188D01*
X122118739Y-52258754D01*
X122125162Y-52260888D01*
X122144091Y-52258807D01*
X122165700Y-52248583D01*
X122196339Y-52224243D01*
X122242355Y-52179817D01*
X122310095Y-52109332D01*
X122405909Y-52006817D01*
X122478848Y-51928167D01*
X122585619Y-51816665D01*
X122660571Y-51749916D01*
X122706241Y-51729515D01*
X122725165Y-51757059D01*
X122719882Y-51834143D01*
X122692929Y-51962364D01*
X122671331Y-52049232D01*
X122613309Y-52246858D01*
X122549000Y-52415042D01*
X122481677Y-52547645D01*
X122414614Y-52638531D01*
X122351086Y-52681560D01*
X122332599Y-52684222D01*
X122291632Y-52666636D01*
X122220616Y-52619372D01*
X122131315Y-52550672D01*
X122075918Y-52504372D01*
X121972612Y-52412322D01*
X121857888Y-52304948D01*
X121738463Y-52189152D01*
X121621054Y-52071832D01*
X121512379Y-51959890D01*
X121419156Y-51860224D01*
X121348102Y-51779734D01*
X121305935Y-51725321D01*
X121297642Y-51704973D01*
X121297642Y-51984054D01*
X121319113Y-52006848D01*
X121417270Y-52111259D01*
X121533043Y-52234557D01*
X121659441Y-52369307D01*
X121697746Y-52410168D01*
X121825862Y-52545541D01*
X121945874Y-52669905D01*
X122050775Y-52776191D01*
X122133557Y-52857328D01*
X122187213Y-52906244D01*
X122196786Y-52913724D01*
X122255297Y-52950419D01*
X122296581Y-52953867D01*
X122346373Y-52926971D01*
X122447886Y-52844862D01*
X122538946Y-52734681D01*
X122628034Y-52585275D01*
X122670461Y-52500777D01*
X122751175Y-52310894D01*
X122811425Y-52123314D01*
X122849707Y-51947389D01*
X122864520Y-51792471D01*
X122854358Y-51667911D01*
X122817923Y-51583313D01*
X122766958Y-51520373D01*
X122641534Y-51584213D01*
X122562230Y-51635080D01*
X122463526Y-51713195D01*
X122363722Y-51803798D01*
X122339958Y-51827470D01*
X122259264Y-51907335D01*
X122192703Y-51968912D01*
X122150440Y-52002984D01*
X122142110Y-52006888D01*
X122118831Y-51984857D01*
X122071246Y-51924797D01*
X122006184Y-51835763D01*
X121930472Y-51726807D01*
X121926939Y-51721602D01*
X121733462Y-51436316D01*
X121917049Y-51270622D01*
X122042000Y-51151436D01*
X122140770Y-51039080D01*
X122219828Y-50921755D01*
X122285643Y-50787666D01*
X122344682Y-50625016D01*
X122403413Y-50422008D01*
X122422762Y-50348289D01*
X122537340Y-49904333D01*
X122551353Y-49035426D01*
X122555097Y-48736373D01*
X122555752Y-48490447D01*
X122553259Y-48294413D01*
X122547557Y-48145036D01*
X122538587Y-48039080D01*
X122532158Y-47997729D01*
X122508208Y-47914291D01*
X122462874Y-47790352D01*
X122400548Y-47635624D01*
X122325622Y-47459822D01*
X122242488Y-47272658D01*
X122155539Y-47083847D01*
X122069165Y-46903103D01*
X121987759Y-46740138D01*
X121915713Y-46604666D01*
X121858845Y-46508589D01*
X121774670Y-46371293D01*
X121722253Y-46261398D01*
X121697321Y-46162861D01*
X121695599Y-46059636D01*
X121710169Y-45950565D01*
X121725182Y-45738417D01*
X121694421Y-45552262D01*
X121621071Y-45396321D01*
X121508321Y-45274813D01*
X121359356Y-45191958D01*
X121177363Y-45151975D01*
X121104744Y-45148888D01*
X121045845Y-45146737D01*
X120988213Y-45138027D01*
X120923042Y-45119372D01*
X120841529Y-45087386D01*
X120734870Y-45038684D01*
X120594262Y-44969879D01*
X120447671Y-44896193D01*
X120190659Y-44770404D01*
X119973311Y-44673877D01*
X119788478Y-44604330D01*
X119629015Y-44559482D01*
X119487774Y-44537053D01*
X119357610Y-44534762D01*
X119323222Y-44537320D01*
X119108744Y-44580892D01*
X118882007Y-44669337D01*
X118654898Y-44796510D01*
X118439302Y-44956263D01*
X118340494Y-45045510D01*
X118275704Y-45117298D01*
X118227506Y-45196254D01*
X118193662Y-45291784D01*
X118171937Y-45413292D01*
X118160094Y-45570182D01*
X118155897Y-45771860D01*
X118155778Y-45822350D01*
X118167737Y-46174169D01*
X118204682Y-46540076D01*
X118268216Y-46933736D01*
X118311558Y-47150464D01*
X118348682Y-47317627D01*
X118385940Y-47462869D01*
X118427943Y-47599342D01*
X118479303Y-47740201D01*
X118544632Y-47898599D01*
X118628541Y-48087687D01*
X118678462Y-48196888D01*
X118739888Y-48340416D01*
X118800076Y-48499007D01*
X118856707Y-48664265D01*
X118907464Y-48827793D01*
X118950030Y-48981194D01*
X118982085Y-49116073D01*
X119001313Y-49224031D01*
X119005396Y-49296673D01*
X118992015Y-49325603D01*
X118990085Y-49325777D01*
X118958353Y-49319873D01*
X118887249Y-49304414D01*
X118794872Y-49283371D01*
X118661777Y-49255399D01*
X118516333Y-49229101D01*
X118433288Y-49216314D01*
X118221661Y-49205225D01*
X118008935Y-49226666D01*
X117808123Y-49277160D01*
X117632235Y-49353228D01*
X117494282Y-49451392D01*
X117472614Y-49473130D01*
X117386763Y-49565033D01*
X117273266Y-49438350D01*
X117216433Y-49374054D01*
X117131774Y-49277179D01*
X117028213Y-49157989D01*
X116914673Y-49026744D01*
X116835376Y-48934754D01*
X116715976Y-48800250D01*
X116594831Y-48671178D01*
X116482235Y-48557999D01*
X116388481Y-48471174D01*
X116342499Y-48433810D01*
X116247440Y-48367494D01*
X116175472Y-48330031D01*
X116106766Y-48313616D01*
X116028951Y-48310397D01*
X115857419Y-48331117D01*
X115717369Y-48388453D01*
X115614323Y-48477548D01*
X115553805Y-48593544D01*
X115541339Y-48731582D01*
X115541339Y-48731582D01*
X115541339Y-48731582D01*
G37*
X115541339Y-48731582D02*
X115542040Y-48738649D01*
X115548781Y-48791993D01*
X115558960Y-48841277D01*
X115576096Y-48892947D01*
X115603710Y-48953450D01*
X115645319Y-49029233D01*
X115704444Y-49126743D01*
X115784605Y-49252426D01*
X115785111Y-49253200D01*
X115785111Y-48761254D01*
X115798479Y-48638691D01*
X115843278Y-48554826D01*
X115926554Y-48497452D01*
X115941027Y-48491113D01*
X116028862Y-48465813D01*
X116095210Y-48480402D01*
X116155224Y-48540714D01*
X116184542Y-48584878D01*
X116256159Y-48685745D01*
X116362600Y-48815929D01*
X116496225Y-48967558D01*
X116649396Y-49132761D01*
X116814473Y-49303668D01*
X116983818Y-49472407D01*
X117149791Y-49631107D01*
X117304753Y-49771899D01*
X117441065Y-49886909D01*
X117471287Y-49910676D01*
X117562908Y-49981433D01*
X117437026Y-50064813D01*
X117291664Y-50180137D01*
X117154609Y-50323059D01*
X117040479Y-50476437D01*
X116966270Y-50617038D01*
X116932380Y-50715535D01*
X116913030Y-50813247D01*
X116905170Y-50931141D01*
X116904897Y-51039058D01*
X116908128Y-51298893D01*
X116819342Y-51326496D01*
X116677492Y-51365608D01*
X116569775Y-51381146D01*
X116479389Y-51373859D01*
X116391987Y-51345526D01*
X116309619Y-51295353D01*
X116270587Y-51229327D01*
X116275626Y-51144091D01*
X116325473Y-51036283D01*
X116420861Y-50902547D01*
X116512627Y-50794505D01*
X116587805Y-50708120D01*
X116627349Y-50656258D01*
X116634743Y-50632752D01*
X116613472Y-50631436D01*
X116603261Y-50634085D01*
X116486365Y-50659390D01*
X116365650Y-50672173D01*
X116260013Y-50671503D01*
X116188356Y-50656448D01*
X116184852Y-50654699D01*
X116135318Y-50601060D01*
X116127247Y-50529045D01*
X116161839Y-50459843D01*
X116173167Y-50448907D01*
X116229080Y-50417297D01*
X116315360Y-50385245D01*
X116363667Y-50371829D01*
X116445264Y-50346214D01*
X116543384Y-50307238D01*
X116644422Y-50261460D01*
X116734770Y-50215444D01*
X116800822Y-50175749D01*
X116828972Y-50148938D01*
X116829182Y-50147345D01*
X116810526Y-50122833D01*
X116758302Y-50063542D01*
X116677994Y-49975452D01*
X116575081Y-49864542D01*
X116455047Y-49736791D01*
X116384682Y-49662531D01*
X116204193Y-49469104D01*
X116061791Y-49307589D01*
X115953596Y-49172151D01*
X115875727Y-49056956D01*
X115824303Y-48956170D01*
X115795443Y-48863961D01*
X115785266Y-48774494D01*
X115785111Y-48761254D01*
X115785111Y-49253200D01*
X115889320Y-49412730D01*
X116009793Y-49595454D01*
X116373535Y-50146192D01*
X116269823Y-50211639D01*
X116189819Y-50257714D01*
X116119178Y-50291318D01*
X116104938Y-50296484D01*
X116038476Y-50328087D01*
X115970883Y-50373211D01*
X115909003Y-50449495D01*
X115898570Y-50534764D01*
X115936723Y-50622622D01*
X116020600Y-50706672D01*
X116147342Y-50780516D01*
X116154482Y-50783706D01*
X116262532Y-50831378D01*
X116195088Y-50893883D01*
X116123762Y-50995541D01*
X116089032Y-51122896D01*
X116091280Y-51258353D01*
X116130887Y-51384314D01*
X116182825Y-51459326D01*
X116287040Y-51530931D01*
X116432736Y-51572165D01*
X116613258Y-51582126D01*
X116821947Y-51559915D01*
X116865714Y-51551687D01*
X116956194Y-51535014D01*
X117010716Y-51534066D01*
X117048617Y-51553227D01*
X117089230Y-51596877D01*
X117094916Y-51603626D01*
X117144663Y-51653873D01*
X117196380Y-51700496D01*
X117196380Y-51127917D01*
X117210799Y-51004525D01*
X117249257Y-50857335D01*
X117304077Y-50709239D01*
X117367580Y-50583132D01*
X117390965Y-50547695D01*
X117490486Y-50431042D01*
X117605222Y-50340203D01*
X117743159Y-50272184D01*
X117912280Y-50223990D01*
X118120572Y-50192627D01*
X118376020Y-50175101D01*
X118385672Y-50174711D01*
X118551613Y-50167226D01*
X118670761Y-50159071D01*
X118752761Y-50148802D01*
X118807261Y-50134980D01*
X118843907Y-50116162D01*
X118859061Y-50103966D01*
X118895272Y-50059347D01*
X118897278Y-50029835D01*
X118852211Y-50005692D01*
X118770223Y-49974312D01*
X118669350Y-49941331D01*
X118567629Y-49912389D01*
X118483095Y-49893123D01*
X118444943Y-49888433D01*
X118393408Y-49885629D01*
X118394656Y-49876707D01*
X118429299Y-49861729D01*
X118504509Y-49805129D01*
X118567134Y-49708770D01*
X118592185Y-49643277D01*
X118598782Y-49600552D01*
X118574534Y-49583002D01*
X118514263Y-49579777D01*
X118417488Y-49596810D01*
X118338940Y-49640835D01*
X118287668Y-49701239D01*
X118272718Y-49767409D01*
X118302533Y-49828133D01*
X118309354Y-49846970D01*
X118277672Y-49857572D01*
X118199931Y-49861733D01*
X118159808Y-49862000D01*
X118039193Y-49867531D01*
X117918669Y-49881740D01*
X117855304Y-49894208D01*
X117774996Y-49911540D01*
X117723838Y-49907165D01*
X117676618Y-49874551D01*
X117639211Y-49838236D01*
X117586141Y-49782618D01*
X117569450Y-49750192D01*
X117585081Y-49724769D01*
X117606460Y-49707542D01*
X117705962Y-49645449D01*
X117837685Y-49581994D01*
X117978568Y-49527215D01*
X118101534Y-49492002D01*
X118238486Y-49475181D01*
X118407835Y-49472586D01*
X118587683Y-49483024D01*
X118756128Y-49505305D01*
X118879391Y-49534342D01*
X118965342Y-49565092D01*
X119011970Y-49596586D01*
X119034875Y-49642593D01*
X119042948Y-49678725D01*
X119062295Y-49745967D01*
X119096037Y-49773078D01*
X119137779Y-49776901D01*
X119204762Y-49772088D01*
X119250474Y-49752418D01*
X119279430Y-49708698D01*
X119296147Y-49631737D01*
X119305139Y-49512343D01*
X119308282Y-49429817D01*
X119317786Y-49136602D01*
X119034798Y-48278690D01*
X118896374Y-47853555D01*
X118777948Y-47477135D01*
X118678740Y-47145665D01*
X118597970Y-46855380D01*
X118534860Y-46602512D01*
X118488629Y-46383297D01*
X118458499Y-46193967D01*
X118443690Y-46030759D01*
X118443423Y-45889905D01*
X118456918Y-45767640D01*
X118483396Y-45660198D01*
X118489258Y-45642777D01*
X118528952Y-45547197D01*
X118586864Y-45428580D01*
X118650935Y-45311525D01*
X118655288Y-45304111D01*
X118779330Y-45115223D01*
X118902674Y-44976250D01*
X119034214Y-44881478D01*
X119182841Y-44825198D01*
X119357447Y-44801700D01*
X119439889Y-44800225D01*
X119560343Y-44806094D01*
X119677041Y-44823777D01*
X119800455Y-44856618D01*
X119941057Y-44907959D01*
X120109320Y-44981145D01*
X120315718Y-45079518D01*
X120317490Y-45080386D01*
X120579156Y-45208522D01*
X120482245Y-45410742D01*
X120419431Y-45560854D01*
X120389473Y-45684776D01*
X120385333Y-45748539D01*
X120385333Y-45884116D01*
X120298639Y-45839284D01*
X120215356Y-45815012D01*
X120158690Y-45836966D01*
X120135571Y-45901043D01*
X120136962Y-45935069D01*
X120148845Y-45971266D01*
X120181092Y-46007482D01*
X120242263Y-46050057D01*
X120340918Y-46105327D01*
X120427480Y-46150187D01*
X120577525Y-46231394D01*
X120587326Y-46237846D01*
X120587326Y-45783070D01*
X120592406Y-45709454D01*
X120613572Y-45600034D01*
X120646991Y-45492012D01*
X120656243Y-45469565D01*
X120704787Y-45360555D01*
X120725473Y-45509138D01*
X120768346Y-45660506D01*
X120846740Y-45786533D01*
X120952025Y-45874280D01*
X120977444Y-45886944D01*
X121044549Y-45923661D01*
X121056413Y-45950913D01*
X121013165Y-45970199D01*
X120985055Y-45975341D01*
X120850114Y-45991209D01*
X120756438Y-45988957D01*
X120691157Y-45966455D01*
X120641406Y-45921571D01*
X120638494Y-45917944D01*
X120599390Y-45854162D01*
X120587326Y-45783070D01*
X120587326Y-46237846D01*
X120674493Y-46295236D01*
X120718814Y-46342319D01*
X120710920Y-46373245D01*
X120651240Y-46388618D01*
X120599069Y-46390666D01*
X120519896Y-46387850D01*
X120482075Y-46373928D01*
X120470586Y-46340691D01*
X120470000Y-46320111D01*
X120452824Y-46264083D01*
X120406454Y-46250798D01*
X120338633Y-46280313D01*
X120290677Y-46318763D01*
X120230612Y-46397205D01*
X120221662Y-46469288D01*
X120264192Y-46527863D01*
X120279500Y-46537665D01*
X120350747Y-46559192D01*
X120461078Y-46571514D01*
X120593951Y-46575014D01*
X120732826Y-46570075D01*
X120861164Y-46557082D01*
X120962422Y-46536418D01*
X121002551Y-46520897D01*
X121064463Y-46482146D01*
X121087401Y-46440208D01*
X121084185Y-46370047D01*
X121083286Y-46363238D01*
X121068915Y-46256093D01*
X121225720Y-46224602D01*
X121336399Y-46203670D01*
X121405596Y-46199441D01*
X121447223Y-46217793D01*
X121475194Y-46264602D01*
X121501954Y-46341277D01*
X121531469Y-46430306D01*
X121554914Y-46499704D01*
X121563686Y-46524722D01*
X121550949Y-46552079D01*
X121498258Y-46559999D01*
X121439283Y-46566961D01*
X121333707Y-46586560D01*
X121189464Y-46616872D01*
X121014487Y-46655970D01*
X120816709Y-46701927D01*
X120604062Y-46752819D01*
X120384480Y-46806718D01*
X120165896Y-46861699D01*
X119956242Y-46915836D01*
X119763452Y-46967201D01*
X119595458Y-47013870D01*
X119460193Y-47053917D01*
X119446944Y-47058058D01*
X119322775Y-47101023D01*
X119252274Y-47135657D01*
X119233577Y-47163740D01*
X119264821Y-47187050D01*
X119300387Y-47197925D01*
X119337575Y-47204316D01*
X119386256Y-47206391D01*
X119451428Y-47203433D01*
X119538091Y-47194725D01*
X119651242Y-47179551D01*
X119795880Y-47157194D01*
X119977003Y-47126936D01*
X120199611Y-47088061D01*
X120468701Y-47039852D01*
X120717895Y-46994611D01*
X120947790Y-46952957D01*
X121159463Y-46915080D01*
X121346672Y-46882060D01*
X121503175Y-46854977D01*
X121622731Y-46834912D01*
X121699098Y-46822945D01*
X121726012Y-46820105D01*
X121738633Y-46847177D01*
X121770341Y-46918705D01*
X121817905Y-47027299D01*
X121878096Y-47165570D01*
X121947683Y-47326128D01*
X121988583Y-47420777D01*
X122244427Y-48013444D01*
X122289758Y-48490985D01*
X122316531Y-48934621D01*
X122311305Y-49355544D01*
X122274913Y-49749341D01*
X122208190Y-50111598D01*
X122111969Y-50437902D01*
X121987084Y-50723841D01*
X121834370Y-50965001D01*
X121818356Y-50985534D01*
X121714421Y-51095238D01*
X121570995Y-51216966D01*
X121400844Y-51341410D01*
X121216737Y-51459261D01*
X121031440Y-51561213D01*
X121022827Y-51565502D01*
X120836138Y-51647037D01*
X120610636Y-51728016D01*
X120363739Y-51802956D01*
X120112861Y-51866375D01*
X119976111Y-51895008D01*
X119818793Y-51934416D01*
X119692478Y-51984672D01*
X119607529Y-52041193D01*
X119585385Y-52067733D01*
X119576627Y-52105494D01*
X119593772Y-52160784D01*
X119640977Y-52244971D01*
X119662807Y-52279399D01*
X119732929Y-52389285D01*
X119804814Y-52503772D01*
X119850343Y-52577563D01*
X119926222Y-52678997D01*
X120004517Y-52727927D01*
X120096495Y-52727594D01*
X120212424Y-52681752D01*
X120290126Y-52642077D01*
X120346067Y-52613631D01*
X120361883Y-52605672D01*
X120367967Y-52621598D01*
X120355701Y-52678060D01*
X120328876Y-52763671D01*
X120291286Y-52867047D01*
X120246723Y-52976803D01*
X120213513Y-53051111D01*
X120128141Y-53210378D01*
X120047088Y-53313729D01*
X119970491Y-53361089D01*
X119898486Y-53352381D01*
X119831208Y-53287530D01*
X119819577Y-53269833D01*
X119717443Y-53083327D01*
X119608838Y-52842900D01*
X119494660Y-52550590D01*
X119457646Y-52447987D01*
X119326310Y-52077444D01*
X119162999Y-52068939D01*
X119053546Y-52070384D01*
X118916738Y-52082100D01*
X118780209Y-52101629D01*
X118766033Y-52104217D01*
X118546516Y-52137114D01*
X118363393Y-52142632D01*
X118201967Y-52117391D01*
X118047545Y-52058013D01*
X117885433Y-51961120D01*
X117766282Y-51874362D01*
X117584674Y-51732047D01*
X117445196Y-51613563D01*
X117342612Y-51512051D01*
X117271683Y-51420649D01*
X117227171Y-51332496D01*
X117203837Y-51240731D01*
X117196443Y-51138493D01*
X117196380Y-51127917D01*
X117196380Y-51700496D01*
X117228297Y-51729270D01*
X117334844Y-51820714D01*
X117453330Y-51919099D01*
X117572782Y-52015321D01*
X117682225Y-52100276D01*
X117770686Y-52164858D01*
X117774778Y-52167675D01*
X117840931Y-52205609D01*
X117940931Y-52254487D01*
X118055864Y-52305193D01*
X118085222Y-52317293D01*
X118242869Y-52372829D01*
X118387453Y-52402162D01*
X118535476Y-52405866D01*
X118703439Y-52384514D01*
X118882702Y-52344992D01*
X118995881Y-52318229D01*
X119086339Y-52299380D01*
X119141708Y-52290886D01*
X119152871Y-52291665D01*
X119166596Y-52319976D01*
X119199252Y-52391522D01*
X119247048Y-52497869D01*
X119306192Y-52630583D01*
X119366737Y-52767294D01*
X119466126Y-52987256D01*
X119551226Y-53162994D01*
X119627065Y-53303320D01*
X119698670Y-53417046D01*
X119771069Y-53512985D01*
X119830516Y-53580277D01*
X119917666Y-53650741D01*
X120001242Y-53666768D01*
X120090136Y-53628973D01*
X120126988Y-53600770D01*
X120201381Y-53523592D01*
X120289663Y-53410063D01*
X120382113Y-53275099D01*
X120469010Y-53133620D01*
X120540634Y-53000542D01*
X120584703Y-52898301D01*
X120640791Y-52705655D01*
X120662178Y-52549174D01*
X120648596Y-52431982D01*
X120628398Y-52388774D01*
X120589131Y-52343617D01*
X120536106Y-52322948D01*
X120448279Y-52318571D01*
X120448183Y-52318572D01*
X120337257Y-52328810D01*
X120226748Y-52352733D01*
X120201889Y-52360841D01*
X120129006Y-52384500D01*
X120085214Y-52383479D01*
X120047034Y-52353648D01*
X120025500Y-52329806D01*
X119982016Y-52271188D01*
X119962128Y-52226089D01*
X119962000Y-52223780D01*
X119987999Y-52201761D01*
X120058689Y-52174342D01*
X120163108Y-52145548D01*
X120194833Y-52138245D01*
X120420112Y-52081390D01*
X120643492Y-52012460D01*
X120846014Y-51937769D01*
X120989062Y-51873733D01*
X121127125Y-51804321D01*
X121203602Y-51884438D01*
X121245560Y-51928763D01*
X121297642Y-51984054D01*
X121297642Y-51704973D01*
X121329775Y-51678460D01*
X121392558Y-51639803D01*
X121416099Y-51626889D01*
X121520205Y-51571445D01*
X121580714Y-51654588D01*
X121654337Y-51750951D01*
X121742118Y-51858526D01*
X121836209Y-51968576D01*
X121928763Y-52072361D01*
X122011934Y-52161145D01*
X122077875Y-52226188D01*
X122118739Y-52258754D01*
X122125162Y-52260888D01*
X122144091Y-52258807D01*
X122165700Y-52248583D01*
X122196339Y-52224243D01*
X122242355Y-52179817D01*
X122310095Y-52109332D01*
X122405909Y-52006817D01*
X122478848Y-51928167D01*
X122585619Y-51816665D01*
X122660571Y-51749916D01*
X122706241Y-51729515D01*
X122725165Y-51757059D01*
X122719882Y-51834143D01*
X122692929Y-51962364D01*
X122671331Y-52049232D01*
X122613309Y-52246858D01*
X122549000Y-52415042D01*
X122481677Y-52547645D01*
X122414614Y-52638531D01*
X122351086Y-52681560D01*
X122332599Y-52684222D01*
X122291632Y-52666636D01*
X122220616Y-52619372D01*
X122131315Y-52550672D01*
X122075918Y-52504372D01*
X121972612Y-52412322D01*
X121857888Y-52304948D01*
X121738463Y-52189152D01*
X121621054Y-52071832D01*
X121512379Y-51959890D01*
X121419156Y-51860224D01*
X121348102Y-51779734D01*
X121305935Y-51725321D01*
X121297642Y-51704973D01*
X121297642Y-51984054D01*
X121319113Y-52006848D01*
X121417270Y-52111259D01*
X121533043Y-52234557D01*
X121659441Y-52369307D01*
X121697746Y-52410168D01*
X121825862Y-52545541D01*
X121945874Y-52669905D01*
X122050775Y-52776191D01*
X122133557Y-52857328D01*
X122187213Y-52906244D01*
X122196786Y-52913724D01*
X122255297Y-52950419D01*
X122296581Y-52953867D01*
X122346373Y-52926971D01*
X122447886Y-52844862D01*
X122538946Y-52734681D01*
X122628034Y-52585275D01*
X122670461Y-52500777D01*
X122751175Y-52310894D01*
X122811425Y-52123314D01*
X122849707Y-51947389D01*
X122864520Y-51792471D01*
X122854358Y-51667911D01*
X122817923Y-51583313D01*
X122766958Y-51520373D01*
X122641534Y-51584213D01*
X122562230Y-51635080D01*
X122463526Y-51713195D01*
X122363722Y-51803798D01*
X122339958Y-51827470D01*
X122259264Y-51907335D01*
X122192703Y-51968912D01*
X122150440Y-52002984D01*
X122142110Y-52006888D01*
X122118831Y-51984857D01*
X122071246Y-51924797D01*
X122006184Y-51835763D01*
X121930472Y-51726807D01*
X121926939Y-51721602D01*
X121733462Y-51436316D01*
X121917049Y-51270622D01*
X122042000Y-51151436D01*
X122140770Y-51039080D01*
X122219828Y-50921755D01*
X122285643Y-50787666D01*
X122344682Y-50625016D01*
X122403413Y-50422008D01*
X122422762Y-50348289D01*
X122537340Y-49904333D01*
X122551353Y-49035426D01*
X122555097Y-48736373D01*
X122555752Y-48490447D01*
X122553259Y-48294413D01*
X122547557Y-48145036D01*
X122538587Y-48039080D01*
X122532158Y-47997729D01*
X122508208Y-47914291D01*
X122462874Y-47790352D01*
X122400548Y-47635624D01*
X122325622Y-47459822D01*
X122242488Y-47272658D01*
X122155539Y-47083847D01*
X122069165Y-46903103D01*
X121987759Y-46740138D01*
X121915713Y-46604666D01*
X121858845Y-46508589D01*
X121774670Y-46371293D01*
X121722253Y-46261398D01*
X121697321Y-46162861D01*
X121695599Y-46059636D01*
X121710169Y-45950565D01*
X121725182Y-45738417D01*
X121694421Y-45552262D01*
X121621071Y-45396321D01*
X121508321Y-45274813D01*
X121359356Y-45191958D01*
X121177363Y-45151975D01*
X121104744Y-45148888D01*
X121045845Y-45146737D01*
X120988213Y-45138027D01*
X120923042Y-45119372D01*
X120841529Y-45087386D01*
X120734870Y-45038684D01*
X120594262Y-44969879D01*
X120447671Y-44896193D01*
X120190659Y-44770404D01*
X119973311Y-44673877D01*
X119788478Y-44604330D01*
X119629015Y-44559482D01*
X119487774Y-44537053D01*
X119357610Y-44534762D01*
X119323222Y-44537320D01*
X119108744Y-44580892D01*
X118882007Y-44669337D01*
X118654898Y-44796510D01*
X118439302Y-44956263D01*
X118340494Y-45045510D01*
X118275704Y-45117298D01*
X118227506Y-45196254D01*
X118193662Y-45291784D01*
X118171937Y-45413292D01*
X118160094Y-45570182D01*
X118155897Y-45771860D01*
X118155778Y-45822350D01*
X118167737Y-46174169D01*
X118204682Y-46540076D01*
X118268216Y-46933736D01*
X118311558Y-47150464D01*
X118348682Y-47317627D01*
X118385940Y-47462869D01*
X118427943Y-47599342D01*
X118479303Y-47740201D01*
X118544632Y-47898599D01*
X118628541Y-48087687D01*
X118678462Y-48196888D01*
X118739888Y-48340416D01*
X118800076Y-48499007D01*
X118856707Y-48664265D01*
X118907464Y-48827793D01*
X118950030Y-48981194D01*
X118982085Y-49116073D01*
X119001313Y-49224031D01*
X119005396Y-49296673D01*
X118992015Y-49325603D01*
X118990085Y-49325777D01*
X118958353Y-49319873D01*
X118887249Y-49304414D01*
X118794872Y-49283371D01*
X118661777Y-49255399D01*
X118516333Y-49229101D01*
X118433288Y-49216314D01*
X118221661Y-49205225D01*
X118008935Y-49226666D01*
X117808123Y-49277160D01*
X117632235Y-49353228D01*
X117494282Y-49451392D01*
X117472614Y-49473130D01*
X117386763Y-49565033D01*
X117273266Y-49438350D01*
X117216433Y-49374054D01*
X117131774Y-49277179D01*
X117028213Y-49157989D01*
X116914673Y-49026744D01*
X116835376Y-48934754D01*
X116715976Y-48800250D01*
X116594831Y-48671178D01*
X116482235Y-48557999D01*
X116388481Y-48471174D01*
X116342499Y-48433810D01*
X116247440Y-48367494D01*
X116175472Y-48330031D01*
X116106766Y-48313616D01*
X116028951Y-48310397D01*
X115857419Y-48331117D01*
X115717369Y-48388453D01*
X115614323Y-48477548D01*
X115553805Y-48593544D01*
X115541339Y-48731582D01*
X115541339Y-48731582D01*
G36*
X118384659Y-51943446D02*
X118398686Y-51990469D01*
X118434663Y-52030669D01*
X118485261Y-52022078D01*
X118535177Y-51972387D01*
X118574134Y-51897742D01*
X118567073Y-51842276D01*
X118538666Y-51810900D01*
X118500001Y-51794927D01*
X118455809Y-51820480D01*
X118439888Y-51835667D01*
X118392807Y-51892639D01*
X118384659Y-51943446D01*
X118384659Y-51943446D01*
X118384659Y-51943446D01*
G37*
X118384659Y-51943446D02*
X118398686Y-51990469D01*
X118434663Y-52030669D01*
X118485261Y-52022078D01*
X118535177Y-51972387D01*
X118574134Y-51897742D01*
X118567073Y-51842276D01*
X118538666Y-51810900D01*
X118500001Y-51794927D01*
X118455809Y-51820480D01*
X118439888Y-51835667D01*
X118392807Y-51892639D01*
X118384659Y-51943446D01*
X118384659Y-51943446D01*
G36*
X118557576Y-51538402D02*
X118560193Y-51567094D01*
X118599108Y-51600390D01*
X118665325Y-51611026D01*
X118734258Y-51598554D01*
X118775377Y-51570997D01*
X118798808Y-51511655D01*
X118799908Y-51465164D01*
X118779768Y-51416666D01*
X118728430Y-51407226D01*
X118720131Y-51408038D01*
X118645714Y-51433380D01*
X118586408Y-51481927D01*
X118557576Y-51538402D01*
X118557576Y-51538402D01*
X118557576Y-51538402D01*
G37*
X118557576Y-51538402D02*
X118560193Y-51567094D01*
X118599108Y-51600390D01*
X118665325Y-51611026D01*
X118734258Y-51598554D01*
X118775377Y-51570997D01*
X118798808Y-51511655D01*
X118799908Y-51465164D01*
X118779768Y-51416666D01*
X118728430Y-51407226D01*
X118720131Y-51408038D01*
X118645714Y-51433380D01*
X118586408Y-51481927D01*
X118557576Y-51538402D01*
X118557576Y-51538402D01*
G36*
X118596144Y-51065286D02*
X118598120Y-51129269D01*
X118645357Y-51206287D01*
X118651293Y-51213453D01*
X118724121Y-51279691D01*
X118787220Y-51299039D01*
X118833304Y-51270775D01*
X118849184Y-51233010D01*
X118858066Y-51133367D01*
X118822055Y-51060427D01*
X118762053Y-51014866D01*
X118683629Y-50983292D01*
X118630782Y-50999659D01*
X118596144Y-51065286D01*
X118596144Y-51065286D01*
X118596144Y-51065286D01*
G37*
X118596144Y-51065286D02*
X118598120Y-51129269D01*
X118645357Y-51206287D01*
X118651293Y-51213453D01*
X118724121Y-51279691D01*
X118787220Y-51299039D01*
X118833304Y-51270775D01*
X118849184Y-51233010D01*
X118858066Y-51133367D01*
X118822055Y-51060427D01*
X118762053Y-51014866D01*
X118683629Y-50983292D01*
X118630782Y-50999659D01*
X118596144Y-51065286D01*
X118596144Y-51065286D01*
G36*
X118189030Y-50668596D02*
X118189234Y-50671184D01*
X118205540Y-50749518D01*
X118243419Y-50783136D01*
X118311555Y-50775809D01*
X118374500Y-50751613D01*
X118435483Y-50716785D01*
X118465556Y-50683752D01*
X118466222Y-50679635D01*
X118446902Y-50640038D01*
X118400293Y-50583553D01*
X118343420Y-50527635D01*
X118293311Y-50489737D01*
X118274293Y-50482888D01*
X118225979Y-50508189D01*
X118195450Y-50574759D01*
X118189030Y-50668596D01*
X118189030Y-50668596D01*
X118189030Y-50668596D01*
G37*
X118189030Y-50668596D02*
X118189234Y-50671184D01*
X118205540Y-50749518D01*
X118243419Y-50783136D01*
X118311555Y-50775809D01*
X118374500Y-50751613D01*
X118435483Y-50716785D01*
X118465556Y-50683752D01*
X118466222Y-50679635D01*
X118446902Y-50640038D01*
X118400293Y-50583553D01*
X118343420Y-50527635D01*
X118293311Y-50489737D01*
X118274293Y-50482888D01*
X118225979Y-50508189D01*
X118195450Y-50574759D01*
X118189030Y-50668596D01*
X118189030Y-50668596D01*
G36*
X119405523Y-48327728D02*
X119409585Y-48401943D01*
X119429241Y-48477830D01*
X119469879Y-48597781D01*
X119528695Y-48754674D01*
X119602884Y-48941386D01*
X119689641Y-49150795D01*
X119786162Y-49375776D01*
X119851178Y-49523333D01*
X119914389Y-49667270D01*
X119955184Y-49770974D01*
X119974398Y-49845643D01*
X119972867Y-49902478D01*
X119951426Y-49952677D01*
X119910910Y-50007440D01*
X119889225Y-50033519D01*
X119797152Y-50153458D01*
X119746080Y-50248672D01*
X119732497Y-50329146D01*
X119752895Y-50404867D01*
X119756272Y-50411779D01*
X119818521Y-50512465D01*
X119886611Y-50586569D01*
X119949173Y-50622395D01*
X119962545Y-50624000D01*
X120016551Y-50604347D01*
X120058884Y-50569648D01*
X120087876Y-50541868D01*
X120114588Y-50538140D01*
X120151842Y-50563821D01*
X120212462Y-50624269D01*
X120227753Y-50640203D01*
X120319047Y-50723159D01*
X120394519Y-50759509D01*
X120465013Y-50752400D01*
X120516275Y-50723901D01*
X120570022Y-50667550D01*
X120609628Y-50599357D01*
X120665224Y-50524423D01*
X120719351Y-50497544D01*
X120827677Y-50455790D01*
X120898252Y-50396697D01*
X120921555Y-50332768D01*
X120900265Y-50277623D01*
X120835009Y-50198038D01*
X120723712Y-50091481D01*
X120723626Y-50091404D01*
X120631185Y-50004229D01*
X120551864Y-49921414D01*
X120497938Y-49856108D01*
X120485399Y-49836268D01*
X120454912Y-49758782D01*
X120416346Y-49630193D01*
X120370845Y-49455086D01*
X120319552Y-49238044D01*
X120263609Y-48983651D01*
X120217296Y-48761333D01*
X120174964Y-48555366D01*
X120141161Y-48397238D01*
X120113590Y-48279391D01*
X120089952Y-48194266D01*
X120067952Y-48134305D01*
X120045291Y-48091952D01*
X120019672Y-48059647D01*
X119997309Y-48037628D01*
X119929171Y-47987971D01*
X119883943Y-47989095D01*
X119858323Y-48041789D01*
X119853436Y-48072065D01*
X119851299Y-48121973D01*
X119856630Y-48184956D01*
X119870901Y-48266984D01*
X119895583Y-48374028D01*
X119932147Y-48512059D01*
X119982065Y-48687046D01*
X120046809Y-48904961D01*
X120110235Y-49114111D01*
X120168425Y-49305102D01*
X120223464Y-49486220D01*
X120272420Y-49647787D01*
X120312366Y-49780127D01*
X120340372Y-49873565D01*
X120349723Y-49905204D01*
X120373625Y-49978867D01*
X120401621Y-50028343D01*
X120447072Y-50066682D01*
X120523340Y-50106933D01*
X120585812Y-50135774D01*
X120694423Y-50191141D01*
X120761316Y-50238374D01*
X120780444Y-50268959D01*
X120775092Y-50297928D01*
X120750547Y-50312854D01*
X120694079Y-50316995D01*
X120603999Y-50314127D01*
X120538838Y-50314410D01*
X120501110Y-50331697D01*
X120477814Y-50379103D01*
X120457708Y-50461722D01*
X120431081Y-50524380D01*
X120395015Y-50535300D01*
X120356553Y-50496729D01*
X120325080Y-50419388D01*
X120280141Y-50300389D01*
X120228999Y-50237376D01*
X120171023Y-50230168D01*
X120105584Y-50278582D01*
X120057281Y-50341999D01*
X120007347Y-50409497D01*
X119972150Y-50433491D01*
X119943992Y-50423210D01*
X119908649Y-50360213D01*
X119922316Y-50272370D01*
X119984530Y-50162011D01*
X119999867Y-50141225D01*
X120068534Y-50046554D01*
X120117690Y-49962694D01*
X120146831Y-49881206D01*
X120155451Y-49793649D01*
X120143043Y-49691584D01*
X120109102Y-49566570D01*
X120053123Y-49410168D01*
X119974601Y-49213938D01*
X119939182Y-49128222D01*
X119895526Y-49014755D01*
X119843521Y-48866959D01*
X119790010Y-48704862D01*
X119746359Y-48563777D01*
X119697685Y-48402973D01*
X119660166Y-48288731D01*
X119629902Y-48213210D01*
X119602996Y-48168573D01*
X119575550Y-48146978D01*
X119543665Y-48140588D01*
X119535862Y-48140444D01*
X119471407Y-48165740D01*
X119425795Y-48232655D01*
X119405523Y-48327728D01*
X119405523Y-48327728D01*
X119405523Y-48327728D01*
G37*
X119405523Y-48327728D02*
X119409585Y-48401943D01*
X119429241Y-48477830D01*
X119469879Y-48597781D01*
X119528695Y-48754674D01*
X119602884Y-48941386D01*
X119689641Y-49150795D01*
X119786162Y-49375776D01*
X119851178Y-49523333D01*
X119914389Y-49667270D01*
X119955184Y-49770974D01*
X119974398Y-49845643D01*
X119972867Y-49902478D01*
X119951426Y-49952677D01*
X119910910Y-50007440D01*
X119889225Y-50033519D01*
X119797152Y-50153458D01*
X119746080Y-50248672D01*
X119732497Y-50329146D01*
X119752895Y-50404867D01*
X119756272Y-50411779D01*
X119818521Y-50512465D01*
X119886611Y-50586569D01*
X119949173Y-50622395D01*
X119962545Y-50624000D01*
X120016551Y-50604347D01*
X120058884Y-50569648D01*
X120087876Y-50541868D01*
X120114588Y-50538140D01*
X120151842Y-50563821D01*
X120212462Y-50624269D01*
X120227753Y-50640203D01*
X120319047Y-50723159D01*
X120394519Y-50759509D01*
X120465013Y-50752400D01*
X120516275Y-50723901D01*
X120570022Y-50667550D01*
X120609628Y-50599357D01*
X120665224Y-50524423D01*
X120719351Y-50497544D01*
X120827677Y-50455790D01*
X120898252Y-50396697D01*
X120921555Y-50332768D01*
X120900265Y-50277623D01*
X120835009Y-50198038D01*
X120723712Y-50091481D01*
X120723626Y-50091404D01*
X120631185Y-50004229D01*
X120551864Y-49921414D01*
X120497938Y-49856108D01*
X120485399Y-49836268D01*
X120454912Y-49758782D01*
X120416346Y-49630193D01*
X120370845Y-49455086D01*
X120319552Y-49238044D01*
X120263609Y-48983651D01*
X120217296Y-48761333D01*
X120174964Y-48555366D01*
X120141161Y-48397238D01*
X120113590Y-48279391D01*
X120089952Y-48194266D01*
X120067952Y-48134305D01*
X120045291Y-48091952D01*
X120019672Y-48059647D01*
X119997309Y-48037628D01*
X119929171Y-47987971D01*
X119883943Y-47989095D01*
X119858323Y-48041789D01*
X119853436Y-48072065D01*
X119851299Y-48121973D01*
X119856630Y-48184956D01*
X119870901Y-48266984D01*
X119895583Y-48374028D01*
X119932147Y-48512059D01*
X119982065Y-48687046D01*
X120046809Y-48904961D01*
X120110235Y-49114111D01*
X120168425Y-49305102D01*
X120223464Y-49486220D01*
X120272420Y-49647787D01*
X120312366Y-49780127D01*
X120340372Y-49873565D01*
X120349723Y-49905204D01*
X120373625Y-49978867D01*
X120401621Y-50028343D01*
X120447072Y-50066682D01*
X120523340Y-50106933D01*
X120585812Y-50135774D01*
X120694423Y-50191141D01*
X120761316Y-50238374D01*
X120780444Y-50268959D01*
X120775092Y-50297928D01*
X120750547Y-50312854D01*
X120694079Y-50316995D01*
X120603999Y-50314127D01*
X120538838Y-50314410D01*
X120501110Y-50331697D01*
X120477814Y-50379103D01*
X120457708Y-50461722D01*
X120431081Y-50524380D01*
X120395015Y-50535300D01*
X120356553Y-50496729D01*
X120325080Y-50419388D01*
X120280141Y-50300389D01*
X120228999Y-50237376D01*
X120171023Y-50230168D01*
X120105584Y-50278582D01*
X120057281Y-50341999D01*
X120007347Y-50409497D01*
X119972150Y-50433491D01*
X119943992Y-50423210D01*
X119908649Y-50360213D01*
X119922316Y-50272370D01*
X119984530Y-50162011D01*
X119999867Y-50141225D01*
X120068534Y-50046554D01*
X120117690Y-49962694D01*
X120146831Y-49881206D01*
X120155451Y-49793649D01*
X120143043Y-49691584D01*
X120109102Y-49566570D01*
X120053123Y-49410168D01*
X119974601Y-49213938D01*
X119939182Y-49128222D01*
X119895526Y-49014755D01*
X119843521Y-48866959D01*
X119790010Y-48704862D01*
X119746359Y-48563777D01*
X119697685Y-48402973D01*
X119660166Y-48288731D01*
X119629902Y-48213210D01*
X119602996Y-48168573D01*
X119575550Y-48146978D01*
X119543665Y-48140588D01*
X119535862Y-48140444D01*
X119471407Y-48165740D01*
X119425795Y-48232655D01*
X119405523Y-48327728D01*
X119405523Y-48327728D01*
G36*
X118551165Y-46267509D02*
X118570405Y-46370677D01*
X118621380Y-46494704D01*
X118694863Y-46621617D01*
X118781622Y-46733445D01*
X118800637Y-46753303D01*
X118804338Y-46756258D01*
X118804338Y-46430984D01*
X118833170Y-46282907D01*
X118886771Y-46147122D01*
X118944746Y-46031615D01*
X118985216Y-45969124D01*
X119009623Y-45959494D01*
X119019411Y-46002571D01*
X119016025Y-46098204D01*
X119012976Y-46133691D01*
X119005430Y-46248655D01*
X119010063Y-46325544D01*
X119028796Y-46381792D01*
X119043025Y-46406064D01*
X119112174Y-46474241D01*
X119214888Y-46534600D01*
X119328395Y-46575883D01*
X119410255Y-46587602D01*
X119464335Y-46594613D01*
X119467087Y-46612670D01*
X119421942Y-46639110D01*
X119332327Y-46671274D01*
X119284419Y-46685251D01*
X119114079Y-46715348D01*
X118977842Y-46701477D01*
X118874222Y-46643479D01*
X118871397Y-46640864D01*
X118817023Y-46552125D01*
X118804338Y-46430984D01*
X118804338Y-46756258D01*
X118924957Y-46852574D01*
X119060205Y-46907134D01*
X119217438Y-46919731D01*
X119383444Y-46898153D01*
X119469107Y-46877187D01*
X119582452Y-46844474D01*
X119691585Y-46809523D01*
X119796784Y-46771106D01*
X119864255Y-46735480D01*
X119910695Y-46690468D01*
X119952801Y-46623897D01*
X119957323Y-46615754D01*
X120027809Y-46488065D01*
X119966440Y-46286019D01*
X119883060Y-46075591D01*
X119775692Y-45915873D01*
X119643401Y-45806054D01*
X119485247Y-45745321D01*
X119327000Y-45731750D01*
X119140073Y-45754304D01*
X118965297Y-45808467D01*
X118810987Y-45888495D01*
X118685456Y-45988649D01*
X118597018Y-46103187D01*
X118553986Y-46226369D01*
X118551165Y-46267509D01*
X118551165Y-46267509D01*
X118551165Y-46267509D01*
G37*
X118551165Y-46267509D02*
X118570405Y-46370677D01*
X118621380Y-46494704D01*
X118694863Y-46621617D01*
X118781622Y-46733445D01*
X118800637Y-46753303D01*
X118804338Y-46756258D01*
X118804338Y-46430984D01*
X118833170Y-46282907D01*
X118886771Y-46147122D01*
X118944746Y-46031615D01*
X118985216Y-45969124D01*
X119009623Y-45959494D01*
X119019411Y-46002571D01*
X119016025Y-46098204D01*
X119012976Y-46133691D01*
X119005430Y-46248655D01*
X119010063Y-46325544D01*
X119028796Y-46381792D01*
X119043025Y-46406064D01*
X119112174Y-46474241D01*
X119214888Y-46534600D01*
X119328395Y-46575883D01*
X119410255Y-46587602D01*
X119464335Y-46594613D01*
X119467087Y-46612670D01*
X119421942Y-46639110D01*
X119332327Y-46671274D01*
X119284419Y-46685251D01*
X119114079Y-46715348D01*
X118977842Y-46701477D01*
X118874222Y-46643479D01*
X118871397Y-46640864D01*
X118817023Y-46552125D01*
X118804338Y-46430984D01*
X118804338Y-46756258D01*
X118924957Y-46852574D01*
X119060205Y-46907134D01*
X119217438Y-46919731D01*
X119383444Y-46898153D01*
X119469107Y-46877187D01*
X119582452Y-46844474D01*
X119691585Y-46809523D01*
X119796784Y-46771106D01*
X119864255Y-46735480D01*
X119910695Y-46690468D01*
X119952801Y-46623897D01*
X119957323Y-46615754D01*
X120027809Y-46488065D01*
X119966440Y-46286019D01*
X119883060Y-46075591D01*
X119775692Y-45915873D01*
X119643401Y-45806054D01*
X119485247Y-45745321D01*
X119327000Y-45731750D01*
X119140073Y-45754304D01*
X118965297Y-45808467D01*
X118810987Y-45888495D01*
X118685456Y-45988649D01*
X118597018Y-46103187D01*
X118553986Y-46226369D01*
X118551165Y-46267509D01*
X118551165Y-46267509D01*
D11*
X78780000Y-24490000D03*
X80030000Y-24490000D03*
X81280000Y-24490000D03*
X82530000Y-24490000D03*
X83780000Y-24490000D03*
D12*
X76230000Y-21590000D03*
X86330000Y-21590000D03*
D13*
X77600000Y-61700000D03*
D14*
X77600000Y-64240000D03*
D15*
X98350000Y-52050000D03*
X97450000Y-52050000D03*
X98350000Y-52950000D03*
X97450000Y-52950000D03*
D16*
X76100000Y-27650000D03*
X76100000Y-26550000D03*
D17*
X80000000Y-29250000D03*
X80000000Y-27750000D03*
D16*
X108500000Y-28150000D03*
X108500000Y-27050000D03*
D18*
X86250000Y-39700000D03*
X85150000Y-39700000D03*
X97250000Y-36600000D03*
X96150000Y-36600000D03*
D19*
X97450000Y-35200000D03*
X95950000Y-35200000D03*
D20*
X86800000Y-49650000D03*
X86800000Y-48150000D03*
X85000000Y-49650000D03*
X85000000Y-48150000D03*
D21*
X98090000Y-27240000D03*
X99360000Y-22160000D03*
X100630000Y-27240000D03*
X101900000Y-22160000D03*
X103170000Y-27240000D03*
X104440000Y-22160000D03*
D20*
X80000000Y-30350000D03*
X80000000Y-31850000D03*
D22*
X112300000Y-29850000D03*
X112300000Y-31750000D03*
D20*
X108500000Y-24350000D03*
X108500000Y-22850000D03*
D23*
X101300000Y-33500000D03*
X103300000Y-33500000D03*
D24*
X98350000Y-32100000D03*
X98350000Y-32900000D03*
X98350000Y-31300000D03*
X98350000Y-33700000D03*
X96650000Y-31300000D03*
X96650000Y-32100000D03*
X96650000Y-32900000D03*
X96650000Y-33700000D03*
D25*
X77700000Y-31050000D03*
X77700000Y-30100000D03*
X77700000Y-29150000D03*
D26*
X103949400Y-39600000D03*
X100850600Y-39600000D03*
X103949400Y-36600000D03*
X100850600Y-36600000D03*
D27*
X110495000Y-27675000D03*
X111765000Y-27675000D03*
X113035000Y-27675000D03*
X114305000Y-27675000D03*
X114305000Y-21325000D03*
X113035000Y-21325000D03*
X111765000Y-21325000D03*
X110495000Y-21325000D03*
D28*
X109092500Y-64257500D03*
X107886000Y-64257500D03*
X107886000Y-62352500D03*
X107886000Y-63305000D03*
X109092500Y-63305000D03*
X109092500Y-62352500D03*
D29*
X77470000Y-40640000D03*
X80010000Y-40640000D03*
X82550000Y-40640000D03*
X77470000Y-43180000D03*
X80010000Y-43180000D03*
X82550000Y-43180000D03*
X77470000Y-45720000D03*
X80010000Y-45720000D03*
X82550000Y-45720000D03*
X77470000Y-48260000D03*
X80010000Y-48260000D03*
X82550000Y-48260000D03*
X77470000Y-50800000D03*
X80010000Y-50800000D03*
X82550000Y-50800000D03*
X77470000Y-53340000D03*
X80010000Y-53340000D03*
X82550000Y-53340000D03*
X77470000Y-55880000D03*
X80010000Y-55880000D03*
X82550000Y-55880000D03*
X77470000Y-58420000D03*
X80010000Y-58420000D03*
X82550000Y-58420000D03*
D30*
X84848740Y-37599160D03*
X82151260Y-35800840D03*
X84848740Y-35800840D03*
X82151260Y-37599160D03*
D31*
X113300000Y-35970000D03*
X114252500Y-33430000D03*
X112347500Y-33430000D03*
D32*
X90700000Y-36381000D03*
X91462000Y-36381000D03*
X89938000Y-36381000D03*
X89938000Y-35619000D03*
X91462000Y-35619000D03*
X90700000Y-35619000D03*
X89938000Y-34857000D03*
X91462000Y-34857000D03*
X90700000Y-34857000D03*
X90700000Y-33333000D03*
X91462000Y-33333000D03*
X89938000Y-33333000D03*
X89938000Y-34095000D03*
X91462000Y-34095000D03*
X90700000Y-34095000D03*
X90700000Y-37143000D03*
X91462000Y-37143000D03*
X89938000Y-37143000D03*
X90700000Y-37905000D03*
X91462000Y-37905000D03*
X89938000Y-37905000D03*
D33*
X87850000Y-40225000D03*
X87850000Y-39575000D03*
X87850000Y-38925000D03*
X87850000Y-38275000D03*
X87850000Y-37625000D03*
X87850000Y-36975000D03*
X87850000Y-36325000D03*
X87850000Y-35675000D03*
X87850000Y-35025000D03*
X87850000Y-34375000D03*
X87850000Y-33725000D03*
X87850000Y-33075000D03*
X87850000Y-32425000D03*
X87850000Y-31775000D03*
X93550000Y-31775000D03*
X93550000Y-32425000D03*
X93550000Y-33075000D03*
X93550000Y-33725000D03*
X93550000Y-34375000D03*
X93550000Y-35025000D03*
X93550000Y-35675000D03*
X93550000Y-36325000D03*
X93550000Y-36975000D03*
X93550000Y-37625000D03*
X93550000Y-38275000D03*
X93550000Y-38925000D03*
X93550000Y-39575000D03*
X93550000Y-40225000D03*
D32*
X89938000Y-38667000D03*
X91462000Y-38667000D03*
X90700000Y-38667000D03*
D34*
X122567700Y-28559760D03*
X122567700Y-22235160D03*
D19*
X92050000Y-65500000D03*
X93550000Y-65500000D03*
D18*
X91950000Y-64100000D03*
X93050000Y-64100000D03*
D16*
X94300000Y-61350000D03*
X94300000Y-60250000D03*
D18*
X87350000Y-61100000D03*
X88450000Y-61100000D03*
D19*
X90450000Y-64100000D03*
X88950000Y-64100000D03*
D35*
X90400000Y-65900000D03*
X87400000Y-65900000D03*
D36*
X89825000Y-61850000D03*
X89825000Y-61350000D03*
X89825000Y-60850000D03*
X89825000Y-60350000D03*
D37*
X90550000Y-59625000D03*
X91050000Y-59625000D03*
X91550000Y-59625000D03*
X92050000Y-59625000D03*
D36*
X92775000Y-60350000D03*
X92775000Y-60850000D03*
X92775000Y-61350000D03*
X92775000Y-61850000D03*
D37*
X92050000Y-62575000D03*
X91550000Y-62575000D03*
X91050000Y-62575000D03*
X90550000Y-62575000D03*
D15*
X91750000Y-60650000D03*
X91750000Y-61550000D03*
X90850000Y-60650000D03*
X90850000Y-61550000D03*
D38*
X87050000Y-59700000D03*
X88550000Y-59700000D03*
X89850000Y-58100000D03*
X91350000Y-58100000D03*
D39*
X111100000Y-44000000D03*
D40*
X85600000Y-68600000D03*
D39*
X85600000Y-57100000D03*
X119300000Y-68200000D03*
D41*
X121900000Y-62700000D03*
X122400000Y-62700000D03*
X121900000Y-63200000D03*
X122400000Y-63200000D03*
X122400000Y-63700000D03*
X121900000Y-63700000D03*
D38*
X77650000Y-34400000D03*
X79150000Y-34400000D03*
D42*
X89395000Y-22800000D03*
X90665000Y-22800000D03*
X91935000Y-22800000D03*
X93205000Y-22800000D03*
X93205000Y-28200000D03*
X91935000Y-28200000D03*
X90665000Y-28200000D03*
X89395000Y-28200000D03*
D43*
X81630000Y-32751200D03*
X84170000Y-32751200D03*
X84170000Y-26248800D03*
X81630000Y-26248800D03*
D18*
X90650000Y-21200000D03*
X91750000Y-21200000D03*
X89950000Y-30000000D03*
X91050000Y-30000000D03*
D44*
X83100000Y-61451160D03*
X83100000Y-65748840D03*
D45*
X79500000Y-27600000D03*
D46*
X93900000Y-29800000D03*
X98600000Y-36400000D03*
X123000000Y-30100000D03*
X121200000Y-30100000D03*
X115800000Y-27100000D03*
X117400000Y-21200000D03*
X119200000Y-21300000D03*
X114600000Y-23200000D03*
X114400000Y-32200000D03*
X106000000Y-22200000D03*
X75900000Y-25500000D03*
X97300000Y-59400000D03*
X96300000Y-60300000D03*
X102800000Y-52200000D03*
X102800000Y-53200000D03*
X91900000Y-54800000D03*
X93100000Y-54900000D03*
X90700000Y-56200000D03*
X90700000Y-55000000D03*
X92600000Y-48900000D03*
X93900000Y-48900000D03*
X95000000Y-49400000D03*
X100700000Y-48400000D03*
X92182828Y-49960279D03*
X76800000Y-36200000D03*
X76100000Y-30800000D03*
X101900000Y-59100000D03*
X99500000Y-59100000D03*
X98300000Y-59100000D03*
X100600000Y-59100000D03*
X81000000Y-60500000D03*
X79800000Y-60500000D03*
X79600000Y-61600000D03*
X78700000Y-60000000D03*
X79300000Y-62700000D03*
X97600000Y-68600000D03*
X95100000Y-65500000D03*
X96500000Y-68600000D03*
X88400000Y-68400000D03*
X87400000Y-68400000D03*
D45*
X121600000Y-68200000D03*
X121600000Y-66600000D03*
X119300000Y-66100000D03*
X116900000Y-68200000D03*
X87600000Y-57100000D03*
X87500000Y-55800000D03*
X84900000Y-59100000D03*
D46*
X119600000Y-29100000D03*
X116100000Y-24100000D03*
X95100000Y-21600000D03*
X84800164Y-27716176D03*
X93000000Y-29800000D03*
X99400000Y-21500000D03*
X99400000Y-23000000D03*
X95500000Y-45500000D03*
X80000000Y-28872980D03*
X76400000Y-24000000D03*
X75800000Y-28700000D03*
X90400000Y-67400000D03*
X90400000Y-68600000D03*
X94300000Y-45500000D03*
X97200000Y-45000000D03*
X89300000Y-21400000D03*
X84518604Y-29791620D03*
X81500000Y-30500000D03*
X103585734Y-29183627D03*
X79055000Y-36200000D03*
X98500000Y-34600000D03*
X84600000Y-25900000D03*
X89900000Y-24900000D03*
X88200000Y-53700000D03*
X105000000Y-31100000D03*
X88300000Y-52400000D03*
X89500000Y-53900000D03*
X90600000Y-53100000D03*
X103200000Y-31200000D03*
X84587884Y-45009217D03*
X100000000Y-33500000D03*
X86700000Y-41800000D03*
X100300000Y-30200000D03*
X90900000Y-24400000D03*
X80581220Y-25902999D03*
X76000000Y-29700000D03*
X76300000Y-32000000D03*
X102500000Y-24800000D03*
X82800000Y-33700000D03*
X83413998Y-28108380D03*
X84806517Y-31293487D03*
X98100000Y-30000000D03*
X85700000Y-33300000D03*
X100700000Y-25300000D03*
X92711449Y-25569816D03*
X81400000Y-27700000D03*
X92000000Y-24300000D03*
X90135919Y-31635919D03*
X79073943Y-26367234D03*
X112300000Y-28900000D03*
X111300000Y-22800000D03*
X120300000Y-33000000D03*
X113000000Y-23200000D03*
X105300000Y-43200000D03*
X110700000Y-25700000D03*
X79300000Y-21200000D03*
X82350000Y-21500000D03*
X84100000Y-21500000D03*
X115700000Y-30400000D03*
X112200000Y-26200000D03*
X120600000Y-35500000D03*
X110900000Y-60000000D03*
X105400000Y-60200000D03*
X80700000Y-34400000D03*
X95800000Y-38100000D03*
X85200000Y-45800000D03*
X110200000Y-49100000D03*
X110100000Y-50700000D03*
X111500000Y-50700000D03*
X113000000Y-50600000D03*
X113000000Y-49200000D03*
X113000000Y-47700000D03*
X111600000Y-47800000D03*
X111600000Y-49100000D03*
X110100000Y-52100000D03*
X111500000Y-52100000D03*
X113000000Y-52100000D03*
X110200000Y-47800000D03*
X113400000Y-67500000D03*
X90700000Y-51300000D03*
X89900000Y-52000000D03*
X94400000Y-68600000D03*
X92100000Y-68600000D03*
X93200000Y-68600000D03*
X76200000Y-34000000D03*
X78400000Y-22000000D03*
X80700000Y-21600000D03*
X91900000Y-27400000D03*
X88000000Y-26200000D03*
X93600000Y-26500000D03*
D47*
X77600000Y-64240000D02*
X81591160Y-64240000D01*
X81591160Y-64240000D02*
X83100000Y-65748840D01*
D48*
X77600000Y-66200000D02*
X80000000Y-68600000D01*
X80000000Y-68600000D02*
X85600000Y-68600000D01*
X77600000Y-64240000D02*
X77600000Y-66200000D01*
D47*
X83100000Y-61451160D02*
X77848840Y-61451160D01*
X77848840Y-61451160D02*
X77600000Y-61700000D01*
D49*
X80000000Y-27750000D02*
X79650000Y-27750000D01*
X79650000Y-27750000D02*
X79500000Y-27600000D01*
X93050000Y-64100000D02*
X93050000Y-65000000D01*
X93050000Y-65000000D02*
X93550000Y-65500000D01*
X87400000Y-65900000D02*
X87400000Y-65650000D01*
X87400000Y-65650000D02*
X88950000Y-64100000D01*
X94300000Y-60250000D02*
X94250000Y-60250000D01*
X94250000Y-60250000D02*
X92500000Y-58500000D01*
X92500000Y-58500000D02*
X91500000Y-58500000D01*
X91500000Y-58500000D02*
X91350000Y-58100000D01*
X91750000Y-61550000D02*
X91750000Y-60650000D01*
X90850000Y-61550000D02*
X91750000Y-61550000D01*
X90850000Y-60650000D02*
X90850000Y-61550000D01*
X91550000Y-59625000D02*
X91550000Y-60450000D01*
X91550000Y-60450000D02*
X91750000Y-60650000D01*
X91350000Y-58100000D02*
X91350000Y-58350000D01*
X91350000Y-58350000D02*
X91550000Y-58550000D01*
X91550000Y-58550000D02*
X91550000Y-59625000D01*
D50*
X95950000Y-35200000D02*
X95950000Y-36400000D01*
X95950000Y-36400000D02*
X96150000Y-36600000D01*
D51*
X96150000Y-35400000D02*
X95950000Y-35200000D01*
X93550000Y-35025000D02*
X95775000Y-35025000D01*
X95775000Y-35025000D02*
X95950000Y-35200000D01*
D50*
X87850000Y-38275000D02*
X86925000Y-38275000D01*
X85150000Y-39150000D02*
X85150000Y-39700000D01*
X85300000Y-39000000D02*
X85150000Y-39150000D01*
X86200000Y-39000000D02*
X85300000Y-39000000D01*
X86925000Y-38275000D02*
X86200000Y-39000000D01*
D49*
X89938000Y-34095000D02*
X89938000Y-34857000D01*
X89938000Y-34857000D02*
X89938000Y-35619000D01*
X89938000Y-35619000D02*
X89938000Y-36381000D01*
X89938000Y-36381000D02*
X89938000Y-37143000D01*
X89938000Y-37143000D02*
X89938000Y-37905000D01*
X89938000Y-37905000D02*
X89938000Y-38667000D01*
X89938000Y-38667000D02*
X90700000Y-38667000D01*
X90700000Y-38667000D02*
X90700000Y-37905000D01*
X90700000Y-37905000D02*
X90700000Y-37143000D01*
X90700000Y-37143000D02*
X90700000Y-36381000D01*
X90700000Y-36381000D02*
X90700000Y-35619000D01*
X90700000Y-35619000D02*
X90700000Y-34857000D01*
X90700000Y-34857000D02*
X91462000Y-34857000D01*
X91462000Y-34857000D02*
X91462000Y-35619000D01*
X91462000Y-35619000D02*
X91462000Y-36381000D01*
X91462000Y-36381000D02*
X91462000Y-37143000D01*
X91462000Y-37143000D02*
X91462000Y-37905000D01*
X91462000Y-37905000D02*
X91462000Y-38667000D01*
X89938000Y-33333000D02*
X90700000Y-33333000D01*
X90700000Y-33333000D02*
X90700000Y-34095000D01*
X90700000Y-34095000D02*
X91462000Y-34095000D01*
X91462000Y-34095000D02*
X91462000Y-33333000D01*
X89938000Y-33333000D02*
X89938000Y-34095000D01*
X87850000Y-38275000D02*
X89568000Y-38275000D01*
X89568000Y-38275000D02*
X89938000Y-37905000D01*
X93550000Y-35025000D02*
X90868000Y-35025000D01*
X90868000Y-35025000D02*
X90700000Y-34857000D01*
X93550000Y-36975000D02*
X90868000Y-36975000D01*
X90868000Y-36975000D02*
X90700000Y-37143000D01*
D50*
X114305000Y-23395000D02*
X114405000Y-23395000D01*
X114405000Y-23395000D02*
X114600000Y-23200000D01*
X114252500Y-33430000D02*
X114252500Y-32347500D01*
X114252500Y-32347500D02*
X114400000Y-32200000D01*
X104440000Y-22160000D02*
X105960000Y-22160000D01*
X105960000Y-22160000D02*
X106000000Y-22200000D01*
D51*
X76100000Y-26550000D02*
X76100000Y-25700000D01*
X76100000Y-25700000D02*
X75900000Y-25500000D01*
D52*
X77470000Y-50800000D02*
X77500000Y-50800000D01*
X77500000Y-50800000D02*
X78700000Y-49600000D01*
X78700000Y-44410000D02*
X77470000Y-43180000D01*
X78700000Y-49600000D02*
X78700000Y-44410000D01*
D50*
X108500000Y-27050000D02*
X108500000Y-26600000D01*
X114305000Y-23395000D02*
X114305000Y-21325000D01*
X113200000Y-24500000D02*
X114305000Y-23395000D01*
X110600000Y-24500000D02*
X113200000Y-24500000D01*
X108500000Y-26600000D02*
X110600000Y-24500000D01*
X77700000Y-30100000D02*
X76800000Y-30100000D01*
X76800000Y-30100000D02*
X76100000Y-30800000D01*
X76100000Y-30800000D02*
X76000000Y-30800000D01*
X76000000Y-30800000D02*
X76100000Y-30800000D01*
D52*
X77600000Y-61100000D02*
X78700000Y-60000000D01*
X77600000Y-61700000D02*
X77600000Y-61100000D01*
X78300000Y-61700000D02*
X79300000Y-62700000D01*
X77600000Y-61700000D02*
X78300000Y-61700000D01*
D49*
X95100000Y-65500000D02*
X95100000Y-67200000D01*
X95100000Y-65500000D02*
X93550000Y-65500000D01*
X95100000Y-67200000D02*
X96500000Y-68600000D01*
X97600000Y-68600000D02*
X96500000Y-68600000D01*
X87400000Y-68400000D02*
X87400000Y-65900000D01*
X88400000Y-68400000D02*
X87400000Y-68400000D01*
D52*
X119300000Y-68200000D02*
X121600000Y-68200000D01*
X120000000Y-68200000D02*
X121600000Y-66600000D01*
X119300000Y-68200000D02*
X120000000Y-68200000D01*
X119300000Y-68200000D02*
X119300000Y-66100000D01*
X119300000Y-68200000D02*
X116900000Y-68200000D01*
X85600000Y-57100000D02*
X87600000Y-57100000D01*
X86200000Y-57100000D02*
X87500000Y-55800000D01*
X85600000Y-57100000D02*
X86200000Y-57100000D01*
X85600000Y-58400000D02*
X84900000Y-59100000D01*
X85600000Y-57100000D02*
X85600000Y-58400000D01*
D50*
X93205000Y-22800000D02*
X93205000Y-22095000D01*
X93700000Y-21600000D02*
X93205000Y-22095000D01*
X93700000Y-21600000D02*
X95100000Y-21600000D01*
D49*
X80000000Y-27750000D02*
X79786232Y-27536232D01*
D50*
X80578200Y-27146800D02*
X80000000Y-27725000D01*
X80000000Y-27725000D02*
X80000000Y-27750000D01*
X81630000Y-26248800D02*
X81410360Y-26248800D01*
X80578200Y-27080960D02*
X80578200Y-27146800D01*
X81410360Y-26248800D02*
X80578200Y-27080960D01*
D49*
X92500000Y-21200000D02*
X93205000Y-21905000D01*
X93205000Y-21905000D02*
X93205000Y-22800000D01*
X91750000Y-21200000D02*
X92500000Y-21200000D01*
X90450000Y-64100000D02*
X90450000Y-65850000D01*
X90450000Y-65850000D02*
X90400000Y-65900000D01*
X87050000Y-59700000D02*
X87050000Y-60800000D01*
X87050000Y-60800000D02*
X87350000Y-61100000D01*
X91050000Y-62575000D02*
X91050000Y-63500000D01*
X91050000Y-63500000D02*
X90450000Y-64100000D01*
X90550000Y-62575000D02*
X90550000Y-64000000D01*
X90550000Y-64000000D02*
X90450000Y-64100000D01*
D52*
X99400000Y-21500000D02*
X99360000Y-21540000D01*
X99360000Y-21540000D02*
X99360000Y-22160000D01*
X99400000Y-23000000D02*
X99360000Y-22960000D01*
X99360000Y-22960000D02*
X99360000Y-22160000D01*
D48*
X91900000Y-40800000D02*
X91900000Y-41900000D01*
X91900000Y-41900000D02*
X95500000Y-45500000D01*
D49*
X93550000Y-37625000D02*
X92775000Y-37625000D01*
D52*
X91900000Y-40800000D02*
X89000000Y-40800000D01*
D49*
X92500000Y-40200000D02*
X91900000Y-40800000D01*
X92500000Y-37900000D02*
X92500000Y-40200000D01*
X92775000Y-37625000D02*
X92500000Y-37900000D01*
D50*
X97450000Y-35200000D02*
X97700000Y-35200000D01*
X97700000Y-35200000D02*
X98000000Y-35500000D01*
X99400000Y-34300000D02*
X98800000Y-33700000D01*
X99400000Y-35000000D02*
X99400000Y-34300000D01*
X98900000Y-35500000D02*
X99400000Y-35000000D01*
X98000000Y-35500000D02*
X98900000Y-35500000D01*
X98800000Y-33700000D02*
X98350000Y-33700000D01*
X97250000Y-36600000D02*
X97250000Y-35400000D01*
X97250000Y-35400000D02*
X97450000Y-35200000D01*
X87850000Y-38925000D02*
X88625000Y-38925000D01*
X88625000Y-38925000D02*
X89000000Y-39300000D01*
X89000000Y-39300000D02*
X89000000Y-40800000D01*
D49*
X96622999Y-37177001D02*
X97200000Y-36600000D01*
X97200000Y-36600000D02*
X97250000Y-36600000D01*
X80327020Y-28872980D02*
X80000000Y-28872980D01*
X80000000Y-28872980D02*
X80000000Y-29250000D01*
D51*
X80000000Y-30350000D02*
X80000000Y-28872980D01*
X98350000Y-32900000D02*
X98350000Y-32100000D01*
X98350000Y-32900000D02*
X98350000Y-33700000D01*
X97450000Y-36400000D02*
X97250000Y-36600000D01*
D50*
X86250000Y-39700000D02*
X86250000Y-39650000D01*
X86250000Y-39650000D02*
X86975000Y-38925000D01*
X86975000Y-38925000D02*
X87850000Y-38925000D01*
D51*
X76450000Y-27650000D02*
X76100000Y-27650000D01*
X76900000Y-27200000D02*
X76450000Y-27650000D01*
X76900000Y-24500000D02*
X76900000Y-27200000D01*
X76400000Y-24000000D02*
X76900000Y-24500000D01*
X76100000Y-27650000D02*
X76100000Y-28400000D01*
X76100000Y-28400000D02*
X75800000Y-28700000D01*
D50*
X80000000Y-30600000D02*
X80000000Y-30350000D01*
D49*
X95687599Y-37177001D02*
X96622999Y-37177001D01*
X94185598Y-35675000D02*
X95687599Y-37177001D01*
X93550000Y-35675000D02*
X94185598Y-35675000D01*
X96372999Y-38827001D02*
X96622999Y-38577001D01*
X95451039Y-38827001D02*
X96372999Y-38827001D01*
X93550000Y-37625000D02*
X94249038Y-37625000D01*
X96622999Y-38577001D02*
X96622999Y-37177001D01*
X94249038Y-37625000D02*
X95451039Y-38827001D01*
X90550000Y-64000000D02*
X90450000Y-64100000D01*
X88300000Y-62200000D02*
X88750000Y-62200000D01*
X88750000Y-62200000D02*
X90550000Y-64000000D01*
X87350000Y-61250000D02*
X88300000Y-62200000D01*
X87350000Y-61100000D02*
X87350000Y-61250000D01*
D48*
X90400000Y-68600000D02*
X90400000Y-67400000D01*
X90400000Y-65900000D02*
X90400000Y-67400000D01*
X95500000Y-45500000D02*
X94300000Y-45500000D01*
X96700000Y-45500000D02*
X97200000Y-45000000D01*
X95500000Y-45500000D02*
X96700000Y-45500000D01*
D50*
X89300000Y-21400000D02*
X89395000Y-21495000D01*
D49*
X89395000Y-21495000D02*
X89395000Y-22800000D01*
X89500000Y-21200000D02*
X89300000Y-21400000D01*
X90650000Y-21200000D02*
X89500000Y-21200000D01*
D51*
X80000000Y-31850000D02*
X80200000Y-31850000D01*
X80200000Y-31850000D02*
X81500000Y-30550000D01*
X81500000Y-30550000D02*
X81500000Y-30500000D01*
D50*
X103170000Y-27240000D02*
X103170000Y-28767893D01*
X103170000Y-28767893D02*
X103185735Y-28783628D01*
X103185735Y-28783628D02*
X103585734Y-29183627D01*
X93550000Y-34375000D02*
X98275000Y-34375000D01*
X98275000Y-34375000D02*
X98500000Y-34600000D01*
X103170000Y-27240000D02*
X103170000Y-26370000D01*
D51*
X84170000Y-26248800D02*
X84251200Y-26248800D01*
X84251200Y-26248800D02*
X84600000Y-25900000D01*
D53*
X105000000Y-31100000D02*
X105000000Y-31500000D01*
X105000000Y-31500000D02*
X105000000Y-31700000D01*
X105000000Y-31700000D02*
X105000000Y-31500000D01*
D52*
X110495000Y-27675000D02*
X110495000Y-29805000D01*
X110495000Y-29805000D02*
X108800000Y-31500000D01*
X108800000Y-31500000D02*
X105000000Y-31500000D01*
D50*
X108500000Y-24350000D02*
X108500000Y-25400000D01*
X108050000Y-28150000D02*
X108500000Y-28150000D01*
X107800000Y-27900000D02*
X108050000Y-28150000D01*
X107800000Y-26100000D02*
X107800000Y-27900000D01*
X108500000Y-25400000D02*
X107800000Y-26100000D01*
X110495000Y-27675000D02*
X110495000Y-28005000D01*
X110495000Y-28005000D02*
X110000000Y-28500000D01*
X110000000Y-28500000D02*
X108850000Y-28500000D01*
X108850000Y-28500000D02*
X108500000Y-28150000D01*
D52*
X86800000Y-49650000D02*
X86800000Y-50100000D01*
X81300000Y-54590000D02*
X80010000Y-55880000D01*
X81300000Y-52600000D02*
X81300000Y-54590000D01*
X81800000Y-52100000D02*
X81300000Y-52600000D01*
X84800000Y-52100000D02*
X81800000Y-52100000D01*
X86800000Y-50100000D02*
X84800000Y-52100000D01*
X109400000Y-44000000D02*
X106100000Y-47300000D01*
X106100000Y-47300000D02*
X91000000Y-47300000D01*
X91000000Y-47300000D02*
X88650000Y-49650000D01*
X88650000Y-49650000D02*
X86800000Y-49650000D01*
X111100000Y-44000000D02*
X109400000Y-44000000D01*
X84042000Y-45555101D02*
X84187885Y-45409216D01*
X84042000Y-47392000D02*
X84042000Y-45555101D01*
X84187885Y-45409216D02*
X84587884Y-45009217D01*
X85000000Y-48150000D02*
X84800000Y-48150000D01*
X84800000Y-48150000D02*
X84042000Y-47392000D01*
X85000000Y-48150000D02*
X86800000Y-48150000D01*
D49*
X101300000Y-33500000D02*
X100000000Y-33500000D01*
X101300000Y-33500000D02*
X101300000Y-31200000D01*
X101300000Y-31200000D02*
X100300000Y-30200000D01*
D51*
X90665000Y-24165000D02*
X90900000Y-24400000D01*
X90665000Y-22800000D02*
X90665000Y-24165000D01*
D50*
X90665000Y-23535000D02*
X90665000Y-22800000D01*
D51*
X77700000Y-29150000D02*
X76550000Y-29150000D01*
X76550000Y-29150000D02*
X76000000Y-29700000D01*
D50*
X77250000Y-31050000D02*
X77700000Y-31050000D01*
X76300000Y-32000000D02*
X77250000Y-31050000D01*
X102100001Y-24400001D02*
X102500000Y-24800000D01*
X101900000Y-24200000D02*
X102100001Y-24400001D01*
X101900000Y-22160000D02*
X101900000Y-24200000D01*
X101900000Y-22160000D02*
X101900000Y-22900000D01*
D51*
X87850000Y-35025000D02*
X87125000Y-35025000D01*
X83200000Y-34100000D02*
X82800000Y-33700000D01*
X86400000Y-34100000D02*
X83200000Y-34100000D01*
X86700000Y-34400000D02*
X86400000Y-34100000D01*
X86700000Y-34600000D02*
X86700000Y-34400000D01*
X87125000Y-35025000D02*
X86700000Y-34600000D01*
X87147600Y-33725000D02*
X84806517Y-31383917D01*
X84806517Y-31383917D02*
X84806517Y-31293487D01*
X87850000Y-33725000D02*
X87147600Y-33725000D01*
D50*
X98090000Y-29990000D02*
X98100000Y-30000000D01*
X98090000Y-27240000D02*
X98090000Y-29990000D01*
D51*
X87275000Y-34375000D02*
X87850000Y-34375000D01*
X86400000Y-33500000D02*
X87275000Y-34375000D01*
X85900000Y-33500000D02*
X86400000Y-33500000D01*
X85700000Y-33300000D02*
X85900000Y-33500000D01*
D50*
X100630000Y-25370000D02*
X100630000Y-27240000D01*
X100700000Y-25300000D02*
X100630000Y-25370000D01*
X100630000Y-27240000D02*
X100630000Y-27870000D01*
D51*
X91935000Y-24235000D02*
X92000000Y-24300000D01*
X91935000Y-22800000D02*
X91935000Y-24235000D01*
D49*
X91306919Y-31635919D02*
X90701604Y-31635919D01*
X92746000Y-33075000D02*
X91306919Y-31635919D01*
X93550000Y-33075000D02*
X92746000Y-33075000D01*
X90701604Y-31635919D02*
X90135919Y-31635919D01*
X93550000Y-33075000D02*
X94825000Y-33075000D01*
X95000000Y-32900000D02*
X96650000Y-32900000D01*
X94825000Y-33075000D02*
X95000000Y-32900000D01*
D50*
X112300000Y-28900000D02*
X112300000Y-29850000D01*
X111765000Y-21325000D02*
X111765000Y-22335000D01*
X111765000Y-22335000D02*
X111300000Y-22800000D01*
X112600001Y-23599999D02*
X113000000Y-23200000D01*
X109153200Y-22850000D02*
X109903199Y-23599999D01*
X108500000Y-22850000D02*
X109153200Y-22850000D01*
X109903199Y-23599999D02*
X112600001Y-23599999D01*
X113035000Y-21325000D02*
X113035000Y-22835000D01*
X113000000Y-22870000D02*
X113000000Y-23200000D01*
X113035000Y-22835000D02*
X113000000Y-22870000D01*
X110700000Y-25700000D02*
X111400000Y-25000000D01*
X111400000Y-25000000D02*
X112900000Y-25000000D01*
X112900000Y-25000000D02*
X113500000Y-25600000D01*
X113500000Y-25600000D02*
X113500000Y-26500000D01*
X113500000Y-26500000D02*
X113035000Y-26965000D01*
X113035000Y-26965000D02*
X113035000Y-27675000D01*
D51*
X80030000Y-25170000D02*
X80030000Y-24490000D01*
D50*
X80030000Y-24490000D02*
X80030000Y-24890000D01*
D51*
X80030000Y-23530000D02*
X80030000Y-24490000D01*
X79600000Y-23100000D02*
X80030000Y-23530000D01*
X79600000Y-21500000D02*
X79600000Y-23100000D01*
X79300000Y-21200000D02*
X79600000Y-21500000D01*
X81280000Y-24490000D02*
X81280000Y-24090000D01*
X82100000Y-21750000D02*
X82350000Y-21500000D01*
X82100000Y-21750000D02*
X82100000Y-22400000D01*
X82100000Y-22400000D02*
X81280000Y-23220000D01*
X81280000Y-24490000D02*
X81280000Y-23220000D01*
D50*
X90665000Y-28200000D02*
X90665000Y-27565000D01*
X90665000Y-27565000D02*
X87300000Y-24200000D01*
X87300000Y-24200000D02*
X85500000Y-24200000D01*
X85500000Y-24200000D02*
X84100000Y-22800000D01*
X84100000Y-22800000D02*
X84100000Y-21500000D01*
D49*
X103949400Y-36600000D02*
X103949400Y-39600000D01*
X103300000Y-33500000D02*
X103300000Y-35950600D01*
X103300000Y-35950600D02*
X103949400Y-36600000D01*
X103300000Y-36449400D02*
X103249400Y-36500000D01*
D50*
X111765000Y-27675000D02*
X111765000Y-26635000D01*
X111765000Y-26635000D02*
X112200000Y-26200000D01*
X114305000Y-27675000D02*
X115075000Y-27675000D01*
X116800000Y-31700000D02*
X120600000Y-35500000D01*
X116800000Y-29400000D02*
X116800000Y-31700000D01*
X115075000Y-27675000D02*
X116800000Y-29400000D01*
D51*
X87850000Y-35675000D02*
X86875000Y-35675000D01*
X80800000Y-34500000D02*
X80700000Y-34400000D01*
X86100000Y-34500000D02*
X80800000Y-34500000D01*
X86300000Y-34700000D02*
X86100000Y-34500000D01*
X86300000Y-35100000D02*
X86300000Y-34700000D01*
X86875000Y-35675000D02*
X86300000Y-35100000D01*
D49*
X95946000Y-32100000D02*
X96650000Y-32100000D01*
X94754918Y-30908918D02*
X95946000Y-32100000D01*
X89786958Y-30908918D02*
X94754918Y-30908918D01*
X89408918Y-31286958D02*
X89786958Y-30908918D01*
X89408918Y-32320082D02*
X89408918Y-31286958D01*
X88654000Y-33075000D02*
X89408918Y-32320082D01*
X87850000Y-33075000D02*
X88654000Y-33075000D01*
X93550000Y-33725000D02*
X96625000Y-33725000D01*
X96625000Y-33725000D02*
X96650000Y-33700000D01*
X84848740Y-37599160D02*
X87824160Y-37599160D01*
X87824160Y-37599160D02*
X87850000Y-37625000D01*
X82151260Y-35800840D02*
X82500840Y-35800840D01*
X82500840Y-35800840D02*
X83400000Y-36700000D01*
X83400000Y-36700000D02*
X86400000Y-36700000D01*
X86400000Y-36700000D02*
X86675000Y-36975000D01*
X86675000Y-36975000D02*
X87850000Y-36975000D01*
D50*
X93550000Y-38925000D02*
X94372668Y-38925000D01*
X94372668Y-38925000D02*
X96500548Y-41052880D01*
X96500548Y-41052880D02*
X98219160Y-41052880D01*
X98219160Y-41052880D02*
X99672040Y-39600000D01*
X99672040Y-39600000D02*
X100850600Y-39600000D01*
D49*
X100150600Y-36500000D02*
X100150600Y-36774320D01*
D50*
X94292892Y-38275000D02*
X95273503Y-39255611D01*
X97016429Y-39255611D02*
X99672040Y-36600000D01*
X93550000Y-38275000D02*
X94292892Y-38275000D01*
X99672040Y-36600000D02*
X100850600Y-36600000D01*
X95273503Y-39255611D02*
X97016429Y-39255611D01*
D54*
X95800000Y-37865000D02*
X95800000Y-38100000D01*
X94260000Y-36325000D02*
X95800000Y-37865000D01*
X93550000Y-36325000D02*
X94260000Y-36325000D01*
D50*
X112300000Y-31750000D02*
X112300000Y-33382500D01*
X112300000Y-33382500D02*
X112347500Y-33430000D01*
X87900000Y-46500000D02*
X85900000Y-46500000D01*
X85900000Y-46500000D02*
X85200000Y-45800000D01*
X113300000Y-36100000D02*
X107400000Y-42000000D01*
X104600000Y-46500000D02*
X87900000Y-46500000D01*
X107400000Y-43700000D02*
X104600000Y-46500000D01*
X107400000Y-42000000D02*
X107400000Y-43700000D01*
X113300000Y-35970000D02*
X113300000Y-36100000D01*
D49*
X92050000Y-65500000D02*
X92050000Y-64200000D01*
X92050000Y-64200000D02*
X91950000Y-64100000D01*
X92775000Y-61850000D02*
X92775000Y-62725000D01*
X92775000Y-62725000D02*
X92050000Y-63450000D01*
X92050000Y-62575000D02*
X92050000Y-63450000D01*
X92050000Y-63450000D02*
X92050000Y-64000000D01*
X92050000Y-64000000D02*
X91950000Y-64100000D01*
X91550000Y-62575000D02*
X91550000Y-63700000D01*
X91550000Y-63700000D02*
X91950000Y-64100000D01*
D52*
X80010000Y-50800000D02*
X80010000Y-53340000D01*
X83800000Y-49500000D02*
X81310000Y-49500000D01*
X81310000Y-49500000D02*
X80010000Y-50800000D01*
X85000000Y-49650000D02*
X83950000Y-49650000D01*
X83950000Y-49650000D02*
X83800000Y-49500000D01*
D49*
X92100000Y-68600000D02*
X93200000Y-68600000D01*
X92050000Y-67550000D02*
X92050000Y-65500000D01*
X92050000Y-68550000D02*
X92100000Y-68600000D01*
X92050000Y-67550000D02*
X92050000Y-68550000D01*
D48*
X95400000Y-51300000D02*
X96800000Y-49900000D01*
X96800000Y-49900000D02*
X109400000Y-49900000D01*
X109400000Y-49900000D02*
X110200000Y-49100000D01*
X90700000Y-51300000D02*
X95400000Y-51300000D01*
D49*
X94300000Y-61350000D02*
X92775000Y-61350000D01*
X88550000Y-59700000D02*
X88700000Y-59700000D01*
X88700000Y-59700000D02*
X89850000Y-58550000D01*
X89850000Y-58550000D02*
X89850000Y-58100000D01*
X88550000Y-59700000D02*
X88550000Y-61000000D01*
X88550000Y-61000000D02*
X88450000Y-61100000D01*
X88450000Y-61100000D02*
X88600000Y-61100000D01*
X88600000Y-61100000D02*
X88850000Y-61350000D01*
X88850000Y-61350000D02*
X89825000Y-61350000D01*
D51*
X120500000Y-63000000D02*
X120600000Y-63000000D01*
D55*
X120600000Y-63000000D02*
X121300000Y-63000000D01*
D51*
X121900000Y-62700000D02*
X121300000Y-62700000D01*
X121300000Y-63200000D02*
X121900000Y-63200000D01*
X121300000Y-62700000D02*
X121300000Y-63000000D01*
X121300000Y-63000000D02*
X121300000Y-63200000D01*
D55*
X123000000Y-62900000D02*
X124000000Y-62900000D01*
D51*
X122400000Y-62700000D02*
X123000000Y-62700000D01*
X123000000Y-63200000D02*
X122400000Y-63200000D01*
X123000000Y-62700000D02*
X123000000Y-62900000D01*
X123000000Y-62900000D02*
X123000000Y-63200000D01*
X122400000Y-63700000D02*
X124000000Y-63700000D01*
X121900000Y-63700000D02*
X120500000Y-63700000D01*
X78780000Y-24490000D02*
X78780000Y-24090000D01*
D50*
X76600000Y-34400000D02*
X77650000Y-34400000D01*
X76200000Y-34000000D02*
X76600000Y-34400000D01*
X78400000Y-23700000D02*
X78400000Y-22000000D01*
X78780000Y-24080000D02*
X78400000Y-23700000D01*
X78780000Y-24490000D02*
X78780000Y-24080000D01*
D49*
X81630000Y-32751200D02*
X80248800Y-32751200D01*
X79150000Y-33850000D02*
X79150000Y-34400000D01*
X80248800Y-32751200D02*
X79150000Y-33850000D01*
D51*
X91935000Y-27435000D02*
X91900000Y-27400000D01*
X91935000Y-28200000D02*
X91935000Y-27435000D01*
D50*
X89395000Y-28200000D02*
X88891800Y-28200000D01*
X83400000Y-29696586D02*
X82530000Y-28826586D01*
X84186635Y-30483221D02*
X83400000Y-29696586D01*
X88891800Y-28200000D02*
X86608579Y-30483221D01*
X86608579Y-30483221D02*
X84186635Y-30483221D01*
X82530000Y-28826586D02*
X82530000Y-25493200D01*
X82530000Y-25493200D02*
X82530000Y-24490000D01*
D51*
X83400000Y-32200000D02*
X83400000Y-29696586D01*
X83951200Y-32751200D02*
X83400000Y-32200000D01*
X84170000Y-32751200D02*
X83951200Y-32751200D01*
D49*
X89395000Y-29445000D02*
X89950000Y-30000000D01*
X89395000Y-28200000D02*
X89395000Y-29445000D01*
D51*
X88000000Y-26200000D02*
X88000000Y-26300000D01*
X88000000Y-26300000D02*
X86700000Y-25000000D01*
X86700000Y-25000000D02*
X84290000Y-25000000D01*
X84290000Y-25000000D02*
X83780000Y-24490000D01*
X93205000Y-28200000D02*
X93205000Y-26895000D01*
X93205000Y-26895000D02*
X93600000Y-26500000D01*
D50*
X93205000Y-28495000D02*
X93205000Y-28200000D01*
X91700000Y-30000000D02*
X93205000Y-28495000D01*
X91050000Y-30000000D02*
X91700000Y-30000000D01*
D10*
G36*
X124658000Y-30650000D02*
X117143600Y-30650000D01*
X117143600Y-29400000D01*
X117117445Y-29268510D01*
X117042962Y-29157038D01*
X115317962Y-27432038D01*
X115206490Y-27357555D01*
X115075000Y-27331400D01*
X115050000Y-27331400D01*
X115050000Y-20350000D01*
X124658000Y-20350000D01*
X124658000Y-30650000D01*
X124658000Y-30650000D01*
G37*
X124658000Y-30650000D02*
X117143600Y-30650000D01*
X117143600Y-29400000D01*
X117117445Y-29268510D01*
X117042962Y-29157038D01*
X115317962Y-27432038D01*
X115206490Y-27357555D01*
X115075000Y-27331400D01*
X115050000Y-27331400D01*
X115050000Y-20350000D01*
X124658000Y-20350000D01*
X124658000Y-30650000D01*
G36*
X89150000Y-68850000D02*
X86900000Y-68850000D01*
X86900000Y-67580381D01*
X86850000Y-67459669D01*
X86850000Y-65250000D01*
X89150000Y-65250000D01*
X89150000Y-68850000D01*
X89150000Y-68850000D01*
G37*
X89150000Y-68850000D02*
X86900000Y-68850000D01*
X86900000Y-67580381D01*
X86850000Y-67459669D01*
X86850000Y-65250000D01*
X89150000Y-65250000D01*
X89150000Y-68850000D01*
G36*
X95050000Y-69150000D02*
X91650000Y-69150000D01*
X91650000Y-65154340D01*
X92645921Y-65237333D01*
X92712710Y-65337290D01*
X92750000Y-65374580D01*
X92750000Y-67250000D01*
X93980670Y-67250000D01*
X95050000Y-68222118D01*
X95050000Y-69150000D01*
X95050000Y-69150000D01*
G37*
X95050000Y-69150000D02*
X91650000Y-69150000D01*
X91650000Y-65154340D01*
X92645921Y-65237333D01*
X92712710Y-65337290D01*
X92750000Y-65374580D01*
X92750000Y-67250000D01*
X93980670Y-67250000D01*
X95050000Y-68222118D01*
X95050000Y-69150000D01*
G36*
X98850000Y-69050000D02*
X95750000Y-69050000D01*
X95750000Y-68178605D01*
X93547910Y-66076610D01*
X93455249Y-65150000D01*
X94220711Y-65150000D01*
X94820711Y-64550000D01*
X95879289Y-64550000D01*
X98850000Y-67520711D01*
X98850000Y-69050000D01*
X98850000Y-69050000D01*
G37*
X98850000Y-69050000D02*
X95750000Y-69050000D01*
X95750000Y-68178605D01*
X93547910Y-66076610D01*
X93455249Y-65150000D01*
X94220711Y-65150000D01*
X94820711Y-64550000D01*
X95879289Y-64550000D01*
X98850000Y-67520711D01*
X98850000Y-69050000D01*
D56*
G36*
X93350000Y-51850000D02*
X90601090Y-51850000D01*
X90352450Y-51849783D01*
X90351924Y-51850000D01*
X90150000Y-51850000D01*
X90150000Y-50250000D01*
X90502754Y-50250000D01*
X91702754Y-51350000D01*
X93350000Y-51350000D01*
X93350000Y-51850000D01*
X93350000Y-51850000D01*
G37*
X93350000Y-51850000D02*
X90601090Y-51850000D01*
X90352450Y-51849783D01*
X90351924Y-51850000D01*
X90150000Y-51850000D01*
X90150000Y-50250000D01*
X90502754Y-50250000D01*
X91702754Y-51350000D01*
X93350000Y-51350000D01*
X93350000Y-51850000D01*
G36*
X113650000Y-52650000D02*
X108650000Y-52650000D01*
X108650000Y-47150000D01*
X113650000Y-47150000D01*
X113650000Y-52650000D01*
X113650000Y-52650000D01*
G37*
X113650000Y-52650000D02*
X108650000Y-52650000D01*
X108650000Y-47150000D01*
X113650000Y-47150000D01*
X113650000Y-52650000D01*
M02*
