%FSLAX46Y46*%
G04 Gerber Fmt 4.6, Leading zero omitted, Abs format (unit mm)*
G04 Created by KiCad (PCBNEW (2014-10-31 BZR 5243)-product) date So 05 Apr 2015 19:44:44 CEST*
%MOMM*%
G01*
G04 APERTURE LIST*
%ADD10C,0.100000*%
%ADD11C,0.150000*%
%ADD12C,0.099060*%
%ADD13C,0.127000*%
%ADD14C,0.070000*%
%ADD15C,0.050000*%
%ADD16C,0.152400*%
%ADD17R,5.700040X5.199660*%
%ADD18R,2.332000X2.332000*%
%ADD19O,2.332000X2.332000*%
%ADD20O,0.600000X1.050000*%
%ADD21O,1.050000X0.600000*%
%ADD22R,1.200000X1.200000*%
%ADD23R,2.800000X1.300000*%
%ADD24R,1.550000X1.300000*%
%ADD25R,0.900000X0.800000*%
%ADD26R,1.300000X2.800000*%
%ADD27R,1.050000X1.100000*%
%ADD28R,0.800000X0.900000*%
%ADD29R,1.900000X1.300000*%
%ADD30R,0.700000X0.900000*%
%ADD31R,0.800000X1.200000*%
%ADD32R,1.200000X2.000000*%
%ADD33R,1.900000X0.850000*%
%ADD34R,0.850000X1.900000*%
%ADD35R,1.300000X1.900000*%
%ADD36R,1.000000X1.600000*%
%ADD37R,1.600000X1.000000*%
%ADD38R,1.300000X1.550000*%
%ADD39R,1.600480X1.100100*%
%ADD40R,1.097560X1.097560*%
%ADD41O,3.300000X1.900000*%
%ADD42R,1.500000X1.300000*%
%ADD43R,2.450000X0.750000*%
%ADD44C,1.800000*%
%ADD45R,1.350000X1.700000*%
%ADD46R,1.700000X1.690000*%
%ADD47R,5.160000X3.660000*%
%ADD48R,4.872000X1.824000*%
%ADD49R,4.371620X1.300000*%
%ADD50R,1.999260X1.600480*%
%ADD51R,1.699540X0.899440*%
%ADD52R,3.099080X4.300500*%
%ADD53R,1.200000X0.800000*%
%ADD54R,2.535200X2.535200*%
%ADD55R,2.200000X2.200000*%
G04 APERTURE END LIST*
D10*
D11*
X120654418Y-54600580D02*
G75*
G03X120654418Y-54600580I-355618J0D01*
G01*
X120499460Y-47600340D02*
X120601060Y-47498740D01*
X120601060Y-47498740D02*
X120999840Y-47399680D01*
X120999840Y-47399680D02*
X121500220Y-47498740D01*
X121500220Y-47498740D02*
X121799940Y-47699400D01*
X121799940Y-47699400D02*
X122201260Y-47999120D01*
X122201260Y-47999120D02*
X122300320Y-48499500D01*
X122300320Y-48499500D02*
X122201260Y-48999880D01*
X122201260Y-48999880D02*
X121899000Y-49401200D01*
X121899000Y-49401200D02*
X121799940Y-49500260D01*
X121799940Y-49500260D02*
X122201260Y-50099700D01*
X122201260Y-50099700D02*
X122500980Y-50899800D01*
X122500980Y-50899800D02*
X122699100Y-51900560D01*
X122699100Y-51900560D02*
X122699100Y-53099440D01*
X122699100Y-53099440D02*
X122500980Y-54001140D01*
X122500980Y-54001140D02*
X122300320Y-54600580D01*
X122300320Y-54600580D02*
X122099660Y-55100960D01*
X122099660Y-55100960D02*
X121899000Y-55499740D01*
X121899000Y-55499740D02*
X122099660Y-55799460D01*
X122099660Y-55799460D02*
X122300320Y-56398900D01*
X122300320Y-56398900D02*
X122201260Y-56800220D01*
X122201260Y-56800220D02*
X122000600Y-57099940D01*
X122000600Y-57099940D02*
X121799940Y-57399660D01*
X121799940Y-57399660D02*
X121299560Y-57600320D01*
X121299560Y-57600320D02*
X120799180Y-57501260D01*
X120799180Y-57501260D02*
X120400400Y-57300600D01*
X113900540Y-47600340D02*
X113600820Y-47498740D01*
X113600820Y-47498740D02*
X113199500Y-47399680D01*
X113199500Y-47399680D02*
X112899780Y-47498740D01*
X112899780Y-47498740D02*
X112501000Y-47699400D01*
X112501000Y-47699400D02*
X112300340Y-47999120D01*
X112300340Y-47999120D02*
X112099680Y-48298840D01*
X112099680Y-48298840D02*
X112099680Y-48601100D01*
X112099680Y-48601100D02*
X112198740Y-48900820D01*
X112198740Y-48900820D02*
X112300340Y-49200540D01*
X112300340Y-49200540D02*
X112600060Y-49500260D01*
X112600060Y-49500260D02*
X112300340Y-49899040D01*
X112300340Y-49899040D02*
X112099680Y-50300360D01*
X112099680Y-50300360D02*
X111899020Y-50800740D01*
X111899020Y-50800740D02*
X111700900Y-51600840D01*
X111700900Y-51600840D02*
X111599300Y-52500000D01*
X111599300Y-52500000D02*
X111700900Y-53300100D01*
X111700900Y-53300100D02*
X111899020Y-54199260D01*
X111899020Y-54199260D02*
X112300340Y-55100960D01*
X112300340Y-55100960D02*
X112501000Y-55499740D01*
X112501000Y-55499740D02*
X112300340Y-55799460D01*
X112300340Y-55799460D02*
X112099680Y-56200780D01*
X112099680Y-56200780D02*
X112198740Y-56701160D01*
X112198740Y-56701160D02*
X112399400Y-57099940D01*
X112399400Y-57099940D02*
X112699120Y-57399660D01*
X112699120Y-57399660D02*
X113199500Y-57600320D01*
X113199500Y-57600320D02*
X113699880Y-57501260D01*
X113699880Y-57501260D02*
X113999600Y-57300600D01*
X120499460Y-58700140D02*
X123400140Y-58700140D01*
X123400140Y-58700140D02*
X123400140Y-46299860D01*
X123400140Y-46299860D02*
X120499460Y-46299860D01*
X110999860Y-46299860D02*
X110999860Y-58700140D01*
X110999860Y-58700140D02*
X113900540Y-58700140D01*
X110999860Y-46299860D02*
X113900540Y-46299860D01*
X96275000Y-50875000D02*
X96775000Y-50875000D01*
X99525000Y-54125000D02*
X99025000Y-54125000D01*
X99525000Y-50875000D02*
X99025000Y-50875000D01*
X96275000Y-54125000D02*
X96275000Y-53625000D01*
X99525000Y-54125000D02*
X99525000Y-53625000D01*
X99525000Y-50875000D02*
X99525000Y-51375000D01*
X96275000Y-50875000D02*
X96275000Y-51375000D01*
X97725000Y-60800000D02*
X97725000Y-62800000D01*
X100675000Y-62800000D02*
X100675000Y-60800000D01*
X100925000Y-60800000D02*
X100925000Y-62800000D01*
X103875000Y-62800000D02*
X103875000Y-60800000D01*
X113250000Y-63200000D02*
X113250000Y-64200000D01*
X114950000Y-64200000D02*
X114950000Y-63200000D01*
X115250000Y-63200000D02*
X115250000Y-64200000D01*
X116950000Y-64200000D02*
X116950000Y-63200000D01*
X104950000Y-66325000D02*
X104450000Y-66325000D01*
X104450000Y-67275000D02*
X104950000Y-67275000D01*
X112350000Y-60475000D02*
X112850000Y-60475000D01*
X112850000Y-59525000D02*
X112350000Y-59525000D01*
X106100000Y-49175000D02*
X108100000Y-49175000D01*
X108100000Y-46225000D02*
X106100000Y-46225000D01*
X106100000Y-52875000D02*
X108100000Y-52875000D01*
X108100000Y-49925000D02*
X106100000Y-49925000D01*
X92600000Y-51150000D02*
X92600000Y-50450000D01*
X93800000Y-50450000D02*
X93800000Y-51150000D01*
X88850000Y-23825000D02*
X88350000Y-23825000D01*
X88350000Y-24775000D02*
X88850000Y-24775000D01*
X94325000Y-50850000D02*
X94325000Y-51350000D01*
X95275000Y-51350000D02*
X95275000Y-50850000D01*
X98450000Y-49125000D02*
X97950000Y-49125000D01*
X97950000Y-50075000D02*
X98450000Y-50075000D01*
X87825000Y-27650000D02*
X87825000Y-28150000D01*
X88775000Y-28150000D02*
X88775000Y-27650000D01*
X88850000Y-29425000D02*
X88350000Y-29425000D01*
X88350000Y-30375000D02*
X88850000Y-30375000D01*
X95300000Y-53450000D02*
X95300000Y-54150000D01*
X94100000Y-54150000D02*
X94100000Y-53450000D01*
X93525000Y-55700000D02*
X93525000Y-53700000D01*
X91475000Y-53700000D02*
X91475000Y-55700000D01*
X93025000Y-31350000D02*
X93025000Y-31850000D01*
X93975000Y-31850000D02*
X93975000Y-31350000D01*
X91500000Y-31750000D02*
X91500000Y-31050000D01*
X92700000Y-31050000D02*
X92700000Y-31750000D01*
X115250000Y-65775000D02*
X114750000Y-65775000D01*
X114750000Y-66825000D02*
X115250000Y-66825000D01*
X112050000Y-67025000D02*
X112550000Y-67025000D01*
X112550000Y-65975000D02*
X112050000Y-65975000D01*
X109850000Y-67225000D02*
X110350000Y-67225000D01*
X110350000Y-66175000D02*
X109850000Y-66175000D01*
X85100000Y-39925000D02*
X86100000Y-39925000D01*
X86100000Y-41275000D02*
X85100000Y-41275000D01*
X85100000Y-42125000D02*
X86100000Y-42125000D01*
X86100000Y-43475000D02*
X85100000Y-43475000D01*
X101650000Y-53575000D02*
X101150000Y-53575000D01*
X101150000Y-54625000D02*
X101650000Y-54625000D01*
X101650000Y-52675000D02*
X101150000Y-52675000D01*
X101150000Y-53725000D02*
X101650000Y-53725000D01*
X101650000Y-51675000D02*
X101150000Y-51675000D01*
X101150000Y-52725000D02*
X101650000Y-52725000D01*
X77050000Y-22075000D02*
X76550000Y-22075000D01*
X76550000Y-23125000D02*
X77050000Y-23125000D01*
X85600000Y-47225000D02*
X87600000Y-47225000D01*
X87600000Y-49375000D02*
X85600000Y-49375000D01*
X78290000Y-24315000D02*
X78290000Y-24640000D01*
X85540000Y-24315000D02*
X85540000Y-24640000D01*
X85540000Y-31565000D02*
X85540000Y-31240000D01*
X78290000Y-31565000D02*
X78290000Y-31240000D01*
X78290000Y-24315000D02*
X78615000Y-24315000D01*
X78290000Y-31565000D02*
X78615000Y-31565000D01*
X85540000Y-31565000D02*
X85215000Y-31565000D01*
X85540000Y-24315000D02*
X85215000Y-24315000D01*
X78290000Y-24640000D02*
X76865000Y-24640000D01*
X94800000Y-40875000D02*
X92800000Y-40875000D01*
X92800000Y-42925000D02*
X94800000Y-42925000D01*
X88800000Y-43725000D02*
X90000000Y-43725000D01*
X90000000Y-45475000D02*
X88800000Y-45475000D01*
X91875000Y-26800000D02*
X91875000Y-28000000D01*
X90125000Y-28000000D02*
X90125000Y-26800000D01*
X80800000Y-22275000D02*
X79800000Y-22275000D01*
X79800000Y-20925000D02*
X80800000Y-20925000D01*
X83600000Y-22175000D02*
X82600000Y-22175000D01*
X82600000Y-20825000D02*
X83600000Y-20825000D01*
X89250000Y-41000000D02*
X89250000Y-42000000D01*
X90950000Y-42000000D02*
X90950000Y-41000000D01*
X101900000Y-45450000D02*
X102900000Y-45450000D01*
X102900000Y-43750000D02*
X101900000Y-43750000D01*
D12*
X94295000Y-43868000D02*
X94295000Y-47932000D01*
X98105000Y-43868000D02*
X98105000Y-47932000D01*
X98105000Y-47932000D02*
X94295000Y-47932000D01*
X94422000Y-43868000D02*
X94295000Y-43868000D01*
X98105000Y-43868000D02*
X94422000Y-43868000D01*
X96708000Y-43868000D02*
X96708000Y-44376000D01*
X96708000Y-44376000D02*
X95692000Y-44376000D01*
X95692000Y-44376000D02*
X95692000Y-43868000D01*
D11*
X92649580Y-20750420D02*
X92649580Y-21649580D01*
X92649580Y-21649580D02*
X93048360Y-21649580D01*
X93048360Y-20750420D02*
X93048360Y-21649580D01*
X92649580Y-20750420D02*
X93048360Y-20750420D01*
X91351640Y-20750420D02*
X91351640Y-21649580D01*
X91351640Y-21649580D02*
X91750420Y-21649580D01*
X91750420Y-20750420D02*
X91750420Y-21649580D01*
X91351640Y-20750420D02*
X91750420Y-20750420D01*
X92200000Y-20750420D02*
X92200000Y-20900280D01*
X92200000Y-20900280D02*
X92499720Y-20900280D01*
X92499720Y-20750420D02*
X92499720Y-20900280D01*
X92200000Y-20750420D02*
X92499720Y-20750420D01*
X92200000Y-21499720D02*
X92200000Y-21649580D01*
X92200000Y-21649580D02*
X92499720Y-21649580D01*
X92499720Y-21499720D02*
X92499720Y-21649580D01*
X92200000Y-21499720D02*
X92499720Y-21499720D01*
X92200000Y-21050140D02*
X92200000Y-21349860D01*
X92200000Y-21349860D02*
X92499720Y-21349860D01*
X92499720Y-21050140D02*
X92499720Y-21349860D01*
X92200000Y-21050140D02*
X92499720Y-21050140D01*
X92649580Y-20801220D02*
X91750420Y-20801220D01*
X92649580Y-21598780D02*
X91750420Y-21598780D01*
X97635000Y-21440000D02*
X115885000Y-21440000D01*
X115885000Y-21440000D02*
X115885000Y-39690000D01*
X115885000Y-39690000D02*
X97635000Y-39690000D01*
X97635000Y-39690000D02*
X97635000Y-21440000D01*
X95885000Y-20940000D02*
X117885000Y-20940000D01*
X117885000Y-20940000D02*
X117885000Y-39940000D01*
X117885000Y-39940000D02*
X95885000Y-39940000D01*
X95885000Y-39940000D02*
X95885000Y-20940000D01*
X107684605Y-61019000D02*
G75*
G03X107684605Y-61019000I-179605J0D01*
G01*
X106457000Y-60796000D02*
X106457000Y-65796000D01*
X106457000Y-65796000D02*
X110457000Y-65796000D01*
X110457000Y-65796000D02*
X110457000Y-60796000D01*
X110457000Y-60796000D02*
X106457000Y-60796000D01*
X76200000Y-39370000D02*
X83820000Y-39370000D01*
X83820000Y-39370000D02*
X83820000Y-59690000D01*
X83820000Y-59690000D02*
X76200000Y-59690000D01*
X76200000Y-59690000D02*
X76200000Y-39370000D01*
X76855000Y-35345000D02*
X76855000Y-37045000D01*
X76855000Y-37045000D02*
X76255000Y-37045000D01*
X76255000Y-37045000D02*
X76255000Y-35345000D01*
X76255000Y-35345000D02*
X76855000Y-35345000D01*
X79755000Y-34445000D02*
X79755000Y-37945000D01*
X79755000Y-37945000D02*
X76855000Y-37945000D01*
X76855000Y-37945000D02*
X76855000Y-34445000D01*
X76855000Y-34445000D02*
X79655000Y-34445000D01*
X97650000Y-55025000D02*
X97150000Y-55025000D01*
X97150000Y-55975000D02*
X97650000Y-55975000D01*
X103700000Y-53300000D02*
X103700000Y-57300000D01*
X103700000Y-57300000D02*
X110200000Y-57300000D01*
X110200000Y-57300000D02*
X110200000Y-53300000D01*
X110200000Y-53300000D02*
X103700000Y-53300000D01*
X89600000Y-63350000D02*
X89600000Y-64050000D01*
X88400000Y-64050000D02*
X88400000Y-63350000D01*
X92550800Y-64249760D02*
X91499240Y-65250520D01*
X91499240Y-65250520D02*
X93500760Y-65250520D01*
X93500760Y-65250520D02*
X92500000Y-64249760D01*
X91450980Y-64249760D02*
X93549020Y-64249760D01*
D13*
X86051000Y-61099980D02*
X86051000Y-66449220D01*
X82749000Y-66449220D02*
X82749000Y-61099980D01*
X82749000Y-61099980D02*
X86051000Y-61099980D01*
X82749000Y-66449220D02*
X86051000Y-66449220D01*
X83892000Y-66467000D02*
X83892000Y-65959000D01*
X83892000Y-65959000D02*
X84908000Y-65959000D01*
X84908000Y-65959000D02*
X84908000Y-66467000D01*
D11*
X94975000Y-61900000D02*
X94975000Y-62900000D01*
X93625000Y-62900000D02*
X93625000Y-61900000D01*
X89825000Y-64200000D02*
X89825000Y-63200000D01*
X91175000Y-63200000D02*
X91175000Y-64200000D01*
X82800000Y-69075000D02*
X80800000Y-69075000D01*
X80800000Y-66925000D02*
X82800000Y-66925000D01*
X112650000Y-42450000D02*
X112650000Y-44000000D01*
X109550000Y-44000000D02*
X109550000Y-42450000D01*
X109550000Y-42450000D02*
X112650000Y-42450000D01*
X109830000Y-45270000D02*
X112370000Y-45270000D01*
X87150000Y-67050000D02*
X87150000Y-68600000D01*
X84050000Y-68600000D02*
X84050000Y-67050000D01*
X84050000Y-67050000D02*
X87150000Y-67050000D01*
X84330000Y-69870000D02*
X86870000Y-69870000D01*
X87150000Y-55550000D02*
X87150000Y-57100000D01*
X84050000Y-57100000D02*
X84050000Y-55550000D01*
X84050000Y-55550000D02*
X87150000Y-55550000D01*
X84330000Y-58370000D02*
X86870000Y-58370000D01*
X120850000Y-66650000D02*
X120850000Y-68200000D01*
X117750000Y-68200000D02*
X117750000Y-66650000D01*
X117750000Y-66650000D02*
X120850000Y-66650000D01*
X118030000Y-69470000D02*
X120570000Y-69470000D01*
X89175000Y-21700000D02*
X89175000Y-22700000D01*
X87825000Y-22700000D02*
X87825000Y-21700000D01*
X117033334Y-52652381D02*
X116557143Y-52652381D01*
X116557143Y-51652381D01*
X117890477Y-52652381D02*
X117319048Y-52652381D01*
X117604762Y-52652381D02*
X117604762Y-51652381D01*
X117509524Y-51795238D01*
X117414286Y-51890476D01*
X117319048Y-51938095D01*
X76861905Y-59612381D02*
X76861905Y-58612381D01*
X77242858Y-58612381D01*
X77338096Y-58660000D01*
X77385715Y-58707619D01*
X77433334Y-58802857D01*
X77433334Y-58945714D01*
X77385715Y-59040952D01*
X77338096Y-59088571D01*
X77242858Y-59136190D01*
X76861905Y-59136190D01*
X78385715Y-59612381D02*
X77814286Y-59612381D01*
X78100000Y-59612381D02*
X78100000Y-58612381D01*
X78004762Y-58755238D01*
X77909524Y-58850476D01*
X77814286Y-58898095D01*
X98933334Y-62157143D02*
X98885715Y-62204762D01*
X98742858Y-62252381D01*
X98647620Y-62252381D01*
X98504762Y-62204762D01*
X98409524Y-62109524D01*
X98361905Y-62014286D01*
X98314286Y-61823810D01*
X98314286Y-61680952D01*
X98361905Y-61490476D01*
X98409524Y-61395238D01*
X98504762Y-61300000D01*
X98647620Y-61252381D01*
X98742858Y-61252381D01*
X98885715Y-61300000D01*
X98933334Y-61347619D01*
X99885715Y-62252381D02*
X99314286Y-62252381D01*
X99600000Y-62252381D02*
X99600000Y-61252381D01*
X99504762Y-61395238D01*
X99409524Y-61490476D01*
X99314286Y-61538095D01*
X102033334Y-62157143D02*
X101985715Y-62204762D01*
X101842858Y-62252381D01*
X101747620Y-62252381D01*
X101604762Y-62204762D01*
X101509524Y-62109524D01*
X101461905Y-62014286D01*
X101414286Y-61823810D01*
X101414286Y-61680952D01*
X101461905Y-61490476D01*
X101509524Y-61395238D01*
X101604762Y-61300000D01*
X101747620Y-61252381D01*
X101842858Y-61252381D01*
X101985715Y-61300000D01*
X102033334Y-61347619D01*
X102366667Y-61252381D02*
X102985715Y-61252381D01*
X102652381Y-61633333D01*
X102795239Y-61633333D01*
X102890477Y-61680952D01*
X102938096Y-61728571D01*
X102985715Y-61823810D01*
X102985715Y-62061905D01*
X102938096Y-62157143D01*
X102890477Y-62204762D01*
X102795239Y-62252381D01*
X102509524Y-62252381D01*
X102414286Y-62204762D01*
X102366667Y-62157143D01*
X114033334Y-61857143D02*
X113985715Y-61904762D01*
X113842858Y-61952381D01*
X113747620Y-61952381D01*
X113604762Y-61904762D01*
X113509524Y-61809524D01*
X113461905Y-61714286D01*
X113414286Y-61523810D01*
X113414286Y-61380952D01*
X113461905Y-61190476D01*
X113509524Y-61095238D01*
X113604762Y-61000000D01*
X113747620Y-60952381D01*
X113842858Y-60952381D01*
X113985715Y-61000000D01*
X114033334Y-61047619D01*
X114938096Y-60952381D02*
X114461905Y-60952381D01*
X114414286Y-61428571D01*
X114461905Y-61380952D01*
X114557143Y-61333333D01*
X114795239Y-61333333D01*
X114890477Y-61380952D01*
X114938096Y-61428571D01*
X114985715Y-61523810D01*
X114985715Y-61761905D01*
X114938096Y-61857143D01*
X114890477Y-61904762D01*
X114795239Y-61952381D01*
X114557143Y-61952381D01*
X114461905Y-61904762D01*
X114414286Y-61857143D01*
X116633334Y-61857143D02*
X116585715Y-61904762D01*
X116442858Y-61952381D01*
X116347620Y-61952381D01*
X116204762Y-61904762D01*
X116109524Y-61809524D01*
X116061905Y-61714286D01*
X116014286Y-61523810D01*
X116014286Y-61380952D01*
X116061905Y-61190476D01*
X116109524Y-61095238D01*
X116204762Y-61000000D01*
X116347620Y-60952381D01*
X116442858Y-60952381D01*
X116585715Y-61000000D01*
X116633334Y-61047619D01*
X117204762Y-61380952D02*
X117109524Y-61333333D01*
X117061905Y-61285714D01*
X117014286Y-61190476D01*
X117014286Y-61142857D01*
X117061905Y-61047619D01*
X117109524Y-61000000D01*
X117204762Y-60952381D01*
X117395239Y-60952381D01*
X117490477Y-61000000D01*
X117538096Y-61047619D01*
X117585715Y-61142857D01*
X117585715Y-61190476D01*
X117538096Y-61285714D01*
X117490477Y-61333333D01*
X117395239Y-61380952D01*
X117204762Y-61380952D01*
X117109524Y-61428571D01*
X117061905Y-61476190D01*
X117014286Y-61571429D01*
X117014286Y-61761905D01*
X117061905Y-61857143D01*
X117109524Y-61904762D01*
X117204762Y-61952381D01*
X117395239Y-61952381D01*
X117490477Y-61904762D01*
X117538096Y-61857143D01*
X117585715Y-61761905D01*
X117585715Y-61571429D01*
X117538096Y-61476190D01*
X117490477Y-61428571D01*
X117395239Y-61380952D01*
X104157143Y-68557143D02*
X104109524Y-68604762D01*
X103966667Y-68652381D01*
X103871429Y-68652381D01*
X103728571Y-68604762D01*
X103633333Y-68509524D01*
X103585714Y-68414286D01*
X103538095Y-68223810D01*
X103538095Y-68080952D01*
X103585714Y-67890476D01*
X103633333Y-67795238D01*
X103728571Y-67700000D01*
X103871429Y-67652381D01*
X103966667Y-67652381D01*
X104109524Y-67700000D01*
X104157143Y-67747619D01*
X105109524Y-68652381D02*
X104538095Y-68652381D01*
X104823809Y-68652381D02*
X104823809Y-67652381D01*
X104728571Y-67795238D01*
X104633333Y-67890476D01*
X104538095Y-67938095D01*
X106061905Y-68652381D02*
X105490476Y-68652381D01*
X105776190Y-68652381D02*
X105776190Y-67652381D01*
X105680952Y-67795238D01*
X105585714Y-67890476D01*
X105490476Y-67938095D01*
X111957143Y-59057143D02*
X111909524Y-59104762D01*
X111766667Y-59152381D01*
X111671429Y-59152381D01*
X111528571Y-59104762D01*
X111433333Y-59009524D01*
X111385714Y-58914286D01*
X111338095Y-58723810D01*
X111338095Y-58580952D01*
X111385714Y-58390476D01*
X111433333Y-58295238D01*
X111528571Y-58200000D01*
X111671429Y-58152381D01*
X111766667Y-58152381D01*
X111909524Y-58200000D01*
X111957143Y-58247619D01*
X112909524Y-59152381D02*
X112338095Y-59152381D01*
X112623809Y-59152381D02*
X112623809Y-58152381D01*
X112528571Y-58295238D01*
X112433333Y-58390476D01*
X112338095Y-58438095D01*
X113766667Y-58485714D02*
X113766667Y-59152381D01*
X113528571Y-58104762D02*
X113290476Y-58819048D01*
X113909524Y-58819048D01*
X107457143Y-48442857D02*
X107504762Y-48490476D01*
X107552381Y-48633333D01*
X107552381Y-48728571D01*
X107504762Y-48871429D01*
X107409524Y-48966667D01*
X107314286Y-49014286D01*
X107123810Y-49061905D01*
X106980952Y-49061905D01*
X106790476Y-49014286D01*
X106695238Y-48966667D01*
X106600000Y-48871429D01*
X106552381Y-48728571D01*
X106552381Y-48633333D01*
X106600000Y-48490476D01*
X106647619Y-48442857D01*
X107552381Y-47490476D02*
X107552381Y-48061905D01*
X107552381Y-47776191D02*
X106552381Y-47776191D01*
X106695238Y-47871429D01*
X106790476Y-47966667D01*
X106838095Y-48061905D01*
X106552381Y-46633333D02*
X106552381Y-46823810D01*
X106600000Y-46919048D01*
X106647619Y-46966667D01*
X106790476Y-47061905D01*
X106980952Y-47109524D01*
X107361905Y-47109524D01*
X107457143Y-47061905D01*
X107504762Y-47014286D01*
X107552381Y-46919048D01*
X107552381Y-46728571D01*
X107504762Y-46633333D01*
X107457143Y-46585714D01*
X107361905Y-46538095D01*
X107123810Y-46538095D01*
X107028571Y-46585714D01*
X106980952Y-46633333D01*
X106933333Y-46728571D01*
X106933333Y-46919048D01*
X106980952Y-47014286D01*
X107028571Y-47061905D01*
X107123810Y-47109524D01*
X107557143Y-52042857D02*
X107604762Y-52090476D01*
X107652381Y-52233333D01*
X107652381Y-52328571D01*
X107604762Y-52471429D01*
X107509524Y-52566667D01*
X107414286Y-52614286D01*
X107223810Y-52661905D01*
X107080952Y-52661905D01*
X106890476Y-52614286D01*
X106795238Y-52566667D01*
X106700000Y-52471429D01*
X106652381Y-52328571D01*
X106652381Y-52233333D01*
X106700000Y-52090476D01*
X106747619Y-52042857D01*
X107652381Y-51090476D02*
X107652381Y-51661905D01*
X107652381Y-51376191D02*
X106652381Y-51376191D01*
X106795238Y-51471429D01*
X106890476Y-51566667D01*
X106938095Y-51661905D01*
X106652381Y-50757143D02*
X106652381Y-50090476D01*
X107652381Y-50519048D01*
X91657143Y-51442857D02*
X91704762Y-51490476D01*
X91752381Y-51633333D01*
X91752381Y-51728571D01*
X91704762Y-51871429D01*
X91609524Y-51966667D01*
X91514286Y-52014286D01*
X91323810Y-52061905D01*
X91180952Y-52061905D01*
X90990476Y-52014286D01*
X90895238Y-51966667D01*
X90800000Y-51871429D01*
X90752381Y-51728571D01*
X90752381Y-51633333D01*
X90800000Y-51490476D01*
X90847619Y-51442857D01*
X91752381Y-50490476D02*
X91752381Y-51061905D01*
X91752381Y-50776191D02*
X90752381Y-50776191D01*
X90895238Y-50871429D01*
X90990476Y-50966667D01*
X91038095Y-51061905D01*
X91752381Y-50014286D02*
X91752381Y-49823810D01*
X91704762Y-49728571D01*
X91657143Y-49680952D01*
X91514286Y-49585714D01*
X91323810Y-49538095D01*
X90942857Y-49538095D01*
X90847619Y-49585714D01*
X90800000Y-49633333D01*
X90752381Y-49728571D01*
X90752381Y-49919048D01*
X90800000Y-50014286D01*
X90847619Y-50061905D01*
X90942857Y-50109524D01*
X91180952Y-50109524D01*
X91276190Y-50061905D01*
X91323810Y-50014286D01*
X91371429Y-49919048D01*
X91371429Y-49728571D01*
X91323810Y-49633333D01*
X91276190Y-49585714D01*
X91180952Y-49538095D01*
D14*
X87707143Y-25142857D02*
X87692857Y-25161905D01*
X87650000Y-25180952D01*
X87621429Y-25180952D01*
X87578572Y-25161905D01*
X87550000Y-25123810D01*
X87535715Y-25085714D01*
X87521429Y-25009524D01*
X87521429Y-24952381D01*
X87535715Y-24876190D01*
X87550000Y-24838095D01*
X87578572Y-24800000D01*
X87621429Y-24780952D01*
X87650000Y-24780952D01*
X87692857Y-24800000D01*
X87707143Y-24819048D01*
X87821429Y-24819048D02*
X87835715Y-24800000D01*
X87864286Y-24780952D01*
X87935715Y-24780952D01*
X87964286Y-24800000D01*
X87978572Y-24819048D01*
X87992857Y-24857143D01*
X87992857Y-24895238D01*
X87978572Y-24952381D01*
X87807143Y-25180952D01*
X87992857Y-25180952D01*
X88178571Y-24780952D02*
X88207143Y-24780952D01*
X88235714Y-24800000D01*
X88250000Y-24819048D01*
X88264286Y-24857143D01*
X88278571Y-24933333D01*
X88278571Y-25028571D01*
X88264286Y-25104762D01*
X88250000Y-25142857D01*
X88235714Y-25161905D01*
X88207143Y-25180952D01*
X88178571Y-25180952D01*
X88150000Y-25161905D01*
X88135714Y-25142857D01*
X88121429Y-25104762D01*
X88107143Y-25028571D01*
X88107143Y-24933333D01*
X88121429Y-24857143D01*
X88135714Y-24819048D01*
X88150000Y-24800000D01*
X88178571Y-24780952D01*
D11*
X95357143Y-49342857D02*
X95404762Y-49390476D01*
X95452381Y-49533333D01*
X95452381Y-49628571D01*
X95404762Y-49771429D01*
X95309524Y-49866667D01*
X95214286Y-49914286D01*
X95023810Y-49961905D01*
X94880952Y-49961905D01*
X94690476Y-49914286D01*
X94595238Y-49866667D01*
X94500000Y-49771429D01*
X94452381Y-49628571D01*
X94452381Y-49533333D01*
X94500000Y-49390476D01*
X94547619Y-49342857D01*
X94547619Y-48961905D02*
X94500000Y-48914286D01*
X94452381Y-48819048D01*
X94452381Y-48580952D01*
X94500000Y-48485714D01*
X94547619Y-48438095D01*
X94642857Y-48390476D01*
X94738095Y-48390476D01*
X94880952Y-48438095D01*
X95452381Y-49009524D01*
X95452381Y-48390476D01*
X95452381Y-47438095D02*
X95452381Y-48009524D01*
X95452381Y-47723810D02*
X94452381Y-47723810D01*
X94595238Y-47819048D01*
X94690476Y-47914286D01*
X94738095Y-48009524D01*
X97457143Y-48857143D02*
X97409524Y-48904762D01*
X97266667Y-48952381D01*
X97171429Y-48952381D01*
X97028571Y-48904762D01*
X96933333Y-48809524D01*
X96885714Y-48714286D01*
X96838095Y-48523810D01*
X96838095Y-48380952D01*
X96885714Y-48190476D01*
X96933333Y-48095238D01*
X97028571Y-48000000D01*
X97171429Y-47952381D01*
X97266667Y-47952381D01*
X97409524Y-48000000D01*
X97457143Y-48047619D01*
X97838095Y-48047619D02*
X97885714Y-48000000D01*
X97980952Y-47952381D01*
X98219048Y-47952381D01*
X98314286Y-48000000D01*
X98361905Y-48047619D01*
X98409524Y-48142857D01*
X98409524Y-48238095D01*
X98361905Y-48380952D01*
X97790476Y-48952381D01*
X98409524Y-48952381D01*
X98790476Y-48047619D02*
X98838095Y-48000000D01*
X98933333Y-47952381D01*
X99171429Y-47952381D01*
X99266667Y-48000000D01*
X99314286Y-48047619D01*
X99361905Y-48142857D01*
X99361905Y-48238095D01*
X99314286Y-48380952D01*
X98742857Y-48952381D01*
X99361905Y-48952381D01*
X89657143Y-28442857D02*
X89704762Y-28490476D01*
X89752381Y-28633333D01*
X89752381Y-28728571D01*
X89704762Y-28871429D01*
X89609524Y-28966667D01*
X89514286Y-29014286D01*
X89323810Y-29061905D01*
X89180952Y-29061905D01*
X88990476Y-29014286D01*
X88895238Y-28966667D01*
X88800000Y-28871429D01*
X88752381Y-28728571D01*
X88752381Y-28633333D01*
X88800000Y-28490476D01*
X88847619Y-28442857D01*
X88847619Y-28061905D02*
X88800000Y-28014286D01*
X88752381Y-27919048D01*
X88752381Y-27680952D01*
X88800000Y-27585714D01*
X88847619Y-27538095D01*
X88942857Y-27490476D01*
X89038095Y-27490476D01*
X89180952Y-27538095D01*
X89752381Y-28109524D01*
X89752381Y-27490476D01*
X88752381Y-27157143D02*
X88752381Y-26538095D01*
X89133333Y-26871429D01*
X89133333Y-26728571D01*
X89180952Y-26633333D01*
X89228571Y-26585714D01*
X89323810Y-26538095D01*
X89561905Y-26538095D01*
X89657143Y-26585714D01*
X89704762Y-26633333D01*
X89752381Y-26728571D01*
X89752381Y-27014286D01*
X89704762Y-27109524D01*
X89657143Y-27157143D01*
X87957143Y-31457143D02*
X87909524Y-31504762D01*
X87766667Y-31552381D01*
X87671429Y-31552381D01*
X87528571Y-31504762D01*
X87433333Y-31409524D01*
X87385714Y-31314286D01*
X87338095Y-31123810D01*
X87338095Y-30980952D01*
X87385714Y-30790476D01*
X87433333Y-30695238D01*
X87528571Y-30600000D01*
X87671429Y-30552381D01*
X87766667Y-30552381D01*
X87909524Y-30600000D01*
X87957143Y-30647619D01*
X88338095Y-30647619D02*
X88385714Y-30600000D01*
X88480952Y-30552381D01*
X88719048Y-30552381D01*
X88814286Y-30600000D01*
X88861905Y-30647619D01*
X88909524Y-30742857D01*
X88909524Y-30838095D01*
X88861905Y-30980952D01*
X88290476Y-31552381D01*
X88909524Y-31552381D01*
X89814286Y-30552381D02*
X89338095Y-30552381D01*
X89290476Y-31028571D01*
X89338095Y-30980952D01*
X89433333Y-30933333D01*
X89671429Y-30933333D01*
X89766667Y-30980952D01*
X89814286Y-31028571D01*
X89861905Y-31123810D01*
X89861905Y-31361905D01*
X89814286Y-31457143D01*
X89766667Y-31504762D01*
X89671429Y-31552381D01*
X89433333Y-31552381D01*
X89338095Y-31504762D01*
X89290476Y-31457143D01*
X95157143Y-57442857D02*
X95204762Y-57490476D01*
X95252381Y-57633333D01*
X95252381Y-57728571D01*
X95204762Y-57871429D01*
X95109524Y-57966667D01*
X95014286Y-58014286D01*
X94823810Y-58061905D01*
X94680952Y-58061905D01*
X94490476Y-58014286D01*
X94395238Y-57966667D01*
X94300000Y-57871429D01*
X94252381Y-57728571D01*
X94252381Y-57633333D01*
X94300000Y-57490476D01*
X94347619Y-57442857D01*
X94347619Y-57061905D02*
X94300000Y-57014286D01*
X94252381Y-56919048D01*
X94252381Y-56680952D01*
X94300000Y-56585714D01*
X94347619Y-56538095D01*
X94442857Y-56490476D01*
X94538095Y-56490476D01*
X94680952Y-56538095D01*
X95252381Y-57109524D01*
X95252381Y-56490476D01*
X94252381Y-55633333D02*
X94252381Y-55823810D01*
X94300000Y-55919048D01*
X94347619Y-55966667D01*
X94490476Y-56061905D01*
X94680952Y-56109524D01*
X95061905Y-56109524D01*
X95157143Y-56061905D01*
X95204762Y-56014286D01*
X95252381Y-55919048D01*
X95252381Y-55728571D01*
X95204762Y-55633333D01*
X95157143Y-55585714D01*
X95061905Y-55538095D01*
X94823810Y-55538095D01*
X94728571Y-55585714D01*
X94680952Y-55633333D01*
X94633333Y-55728571D01*
X94633333Y-55919048D01*
X94680952Y-56014286D01*
X94728571Y-56061905D01*
X94823810Y-56109524D01*
X91657143Y-58257143D02*
X91609524Y-58304762D01*
X91466667Y-58352381D01*
X91371429Y-58352381D01*
X91228571Y-58304762D01*
X91133333Y-58209524D01*
X91085714Y-58114286D01*
X91038095Y-57923810D01*
X91038095Y-57780952D01*
X91085714Y-57590476D01*
X91133333Y-57495238D01*
X91228571Y-57400000D01*
X91371429Y-57352381D01*
X91466667Y-57352381D01*
X91609524Y-57400000D01*
X91657143Y-57447619D01*
X92038095Y-57447619D02*
X92085714Y-57400000D01*
X92180952Y-57352381D01*
X92419048Y-57352381D01*
X92514286Y-57400000D01*
X92561905Y-57447619D01*
X92609524Y-57542857D01*
X92609524Y-57638095D01*
X92561905Y-57780952D01*
X91990476Y-58352381D01*
X92609524Y-58352381D01*
X92942857Y-57352381D02*
X93609524Y-57352381D01*
X93180952Y-58352381D01*
X93857143Y-34542857D02*
X93904762Y-34590476D01*
X93952381Y-34733333D01*
X93952381Y-34828571D01*
X93904762Y-34971429D01*
X93809524Y-35066667D01*
X93714286Y-35114286D01*
X93523810Y-35161905D01*
X93380952Y-35161905D01*
X93190476Y-35114286D01*
X93095238Y-35066667D01*
X93000000Y-34971429D01*
X92952381Y-34828571D01*
X92952381Y-34733333D01*
X93000000Y-34590476D01*
X93047619Y-34542857D01*
X92952381Y-34209524D02*
X92952381Y-33590476D01*
X93333333Y-33923810D01*
X93333333Y-33780952D01*
X93380952Y-33685714D01*
X93428571Y-33638095D01*
X93523810Y-33590476D01*
X93761905Y-33590476D01*
X93857143Y-33638095D01*
X93904762Y-33685714D01*
X93952381Y-33780952D01*
X93952381Y-34066667D01*
X93904762Y-34161905D01*
X93857143Y-34209524D01*
X93952381Y-32638095D02*
X93952381Y-33209524D01*
X93952381Y-32923810D02*
X92952381Y-32923810D01*
X93095238Y-33019048D01*
X93190476Y-33114286D01*
X93238095Y-33209524D01*
D10*
X91078571Y-31721428D02*
X91102381Y-31745238D01*
X91126190Y-31816666D01*
X91126190Y-31864285D01*
X91102381Y-31935714D01*
X91054762Y-31983333D01*
X91007143Y-32007142D01*
X90911905Y-32030952D01*
X90840476Y-32030952D01*
X90745238Y-32007142D01*
X90697619Y-31983333D01*
X90650000Y-31935714D01*
X90626190Y-31864285D01*
X90626190Y-31816666D01*
X90650000Y-31745238D01*
X90673810Y-31721428D01*
X90626190Y-31554761D02*
X90626190Y-31245238D01*
X90816667Y-31411904D01*
X90816667Y-31340476D01*
X90840476Y-31292857D01*
X90864286Y-31269047D01*
X90911905Y-31245238D01*
X91030952Y-31245238D01*
X91078571Y-31269047D01*
X91102381Y-31292857D01*
X91126190Y-31340476D01*
X91126190Y-31483333D01*
X91102381Y-31530952D01*
X91078571Y-31554761D01*
X90673810Y-31054762D02*
X90650000Y-31030952D01*
X90626190Y-30983333D01*
X90626190Y-30864286D01*
X90650000Y-30816667D01*
X90673810Y-30792857D01*
X90721429Y-30769048D01*
X90769048Y-30769048D01*
X90840476Y-30792857D01*
X91126190Y-31078571D01*
X91126190Y-30769048D01*
D11*
X115233334Y-68252381D02*
X114900000Y-67776190D01*
X114661905Y-68252381D02*
X114661905Y-67252381D01*
X115042858Y-67252381D01*
X115138096Y-67300000D01*
X115185715Y-67347619D01*
X115233334Y-67442857D01*
X115233334Y-67585714D01*
X115185715Y-67680952D01*
X115138096Y-67728571D01*
X115042858Y-67776190D01*
X114661905Y-67776190D01*
X116090477Y-67252381D02*
X115900000Y-67252381D01*
X115804762Y-67300000D01*
X115757143Y-67347619D01*
X115661905Y-67490476D01*
X115614286Y-67680952D01*
X115614286Y-68061905D01*
X115661905Y-68157143D01*
X115709524Y-68204762D01*
X115804762Y-68252381D01*
X115995239Y-68252381D01*
X116090477Y-68204762D01*
X116138096Y-68157143D01*
X116185715Y-68061905D01*
X116185715Y-67823810D01*
X116138096Y-67728571D01*
X116090477Y-67680952D01*
X115995239Y-67633333D01*
X115804762Y-67633333D01*
X115709524Y-67680952D01*
X115661905Y-67728571D01*
X115614286Y-67823810D01*
X112057143Y-68952381D02*
X111723809Y-68476190D01*
X111485714Y-68952381D02*
X111485714Y-67952381D01*
X111866667Y-67952381D01*
X111961905Y-68000000D01*
X112009524Y-68047619D01*
X112057143Y-68142857D01*
X112057143Y-68285714D01*
X112009524Y-68380952D01*
X111961905Y-68428571D01*
X111866667Y-68476190D01*
X111485714Y-68476190D01*
X113009524Y-68952381D02*
X112438095Y-68952381D01*
X112723809Y-68952381D02*
X112723809Y-67952381D01*
X112628571Y-68095238D01*
X112533333Y-68190476D01*
X112438095Y-68238095D01*
X113628571Y-67952381D02*
X113723810Y-67952381D01*
X113819048Y-68000000D01*
X113866667Y-68047619D01*
X113914286Y-68142857D01*
X113961905Y-68333333D01*
X113961905Y-68571429D01*
X113914286Y-68761905D01*
X113866667Y-68857143D01*
X113819048Y-68904762D01*
X113723810Y-68952381D01*
X113628571Y-68952381D01*
X113533333Y-68904762D01*
X113485714Y-68857143D01*
X113438095Y-68761905D01*
X113390476Y-68571429D01*
X113390476Y-68333333D01*
X113438095Y-68142857D01*
X113485714Y-68047619D01*
X113533333Y-68000000D01*
X113628571Y-67952381D01*
X108657143Y-68652381D02*
X108323809Y-68176190D01*
X108085714Y-68652381D02*
X108085714Y-67652381D01*
X108466667Y-67652381D01*
X108561905Y-67700000D01*
X108609524Y-67747619D01*
X108657143Y-67842857D01*
X108657143Y-67985714D01*
X108609524Y-68080952D01*
X108561905Y-68128571D01*
X108466667Y-68176190D01*
X108085714Y-68176190D01*
X109609524Y-68652381D02*
X109038095Y-68652381D01*
X109323809Y-68652381D02*
X109323809Y-67652381D01*
X109228571Y-67795238D01*
X109133333Y-67890476D01*
X109038095Y-67938095D01*
X110561905Y-68652381D02*
X109990476Y-68652381D01*
X110276190Y-68652381D02*
X110276190Y-67652381D01*
X110180952Y-67795238D01*
X110085714Y-67890476D01*
X109990476Y-67938095D01*
X84857143Y-39852381D02*
X84523809Y-39376190D01*
X84285714Y-39852381D02*
X84285714Y-38852381D01*
X84666667Y-38852381D01*
X84761905Y-38900000D01*
X84809524Y-38947619D01*
X84857143Y-39042857D01*
X84857143Y-39185714D01*
X84809524Y-39280952D01*
X84761905Y-39328571D01*
X84666667Y-39376190D01*
X84285714Y-39376190D01*
X85809524Y-39852381D02*
X85238095Y-39852381D01*
X85523809Y-39852381D02*
X85523809Y-38852381D01*
X85428571Y-38995238D01*
X85333333Y-39090476D01*
X85238095Y-39138095D01*
X86714286Y-38852381D02*
X86238095Y-38852381D01*
X86190476Y-39328571D01*
X86238095Y-39280952D01*
X86333333Y-39233333D01*
X86571429Y-39233333D01*
X86666667Y-39280952D01*
X86714286Y-39328571D01*
X86761905Y-39423810D01*
X86761905Y-39661905D01*
X86714286Y-39757143D01*
X86666667Y-39804762D01*
X86571429Y-39852381D01*
X86333333Y-39852381D01*
X86238095Y-39804762D01*
X86190476Y-39757143D01*
X84957143Y-44852381D02*
X84623809Y-44376190D01*
X84385714Y-44852381D02*
X84385714Y-43852381D01*
X84766667Y-43852381D01*
X84861905Y-43900000D01*
X84909524Y-43947619D01*
X84957143Y-44042857D01*
X84957143Y-44185714D01*
X84909524Y-44280952D01*
X84861905Y-44328571D01*
X84766667Y-44376190D01*
X84385714Y-44376190D01*
X85909524Y-44852381D02*
X85338095Y-44852381D01*
X85623809Y-44852381D02*
X85623809Y-43852381D01*
X85528571Y-43995238D01*
X85433333Y-44090476D01*
X85338095Y-44138095D01*
X86766667Y-43852381D02*
X86576190Y-43852381D01*
X86480952Y-43900000D01*
X86433333Y-43947619D01*
X86338095Y-44090476D01*
X86290476Y-44280952D01*
X86290476Y-44661905D01*
X86338095Y-44757143D01*
X86385714Y-44804762D01*
X86480952Y-44852381D01*
X86671429Y-44852381D01*
X86766667Y-44804762D01*
X86814286Y-44757143D01*
X86861905Y-44661905D01*
X86861905Y-44423810D01*
X86814286Y-44328571D01*
X86766667Y-44280952D01*
X86671429Y-44233333D01*
X86480952Y-44233333D01*
X86385714Y-44280952D01*
X86338095Y-44328571D01*
X86290476Y-44423810D01*
X100857143Y-55952381D02*
X100523809Y-55476190D01*
X100285714Y-55952381D02*
X100285714Y-54952381D01*
X100666667Y-54952381D01*
X100761905Y-55000000D01*
X100809524Y-55047619D01*
X100857143Y-55142857D01*
X100857143Y-55285714D01*
X100809524Y-55380952D01*
X100761905Y-55428571D01*
X100666667Y-55476190D01*
X100285714Y-55476190D01*
X101809524Y-55952381D02*
X101238095Y-55952381D01*
X101523809Y-55952381D02*
X101523809Y-54952381D01*
X101428571Y-55095238D01*
X101333333Y-55190476D01*
X101238095Y-55238095D01*
X102142857Y-54952381D02*
X102809524Y-54952381D01*
X102380952Y-55952381D01*
X103650000Y-53116667D02*
X103416666Y-52783333D01*
X103250000Y-53116667D02*
X103250000Y-52416667D01*
X103516666Y-52416667D01*
X103583333Y-52450000D01*
X103616666Y-52483333D01*
X103650000Y-52550000D01*
X103650000Y-52650000D01*
X103616666Y-52716667D01*
X103583333Y-52750000D01*
X103516666Y-52783333D01*
X103250000Y-52783333D01*
X104316666Y-53116667D02*
X103916666Y-53116667D01*
X104116666Y-53116667D02*
X104116666Y-52416667D01*
X104050000Y-52516667D01*
X103983333Y-52583333D01*
X103916666Y-52616667D01*
X104650000Y-53116667D02*
X104783333Y-53116667D01*
X104850000Y-53083333D01*
X104883333Y-53050000D01*
X104950000Y-52950000D01*
X104983333Y-52816667D01*
X104983333Y-52550000D01*
X104950000Y-52483333D01*
X104916667Y-52450000D01*
X104850000Y-52416667D01*
X104716667Y-52416667D01*
X104650000Y-52450000D01*
X104616667Y-52483333D01*
X104583333Y-52550000D01*
X104583333Y-52716667D01*
X104616667Y-52783333D01*
X104650000Y-52816667D01*
X104716667Y-52850000D01*
X104850000Y-52850000D01*
X104916667Y-52816667D01*
X104950000Y-52783333D01*
X104983333Y-52716667D01*
X101157143Y-51252381D02*
X100823809Y-50776190D01*
X100585714Y-51252381D02*
X100585714Y-50252381D01*
X100966667Y-50252381D01*
X101061905Y-50300000D01*
X101109524Y-50347619D01*
X101157143Y-50442857D01*
X101157143Y-50585714D01*
X101109524Y-50680952D01*
X101061905Y-50728571D01*
X100966667Y-50776190D01*
X100585714Y-50776190D01*
X101538095Y-50347619D02*
X101585714Y-50300000D01*
X101680952Y-50252381D01*
X101919048Y-50252381D01*
X102014286Y-50300000D01*
X102061905Y-50347619D01*
X102109524Y-50442857D01*
X102109524Y-50538095D01*
X102061905Y-50680952D01*
X101490476Y-51252381D01*
X102109524Y-51252381D01*
X102728571Y-50252381D02*
X102823810Y-50252381D01*
X102919048Y-50300000D01*
X102966667Y-50347619D01*
X103014286Y-50442857D01*
X103061905Y-50633333D01*
X103061905Y-50871429D01*
X103014286Y-51061905D01*
X102966667Y-51157143D01*
X102919048Y-51204762D01*
X102823810Y-51252381D01*
X102728571Y-51252381D01*
X102633333Y-51204762D01*
X102585714Y-51157143D01*
X102538095Y-51061905D01*
X102490476Y-50871429D01*
X102490476Y-50633333D01*
X102538095Y-50442857D01*
X102585714Y-50347619D01*
X102633333Y-50300000D01*
X102728571Y-50252381D01*
X76157143Y-21852381D02*
X75823809Y-21376190D01*
X75585714Y-21852381D02*
X75585714Y-20852381D01*
X75966667Y-20852381D01*
X76061905Y-20900000D01*
X76109524Y-20947619D01*
X76157143Y-21042857D01*
X76157143Y-21185714D01*
X76109524Y-21280952D01*
X76061905Y-21328571D01*
X75966667Y-21376190D01*
X75585714Y-21376190D01*
X76538095Y-20947619D02*
X76585714Y-20900000D01*
X76680952Y-20852381D01*
X76919048Y-20852381D01*
X77014286Y-20900000D01*
X77061905Y-20947619D01*
X77109524Y-21042857D01*
X77109524Y-21138095D01*
X77061905Y-21280952D01*
X76490476Y-21852381D01*
X77109524Y-21852381D01*
X78061905Y-21852381D02*
X77490476Y-21852381D01*
X77776190Y-21852381D02*
X77776190Y-20852381D01*
X77680952Y-20995238D01*
X77585714Y-21090476D01*
X77490476Y-21138095D01*
X87052381Y-52242857D02*
X86576190Y-52576191D01*
X87052381Y-52814286D02*
X86052381Y-52814286D01*
X86052381Y-52433333D01*
X86100000Y-52338095D01*
X86147619Y-52290476D01*
X86242857Y-52242857D01*
X86385714Y-52242857D01*
X86480952Y-52290476D01*
X86528571Y-52338095D01*
X86576190Y-52433333D01*
X86576190Y-52814286D01*
X86147619Y-51861905D02*
X86100000Y-51814286D01*
X86052381Y-51719048D01*
X86052381Y-51480952D01*
X86100000Y-51385714D01*
X86147619Y-51338095D01*
X86242857Y-51290476D01*
X86338095Y-51290476D01*
X86480952Y-51338095D01*
X87052381Y-51909524D01*
X87052381Y-51290476D01*
X86052381Y-50385714D02*
X86052381Y-50861905D01*
X86528571Y-50909524D01*
X86480952Y-50861905D01*
X86433333Y-50766667D01*
X86433333Y-50528571D01*
X86480952Y-50433333D01*
X86528571Y-50385714D01*
X86623810Y-50338095D01*
X86861905Y-50338095D01*
X86957143Y-50385714D01*
X87004762Y-50433333D01*
X87052381Y-50528571D01*
X87052381Y-50766667D01*
X87004762Y-50861905D01*
X86957143Y-50909524D01*
X96757143Y-42057143D02*
X96709524Y-42104762D01*
X96566667Y-42152381D01*
X96471429Y-42152381D01*
X96328571Y-42104762D01*
X96233333Y-42009524D01*
X96185714Y-41914286D01*
X96138095Y-41723810D01*
X96138095Y-41580952D01*
X96185714Y-41390476D01*
X96233333Y-41295238D01*
X96328571Y-41200000D01*
X96471429Y-41152381D01*
X96566667Y-41152381D01*
X96709524Y-41200000D01*
X96757143Y-41247619D01*
X97090476Y-41152381D02*
X97709524Y-41152381D01*
X97376190Y-41533333D01*
X97519048Y-41533333D01*
X97614286Y-41580952D01*
X97661905Y-41628571D01*
X97709524Y-41723810D01*
X97709524Y-41961905D01*
X97661905Y-42057143D01*
X97614286Y-42104762D01*
X97519048Y-42152381D01*
X97233333Y-42152381D01*
X97138095Y-42104762D01*
X97090476Y-42057143D01*
X98042857Y-41152381D02*
X98709524Y-41152381D01*
X98280952Y-42152381D01*
X88957143Y-46652381D02*
X88623809Y-46176190D01*
X88385714Y-46652381D02*
X88385714Y-45652381D01*
X88766667Y-45652381D01*
X88861905Y-45700000D01*
X88909524Y-45747619D01*
X88957143Y-45842857D01*
X88957143Y-45985714D01*
X88909524Y-46080952D01*
X88861905Y-46128571D01*
X88766667Y-46176190D01*
X88385714Y-46176190D01*
X89909524Y-46652381D02*
X89338095Y-46652381D01*
X89623809Y-46652381D02*
X89623809Y-45652381D01*
X89528571Y-45795238D01*
X89433333Y-45890476D01*
X89338095Y-45938095D01*
X90480952Y-46080952D02*
X90385714Y-46033333D01*
X90338095Y-45985714D01*
X90290476Y-45890476D01*
X90290476Y-45842857D01*
X90338095Y-45747619D01*
X90385714Y-45700000D01*
X90480952Y-45652381D01*
X90671429Y-45652381D01*
X90766667Y-45700000D01*
X90814286Y-45747619D01*
X90861905Y-45842857D01*
X90861905Y-45890476D01*
X90814286Y-45985714D01*
X90766667Y-46033333D01*
X90671429Y-46080952D01*
X90480952Y-46080952D01*
X90385714Y-46128571D01*
X90338095Y-46176190D01*
X90290476Y-46271429D01*
X90290476Y-46461905D01*
X90338095Y-46557143D01*
X90385714Y-46604762D01*
X90480952Y-46652381D01*
X90671429Y-46652381D01*
X90766667Y-46604762D01*
X90814286Y-46557143D01*
X90861905Y-46461905D01*
X90861905Y-46271429D01*
X90814286Y-46176190D01*
X90766667Y-46128571D01*
X90671429Y-46080952D01*
X93252381Y-28642857D02*
X92776190Y-28976191D01*
X93252381Y-29214286D02*
X92252381Y-29214286D01*
X92252381Y-28833333D01*
X92300000Y-28738095D01*
X92347619Y-28690476D01*
X92442857Y-28642857D01*
X92585714Y-28642857D01*
X92680952Y-28690476D01*
X92728571Y-28738095D01*
X92776190Y-28833333D01*
X92776190Y-29214286D01*
X92347619Y-28261905D02*
X92300000Y-28214286D01*
X92252381Y-28119048D01*
X92252381Y-27880952D01*
X92300000Y-27785714D01*
X92347619Y-27738095D01*
X92442857Y-27690476D01*
X92538095Y-27690476D01*
X92680952Y-27738095D01*
X93252381Y-28309524D01*
X93252381Y-27690476D01*
X92347619Y-27309524D02*
X92300000Y-27261905D01*
X92252381Y-27166667D01*
X92252381Y-26928571D01*
X92300000Y-26833333D01*
X92347619Y-26785714D01*
X92442857Y-26738095D01*
X92538095Y-26738095D01*
X92680952Y-26785714D01*
X93252381Y-27357143D01*
X93252381Y-26738095D01*
D15*
X80526190Y-21921428D02*
X80288095Y-22088095D01*
X80526190Y-22207142D02*
X80026190Y-22207142D01*
X80026190Y-22016666D01*
X80050000Y-21969047D01*
X80073810Y-21945238D01*
X80121429Y-21921428D01*
X80192857Y-21921428D01*
X80240476Y-21945238D01*
X80264286Y-21969047D01*
X80288095Y-22016666D01*
X80288095Y-22207142D01*
X80073810Y-21730952D02*
X80050000Y-21707142D01*
X80026190Y-21659523D01*
X80026190Y-21540476D01*
X80050000Y-21492857D01*
X80073810Y-21469047D01*
X80121429Y-21445238D01*
X80169048Y-21445238D01*
X80240476Y-21469047D01*
X80526190Y-21754761D01*
X80526190Y-21445238D01*
X80026190Y-21278571D02*
X80026190Y-20945238D01*
X80526190Y-21159524D01*
D11*
X85157143Y-21952381D02*
X84823809Y-21476190D01*
X84585714Y-21952381D02*
X84585714Y-20952381D01*
X84966667Y-20952381D01*
X85061905Y-21000000D01*
X85109524Y-21047619D01*
X85157143Y-21142857D01*
X85157143Y-21285714D01*
X85109524Y-21380952D01*
X85061905Y-21428571D01*
X84966667Y-21476190D01*
X84585714Y-21476190D01*
X85538095Y-21047619D02*
X85585714Y-21000000D01*
X85680952Y-20952381D01*
X85919048Y-20952381D01*
X86014286Y-21000000D01*
X86061905Y-21047619D01*
X86109524Y-21142857D01*
X86109524Y-21238095D01*
X86061905Y-21380952D01*
X85490476Y-21952381D01*
X86109524Y-21952381D01*
X86680952Y-21380952D02*
X86585714Y-21333333D01*
X86538095Y-21285714D01*
X86490476Y-21190476D01*
X86490476Y-21142857D01*
X86538095Y-21047619D01*
X86585714Y-21000000D01*
X86680952Y-20952381D01*
X86871429Y-20952381D01*
X86966667Y-21000000D01*
X87014286Y-21047619D01*
X87061905Y-21142857D01*
X87061905Y-21190476D01*
X87014286Y-21285714D01*
X86966667Y-21333333D01*
X86871429Y-21380952D01*
X86680952Y-21380952D01*
X86585714Y-21428571D01*
X86538095Y-21476190D01*
X86490476Y-21571429D01*
X86490476Y-21761905D01*
X86538095Y-21857143D01*
X86585714Y-21904762D01*
X86680952Y-21952381D01*
X86871429Y-21952381D01*
X86966667Y-21904762D01*
X87014286Y-21857143D01*
X87061905Y-21761905D01*
X87061905Y-21571429D01*
X87014286Y-21476190D01*
X86966667Y-21428571D01*
X86871429Y-21380952D01*
X90552381Y-38842857D02*
X90076190Y-39176191D01*
X90552381Y-39414286D02*
X89552381Y-39414286D01*
X89552381Y-39033333D01*
X89600000Y-38938095D01*
X89647619Y-38890476D01*
X89742857Y-38842857D01*
X89885714Y-38842857D01*
X89980952Y-38890476D01*
X90028571Y-38938095D01*
X90076190Y-39033333D01*
X90076190Y-39414286D01*
X89552381Y-38509524D02*
X89552381Y-37890476D01*
X89933333Y-38223810D01*
X89933333Y-38080952D01*
X89980952Y-37985714D01*
X90028571Y-37938095D01*
X90123810Y-37890476D01*
X90361905Y-37890476D01*
X90457143Y-37938095D01*
X90504762Y-37985714D01*
X90552381Y-38080952D01*
X90552381Y-38366667D01*
X90504762Y-38461905D01*
X90457143Y-38509524D01*
X89552381Y-37271429D02*
X89552381Y-37176190D01*
X89600000Y-37080952D01*
X89647619Y-37033333D01*
X89742857Y-36985714D01*
X89933333Y-36938095D01*
X90171429Y-36938095D01*
X90361905Y-36985714D01*
X90457143Y-37033333D01*
X90504762Y-37080952D01*
X90552381Y-37176190D01*
X90552381Y-37271429D01*
X90504762Y-37366667D01*
X90457143Y-37414286D01*
X90361905Y-37461905D01*
X90171429Y-37509524D01*
X89933333Y-37509524D01*
X89742857Y-37461905D01*
X89647619Y-37414286D01*
X89600000Y-37366667D01*
X89552381Y-37271429D01*
X101757143Y-46752381D02*
X101423809Y-46276190D01*
X101185714Y-46752381D02*
X101185714Y-45752381D01*
X101566667Y-45752381D01*
X101661905Y-45800000D01*
X101709524Y-45847619D01*
X101757143Y-45942857D01*
X101757143Y-46085714D01*
X101709524Y-46180952D01*
X101661905Y-46228571D01*
X101566667Y-46276190D01*
X101185714Y-46276190D01*
X102090476Y-45752381D02*
X102709524Y-45752381D01*
X102376190Y-46133333D01*
X102519048Y-46133333D01*
X102614286Y-46180952D01*
X102661905Y-46228571D01*
X102709524Y-46323810D01*
X102709524Y-46561905D01*
X102661905Y-46657143D01*
X102614286Y-46704762D01*
X102519048Y-46752381D01*
X102233333Y-46752381D01*
X102138095Y-46704762D01*
X102090476Y-46657143D01*
X103661905Y-46752381D02*
X103090476Y-46752381D01*
X103376190Y-46752381D02*
X103376190Y-45752381D01*
X103280952Y-45895238D01*
X103185714Y-45990476D01*
X103090476Y-46038095D01*
D16*
X95729143Y-46274071D02*
X95729143Y-47199357D01*
X95783571Y-47308214D01*
X95838000Y-47362643D01*
X95946857Y-47417071D01*
X96164571Y-47417071D01*
X96273429Y-47362643D01*
X96327857Y-47308214D01*
X96382286Y-47199357D01*
X96382286Y-46274071D01*
X97470858Y-46274071D02*
X96926572Y-46274071D01*
X96872143Y-46818357D01*
X96926572Y-46763929D01*
X97035429Y-46709500D01*
X97307572Y-46709500D01*
X97416429Y-46763929D01*
X97470858Y-46818357D01*
X97525286Y-46927214D01*
X97525286Y-47199357D01*
X97470858Y-47308214D01*
X97416429Y-47362643D01*
X97307572Y-47417071D01*
X97035429Y-47417071D01*
X96926572Y-47362643D01*
X96872143Y-47308214D01*
D11*
X91461905Y-22852381D02*
X91461905Y-21852381D01*
X91700000Y-21852381D01*
X91842858Y-21900000D01*
X91938096Y-21995238D01*
X91985715Y-22090476D01*
X92033334Y-22280952D01*
X92033334Y-22423810D01*
X91985715Y-22614286D01*
X91938096Y-22709524D01*
X91842858Y-22804762D01*
X91700000Y-22852381D01*
X91461905Y-22852381D01*
X92890477Y-21852381D02*
X92700000Y-21852381D01*
X92604762Y-21900000D01*
X92557143Y-21947619D01*
X92461905Y-22090476D01*
X92414286Y-22280952D01*
X92414286Y-22661905D01*
X92461905Y-22757143D01*
X92509524Y-22804762D01*
X92604762Y-22852381D01*
X92795239Y-22852381D01*
X92890477Y-22804762D01*
X92938096Y-22757143D01*
X92985715Y-22661905D01*
X92985715Y-22423810D01*
X92938096Y-22328571D01*
X92890477Y-22280952D01*
X92795239Y-22233333D01*
X92604762Y-22233333D01*
X92509524Y-22280952D01*
X92461905Y-22328571D01*
X92414286Y-22423810D01*
X105742143Y-36618571D02*
X105742143Y-37832857D01*
X105813571Y-37975714D01*
X105885000Y-38047143D01*
X106027857Y-38118571D01*
X106313571Y-38118571D01*
X106456429Y-38047143D01*
X106527857Y-37975714D01*
X106599286Y-37832857D01*
X106599286Y-36618571D01*
X107956429Y-36618571D02*
X107670715Y-36618571D01*
X107527858Y-36690000D01*
X107456429Y-36761429D01*
X107313572Y-36975714D01*
X107242143Y-37261429D01*
X107242143Y-37832857D01*
X107313572Y-37975714D01*
X107385000Y-38047143D01*
X107527858Y-38118571D01*
X107813572Y-38118571D01*
X107956429Y-38047143D01*
X108027858Y-37975714D01*
X108099286Y-37832857D01*
X108099286Y-37475714D01*
X108027858Y-37332857D01*
X107956429Y-37261429D01*
X107813572Y-37190000D01*
X107527858Y-37190000D01*
X107385000Y-37261429D01*
X107313572Y-37332857D01*
X107242143Y-37475714D01*
X81204762Y-38033333D02*
X81252381Y-37890476D01*
X81252381Y-37652380D01*
X81204762Y-37557142D01*
X81157143Y-37509523D01*
X81061905Y-37461904D01*
X80966667Y-37461904D01*
X80871429Y-37509523D01*
X80823810Y-37557142D01*
X80776190Y-37652380D01*
X80728571Y-37842857D01*
X80680952Y-37938095D01*
X80633333Y-37985714D01*
X80538095Y-38033333D01*
X80442857Y-38033333D01*
X80347619Y-37985714D01*
X80300000Y-37938095D01*
X80252381Y-37842857D01*
X80252381Y-37604761D01*
X80300000Y-37461904D01*
X80252381Y-37128571D02*
X81252381Y-36890476D01*
X80538095Y-36699999D01*
X81252381Y-36509523D01*
X80252381Y-36271428D01*
X81252381Y-35366666D02*
X81252381Y-35938095D01*
X81252381Y-35652381D02*
X80252381Y-35652381D01*
X80395238Y-35747619D01*
X80490476Y-35842857D01*
X80538095Y-35938095D01*
X97233334Y-57157143D02*
X97185715Y-57204762D01*
X97042858Y-57252381D01*
X96947620Y-57252381D01*
X96804762Y-57204762D01*
X96709524Y-57109524D01*
X96661905Y-57014286D01*
X96614286Y-56823810D01*
X96614286Y-56680952D01*
X96661905Y-56490476D01*
X96709524Y-56395238D01*
X96804762Y-56300000D01*
X96947620Y-56252381D01*
X97042858Y-56252381D01*
X97185715Y-56300000D01*
X97233334Y-56347619D01*
X97614286Y-56347619D02*
X97661905Y-56300000D01*
X97757143Y-56252381D01*
X97995239Y-56252381D01*
X98090477Y-56300000D01*
X98138096Y-56347619D01*
X98185715Y-56442857D01*
X98185715Y-56538095D01*
X98138096Y-56680952D01*
X97566667Y-57252381D01*
X98185715Y-57252381D01*
X113359381Y-56419095D02*
X112359381Y-56419095D01*
X112359381Y-56181000D01*
X112407000Y-56038142D01*
X112502238Y-55942904D01*
X112597476Y-55895285D01*
X112787952Y-55847666D01*
X112930810Y-55847666D01*
X113121286Y-55895285D01*
X113216524Y-55942904D01*
X113311762Y-56038142D01*
X113359381Y-56181000D01*
X113359381Y-56419095D01*
X113359381Y-54895285D02*
X113359381Y-55466714D01*
X113359381Y-55181000D02*
X112359381Y-55181000D01*
X112502238Y-55276238D01*
X112597476Y-55371476D01*
X112645095Y-55466714D01*
X89357143Y-66166666D02*
X89404762Y-66214285D01*
X89452381Y-66357142D01*
X89452381Y-66452380D01*
X89404762Y-66595238D01*
X89309524Y-66690476D01*
X89214286Y-66738095D01*
X89023810Y-66785714D01*
X88880952Y-66785714D01*
X88690476Y-66738095D01*
X88595238Y-66690476D01*
X88500000Y-66595238D01*
X88452381Y-66452380D01*
X88452381Y-66357142D01*
X88500000Y-66214285D01*
X88547619Y-66166666D01*
X89452381Y-65690476D02*
X89452381Y-65500000D01*
X89404762Y-65404761D01*
X89357143Y-65357142D01*
X89214286Y-65261904D01*
X89023810Y-65214285D01*
X88642857Y-65214285D01*
X88547619Y-65261904D01*
X88500000Y-65309523D01*
X88452381Y-65404761D01*
X88452381Y-65595238D01*
X88500000Y-65690476D01*
X88547619Y-65738095D01*
X88642857Y-65785714D01*
X88880952Y-65785714D01*
X88976190Y-65738095D01*
X89023810Y-65690476D01*
X89071429Y-65595238D01*
X89071429Y-65404761D01*
X89023810Y-65309523D01*
X88976190Y-65261904D01*
X88880952Y-65214285D01*
X93052381Y-67938095D02*
X92052381Y-67938095D01*
X92052381Y-67700000D01*
X92100000Y-67557142D01*
X92195238Y-67461904D01*
X92290476Y-67414285D01*
X92480952Y-67366666D01*
X92623810Y-67366666D01*
X92814286Y-67414285D01*
X92909524Y-67461904D01*
X93004762Y-67557142D01*
X93052381Y-67700000D01*
X93052381Y-67938095D01*
X92147619Y-66985714D02*
X92100000Y-66938095D01*
X92052381Y-66842857D01*
X92052381Y-66604761D01*
X92100000Y-66509523D01*
X92147619Y-66461904D01*
X92242857Y-66414285D01*
X92338095Y-66414285D01*
X92480952Y-66461904D01*
X93052381Y-67033333D01*
X93052381Y-66414285D01*
X94501781Y-63361045D02*
X93501781Y-63361045D01*
X94501781Y-62789616D02*
X93930352Y-63218188D01*
X93501781Y-62789616D02*
X94073210Y-63361045D01*
D16*
X85925929Y-64108857D02*
X85871500Y-64217714D01*
X85762643Y-64326571D01*
X85599357Y-64489857D01*
X85544929Y-64598714D01*
X85544929Y-64707571D01*
X85817071Y-64653143D02*
X85762643Y-64762000D01*
X85653786Y-64870857D01*
X85436071Y-64925286D01*
X85055071Y-64925286D01*
X84837357Y-64870857D01*
X84728500Y-64762000D01*
X84674071Y-64653143D01*
X84674071Y-64435429D01*
X84728500Y-64326571D01*
X84837357Y-64217714D01*
X85055071Y-64163286D01*
X85436071Y-64163286D01*
X85653786Y-64217714D01*
X85762643Y-64326571D01*
X85817071Y-64435429D01*
X85817071Y-64653143D01*
X85817071Y-63074714D02*
X85817071Y-63727857D01*
X85817071Y-63401285D02*
X84674071Y-63401285D01*
X84837357Y-63510142D01*
X84946214Y-63619000D01*
X85000643Y-63727857D01*
D11*
X96252381Y-62566666D02*
X95776190Y-62900000D01*
X96252381Y-63138095D02*
X95252381Y-63138095D01*
X95252381Y-62757142D01*
X95300000Y-62661904D01*
X95347619Y-62614285D01*
X95442857Y-62566666D01*
X95585714Y-62566666D01*
X95680952Y-62614285D01*
X95728571Y-62661904D01*
X95776190Y-62757142D01*
X95776190Y-63138095D01*
X96252381Y-61614285D02*
X96252381Y-62185714D01*
X96252381Y-61900000D02*
X95252381Y-61900000D01*
X95395238Y-61995238D01*
X95490476Y-62090476D01*
X95538095Y-62185714D01*
X91052381Y-66066666D02*
X90576190Y-66400000D01*
X91052381Y-66638095D02*
X90052381Y-66638095D01*
X90052381Y-66257142D01*
X90100000Y-66161904D01*
X90147619Y-66114285D01*
X90242857Y-66066666D01*
X90385714Y-66066666D01*
X90480952Y-66114285D01*
X90528571Y-66161904D01*
X90576190Y-66257142D01*
X90576190Y-66638095D01*
X90147619Y-65685714D02*
X90100000Y-65638095D01*
X90052381Y-65542857D01*
X90052381Y-65304761D01*
X90100000Y-65209523D01*
X90147619Y-65161904D01*
X90242857Y-65114285D01*
X90338095Y-65114285D01*
X90480952Y-65161904D01*
X91052381Y-65733333D01*
X91052381Y-65114285D01*
X82352381Y-68166666D02*
X81876190Y-68500000D01*
X82352381Y-68738095D02*
X81352381Y-68738095D01*
X81352381Y-68357142D01*
X81400000Y-68261904D01*
X81447619Y-68214285D01*
X81542857Y-68166666D01*
X81685714Y-68166666D01*
X81780952Y-68214285D01*
X81828571Y-68261904D01*
X81876190Y-68357142D01*
X81876190Y-68738095D01*
X81352381Y-67833333D02*
X81352381Y-67214285D01*
X81733333Y-67547619D01*
X81733333Y-67404761D01*
X81780952Y-67309523D01*
X81828571Y-67261904D01*
X81923810Y-67214285D01*
X82161905Y-67214285D01*
X82257143Y-67261904D01*
X82304762Y-67309523D01*
X82352381Y-67404761D01*
X82352381Y-67690476D01*
X82304762Y-67785714D01*
X82257143Y-67833333D01*
X110361905Y-39352381D02*
X110361905Y-38352381D01*
X110742858Y-38352381D01*
X110838096Y-38400000D01*
X110885715Y-38447619D01*
X110933334Y-38542857D01*
X110933334Y-38685714D01*
X110885715Y-38780952D01*
X110838096Y-38828571D01*
X110742858Y-38876190D01*
X110361905Y-38876190D01*
X111790477Y-38685714D02*
X111790477Y-39352381D01*
X111552381Y-38304762D02*
X111314286Y-39019048D01*
X111933334Y-39019048D01*
X84661905Y-55052381D02*
X84661905Y-54052381D01*
X85042858Y-54052381D01*
X85138096Y-54100000D01*
X85185715Y-54147619D01*
X85233334Y-54242857D01*
X85233334Y-54385714D01*
X85185715Y-54480952D01*
X85138096Y-54528571D01*
X85042858Y-54576190D01*
X84661905Y-54576190D01*
X86090477Y-54052381D02*
X85900000Y-54052381D01*
X85804762Y-54100000D01*
X85757143Y-54147619D01*
X85661905Y-54290476D01*
X85614286Y-54480952D01*
X85614286Y-54861905D01*
X85661905Y-54957143D01*
X85709524Y-55004762D01*
X85804762Y-55052381D01*
X85995239Y-55052381D01*
X86090477Y-55004762D01*
X86138096Y-54957143D01*
X86185715Y-54861905D01*
X86185715Y-54623810D01*
X86138096Y-54528571D01*
X86090477Y-54480952D01*
X85995239Y-54433333D01*
X85804762Y-54433333D01*
X85709524Y-54480952D01*
X85661905Y-54528571D01*
X85614286Y-54623810D01*
X90452381Y-22466666D02*
X89976190Y-22800000D01*
X90452381Y-23038095D02*
X89452381Y-23038095D01*
X89452381Y-22657142D01*
X89500000Y-22561904D01*
X89547619Y-22514285D01*
X89642857Y-22466666D01*
X89785714Y-22466666D01*
X89880952Y-22514285D01*
X89928571Y-22561904D01*
X89976190Y-22657142D01*
X89976190Y-23038095D01*
X89452381Y-22133333D02*
X89452381Y-21466666D01*
X90452381Y-21895238D01*
%LPC*%
D17*
X117200000Y-58400420D03*
X117200000Y-46599580D03*
D18*
X77600000Y-61700000D03*
D19*
X77600000Y-64240000D03*
D20*
X97150000Y-53975000D03*
X97650000Y-53975000D03*
X98150000Y-53975000D03*
X98650000Y-53975000D03*
D21*
X99375000Y-53250000D03*
X99375000Y-52750000D03*
X99375000Y-52250000D03*
X99375000Y-51750000D03*
D20*
X98650000Y-51025000D03*
X98150000Y-51025000D03*
X97650000Y-51025000D03*
X97150000Y-51025000D03*
D21*
X96425000Y-51750000D03*
X96425000Y-52250000D03*
X96425000Y-52750000D03*
X96425000Y-53250000D03*
D22*
X98350000Y-52050000D03*
X97450000Y-52050000D03*
X98350000Y-52950000D03*
X97450000Y-52950000D03*
D23*
X99200000Y-63300000D03*
X99200000Y-60300000D03*
X102400000Y-63300000D03*
X102400000Y-60300000D03*
D24*
X114100000Y-64700000D03*
X114100000Y-62700000D03*
X116100000Y-64700000D03*
X116100000Y-62700000D03*
D25*
X104150000Y-66800000D03*
X105250000Y-66800000D03*
X113150000Y-60000000D03*
X112050000Y-60000000D03*
D26*
X108600000Y-47700000D03*
X105600000Y-47700000D03*
X108600000Y-51400000D03*
X105600000Y-51400000D03*
D27*
X93200000Y-51550000D03*
X93200000Y-50050000D03*
D25*
X88050000Y-24300000D03*
X89150000Y-24300000D03*
D28*
X94800000Y-51650000D03*
X94800000Y-50550000D03*
D25*
X97650000Y-49600000D03*
X98750000Y-49600000D03*
D28*
X88300000Y-28450000D03*
X88300000Y-27350000D03*
D25*
X88050000Y-29900000D03*
X89150000Y-29900000D03*
D27*
X94700000Y-53050000D03*
X94700000Y-54550000D03*
D29*
X92500000Y-53200000D03*
X92500000Y-56200000D03*
D28*
X93500000Y-32150000D03*
X93500000Y-31050000D03*
D27*
X92100000Y-32150000D03*
X92100000Y-30650000D03*
D30*
X114550000Y-66300000D03*
X115450000Y-66300000D03*
X112750000Y-66500000D03*
X111850000Y-66500000D03*
X110550000Y-66700000D03*
X109650000Y-66700000D03*
D31*
X86350000Y-40600000D03*
X84850000Y-40600000D03*
X86350000Y-42800000D03*
X84850000Y-42800000D03*
D30*
X100950000Y-54100000D03*
X101850000Y-54100000D03*
X100950000Y-53200000D03*
X101850000Y-53200000D03*
X100950000Y-52200000D03*
X101850000Y-52200000D03*
X76350000Y-22600000D03*
X77250000Y-22600000D03*
D32*
X88050000Y-48300000D03*
X85150000Y-48300000D03*
D33*
X77665000Y-25140000D03*
X77665000Y-25940000D03*
X77665000Y-26740000D03*
X77665000Y-27540000D03*
X77665000Y-28340000D03*
X77665000Y-29140000D03*
X77665000Y-29940000D03*
X77665000Y-30740000D03*
D34*
X79115000Y-32190000D03*
X79915000Y-32190000D03*
X80715000Y-32190000D03*
X81515000Y-32190000D03*
X82315000Y-32190000D03*
X83115000Y-32190000D03*
X83915000Y-32190000D03*
X84715000Y-32190000D03*
D33*
X86165000Y-30740000D03*
X86165000Y-29940000D03*
X86165000Y-29140000D03*
X86165000Y-28340000D03*
X86165000Y-27540000D03*
X86165000Y-26740000D03*
X86165000Y-25940000D03*
X86165000Y-25140000D03*
D34*
X84715000Y-23690000D03*
X83915000Y-23690000D03*
X83115000Y-23690000D03*
X82315000Y-23690000D03*
X81515000Y-23690000D03*
X80715000Y-23690000D03*
X79915000Y-23690000D03*
X79115000Y-23690000D03*
D35*
X92300000Y-41900000D03*
X95300000Y-41900000D03*
D36*
X90350000Y-44600000D03*
X88450000Y-44600000D03*
D37*
X91000000Y-28350000D03*
X91000000Y-26450000D03*
D31*
X79550000Y-21600000D03*
X81050000Y-21600000D03*
X82350000Y-21500000D03*
X83850000Y-21500000D03*
D24*
X90100000Y-42500000D03*
X90100000Y-40500000D03*
D38*
X103400000Y-44600000D03*
X101400000Y-44600000D03*
D39*
X92948800Y-47170000D03*
X92948800Y-44630000D03*
X99451200Y-44630000D03*
X99451200Y-47170000D03*
D40*
X91450700Y-21200000D03*
X92949300Y-21200000D03*
D41*
X95885000Y-25400000D03*
X95885000Y-27940000D03*
X95885000Y-30480000D03*
X95885000Y-33020000D03*
X95885000Y-35560000D03*
X118005000Y-35560000D03*
X118005000Y-33020000D03*
X118005000Y-30480000D03*
X118005000Y-27940000D03*
X118005000Y-25400000D03*
X118005000Y-22860000D03*
D42*
X109092500Y-64257500D03*
X107886000Y-64257500D03*
X107886000Y-62352500D03*
X107886000Y-63305000D03*
X109092500Y-63305000D03*
D43*
X105600000Y-61400000D03*
X105600000Y-62670000D03*
X105600000Y-63940000D03*
X105600000Y-65210000D03*
X111378500Y-65210000D03*
X111378500Y-63940000D03*
X111378500Y-62670000D03*
X111378500Y-61400000D03*
D42*
X109092500Y-62352500D03*
D44*
X77470000Y-40640000D03*
X80010000Y-40640000D03*
X82550000Y-40640000D03*
X77470000Y-43180000D03*
X80010000Y-43180000D03*
X82550000Y-43180000D03*
X77470000Y-45720000D03*
X80010000Y-45720000D03*
X82550000Y-45720000D03*
X77470000Y-48260000D03*
X80010000Y-48260000D03*
X82550000Y-48260000D03*
X77470000Y-50800000D03*
X80010000Y-50800000D03*
X82550000Y-50800000D03*
X77470000Y-53340000D03*
X80010000Y-53340000D03*
X82550000Y-53340000D03*
X77470000Y-55880000D03*
X80010000Y-55880000D03*
X82550000Y-55880000D03*
X77470000Y-58420000D03*
X80010000Y-58420000D03*
X82550000Y-58420000D03*
D45*
X79055000Y-34395000D03*
X79055000Y-37995000D03*
X77555000Y-34395000D03*
X77555000Y-37995000D03*
D25*
X96850000Y-55500000D03*
X97950000Y-55500000D03*
D46*
X104017000Y-54411000D03*
X104017000Y-56251000D03*
D47*
X107999000Y-55331000D03*
D48*
X122567700Y-22235160D03*
D10*
G36*
X124186810Y-26050000D02*
X124186810Y-24750000D01*
X124987190Y-25050000D01*
X124987190Y-25750000D01*
X124186810Y-26050000D01*
X124186810Y-26050000D01*
G37*
D48*
X122567700Y-28559760D03*
D49*
X122301000Y-25400000D03*
D27*
X89000000Y-62950000D03*
X89000000Y-64450000D03*
D50*
X92500000Y-66650060D03*
X92500000Y-63149940D03*
D51*
X81733000Y-65705000D03*
X87067000Y-65705000D03*
X81733000Y-64435000D03*
X81733000Y-63165000D03*
X81733000Y-61895000D03*
X87067000Y-64435000D03*
X87067000Y-63165000D03*
X87067000Y-61895000D03*
D52*
X83130000Y-63800000D03*
D53*
X94300000Y-63150000D03*
X94300000Y-61650000D03*
X90500000Y-62950000D03*
X90500000Y-64450000D03*
D32*
X80350000Y-68000000D03*
X83250000Y-68000000D03*
D54*
X111100000Y-44000000D03*
D55*
X85600000Y-68600000D03*
D54*
X85600000Y-57100000D03*
X119300000Y-68200000D03*
D53*
X88500000Y-22950000D03*
X88500000Y-21450000D03*
M02*
