%FSLAX46Y46*%
G04 Gerber Fmt 4.6, Leading zero omitted, Abs format (unit mm)*
G04 Created by KiCad (PCBNEW (2014-10-31 BZR 5243)-product) date So 05 Apr 2015 19:44:44 CEST*
%MOMM*%
G01*
G04 APERTURE LIST*
%ADD10C,0.100000*%
%ADD11R,2.032000X2.032000*%
%ADD12O,2.032000X2.032000*%
%ADD13R,0.900000X0.900000*%
%ADD14R,1.200000X1.000000*%
%ADD15C,1.500000*%
%ADD16R,1.000000X1.000000*%
%ADD17R,2.235200X2.235200*%
%ADD18R,1.900000X1.900000*%
%ADD19C,0.889000*%
%ADD20C,0.800000*%
%ADD21C,1.000000*%
%ADD22C,0.254000*%
%ADD23C,0.400000*%
%ADD24C,0.508000*%
%ADD25C,1.500000*%
%ADD26C,2.000000*%
%ADD27C,0.203200*%
%ADD28C,0.152400*%
%ADD29C,0.160000*%
%ADD30C,0.500000*%
G04 APERTURE END LIST*
D10*
D11*
X77600000Y-61700000D03*
D12*
X77600000Y-64240000D03*
D13*
X98350000Y-52050000D03*
X97450000Y-52050000D03*
X98350000Y-52950000D03*
X97450000Y-52950000D03*
D14*
X109092500Y-64257500D03*
X107886000Y-64257500D03*
X107886000Y-62352500D03*
X107886000Y-63305000D03*
X109092500Y-63305000D03*
X109092500Y-62352500D03*
D15*
X77470000Y-40640000D03*
X80010000Y-40640000D03*
X82550000Y-40640000D03*
X77470000Y-43180000D03*
X80010000Y-43180000D03*
X82550000Y-43180000D03*
X77470000Y-45720000D03*
X80010000Y-45720000D03*
X82550000Y-45720000D03*
X77470000Y-48260000D03*
X80010000Y-48260000D03*
X82550000Y-48260000D03*
X77470000Y-50800000D03*
X80010000Y-50800000D03*
X82550000Y-50800000D03*
X77470000Y-53340000D03*
X80010000Y-53340000D03*
X82550000Y-53340000D03*
X77470000Y-55880000D03*
X80010000Y-55880000D03*
X82550000Y-55880000D03*
X77470000Y-58420000D03*
X80010000Y-58420000D03*
X82550000Y-58420000D03*
D16*
X90700000Y-36381000D03*
X91462000Y-36381000D03*
X89938000Y-36381000D03*
X89938000Y-35619000D03*
X91462000Y-35619000D03*
X90700000Y-35619000D03*
X89938000Y-34857000D03*
X91462000Y-34857000D03*
X90700000Y-34857000D03*
X90700000Y-33333000D03*
X91462000Y-33333000D03*
X89938000Y-33333000D03*
X89938000Y-34095000D03*
X91462000Y-34095000D03*
X90700000Y-34095000D03*
X90700000Y-37143000D03*
X91462000Y-37143000D03*
X89938000Y-37143000D03*
X90700000Y-37905000D03*
X91462000Y-37905000D03*
X89938000Y-37905000D03*
X89938000Y-38667000D03*
X91462000Y-38667000D03*
X90700000Y-38667000D03*
D13*
X91750000Y-60650000D03*
X91750000Y-61550000D03*
X90850000Y-60650000D03*
X90850000Y-61550000D03*
D17*
X111100000Y-44000000D03*
D18*
X85600000Y-68600000D03*
D17*
X85600000Y-57100000D03*
X119300000Y-68200000D03*
D19*
X79500000Y-27600000D03*
D20*
X93900000Y-29800000D03*
X98600000Y-36400000D03*
X123000000Y-30100000D03*
X121200000Y-30100000D03*
X115800000Y-27100000D03*
X117400000Y-21200000D03*
X119200000Y-21300000D03*
X114600000Y-23200000D03*
X114400000Y-32200000D03*
X106000000Y-22200000D03*
X75900000Y-25500000D03*
X97300000Y-59400000D03*
X96300000Y-60300000D03*
X102800000Y-52200000D03*
X102800000Y-53200000D03*
X91900000Y-54800000D03*
X93100000Y-54900000D03*
X90700000Y-56200000D03*
X90700000Y-55000000D03*
X92600000Y-48900000D03*
X93900000Y-48900000D03*
X95000000Y-49400000D03*
X100700000Y-48400000D03*
X92182828Y-49960279D03*
X76800000Y-36200000D03*
X76100000Y-30800000D03*
X101900000Y-59100000D03*
X99500000Y-59100000D03*
X98300000Y-59100000D03*
X100600000Y-59100000D03*
X81000000Y-60500000D03*
X79800000Y-60500000D03*
X79600000Y-61600000D03*
X78700000Y-60000000D03*
X79300000Y-62700000D03*
X97600000Y-68600000D03*
X95100000Y-65500000D03*
X96500000Y-68600000D03*
X88400000Y-68400000D03*
X87400000Y-68400000D03*
D19*
X121600000Y-68200000D03*
X121600000Y-66600000D03*
X119300000Y-66100000D03*
X116900000Y-68200000D03*
X87600000Y-57100000D03*
X87500000Y-55800000D03*
X84900000Y-59100000D03*
D20*
X119600000Y-29100000D03*
X116100000Y-24100000D03*
X95100000Y-21600000D03*
X84800164Y-27716176D03*
X93000000Y-29800000D03*
X99400000Y-21500000D03*
X99400000Y-23000000D03*
X95500000Y-45500000D03*
X80000000Y-28872980D03*
X76400000Y-24000000D03*
X75800000Y-28700000D03*
X90400000Y-67400000D03*
X90400000Y-68600000D03*
X94300000Y-45500000D03*
X97200000Y-45000000D03*
X89300000Y-21400000D03*
X84518604Y-29791620D03*
X81500000Y-30500000D03*
X103585734Y-29183627D03*
X79055000Y-36200000D03*
X98500000Y-34600000D03*
X84600000Y-25900000D03*
X89900000Y-24900000D03*
X88200000Y-53700000D03*
X105000000Y-31100000D03*
X88300000Y-52400000D03*
X89500000Y-53900000D03*
X90600000Y-53100000D03*
X103200000Y-31200000D03*
X84587884Y-45009217D03*
X100000000Y-33500000D03*
X86700000Y-41800000D03*
X100300000Y-30200000D03*
X90900000Y-24400000D03*
X80581220Y-25902999D03*
X76000000Y-29700000D03*
X76300000Y-32000000D03*
X102500000Y-24800000D03*
X82800000Y-33700000D03*
X83413998Y-28108380D03*
X84806517Y-31293487D03*
X98100000Y-30000000D03*
X85700000Y-33300000D03*
X100700000Y-25300000D03*
X92711449Y-25569816D03*
X81400000Y-27700000D03*
X92000000Y-24300000D03*
X90135919Y-31635919D03*
X79073943Y-26367234D03*
X112300000Y-28900000D03*
X111300000Y-22800000D03*
X120300000Y-33000000D03*
X113000000Y-23200000D03*
X105300000Y-43200000D03*
X110700000Y-25700000D03*
X79300000Y-21200000D03*
X82350000Y-21500000D03*
X84100000Y-21500000D03*
X115700000Y-30400000D03*
X112200000Y-26200000D03*
X120600000Y-35500000D03*
X110900000Y-60000000D03*
X105400000Y-60200000D03*
X80700000Y-34400000D03*
X95800000Y-38100000D03*
X85200000Y-45800000D03*
X110200000Y-49100000D03*
X110100000Y-50700000D03*
X111500000Y-50700000D03*
X113000000Y-50600000D03*
X113000000Y-49200000D03*
X113000000Y-47700000D03*
X111600000Y-47800000D03*
X111600000Y-49100000D03*
X110100000Y-52100000D03*
X111500000Y-52100000D03*
X113000000Y-52100000D03*
X110200000Y-47800000D03*
X113400000Y-67500000D03*
X90700000Y-51300000D03*
X89900000Y-52000000D03*
X94400000Y-68600000D03*
X92100000Y-68600000D03*
X93200000Y-68600000D03*
X76200000Y-34000000D03*
X78400000Y-22000000D03*
X80700000Y-21600000D03*
X91900000Y-27400000D03*
X88000000Y-26200000D03*
X93600000Y-26500000D03*
D21*
X97300000Y-59400000D02*
X97200000Y-59400000D01*
X97200000Y-59400000D02*
X96300000Y-60300000D01*
D22*
X93100000Y-54900000D02*
X93000000Y-54800000D01*
D21*
X100600000Y-59100000D02*
X101900000Y-59100000D01*
X98300000Y-59100000D02*
X99500000Y-59100000D01*
D23*
X80000000Y-28872980D02*
X82172980Y-28872980D01*
X82172980Y-28872980D02*
X83091620Y-29791620D01*
X83091620Y-29791620D02*
X83952919Y-29791620D01*
X83952919Y-29791620D02*
X84518604Y-29791620D01*
D24*
X94555999Y-30744001D02*
X94655999Y-30744001D01*
X91091620Y-29791620D02*
X92044001Y-30744001D01*
D21*
X84518604Y-29791620D02*
X91091620Y-29791620D01*
D24*
X92044001Y-30744001D02*
X94555999Y-30744001D01*
D25*
X96400000Y-29000000D02*
X95400000Y-30000000D01*
X96400000Y-28900000D02*
X96600000Y-28900000D01*
D21*
X104466925Y-25733075D02*
X104466925Y-25466925D01*
D25*
X102200000Y-28000000D02*
X104466925Y-25733075D01*
X97500000Y-28000000D02*
X102200000Y-28000000D01*
X96600000Y-28900000D02*
X97500000Y-28000000D01*
D21*
X96400000Y-28900000D02*
X96400000Y-29000000D01*
D24*
X94655999Y-30744001D02*
X95400000Y-30000000D01*
D26*
X99400000Y-23000000D02*
X104000000Y-23000000D01*
X104000000Y-23000000D02*
X104466925Y-23466925D01*
X104466925Y-23466925D02*
X104466925Y-25466925D01*
D21*
X99400000Y-23000000D02*
X99400000Y-21500000D01*
D24*
X95500000Y-45500000D02*
X95500000Y-45900000D01*
X95500000Y-45900000D02*
X95500000Y-45400000D01*
X95500000Y-45400000D02*
X95500000Y-45900000D01*
D21*
X90400000Y-68600000D02*
X90400000Y-67400000D01*
X90400000Y-66200000D02*
X93900000Y-62700000D01*
X93900000Y-62700000D02*
X93900000Y-59600000D01*
X93900000Y-59600000D02*
X96500000Y-57000000D01*
X96500000Y-57000000D02*
X98800000Y-57000000D01*
D26*
X100600000Y-55200000D02*
X98800000Y-57000000D01*
X100600000Y-50900000D02*
X100600000Y-55200000D01*
X95500000Y-45800000D02*
X100600000Y-50900000D01*
X95500000Y-45800000D02*
X95500000Y-45500000D01*
D21*
X90400000Y-67400000D02*
X90400000Y-66200000D01*
D26*
X96500000Y-45900000D02*
X95500000Y-45900000D01*
X107700000Y-28700000D02*
X106200000Y-27200000D01*
X107700000Y-34700000D02*
X107700000Y-28700000D01*
X96500000Y-45900000D02*
X107700000Y-34700000D01*
X104466925Y-25466925D02*
X106200000Y-27200000D01*
D21*
X94300000Y-45500000D02*
X95500000Y-45500000D01*
D24*
X96700000Y-45500000D02*
X97200000Y-45000000D01*
X95500000Y-45500000D02*
X96700000Y-45500000D01*
X89300000Y-22300000D02*
X90000000Y-23000000D01*
X90000000Y-23000000D02*
X99400000Y-23000000D01*
X89300000Y-21400000D02*
X89300000Y-22300000D01*
D22*
X99300000Y-31800000D02*
X98594001Y-32505999D01*
X81899999Y-30899999D02*
X81500000Y-30500000D01*
X83505999Y-32505999D02*
X81899999Y-30899999D01*
D27*
X81035920Y-31064080D02*
X81035920Y-30964080D01*
X81100001Y-30899999D02*
X81500000Y-30500000D01*
X81035920Y-30964080D02*
X81100001Y-30899999D01*
D22*
X98594001Y-32505999D02*
X83505999Y-32505999D01*
D27*
X101535046Y-31800000D02*
X103585734Y-29749312D01*
X99300000Y-31800000D02*
X101535046Y-31800000D01*
X103585734Y-29749312D02*
X103585734Y-29183627D01*
D22*
X79055000Y-33045000D02*
X81035920Y-31064080D01*
X79055000Y-36200000D02*
X79055000Y-33045000D01*
D27*
X98500000Y-34600000D02*
X98500000Y-32600000D01*
X98500000Y-32600000D02*
X99300000Y-31800000D01*
X98500000Y-34600000D02*
X98600000Y-34500000D01*
D28*
X84600000Y-25900000D02*
X85600000Y-24900000D01*
X85600000Y-24900000D02*
X89900000Y-24900000D01*
D26*
X87755501Y-44173116D02*
X87755501Y-43944499D01*
X87755501Y-43944499D02*
X88400000Y-43300000D01*
X88400000Y-43300000D02*
X95600000Y-43300000D01*
X95600000Y-43300000D02*
X105000000Y-33900000D01*
X105000000Y-33900000D02*
X105000000Y-31100000D01*
X88200000Y-53700000D02*
X87755501Y-53255501D01*
X87755501Y-53255501D02*
X87755501Y-44173116D01*
D24*
X103300000Y-31100000D02*
X103200000Y-31200000D01*
X105000000Y-31100000D02*
X103300000Y-31100000D01*
X81300000Y-41930000D02*
X81300000Y-44100000D01*
X83978667Y-44400000D02*
X84187885Y-44609218D01*
X81600000Y-44400000D02*
X83978667Y-44400000D01*
X81300000Y-44100000D02*
X81600000Y-44400000D01*
X80010000Y-40640000D02*
X81300000Y-41930000D01*
X84187885Y-44609218D02*
X84587884Y-45009217D01*
D29*
X100000000Y-33500000D02*
X100000000Y-36200000D01*
X100000000Y-36200000D02*
X97000000Y-39200000D01*
X97000000Y-39200000D02*
X93800000Y-39200000D01*
X93800000Y-39200000D02*
X92700000Y-40300000D01*
X92700000Y-40300000D02*
X88200000Y-40300000D01*
X88200000Y-40300000D02*
X86700000Y-41800000D01*
D28*
X90500001Y-24000001D02*
X90900000Y-24400000D01*
X80581220Y-25902999D02*
X82484218Y-24000001D01*
X82484218Y-24000001D02*
X90500001Y-24000001D01*
D27*
X83413998Y-28108380D02*
X83805618Y-28500000D01*
X83805618Y-28500000D02*
X94000000Y-28500000D01*
X94000000Y-28500000D02*
X95900000Y-26600000D01*
X95900000Y-26600000D02*
X100700000Y-26600000D01*
X100700000Y-26600000D02*
X102100001Y-25199999D01*
X102100001Y-25199999D02*
X102500000Y-24800000D01*
X98100000Y-30000000D02*
X96810389Y-31289611D01*
X91421879Y-30893488D02*
X85206516Y-30893488D01*
X85206516Y-30893488D02*
X84806517Y-31293487D01*
X96810389Y-31289611D02*
X91818002Y-31289611D01*
X91818002Y-31289611D02*
X91421879Y-30893488D01*
D22*
X92700000Y-25300000D02*
X100700000Y-25300000D01*
D27*
X92711449Y-25311449D02*
X92711449Y-25569816D01*
X92700000Y-25300000D02*
X92711449Y-25311449D01*
D28*
X86900000Y-25400000D02*
X85700000Y-26600000D01*
X88700000Y-25400000D02*
X86900000Y-25400000D01*
X85700000Y-26600000D02*
X82500000Y-26600000D01*
X92000000Y-24865685D02*
X91165685Y-25700000D01*
X89000000Y-25700000D02*
X88700000Y-25400000D01*
X91165685Y-25700000D02*
X89000000Y-25700000D01*
X92000000Y-24300000D02*
X92000000Y-24865685D01*
X82500000Y-26600000D02*
X81799999Y-27300001D01*
X81799999Y-27300001D02*
X81400000Y-27700000D01*
D22*
X90135919Y-31635919D02*
X89735920Y-32035918D01*
X78900000Y-29700000D02*
X78673944Y-29473944D01*
X78673944Y-26767233D02*
X79073943Y-26367234D01*
X89735920Y-32035918D02*
X84235918Y-32035918D01*
X84235918Y-32035918D02*
X81900000Y-29700000D01*
X81900000Y-29700000D02*
X78900000Y-29700000D01*
X78673944Y-29473944D02*
X78673944Y-26767233D01*
D27*
X113300000Y-27300000D02*
X112300000Y-28300000D01*
X112300000Y-28300000D02*
X112300000Y-28900000D01*
X113300000Y-25365685D02*
X113300000Y-27300000D01*
X111300000Y-23365685D02*
X113300000Y-25365685D01*
X111300000Y-22800000D02*
X111300000Y-23365685D01*
X111300000Y-23365685D02*
X112300000Y-24365685D01*
X117200000Y-29900000D02*
X120300000Y-33000000D01*
X117200000Y-27400000D02*
X117200000Y-29900000D01*
X113000000Y-23200000D02*
X117200000Y-27400000D01*
X105300000Y-43200000D02*
X110700000Y-37800000D01*
X110700000Y-37800000D02*
X110700000Y-25700000D01*
X115134315Y-30400000D02*
X115700000Y-30400000D01*
X112681710Y-30400000D02*
X115134315Y-30400000D01*
X111544399Y-29262689D02*
X112681710Y-30400000D01*
X111544399Y-26855601D02*
X111544399Y-29262689D01*
X112200000Y-26200000D02*
X111544399Y-26855601D01*
X110900000Y-60000000D02*
X110700000Y-60200000D01*
X110700000Y-60200000D02*
X105400000Y-60200000D01*
X82550000Y-43180000D02*
X82550000Y-43050000D01*
X83800000Y-46900000D02*
X78830000Y-46900000D01*
X78830000Y-46900000D02*
X77470000Y-48260000D01*
X84400000Y-46300000D02*
X83800000Y-46900000D01*
X84400000Y-46034315D02*
X84400000Y-46300000D01*
X85200000Y-45800000D02*
X84634315Y-45800000D01*
X84634315Y-45800000D02*
X84400000Y-46034315D01*
D24*
X80010000Y-50800000D02*
X80010000Y-51010000D01*
D22*
X112900000Y-50700000D02*
X111500000Y-50700000D01*
X113000000Y-50600000D02*
X112900000Y-50700000D01*
X113000000Y-47700000D02*
X113000000Y-49200000D01*
X111600000Y-49100000D02*
X111600000Y-47800000D01*
X110100000Y-50700000D02*
X110100000Y-52100000D01*
X111500000Y-52100000D02*
X113000000Y-52100000D01*
X112100000Y-58800000D02*
X111300000Y-58800000D01*
X111300000Y-58800000D02*
X110900000Y-58800000D01*
X110900000Y-58800000D02*
X110100000Y-58000000D01*
X110100000Y-58000000D02*
X110100000Y-52100000D01*
X112800000Y-66900000D02*
X113400000Y-67500000D01*
X112800000Y-59500000D02*
X112800000Y-66900000D01*
X112800000Y-59500000D02*
X112100000Y-58800000D01*
D28*
X90600000Y-51300000D02*
X89900000Y-52000000D01*
X90700000Y-51300000D02*
X90600000Y-51300000D01*
D22*
X94400000Y-68600000D02*
X93200000Y-68600000D01*
D25*
X106000000Y-52100000D02*
X104500000Y-53600000D01*
X104500000Y-53600000D02*
X104500000Y-58800000D01*
X104500000Y-58800000D02*
X96300000Y-67000000D01*
X96300000Y-67000000D02*
X94800000Y-67000000D01*
X94800000Y-67000000D02*
X93200000Y-68600000D01*
X110100000Y-52100000D02*
X106000000Y-52100000D01*
D27*
X77800000Y-32400000D02*
X76200000Y-34000000D01*
X77800000Y-22600000D02*
X77800000Y-32400000D01*
X78400000Y-22000000D02*
X77800000Y-22600000D01*
D28*
X81833799Y-28366201D02*
X83199999Y-27000001D01*
X83199999Y-27000001D02*
X91500001Y-27000001D01*
X80980223Y-28366201D02*
X81833799Y-28366201D01*
X80507011Y-26892989D02*
X80507011Y-27892989D01*
X80507011Y-27892989D02*
X80980223Y-28366201D01*
X91500001Y-27000001D02*
X91900000Y-27400000D01*
X80700000Y-21600000D02*
X79733799Y-22566201D01*
X79733799Y-22566201D02*
X79733799Y-26119777D01*
X80507011Y-26892989D02*
X80547821Y-26933799D01*
X79733799Y-26119777D02*
X80507011Y-26892989D01*
X88300000Y-26500000D02*
X88000000Y-26200000D01*
X93600000Y-26500000D02*
X88300000Y-26500000D01*
D30*
G36*
X113650000Y-52650000D02*
X108650000Y-52650000D01*
X108650000Y-47150000D01*
X113650000Y-47150000D01*
X113650000Y-52650000D01*
X113650000Y-52650000D01*
G37*
X113650000Y-52650000D02*
X108650000Y-52650000D01*
X108650000Y-47150000D01*
X113650000Y-47150000D01*
X113650000Y-52650000D01*
G36*
X93350000Y-51850000D02*
X90601090Y-51850000D01*
X90352450Y-51849783D01*
X90351924Y-51850000D01*
X90150000Y-51850000D01*
X90150000Y-50250000D01*
X90502754Y-50250000D01*
X91702754Y-51350000D01*
X93350000Y-51350000D01*
X93350000Y-51850000D01*
X93350000Y-51850000D01*
G37*
X93350000Y-51850000D02*
X90601090Y-51850000D01*
X90352450Y-51849783D01*
X90351924Y-51850000D01*
X90150000Y-51850000D01*
X90150000Y-50250000D01*
X90502754Y-50250000D01*
X91702754Y-51350000D01*
X93350000Y-51350000D01*
X93350000Y-51850000D01*
G36*
X105650000Y-34133704D02*
X96120686Y-43663017D01*
X95672690Y-43684350D01*
X95500000Y-43650000D01*
X95218602Y-43705973D01*
X92129256Y-43853085D01*
X89514667Y-45317256D01*
X88150000Y-47836641D01*
X88150000Y-52050000D01*
X88396447Y-52050000D01*
X88689064Y-52342617D01*
X88839684Y-52707143D01*
X89191007Y-53059081D01*
X89650269Y-53249783D01*
X90147550Y-53250217D01*
X90607143Y-53060316D01*
X90717652Y-52950000D01*
X94250000Y-52950000D01*
X94250000Y-53250000D01*
X90796447Y-53250000D01*
X90186968Y-53859478D01*
X89992857Y-53939684D01*
X89640919Y-54291007D01*
X89574899Y-54450000D01*
X85850000Y-54450000D01*
X85850000Y-46883927D01*
X85907143Y-46860316D01*
X86259081Y-46508993D01*
X86449783Y-46049731D01*
X86450217Y-45552450D01*
X86260316Y-45092857D01*
X85908993Y-44740919D01*
X85850000Y-44716422D01*
X85850000Y-42717827D01*
X85991007Y-42859081D01*
X86450269Y-43049783D01*
X86947550Y-43050217D01*
X87407143Y-42860316D01*
X87759081Y-42508993D01*
X87949783Y-42049731D01*
X87949943Y-41865274D01*
X88585218Y-41230000D01*
X92700000Y-41230000D01*
X93055895Y-41159208D01*
X93055896Y-41159208D01*
X93357609Y-40957609D01*
X94185218Y-40130000D01*
X97000000Y-40130000D01*
X97355895Y-40059208D01*
X97355896Y-40059208D01*
X97657609Y-39857609D01*
X100657609Y-36857609D01*
X100657610Y-36857609D01*
X100778458Y-36676744D01*
X100859208Y-36555896D01*
X100859208Y-36555895D01*
X100930000Y-36200000D01*
X100930000Y-35047205D01*
X105650000Y-30672571D01*
X105650000Y-34133704D01*
X105650000Y-34133704D01*
G37*
X105650000Y-34133704D02*
X96120686Y-43663017D01*
X95672690Y-43684350D01*
X95500000Y-43650000D01*
X95218602Y-43705973D01*
X92129256Y-43853085D01*
X89514667Y-45317256D01*
X88150000Y-47836641D01*
X88150000Y-52050000D01*
X88396447Y-52050000D01*
X88689064Y-52342617D01*
X88839684Y-52707143D01*
X89191007Y-53059081D01*
X89650269Y-53249783D01*
X90147550Y-53250217D01*
X90607143Y-53060316D01*
X90717652Y-52950000D01*
X94250000Y-52950000D01*
X94250000Y-53250000D01*
X90796447Y-53250000D01*
X90186968Y-53859478D01*
X89992857Y-53939684D01*
X89640919Y-54291007D01*
X89574899Y-54450000D01*
X85850000Y-54450000D01*
X85850000Y-46883927D01*
X85907143Y-46860316D01*
X86259081Y-46508993D01*
X86449783Y-46049731D01*
X86450217Y-45552450D01*
X86260316Y-45092857D01*
X85908993Y-44740919D01*
X85850000Y-44716422D01*
X85850000Y-42717827D01*
X85991007Y-42859081D01*
X86450269Y-43049783D01*
X86947550Y-43050217D01*
X87407143Y-42860316D01*
X87759081Y-42508993D01*
X87949783Y-42049731D01*
X87949943Y-41865274D01*
X88585218Y-41230000D01*
X92700000Y-41230000D01*
X93055895Y-41159208D01*
X93055896Y-41159208D01*
X93357609Y-40957609D01*
X94185218Y-40130000D01*
X97000000Y-40130000D01*
X97355895Y-40059208D01*
X97355896Y-40059208D01*
X97657609Y-39857609D01*
X100657609Y-36857609D01*
X100657610Y-36857609D01*
X100778458Y-36676744D01*
X100859208Y-36555896D01*
X100859208Y-36555895D01*
X100930000Y-36200000D01*
X100930000Y-35047205D01*
X105650000Y-30672571D01*
X105650000Y-34133704D01*
D10*
G36*
X95050000Y-69150000D02*
X91650000Y-69150000D01*
X91650000Y-66152081D01*
X92570991Y-65231089D01*
X92750000Y-65246007D01*
X92750000Y-67250000D01*
X93980670Y-67250000D01*
X95050000Y-68222118D01*
X95050000Y-69150000D01*
X95050000Y-69150000D01*
G37*
X95050000Y-69150000D02*
X91650000Y-69150000D01*
X91650000Y-66152081D01*
X92570991Y-65231089D01*
X92750000Y-65246007D01*
X92750000Y-67250000D01*
X93980670Y-67250000D01*
X95050000Y-68222118D01*
X95050000Y-69150000D01*
M02*
