%FSLAX46Y46*%
G04 Gerber Fmt 4.6, Leading zero omitted, Abs format (unit mm)*
G04 Created by KiCad (PCBNEW (2014-10-31 BZR 5243)-product) date So 05 Apr 2015 19:44:44 CEST*
%MOMM*%
G01*
G04 APERTURE LIST*
%ADD10C,0.100000*%
G04 APERTURE END LIST*
D10*
G36*
X115541339Y-48731582D02*
X115542040Y-48738649D01*
X115548781Y-48791993D01*
X115558960Y-48841277D01*
X115576096Y-48892947D01*
X115603710Y-48953450D01*
X115645319Y-49029233D01*
X115704444Y-49126743D01*
X115784605Y-49252426D01*
X115785111Y-49253200D01*
X115785111Y-48761254D01*
X115798479Y-48638691D01*
X115843278Y-48554826D01*
X115926554Y-48497452D01*
X115941027Y-48491113D01*
X116028862Y-48465813D01*
X116095210Y-48480402D01*
X116155224Y-48540714D01*
X116184542Y-48584878D01*
X116256159Y-48685745D01*
X116362600Y-48815929D01*
X116496225Y-48967558D01*
X116649396Y-49132761D01*
X116814473Y-49303668D01*
X116983818Y-49472407D01*
X117149791Y-49631107D01*
X117304753Y-49771899D01*
X117441065Y-49886909D01*
X117471287Y-49910676D01*
X117562908Y-49981433D01*
X117437026Y-50064813D01*
X117291664Y-50180137D01*
X117154609Y-50323059D01*
X117040479Y-50476437D01*
X116966270Y-50617038D01*
X116932380Y-50715535D01*
X116913030Y-50813247D01*
X116905170Y-50931141D01*
X116904897Y-51039058D01*
X116908128Y-51298893D01*
X116819342Y-51326496D01*
X116677492Y-51365608D01*
X116569775Y-51381146D01*
X116479389Y-51373859D01*
X116391987Y-51345526D01*
X116309619Y-51295353D01*
X116270587Y-51229327D01*
X116275626Y-51144091D01*
X116325473Y-51036283D01*
X116420861Y-50902547D01*
X116512627Y-50794505D01*
X116587805Y-50708120D01*
X116627349Y-50656258D01*
X116634743Y-50632752D01*
X116613472Y-50631436D01*
X116603261Y-50634085D01*
X116486365Y-50659390D01*
X116365650Y-50672173D01*
X116260013Y-50671503D01*
X116188356Y-50656448D01*
X116184852Y-50654699D01*
X116135318Y-50601060D01*
X116127247Y-50529045D01*
X116161839Y-50459843D01*
X116173167Y-50448907D01*
X116229080Y-50417297D01*
X116315360Y-50385245D01*
X116363667Y-50371829D01*
X116445264Y-50346214D01*
X116543384Y-50307238D01*
X116644422Y-50261460D01*
X116734770Y-50215444D01*
X116800822Y-50175749D01*
X116828972Y-50148938D01*
X116829182Y-50147345D01*
X116810526Y-50122833D01*
X116758302Y-50063542D01*
X116677994Y-49975452D01*
X116575081Y-49864542D01*
X116455047Y-49736791D01*
X116384682Y-49662531D01*
X116204193Y-49469104D01*
X116061791Y-49307589D01*
X115953596Y-49172151D01*
X115875727Y-49056956D01*
X115824303Y-48956170D01*
X115795443Y-48863961D01*
X115785266Y-48774494D01*
X115785111Y-48761254D01*
X115785111Y-49253200D01*
X115889320Y-49412730D01*
X116009793Y-49595454D01*
X116373535Y-50146192D01*
X116269823Y-50211639D01*
X116189819Y-50257714D01*
X116119178Y-50291318D01*
X116104938Y-50296484D01*
X116038476Y-50328087D01*
X115970883Y-50373211D01*
X115909003Y-50449495D01*
X115898570Y-50534764D01*
X115936723Y-50622622D01*
X116020600Y-50706672D01*
X116147342Y-50780516D01*
X116154482Y-50783706D01*
X116262532Y-50831378D01*
X116195088Y-50893883D01*
X116123762Y-50995541D01*
X116089032Y-51122896D01*
X116091280Y-51258353D01*
X116130887Y-51384314D01*
X116182825Y-51459326D01*
X116287040Y-51530931D01*
X116432736Y-51572165D01*
X116613258Y-51582126D01*
X116821947Y-51559915D01*
X116865714Y-51551687D01*
X116956194Y-51535014D01*
X117010716Y-51534066D01*
X117048617Y-51553227D01*
X117089230Y-51596877D01*
X117094916Y-51603626D01*
X117144663Y-51653873D01*
X117196380Y-51700496D01*
X117196380Y-51127917D01*
X117210799Y-51004525D01*
X117249257Y-50857335D01*
X117304077Y-50709239D01*
X117367580Y-50583132D01*
X117390965Y-50547695D01*
X117490486Y-50431042D01*
X117605222Y-50340203D01*
X117743159Y-50272184D01*
X117912280Y-50223990D01*
X118120572Y-50192627D01*
X118376020Y-50175101D01*
X118385672Y-50174711D01*
X118551613Y-50167226D01*
X118670761Y-50159071D01*
X118752761Y-50148802D01*
X118807261Y-50134980D01*
X118843907Y-50116162D01*
X118859061Y-50103966D01*
X118895272Y-50059347D01*
X118897278Y-50029835D01*
X118852211Y-50005692D01*
X118770223Y-49974312D01*
X118669350Y-49941331D01*
X118567629Y-49912389D01*
X118483095Y-49893123D01*
X118444943Y-49888433D01*
X118393408Y-49885629D01*
X118394656Y-49876707D01*
X118429299Y-49861729D01*
X118504509Y-49805129D01*
X118567134Y-49708770D01*
X118592185Y-49643277D01*
X118598782Y-49600552D01*
X118574534Y-49583002D01*
X118514263Y-49579777D01*
X118417488Y-49596810D01*
X118338940Y-49640835D01*
X118287668Y-49701239D01*
X118272718Y-49767409D01*
X118302533Y-49828133D01*
X118309354Y-49846970D01*
X118277672Y-49857572D01*
X118199931Y-49861733D01*
X118159808Y-49862000D01*
X118039193Y-49867531D01*
X117918669Y-49881740D01*
X117855304Y-49894208D01*
X117774996Y-49911540D01*
X117723838Y-49907165D01*
X117676618Y-49874551D01*
X117639211Y-49838236D01*
X117586141Y-49782618D01*
X117569450Y-49750192D01*
X117585081Y-49724769D01*
X117606460Y-49707542D01*
X117705962Y-49645449D01*
X117837685Y-49581994D01*
X117978568Y-49527215D01*
X118101534Y-49492002D01*
X118238486Y-49475181D01*
X118407835Y-49472586D01*
X118587683Y-49483024D01*
X118756128Y-49505305D01*
X118879391Y-49534342D01*
X118965342Y-49565092D01*
X119011970Y-49596586D01*
X119034875Y-49642593D01*
X119042948Y-49678725D01*
X119062295Y-49745967D01*
X119096037Y-49773078D01*
X119137779Y-49776901D01*
X119204762Y-49772088D01*
X119250474Y-49752418D01*
X119279430Y-49708698D01*
X119296147Y-49631737D01*
X119305139Y-49512343D01*
X119308282Y-49429817D01*
X119317786Y-49136602D01*
X119034798Y-48278690D01*
X118896374Y-47853555D01*
X118777948Y-47477135D01*
X118678740Y-47145665D01*
X118597970Y-46855380D01*
X118534860Y-46602512D01*
X118488629Y-46383297D01*
X118458499Y-46193967D01*
X118443690Y-46030759D01*
X118443423Y-45889905D01*
X118456918Y-45767640D01*
X118483396Y-45660198D01*
X118489258Y-45642777D01*
X118528952Y-45547197D01*
X118586864Y-45428580D01*
X118650935Y-45311525D01*
X118655288Y-45304111D01*
X118779330Y-45115223D01*
X118902674Y-44976250D01*
X119034214Y-44881478D01*
X119182841Y-44825198D01*
X119357447Y-44801700D01*
X119439889Y-44800225D01*
X119560343Y-44806094D01*
X119677041Y-44823777D01*
X119800455Y-44856618D01*
X119941057Y-44907959D01*
X120109320Y-44981145D01*
X120315718Y-45079518D01*
X120317490Y-45080386D01*
X120579156Y-45208522D01*
X120482245Y-45410742D01*
X120419431Y-45560854D01*
X120389473Y-45684776D01*
X120385333Y-45748539D01*
X120385333Y-45884116D01*
X120298639Y-45839284D01*
X120215356Y-45815012D01*
X120158690Y-45836966D01*
X120135571Y-45901043D01*
X120136962Y-45935069D01*
X120148845Y-45971266D01*
X120181092Y-46007482D01*
X120242263Y-46050057D01*
X120340918Y-46105327D01*
X120427480Y-46150187D01*
X120577525Y-46231394D01*
X120587326Y-46237846D01*
X120587326Y-45783070D01*
X120592406Y-45709454D01*
X120613572Y-45600034D01*
X120646991Y-45492012D01*
X120656243Y-45469565D01*
X120704787Y-45360555D01*
X120725473Y-45509138D01*
X120768346Y-45660506D01*
X120846740Y-45786533D01*
X120952025Y-45874280D01*
X120977444Y-45886944D01*
X121044549Y-45923661D01*
X121056413Y-45950913D01*
X121013165Y-45970199D01*
X120985055Y-45975341D01*
X120850114Y-45991209D01*
X120756438Y-45988957D01*
X120691157Y-45966455D01*
X120641406Y-45921571D01*
X120638494Y-45917944D01*
X120599390Y-45854162D01*
X120587326Y-45783070D01*
X120587326Y-46237846D01*
X120674493Y-46295236D01*
X120718814Y-46342319D01*
X120710920Y-46373245D01*
X120651240Y-46388618D01*
X120599069Y-46390666D01*
X120519896Y-46387850D01*
X120482075Y-46373928D01*
X120470586Y-46340691D01*
X120470000Y-46320111D01*
X120452824Y-46264083D01*
X120406454Y-46250798D01*
X120338633Y-46280313D01*
X120290677Y-46318763D01*
X120230612Y-46397205D01*
X120221662Y-46469288D01*
X120264192Y-46527863D01*
X120279500Y-46537665D01*
X120350747Y-46559192D01*
X120461078Y-46571514D01*
X120593951Y-46575014D01*
X120732826Y-46570075D01*
X120861164Y-46557082D01*
X120962422Y-46536418D01*
X121002551Y-46520897D01*
X121064463Y-46482146D01*
X121087401Y-46440208D01*
X121084185Y-46370047D01*
X121083286Y-46363238D01*
X121068915Y-46256093D01*
X121225720Y-46224602D01*
X121336399Y-46203670D01*
X121405596Y-46199441D01*
X121447223Y-46217793D01*
X121475194Y-46264602D01*
X121501954Y-46341277D01*
X121531469Y-46430306D01*
X121554914Y-46499704D01*
X121563686Y-46524722D01*
X121550949Y-46552079D01*
X121498258Y-46559999D01*
X121439283Y-46566961D01*
X121333707Y-46586560D01*
X121189464Y-46616872D01*
X121014487Y-46655970D01*
X120816709Y-46701927D01*
X120604062Y-46752819D01*
X120384480Y-46806718D01*
X120165896Y-46861699D01*
X119956242Y-46915836D01*
X119763452Y-46967201D01*
X119595458Y-47013870D01*
X119460193Y-47053917D01*
X119446944Y-47058058D01*
X119322775Y-47101023D01*
X119252274Y-47135657D01*
X119233577Y-47163740D01*
X119264821Y-47187050D01*
X119300387Y-47197925D01*
X119337575Y-47204316D01*
X119386256Y-47206391D01*
X119451428Y-47203433D01*
X119538091Y-47194725D01*
X119651242Y-47179551D01*
X119795880Y-47157194D01*
X119977003Y-47126936D01*
X120199611Y-47088061D01*
X120468701Y-47039852D01*
X120717895Y-46994611D01*
X120947790Y-46952957D01*
X121159463Y-46915080D01*
X121346672Y-46882060D01*
X121503175Y-46854977D01*
X121622731Y-46834912D01*
X121699098Y-46822945D01*
X121726012Y-46820105D01*
X121738633Y-46847177D01*
X121770341Y-46918705D01*
X121817905Y-47027299D01*
X121878096Y-47165570D01*
X121947683Y-47326128D01*
X121988583Y-47420777D01*
X122244427Y-48013444D01*
X122289758Y-48490985D01*
X122316531Y-48934621D01*
X122311305Y-49355544D01*
X122274913Y-49749341D01*
X122208190Y-50111598D01*
X122111969Y-50437902D01*
X121987084Y-50723841D01*
X121834370Y-50965001D01*
X121818356Y-50985534D01*
X121714421Y-51095238D01*
X121570995Y-51216966D01*
X121400844Y-51341410D01*
X121216737Y-51459261D01*
X121031440Y-51561213D01*
X121022827Y-51565502D01*
X120836138Y-51647037D01*
X120610636Y-51728016D01*
X120363739Y-51802956D01*
X120112861Y-51866375D01*
X119976111Y-51895008D01*
X119818793Y-51934416D01*
X119692478Y-51984672D01*
X119607529Y-52041193D01*
X119585385Y-52067733D01*
X119576627Y-52105494D01*
X119593772Y-52160784D01*
X119640977Y-52244971D01*
X119662807Y-52279399D01*
X119732929Y-52389285D01*
X119804814Y-52503772D01*
X119850343Y-52577563D01*
X119926222Y-52678997D01*
X120004517Y-52727927D01*
X120096495Y-52727594D01*
X120212424Y-52681752D01*
X120290126Y-52642077D01*
X120346067Y-52613631D01*
X120361883Y-52605672D01*
X120367967Y-52621598D01*
X120355701Y-52678060D01*
X120328876Y-52763671D01*
X120291286Y-52867047D01*
X120246723Y-52976803D01*
X120213513Y-53051111D01*
X120128141Y-53210378D01*
X120047088Y-53313729D01*
X119970491Y-53361089D01*
X119898486Y-53352381D01*
X119831208Y-53287530D01*
X119819577Y-53269833D01*
X119717443Y-53083327D01*
X119608838Y-52842900D01*
X119494660Y-52550590D01*
X119457646Y-52447987D01*
X119326310Y-52077444D01*
X119162999Y-52068939D01*
X119053546Y-52070384D01*
X118916738Y-52082100D01*
X118780209Y-52101629D01*
X118766033Y-52104217D01*
X118546516Y-52137114D01*
X118363393Y-52142632D01*
X118201967Y-52117391D01*
X118047545Y-52058013D01*
X117885433Y-51961120D01*
X117766282Y-51874362D01*
X117584674Y-51732047D01*
X117445196Y-51613563D01*
X117342612Y-51512051D01*
X117271683Y-51420649D01*
X117227171Y-51332496D01*
X117203837Y-51240731D01*
X117196443Y-51138493D01*
X117196380Y-51127917D01*
X117196380Y-51700496D01*
X117228297Y-51729270D01*
X117334844Y-51820714D01*
X117453330Y-51919099D01*
X117572782Y-52015321D01*
X117682225Y-52100276D01*
X117770686Y-52164858D01*
X117774778Y-52167675D01*
X117840931Y-52205609D01*
X117940931Y-52254487D01*
X118055864Y-52305193D01*
X118085222Y-52317293D01*
X118242869Y-52372829D01*
X118387453Y-52402162D01*
X118535476Y-52405866D01*
X118703439Y-52384514D01*
X118882702Y-52344992D01*
X118995881Y-52318229D01*
X119086339Y-52299380D01*
X119141708Y-52290886D01*
X119152871Y-52291665D01*
X119166596Y-52319976D01*
X119199252Y-52391522D01*
X119247048Y-52497869D01*
X119306192Y-52630583D01*
X119366737Y-52767294D01*
X119466126Y-52987256D01*
X119551226Y-53162994D01*
X119627065Y-53303320D01*
X119698670Y-53417046D01*
X119771069Y-53512985D01*
X119830516Y-53580277D01*
X119917666Y-53650741D01*
X120001242Y-53666768D01*
X120090136Y-53628973D01*
X120126988Y-53600770D01*
X120201381Y-53523592D01*
X120289663Y-53410063D01*
X120382113Y-53275099D01*
X120469010Y-53133620D01*
X120540634Y-53000542D01*
X120584703Y-52898301D01*
X120640791Y-52705655D01*
X120662178Y-52549174D01*
X120648596Y-52431982D01*
X120628398Y-52388774D01*
X120589131Y-52343617D01*
X120536106Y-52322948D01*
X120448279Y-52318571D01*
X120448183Y-52318572D01*
X120337257Y-52328810D01*
X120226748Y-52352733D01*
X120201889Y-52360841D01*
X120129006Y-52384500D01*
X120085214Y-52383479D01*
X120047034Y-52353648D01*
X120025500Y-52329806D01*
X119982016Y-52271188D01*
X119962128Y-52226089D01*
X119962000Y-52223780D01*
X119987999Y-52201761D01*
X120058689Y-52174342D01*
X120163108Y-52145548D01*
X120194833Y-52138245D01*
X120420112Y-52081390D01*
X120643492Y-52012460D01*
X120846014Y-51937769D01*
X120989062Y-51873733D01*
X121127125Y-51804321D01*
X121203602Y-51884438D01*
X121245560Y-51928763D01*
X121297642Y-51984054D01*
X121297642Y-51704973D01*
X121329775Y-51678460D01*
X121392558Y-51639803D01*
X121416099Y-51626889D01*
X121520205Y-51571445D01*
X121580714Y-51654588D01*
X121654337Y-51750951D01*
X121742118Y-51858526D01*
X121836209Y-51968576D01*
X121928763Y-52072361D01*
X122011934Y-52161145D01*
X122077875Y-52226188D01*
X122118739Y-52258754D01*
X122125162Y-52260888D01*
X122144091Y-52258807D01*
X122165700Y-52248583D01*
X122196339Y-52224243D01*
X122242355Y-52179817D01*
X122310095Y-52109332D01*
X122405909Y-52006817D01*
X122478848Y-51928167D01*
X122585619Y-51816665D01*
X122660571Y-51749916D01*
X122706241Y-51729515D01*
X122725165Y-51757059D01*
X122719882Y-51834143D01*
X122692929Y-51962364D01*
X122671331Y-52049232D01*
X122613309Y-52246858D01*
X122549000Y-52415042D01*
X122481677Y-52547645D01*
X122414614Y-52638531D01*
X122351086Y-52681560D01*
X122332599Y-52684222D01*
X122291632Y-52666636D01*
X122220616Y-52619372D01*
X122131315Y-52550672D01*
X122075918Y-52504372D01*
X121972612Y-52412322D01*
X121857888Y-52304948D01*
X121738463Y-52189152D01*
X121621054Y-52071832D01*
X121512379Y-51959890D01*
X121419156Y-51860224D01*
X121348102Y-51779734D01*
X121305935Y-51725321D01*
X121297642Y-51704973D01*
X121297642Y-51984054D01*
X121319113Y-52006848D01*
X121417270Y-52111259D01*
X121533043Y-52234557D01*
X121659441Y-52369307D01*
X121697746Y-52410168D01*
X121825862Y-52545541D01*
X121945874Y-52669905D01*
X122050775Y-52776191D01*
X122133557Y-52857328D01*
X122187213Y-52906244D01*
X122196786Y-52913724D01*
X122255297Y-52950419D01*
X122296581Y-52953867D01*
X122346373Y-52926971D01*
X122447886Y-52844862D01*
X122538946Y-52734681D01*
X122628034Y-52585275D01*
X122670461Y-52500777D01*
X122751175Y-52310894D01*
X122811425Y-52123314D01*
X122849707Y-51947389D01*
X122864520Y-51792471D01*
X122854358Y-51667911D01*
X122817923Y-51583313D01*
X122766958Y-51520373D01*
X122641534Y-51584213D01*
X122562230Y-51635080D01*
X122463526Y-51713195D01*
X122363722Y-51803798D01*
X122339958Y-51827470D01*
X122259264Y-51907335D01*
X122192703Y-51968912D01*
X122150440Y-52002984D01*
X122142110Y-52006888D01*
X122118831Y-51984857D01*
X122071246Y-51924797D01*
X122006184Y-51835763D01*
X121930472Y-51726807D01*
X121926939Y-51721602D01*
X121733462Y-51436316D01*
X121917049Y-51270622D01*
X122042000Y-51151436D01*
X122140770Y-51039080D01*
X122219828Y-50921755D01*
X122285643Y-50787666D01*
X122344682Y-50625016D01*
X122403413Y-50422008D01*
X122422762Y-50348289D01*
X122537340Y-49904333D01*
X122551353Y-49035426D01*
X122555097Y-48736373D01*
X122555752Y-48490447D01*
X122553259Y-48294413D01*
X122547557Y-48145036D01*
X122538587Y-48039080D01*
X122532158Y-47997729D01*
X122508208Y-47914291D01*
X122462874Y-47790352D01*
X122400548Y-47635624D01*
X122325622Y-47459822D01*
X122242488Y-47272658D01*
X122155539Y-47083847D01*
X122069165Y-46903103D01*
X121987759Y-46740138D01*
X121915713Y-46604666D01*
X121858845Y-46508589D01*
X121774670Y-46371293D01*
X121722253Y-46261398D01*
X121697321Y-46162861D01*
X121695599Y-46059636D01*
X121710169Y-45950565D01*
X121725182Y-45738417D01*
X121694421Y-45552262D01*
X121621071Y-45396321D01*
X121508321Y-45274813D01*
X121359356Y-45191958D01*
X121177363Y-45151975D01*
X121104744Y-45148888D01*
X121045845Y-45146737D01*
X120988213Y-45138027D01*
X120923042Y-45119372D01*
X120841529Y-45087386D01*
X120734870Y-45038684D01*
X120594262Y-44969879D01*
X120447671Y-44896193D01*
X120190659Y-44770404D01*
X119973311Y-44673877D01*
X119788478Y-44604330D01*
X119629015Y-44559482D01*
X119487774Y-44537053D01*
X119357610Y-44534762D01*
X119323222Y-44537320D01*
X119108744Y-44580892D01*
X118882007Y-44669337D01*
X118654898Y-44796510D01*
X118439302Y-44956263D01*
X118340494Y-45045510D01*
X118275704Y-45117298D01*
X118227506Y-45196254D01*
X118193662Y-45291784D01*
X118171937Y-45413292D01*
X118160094Y-45570182D01*
X118155897Y-45771860D01*
X118155778Y-45822350D01*
X118167737Y-46174169D01*
X118204682Y-46540076D01*
X118268216Y-46933736D01*
X118311558Y-47150464D01*
X118348682Y-47317627D01*
X118385940Y-47462869D01*
X118427943Y-47599342D01*
X118479303Y-47740201D01*
X118544632Y-47898599D01*
X118628541Y-48087687D01*
X118678462Y-48196888D01*
X118739888Y-48340416D01*
X118800076Y-48499007D01*
X118856707Y-48664265D01*
X118907464Y-48827793D01*
X118950030Y-48981194D01*
X118982085Y-49116073D01*
X119001313Y-49224031D01*
X119005396Y-49296673D01*
X118992015Y-49325603D01*
X118990085Y-49325777D01*
X118958353Y-49319873D01*
X118887249Y-49304414D01*
X118794872Y-49283371D01*
X118661777Y-49255399D01*
X118516333Y-49229101D01*
X118433288Y-49216314D01*
X118221661Y-49205225D01*
X118008935Y-49226666D01*
X117808123Y-49277160D01*
X117632235Y-49353228D01*
X117494282Y-49451392D01*
X117472614Y-49473130D01*
X117386763Y-49565033D01*
X117273266Y-49438350D01*
X117216433Y-49374054D01*
X117131774Y-49277179D01*
X117028213Y-49157989D01*
X116914673Y-49026744D01*
X116835376Y-48934754D01*
X116715976Y-48800250D01*
X116594831Y-48671178D01*
X116482235Y-48557999D01*
X116388481Y-48471174D01*
X116342499Y-48433810D01*
X116247440Y-48367494D01*
X116175472Y-48330031D01*
X116106766Y-48313616D01*
X116028951Y-48310397D01*
X115857419Y-48331117D01*
X115717369Y-48388453D01*
X115614323Y-48477548D01*
X115553805Y-48593544D01*
X115541339Y-48731582D01*
X115541339Y-48731582D01*
X115541339Y-48731582D01*
G37*
X115541339Y-48731582D02*
X115542040Y-48738649D01*
X115548781Y-48791993D01*
X115558960Y-48841277D01*
X115576096Y-48892947D01*
X115603710Y-48953450D01*
X115645319Y-49029233D01*
X115704444Y-49126743D01*
X115784605Y-49252426D01*
X115785111Y-49253200D01*
X115785111Y-48761254D01*
X115798479Y-48638691D01*
X115843278Y-48554826D01*
X115926554Y-48497452D01*
X115941027Y-48491113D01*
X116028862Y-48465813D01*
X116095210Y-48480402D01*
X116155224Y-48540714D01*
X116184542Y-48584878D01*
X116256159Y-48685745D01*
X116362600Y-48815929D01*
X116496225Y-48967558D01*
X116649396Y-49132761D01*
X116814473Y-49303668D01*
X116983818Y-49472407D01*
X117149791Y-49631107D01*
X117304753Y-49771899D01*
X117441065Y-49886909D01*
X117471287Y-49910676D01*
X117562908Y-49981433D01*
X117437026Y-50064813D01*
X117291664Y-50180137D01*
X117154609Y-50323059D01*
X117040479Y-50476437D01*
X116966270Y-50617038D01*
X116932380Y-50715535D01*
X116913030Y-50813247D01*
X116905170Y-50931141D01*
X116904897Y-51039058D01*
X116908128Y-51298893D01*
X116819342Y-51326496D01*
X116677492Y-51365608D01*
X116569775Y-51381146D01*
X116479389Y-51373859D01*
X116391987Y-51345526D01*
X116309619Y-51295353D01*
X116270587Y-51229327D01*
X116275626Y-51144091D01*
X116325473Y-51036283D01*
X116420861Y-50902547D01*
X116512627Y-50794505D01*
X116587805Y-50708120D01*
X116627349Y-50656258D01*
X116634743Y-50632752D01*
X116613472Y-50631436D01*
X116603261Y-50634085D01*
X116486365Y-50659390D01*
X116365650Y-50672173D01*
X116260013Y-50671503D01*
X116188356Y-50656448D01*
X116184852Y-50654699D01*
X116135318Y-50601060D01*
X116127247Y-50529045D01*
X116161839Y-50459843D01*
X116173167Y-50448907D01*
X116229080Y-50417297D01*
X116315360Y-50385245D01*
X116363667Y-50371829D01*
X116445264Y-50346214D01*
X116543384Y-50307238D01*
X116644422Y-50261460D01*
X116734770Y-50215444D01*
X116800822Y-50175749D01*
X116828972Y-50148938D01*
X116829182Y-50147345D01*
X116810526Y-50122833D01*
X116758302Y-50063542D01*
X116677994Y-49975452D01*
X116575081Y-49864542D01*
X116455047Y-49736791D01*
X116384682Y-49662531D01*
X116204193Y-49469104D01*
X116061791Y-49307589D01*
X115953596Y-49172151D01*
X115875727Y-49056956D01*
X115824303Y-48956170D01*
X115795443Y-48863961D01*
X115785266Y-48774494D01*
X115785111Y-48761254D01*
X115785111Y-49253200D01*
X115889320Y-49412730D01*
X116009793Y-49595454D01*
X116373535Y-50146192D01*
X116269823Y-50211639D01*
X116189819Y-50257714D01*
X116119178Y-50291318D01*
X116104938Y-50296484D01*
X116038476Y-50328087D01*
X115970883Y-50373211D01*
X115909003Y-50449495D01*
X115898570Y-50534764D01*
X115936723Y-50622622D01*
X116020600Y-50706672D01*
X116147342Y-50780516D01*
X116154482Y-50783706D01*
X116262532Y-50831378D01*
X116195088Y-50893883D01*
X116123762Y-50995541D01*
X116089032Y-51122896D01*
X116091280Y-51258353D01*
X116130887Y-51384314D01*
X116182825Y-51459326D01*
X116287040Y-51530931D01*
X116432736Y-51572165D01*
X116613258Y-51582126D01*
X116821947Y-51559915D01*
X116865714Y-51551687D01*
X116956194Y-51535014D01*
X117010716Y-51534066D01*
X117048617Y-51553227D01*
X117089230Y-51596877D01*
X117094916Y-51603626D01*
X117144663Y-51653873D01*
X117196380Y-51700496D01*
X117196380Y-51127917D01*
X117210799Y-51004525D01*
X117249257Y-50857335D01*
X117304077Y-50709239D01*
X117367580Y-50583132D01*
X117390965Y-50547695D01*
X117490486Y-50431042D01*
X117605222Y-50340203D01*
X117743159Y-50272184D01*
X117912280Y-50223990D01*
X118120572Y-50192627D01*
X118376020Y-50175101D01*
X118385672Y-50174711D01*
X118551613Y-50167226D01*
X118670761Y-50159071D01*
X118752761Y-50148802D01*
X118807261Y-50134980D01*
X118843907Y-50116162D01*
X118859061Y-50103966D01*
X118895272Y-50059347D01*
X118897278Y-50029835D01*
X118852211Y-50005692D01*
X118770223Y-49974312D01*
X118669350Y-49941331D01*
X118567629Y-49912389D01*
X118483095Y-49893123D01*
X118444943Y-49888433D01*
X118393408Y-49885629D01*
X118394656Y-49876707D01*
X118429299Y-49861729D01*
X118504509Y-49805129D01*
X118567134Y-49708770D01*
X118592185Y-49643277D01*
X118598782Y-49600552D01*
X118574534Y-49583002D01*
X118514263Y-49579777D01*
X118417488Y-49596810D01*
X118338940Y-49640835D01*
X118287668Y-49701239D01*
X118272718Y-49767409D01*
X118302533Y-49828133D01*
X118309354Y-49846970D01*
X118277672Y-49857572D01*
X118199931Y-49861733D01*
X118159808Y-49862000D01*
X118039193Y-49867531D01*
X117918669Y-49881740D01*
X117855304Y-49894208D01*
X117774996Y-49911540D01*
X117723838Y-49907165D01*
X117676618Y-49874551D01*
X117639211Y-49838236D01*
X117586141Y-49782618D01*
X117569450Y-49750192D01*
X117585081Y-49724769D01*
X117606460Y-49707542D01*
X117705962Y-49645449D01*
X117837685Y-49581994D01*
X117978568Y-49527215D01*
X118101534Y-49492002D01*
X118238486Y-49475181D01*
X118407835Y-49472586D01*
X118587683Y-49483024D01*
X118756128Y-49505305D01*
X118879391Y-49534342D01*
X118965342Y-49565092D01*
X119011970Y-49596586D01*
X119034875Y-49642593D01*
X119042948Y-49678725D01*
X119062295Y-49745967D01*
X119096037Y-49773078D01*
X119137779Y-49776901D01*
X119204762Y-49772088D01*
X119250474Y-49752418D01*
X119279430Y-49708698D01*
X119296147Y-49631737D01*
X119305139Y-49512343D01*
X119308282Y-49429817D01*
X119317786Y-49136602D01*
X119034798Y-48278690D01*
X118896374Y-47853555D01*
X118777948Y-47477135D01*
X118678740Y-47145665D01*
X118597970Y-46855380D01*
X118534860Y-46602512D01*
X118488629Y-46383297D01*
X118458499Y-46193967D01*
X118443690Y-46030759D01*
X118443423Y-45889905D01*
X118456918Y-45767640D01*
X118483396Y-45660198D01*
X118489258Y-45642777D01*
X118528952Y-45547197D01*
X118586864Y-45428580D01*
X118650935Y-45311525D01*
X118655288Y-45304111D01*
X118779330Y-45115223D01*
X118902674Y-44976250D01*
X119034214Y-44881478D01*
X119182841Y-44825198D01*
X119357447Y-44801700D01*
X119439889Y-44800225D01*
X119560343Y-44806094D01*
X119677041Y-44823777D01*
X119800455Y-44856618D01*
X119941057Y-44907959D01*
X120109320Y-44981145D01*
X120315718Y-45079518D01*
X120317490Y-45080386D01*
X120579156Y-45208522D01*
X120482245Y-45410742D01*
X120419431Y-45560854D01*
X120389473Y-45684776D01*
X120385333Y-45748539D01*
X120385333Y-45884116D01*
X120298639Y-45839284D01*
X120215356Y-45815012D01*
X120158690Y-45836966D01*
X120135571Y-45901043D01*
X120136962Y-45935069D01*
X120148845Y-45971266D01*
X120181092Y-46007482D01*
X120242263Y-46050057D01*
X120340918Y-46105327D01*
X120427480Y-46150187D01*
X120577525Y-46231394D01*
X120587326Y-46237846D01*
X120587326Y-45783070D01*
X120592406Y-45709454D01*
X120613572Y-45600034D01*
X120646991Y-45492012D01*
X120656243Y-45469565D01*
X120704787Y-45360555D01*
X120725473Y-45509138D01*
X120768346Y-45660506D01*
X120846740Y-45786533D01*
X120952025Y-45874280D01*
X120977444Y-45886944D01*
X121044549Y-45923661D01*
X121056413Y-45950913D01*
X121013165Y-45970199D01*
X120985055Y-45975341D01*
X120850114Y-45991209D01*
X120756438Y-45988957D01*
X120691157Y-45966455D01*
X120641406Y-45921571D01*
X120638494Y-45917944D01*
X120599390Y-45854162D01*
X120587326Y-45783070D01*
X120587326Y-46237846D01*
X120674493Y-46295236D01*
X120718814Y-46342319D01*
X120710920Y-46373245D01*
X120651240Y-46388618D01*
X120599069Y-46390666D01*
X120519896Y-46387850D01*
X120482075Y-46373928D01*
X120470586Y-46340691D01*
X120470000Y-46320111D01*
X120452824Y-46264083D01*
X120406454Y-46250798D01*
X120338633Y-46280313D01*
X120290677Y-46318763D01*
X120230612Y-46397205D01*
X120221662Y-46469288D01*
X120264192Y-46527863D01*
X120279500Y-46537665D01*
X120350747Y-46559192D01*
X120461078Y-46571514D01*
X120593951Y-46575014D01*
X120732826Y-46570075D01*
X120861164Y-46557082D01*
X120962422Y-46536418D01*
X121002551Y-46520897D01*
X121064463Y-46482146D01*
X121087401Y-46440208D01*
X121084185Y-46370047D01*
X121083286Y-46363238D01*
X121068915Y-46256093D01*
X121225720Y-46224602D01*
X121336399Y-46203670D01*
X121405596Y-46199441D01*
X121447223Y-46217793D01*
X121475194Y-46264602D01*
X121501954Y-46341277D01*
X121531469Y-46430306D01*
X121554914Y-46499704D01*
X121563686Y-46524722D01*
X121550949Y-46552079D01*
X121498258Y-46559999D01*
X121439283Y-46566961D01*
X121333707Y-46586560D01*
X121189464Y-46616872D01*
X121014487Y-46655970D01*
X120816709Y-46701927D01*
X120604062Y-46752819D01*
X120384480Y-46806718D01*
X120165896Y-46861699D01*
X119956242Y-46915836D01*
X119763452Y-46967201D01*
X119595458Y-47013870D01*
X119460193Y-47053917D01*
X119446944Y-47058058D01*
X119322775Y-47101023D01*
X119252274Y-47135657D01*
X119233577Y-47163740D01*
X119264821Y-47187050D01*
X119300387Y-47197925D01*
X119337575Y-47204316D01*
X119386256Y-47206391D01*
X119451428Y-47203433D01*
X119538091Y-47194725D01*
X119651242Y-47179551D01*
X119795880Y-47157194D01*
X119977003Y-47126936D01*
X120199611Y-47088061D01*
X120468701Y-47039852D01*
X120717895Y-46994611D01*
X120947790Y-46952957D01*
X121159463Y-46915080D01*
X121346672Y-46882060D01*
X121503175Y-46854977D01*
X121622731Y-46834912D01*
X121699098Y-46822945D01*
X121726012Y-46820105D01*
X121738633Y-46847177D01*
X121770341Y-46918705D01*
X121817905Y-47027299D01*
X121878096Y-47165570D01*
X121947683Y-47326128D01*
X121988583Y-47420777D01*
X122244427Y-48013444D01*
X122289758Y-48490985D01*
X122316531Y-48934621D01*
X122311305Y-49355544D01*
X122274913Y-49749341D01*
X122208190Y-50111598D01*
X122111969Y-50437902D01*
X121987084Y-50723841D01*
X121834370Y-50965001D01*
X121818356Y-50985534D01*
X121714421Y-51095238D01*
X121570995Y-51216966D01*
X121400844Y-51341410D01*
X121216737Y-51459261D01*
X121031440Y-51561213D01*
X121022827Y-51565502D01*
X120836138Y-51647037D01*
X120610636Y-51728016D01*
X120363739Y-51802956D01*
X120112861Y-51866375D01*
X119976111Y-51895008D01*
X119818793Y-51934416D01*
X119692478Y-51984672D01*
X119607529Y-52041193D01*
X119585385Y-52067733D01*
X119576627Y-52105494D01*
X119593772Y-52160784D01*
X119640977Y-52244971D01*
X119662807Y-52279399D01*
X119732929Y-52389285D01*
X119804814Y-52503772D01*
X119850343Y-52577563D01*
X119926222Y-52678997D01*
X120004517Y-52727927D01*
X120096495Y-52727594D01*
X120212424Y-52681752D01*
X120290126Y-52642077D01*
X120346067Y-52613631D01*
X120361883Y-52605672D01*
X120367967Y-52621598D01*
X120355701Y-52678060D01*
X120328876Y-52763671D01*
X120291286Y-52867047D01*
X120246723Y-52976803D01*
X120213513Y-53051111D01*
X120128141Y-53210378D01*
X120047088Y-53313729D01*
X119970491Y-53361089D01*
X119898486Y-53352381D01*
X119831208Y-53287530D01*
X119819577Y-53269833D01*
X119717443Y-53083327D01*
X119608838Y-52842900D01*
X119494660Y-52550590D01*
X119457646Y-52447987D01*
X119326310Y-52077444D01*
X119162999Y-52068939D01*
X119053546Y-52070384D01*
X118916738Y-52082100D01*
X118780209Y-52101629D01*
X118766033Y-52104217D01*
X118546516Y-52137114D01*
X118363393Y-52142632D01*
X118201967Y-52117391D01*
X118047545Y-52058013D01*
X117885433Y-51961120D01*
X117766282Y-51874362D01*
X117584674Y-51732047D01*
X117445196Y-51613563D01*
X117342612Y-51512051D01*
X117271683Y-51420649D01*
X117227171Y-51332496D01*
X117203837Y-51240731D01*
X117196443Y-51138493D01*
X117196380Y-51127917D01*
X117196380Y-51700496D01*
X117228297Y-51729270D01*
X117334844Y-51820714D01*
X117453330Y-51919099D01*
X117572782Y-52015321D01*
X117682225Y-52100276D01*
X117770686Y-52164858D01*
X117774778Y-52167675D01*
X117840931Y-52205609D01*
X117940931Y-52254487D01*
X118055864Y-52305193D01*
X118085222Y-52317293D01*
X118242869Y-52372829D01*
X118387453Y-52402162D01*
X118535476Y-52405866D01*
X118703439Y-52384514D01*
X118882702Y-52344992D01*
X118995881Y-52318229D01*
X119086339Y-52299380D01*
X119141708Y-52290886D01*
X119152871Y-52291665D01*
X119166596Y-52319976D01*
X119199252Y-52391522D01*
X119247048Y-52497869D01*
X119306192Y-52630583D01*
X119366737Y-52767294D01*
X119466126Y-52987256D01*
X119551226Y-53162994D01*
X119627065Y-53303320D01*
X119698670Y-53417046D01*
X119771069Y-53512985D01*
X119830516Y-53580277D01*
X119917666Y-53650741D01*
X120001242Y-53666768D01*
X120090136Y-53628973D01*
X120126988Y-53600770D01*
X120201381Y-53523592D01*
X120289663Y-53410063D01*
X120382113Y-53275099D01*
X120469010Y-53133620D01*
X120540634Y-53000542D01*
X120584703Y-52898301D01*
X120640791Y-52705655D01*
X120662178Y-52549174D01*
X120648596Y-52431982D01*
X120628398Y-52388774D01*
X120589131Y-52343617D01*
X120536106Y-52322948D01*
X120448279Y-52318571D01*
X120448183Y-52318572D01*
X120337257Y-52328810D01*
X120226748Y-52352733D01*
X120201889Y-52360841D01*
X120129006Y-52384500D01*
X120085214Y-52383479D01*
X120047034Y-52353648D01*
X120025500Y-52329806D01*
X119982016Y-52271188D01*
X119962128Y-52226089D01*
X119962000Y-52223780D01*
X119987999Y-52201761D01*
X120058689Y-52174342D01*
X120163108Y-52145548D01*
X120194833Y-52138245D01*
X120420112Y-52081390D01*
X120643492Y-52012460D01*
X120846014Y-51937769D01*
X120989062Y-51873733D01*
X121127125Y-51804321D01*
X121203602Y-51884438D01*
X121245560Y-51928763D01*
X121297642Y-51984054D01*
X121297642Y-51704973D01*
X121329775Y-51678460D01*
X121392558Y-51639803D01*
X121416099Y-51626889D01*
X121520205Y-51571445D01*
X121580714Y-51654588D01*
X121654337Y-51750951D01*
X121742118Y-51858526D01*
X121836209Y-51968576D01*
X121928763Y-52072361D01*
X122011934Y-52161145D01*
X122077875Y-52226188D01*
X122118739Y-52258754D01*
X122125162Y-52260888D01*
X122144091Y-52258807D01*
X122165700Y-52248583D01*
X122196339Y-52224243D01*
X122242355Y-52179817D01*
X122310095Y-52109332D01*
X122405909Y-52006817D01*
X122478848Y-51928167D01*
X122585619Y-51816665D01*
X122660571Y-51749916D01*
X122706241Y-51729515D01*
X122725165Y-51757059D01*
X122719882Y-51834143D01*
X122692929Y-51962364D01*
X122671331Y-52049232D01*
X122613309Y-52246858D01*
X122549000Y-52415042D01*
X122481677Y-52547645D01*
X122414614Y-52638531D01*
X122351086Y-52681560D01*
X122332599Y-52684222D01*
X122291632Y-52666636D01*
X122220616Y-52619372D01*
X122131315Y-52550672D01*
X122075918Y-52504372D01*
X121972612Y-52412322D01*
X121857888Y-52304948D01*
X121738463Y-52189152D01*
X121621054Y-52071832D01*
X121512379Y-51959890D01*
X121419156Y-51860224D01*
X121348102Y-51779734D01*
X121305935Y-51725321D01*
X121297642Y-51704973D01*
X121297642Y-51984054D01*
X121319113Y-52006848D01*
X121417270Y-52111259D01*
X121533043Y-52234557D01*
X121659441Y-52369307D01*
X121697746Y-52410168D01*
X121825862Y-52545541D01*
X121945874Y-52669905D01*
X122050775Y-52776191D01*
X122133557Y-52857328D01*
X122187213Y-52906244D01*
X122196786Y-52913724D01*
X122255297Y-52950419D01*
X122296581Y-52953867D01*
X122346373Y-52926971D01*
X122447886Y-52844862D01*
X122538946Y-52734681D01*
X122628034Y-52585275D01*
X122670461Y-52500777D01*
X122751175Y-52310894D01*
X122811425Y-52123314D01*
X122849707Y-51947389D01*
X122864520Y-51792471D01*
X122854358Y-51667911D01*
X122817923Y-51583313D01*
X122766958Y-51520373D01*
X122641534Y-51584213D01*
X122562230Y-51635080D01*
X122463526Y-51713195D01*
X122363722Y-51803798D01*
X122339958Y-51827470D01*
X122259264Y-51907335D01*
X122192703Y-51968912D01*
X122150440Y-52002984D01*
X122142110Y-52006888D01*
X122118831Y-51984857D01*
X122071246Y-51924797D01*
X122006184Y-51835763D01*
X121930472Y-51726807D01*
X121926939Y-51721602D01*
X121733462Y-51436316D01*
X121917049Y-51270622D01*
X122042000Y-51151436D01*
X122140770Y-51039080D01*
X122219828Y-50921755D01*
X122285643Y-50787666D01*
X122344682Y-50625016D01*
X122403413Y-50422008D01*
X122422762Y-50348289D01*
X122537340Y-49904333D01*
X122551353Y-49035426D01*
X122555097Y-48736373D01*
X122555752Y-48490447D01*
X122553259Y-48294413D01*
X122547557Y-48145036D01*
X122538587Y-48039080D01*
X122532158Y-47997729D01*
X122508208Y-47914291D01*
X122462874Y-47790352D01*
X122400548Y-47635624D01*
X122325622Y-47459822D01*
X122242488Y-47272658D01*
X122155539Y-47083847D01*
X122069165Y-46903103D01*
X121987759Y-46740138D01*
X121915713Y-46604666D01*
X121858845Y-46508589D01*
X121774670Y-46371293D01*
X121722253Y-46261398D01*
X121697321Y-46162861D01*
X121695599Y-46059636D01*
X121710169Y-45950565D01*
X121725182Y-45738417D01*
X121694421Y-45552262D01*
X121621071Y-45396321D01*
X121508321Y-45274813D01*
X121359356Y-45191958D01*
X121177363Y-45151975D01*
X121104744Y-45148888D01*
X121045845Y-45146737D01*
X120988213Y-45138027D01*
X120923042Y-45119372D01*
X120841529Y-45087386D01*
X120734870Y-45038684D01*
X120594262Y-44969879D01*
X120447671Y-44896193D01*
X120190659Y-44770404D01*
X119973311Y-44673877D01*
X119788478Y-44604330D01*
X119629015Y-44559482D01*
X119487774Y-44537053D01*
X119357610Y-44534762D01*
X119323222Y-44537320D01*
X119108744Y-44580892D01*
X118882007Y-44669337D01*
X118654898Y-44796510D01*
X118439302Y-44956263D01*
X118340494Y-45045510D01*
X118275704Y-45117298D01*
X118227506Y-45196254D01*
X118193662Y-45291784D01*
X118171937Y-45413292D01*
X118160094Y-45570182D01*
X118155897Y-45771860D01*
X118155778Y-45822350D01*
X118167737Y-46174169D01*
X118204682Y-46540076D01*
X118268216Y-46933736D01*
X118311558Y-47150464D01*
X118348682Y-47317627D01*
X118385940Y-47462869D01*
X118427943Y-47599342D01*
X118479303Y-47740201D01*
X118544632Y-47898599D01*
X118628541Y-48087687D01*
X118678462Y-48196888D01*
X118739888Y-48340416D01*
X118800076Y-48499007D01*
X118856707Y-48664265D01*
X118907464Y-48827793D01*
X118950030Y-48981194D01*
X118982085Y-49116073D01*
X119001313Y-49224031D01*
X119005396Y-49296673D01*
X118992015Y-49325603D01*
X118990085Y-49325777D01*
X118958353Y-49319873D01*
X118887249Y-49304414D01*
X118794872Y-49283371D01*
X118661777Y-49255399D01*
X118516333Y-49229101D01*
X118433288Y-49216314D01*
X118221661Y-49205225D01*
X118008935Y-49226666D01*
X117808123Y-49277160D01*
X117632235Y-49353228D01*
X117494282Y-49451392D01*
X117472614Y-49473130D01*
X117386763Y-49565033D01*
X117273266Y-49438350D01*
X117216433Y-49374054D01*
X117131774Y-49277179D01*
X117028213Y-49157989D01*
X116914673Y-49026744D01*
X116835376Y-48934754D01*
X116715976Y-48800250D01*
X116594831Y-48671178D01*
X116482235Y-48557999D01*
X116388481Y-48471174D01*
X116342499Y-48433810D01*
X116247440Y-48367494D01*
X116175472Y-48330031D01*
X116106766Y-48313616D01*
X116028951Y-48310397D01*
X115857419Y-48331117D01*
X115717369Y-48388453D01*
X115614323Y-48477548D01*
X115553805Y-48593544D01*
X115541339Y-48731582D01*
X115541339Y-48731582D01*
G36*
X118384659Y-51943446D02*
X118398686Y-51990469D01*
X118434663Y-52030669D01*
X118485261Y-52022078D01*
X118535177Y-51972387D01*
X118574134Y-51897742D01*
X118567073Y-51842276D01*
X118538666Y-51810900D01*
X118500001Y-51794927D01*
X118455809Y-51820480D01*
X118439888Y-51835667D01*
X118392807Y-51892639D01*
X118384659Y-51943446D01*
X118384659Y-51943446D01*
X118384659Y-51943446D01*
G37*
X118384659Y-51943446D02*
X118398686Y-51990469D01*
X118434663Y-52030669D01*
X118485261Y-52022078D01*
X118535177Y-51972387D01*
X118574134Y-51897742D01*
X118567073Y-51842276D01*
X118538666Y-51810900D01*
X118500001Y-51794927D01*
X118455809Y-51820480D01*
X118439888Y-51835667D01*
X118392807Y-51892639D01*
X118384659Y-51943446D01*
X118384659Y-51943446D01*
G36*
X118557576Y-51538402D02*
X118560193Y-51567094D01*
X118599108Y-51600390D01*
X118665325Y-51611026D01*
X118734258Y-51598554D01*
X118775377Y-51570997D01*
X118798808Y-51511655D01*
X118799908Y-51465164D01*
X118779768Y-51416666D01*
X118728430Y-51407226D01*
X118720131Y-51408038D01*
X118645714Y-51433380D01*
X118586408Y-51481927D01*
X118557576Y-51538402D01*
X118557576Y-51538402D01*
X118557576Y-51538402D01*
G37*
X118557576Y-51538402D02*
X118560193Y-51567094D01*
X118599108Y-51600390D01*
X118665325Y-51611026D01*
X118734258Y-51598554D01*
X118775377Y-51570997D01*
X118798808Y-51511655D01*
X118799908Y-51465164D01*
X118779768Y-51416666D01*
X118728430Y-51407226D01*
X118720131Y-51408038D01*
X118645714Y-51433380D01*
X118586408Y-51481927D01*
X118557576Y-51538402D01*
X118557576Y-51538402D01*
G36*
X118596144Y-51065286D02*
X118598120Y-51129269D01*
X118645357Y-51206287D01*
X118651293Y-51213453D01*
X118724121Y-51279691D01*
X118787220Y-51299039D01*
X118833304Y-51270775D01*
X118849184Y-51233010D01*
X118858066Y-51133367D01*
X118822055Y-51060427D01*
X118762053Y-51014866D01*
X118683629Y-50983292D01*
X118630782Y-50999659D01*
X118596144Y-51065286D01*
X118596144Y-51065286D01*
X118596144Y-51065286D01*
G37*
X118596144Y-51065286D02*
X118598120Y-51129269D01*
X118645357Y-51206287D01*
X118651293Y-51213453D01*
X118724121Y-51279691D01*
X118787220Y-51299039D01*
X118833304Y-51270775D01*
X118849184Y-51233010D01*
X118858066Y-51133367D01*
X118822055Y-51060427D01*
X118762053Y-51014866D01*
X118683629Y-50983292D01*
X118630782Y-50999659D01*
X118596144Y-51065286D01*
X118596144Y-51065286D01*
G36*
X118189030Y-50668596D02*
X118189234Y-50671184D01*
X118205540Y-50749518D01*
X118243419Y-50783136D01*
X118311555Y-50775809D01*
X118374500Y-50751613D01*
X118435483Y-50716785D01*
X118465556Y-50683752D01*
X118466222Y-50679635D01*
X118446902Y-50640038D01*
X118400293Y-50583553D01*
X118343420Y-50527635D01*
X118293311Y-50489737D01*
X118274293Y-50482888D01*
X118225979Y-50508189D01*
X118195450Y-50574759D01*
X118189030Y-50668596D01*
X118189030Y-50668596D01*
X118189030Y-50668596D01*
G37*
X118189030Y-50668596D02*
X118189234Y-50671184D01*
X118205540Y-50749518D01*
X118243419Y-50783136D01*
X118311555Y-50775809D01*
X118374500Y-50751613D01*
X118435483Y-50716785D01*
X118465556Y-50683752D01*
X118466222Y-50679635D01*
X118446902Y-50640038D01*
X118400293Y-50583553D01*
X118343420Y-50527635D01*
X118293311Y-50489737D01*
X118274293Y-50482888D01*
X118225979Y-50508189D01*
X118195450Y-50574759D01*
X118189030Y-50668596D01*
X118189030Y-50668596D01*
G36*
X119405523Y-48327728D02*
X119409585Y-48401943D01*
X119429241Y-48477830D01*
X119469879Y-48597781D01*
X119528695Y-48754674D01*
X119602884Y-48941386D01*
X119689641Y-49150795D01*
X119786162Y-49375776D01*
X119851178Y-49523333D01*
X119914389Y-49667270D01*
X119955184Y-49770974D01*
X119974398Y-49845643D01*
X119972867Y-49902478D01*
X119951426Y-49952677D01*
X119910910Y-50007440D01*
X119889225Y-50033519D01*
X119797152Y-50153458D01*
X119746080Y-50248672D01*
X119732497Y-50329146D01*
X119752895Y-50404867D01*
X119756272Y-50411779D01*
X119818521Y-50512465D01*
X119886611Y-50586569D01*
X119949173Y-50622395D01*
X119962545Y-50624000D01*
X120016551Y-50604347D01*
X120058884Y-50569648D01*
X120087876Y-50541868D01*
X120114588Y-50538140D01*
X120151842Y-50563821D01*
X120212462Y-50624269D01*
X120227753Y-50640203D01*
X120319047Y-50723159D01*
X120394519Y-50759509D01*
X120465013Y-50752400D01*
X120516275Y-50723901D01*
X120570022Y-50667550D01*
X120609628Y-50599357D01*
X120665224Y-50524423D01*
X120719351Y-50497544D01*
X120827677Y-50455790D01*
X120898252Y-50396697D01*
X120921555Y-50332768D01*
X120900265Y-50277623D01*
X120835009Y-50198038D01*
X120723712Y-50091481D01*
X120723626Y-50091404D01*
X120631185Y-50004229D01*
X120551864Y-49921414D01*
X120497938Y-49856108D01*
X120485399Y-49836268D01*
X120454912Y-49758782D01*
X120416346Y-49630193D01*
X120370845Y-49455086D01*
X120319552Y-49238044D01*
X120263609Y-48983651D01*
X120217296Y-48761333D01*
X120174964Y-48555366D01*
X120141161Y-48397238D01*
X120113590Y-48279391D01*
X120089952Y-48194266D01*
X120067952Y-48134305D01*
X120045291Y-48091952D01*
X120019672Y-48059647D01*
X119997309Y-48037628D01*
X119929171Y-47987971D01*
X119883943Y-47989095D01*
X119858323Y-48041789D01*
X119853436Y-48072065D01*
X119851299Y-48121973D01*
X119856630Y-48184956D01*
X119870901Y-48266984D01*
X119895583Y-48374028D01*
X119932147Y-48512059D01*
X119982065Y-48687046D01*
X120046809Y-48904961D01*
X120110235Y-49114111D01*
X120168425Y-49305102D01*
X120223464Y-49486220D01*
X120272420Y-49647787D01*
X120312366Y-49780127D01*
X120340372Y-49873565D01*
X120349723Y-49905204D01*
X120373625Y-49978867D01*
X120401621Y-50028343D01*
X120447072Y-50066682D01*
X120523340Y-50106933D01*
X120585812Y-50135774D01*
X120694423Y-50191141D01*
X120761316Y-50238374D01*
X120780444Y-50268959D01*
X120775092Y-50297928D01*
X120750547Y-50312854D01*
X120694079Y-50316995D01*
X120603999Y-50314127D01*
X120538838Y-50314410D01*
X120501110Y-50331697D01*
X120477814Y-50379103D01*
X120457708Y-50461722D01*
X120431081Y-50524380D01*
X120395015Y-50535300D01*
X120356553Y-50496729D01*
X120325080Y-50419388D01*
X120280141Y-50300389D01*
X120228999Y-50237376D01*
X120171023Y-50230168D01*
X120105584Y-50278582D01*
X120057281Y-50341999D01*
X120007347Y-50409497D01*
X119972150Y-50433491D01*
X119943992Y-50423210D01*
X119908649Y-50360213D01*
X119922316Y-50272370D01*
X119984530Y-50162011D01*
X119999867Y-50141225D01*
X120068534Y-50046554D01*
X120117690Y-49962694D01*
X120146831Y-49881206D01*
X120155451Y-49793649D01*
X120143043Y-49691584D01*
X120109102Y-49566570D01*
X120053123Y-49410168D01*
X119974601Y-49213938D01*
X119939182Y-49128222D01*
X119895526Y-49014755D01*
X119843521Y-48866959D01*
X119790010Y-48704862D01*
X119746359Y-48563777D01*
X119697685Y-48402973D01*
X119660166Y-48288731D01*
X119629902Y-48213210D01*
X119602996Y-48168573D01*
X119575550Y-48146978D01*
X119543665Y-48140588D01*
X119535862Y-48140444D01*
X119471407Y-48165740D01*
X119425795Y-48232655D01*
X119405523Y-48327728D01*
X119405523Y-48327728D01*
X119405523Y-48327728D01*
G37*
X119405523Y-48327728D02*
X119409585Y-48401943D01*
X119429241Y-48477830D01*
X119469879Y-48597781D01*
X119528695Y-48754674D01*
X119602884Y-48941386D01*
X119689641Y-49150795D01*
X119786162Y-49375776D01*
X119851178Y-49523333D01*
X119914389Y-49667270D01*
X119955184Y-49770974D01*
X119974398Y-49845643D01*
X119972867Y-49902478D01*
X119951426Y-49952677D01*
X119910910Y-50007440D01*
X119889225Y-50033519D01*
X119797152Y-50153458D01*
X119746080Y-50248672D01*
X119732497Y-50329146D01*
X119752895Y-50404867D01*
X119756272Y-50411779D01*
X119818521Y-50512465D01*
X119886611Y-50586569D01*
X119949173Y-50622395D01*
X119962545Y-50624000D01*
X120016551Y-50604347D01*
X120058884Y-50569648D01*
X120087876Y-50541868D01*
X120114588Y-50538140D01*
X120151842Y-50563821D01*
X120212462Y-50624269D01*
X120227753Y-50640203D01*
X120319047Y-50723159D01*
X120394519Y-50759509D01*
X120465013Y-50752400D01*
X120516275Y-50723901D01*
X120570022Y-50667550D01*
X120609628Y-50599357D01*
X120665224Y-50524423D01*
X120719351Y-50497544D01*
X120827677Y-50455790D01*
X120898252Y-50396697D01*
X120921555Y-50332768D01*
X120900265Y-50277623D01*
X120835009Y-50198038D01*
X120723712Y-50091481D01*
X120723626Y-50091404D01*
X120631185Y-50004229D01*
X120551864Y-49921414D01*
X120497938Y-49856108D01*
X120485399Y-49836268D01*
X120454912Y-49758782D01*
X120416346Y-49630193D01*
X120370845Y-49455086D01*
X120319552Y-49238044D01*
X120263609Y-48983651D01*
X120217296Y-48761333D01*
X120174964Y-48555366D01*
X120141161Y-48397238D01*
X120113590Y-48279391D01*
X120089952Y-48194266D01*
X120067952Y-48134305D01*
X120045291Y-48091952D01*
X120019672Y-48059647D01*
X119997309Y-48037628D01*
X119929171Y-47987971D01*
X119883943Y-47989095D01*
X119858323Y-48041789D01*
X119853436Y-48072065D01*
X119851299Y-48121973D01*
X119856630Y-48184956D01*
X119870901Y-48266984D01*
X119895583Y-48374028D01*
X119932147Y-48512059D01*
X119982065Y-48687046D01*
X120046809Y-48904961D01*
X120110235Y-49114111D01*
X120168425Y-49305102D01*
X120223464Y-49486220D01*
X120272420Y-49647787D01*
X120312366Y-49780127D01*
X120340372Y-49873565D01*
X120349723Y-49905204D01*
X120373625Y-49978867D01*
X120401621Y-50028343D01*
X120447072Y-50066682D01*
X120523340Y-50106933D01*
X120585812Y-50135774D01*
X120694423Y-50191141D01*
X120761316Y-50238374D01*
X120780444Y-50268959D01*
X120775092Y-50297928D01*
X120750547Y-50312854D01*
X120694079Y-50316995D01*
X120603999Y-50314127D01*
X120538838Y-50314410D01*
X120501110Y-50331697D01*
X120477814Y-50379103D01*
X120457708Y-50461722D01*
X120431081Y-50524380D01*
X120395015Y-50535300D01*
X120356553Y-50496729D01*
X120325080Y-50419388D01*
X120280141Y-50300389D01*
X120228999Y-50237376D01*
X120171023Y-50230168D01*
X120105584Y-50278582D01*
X120057281Y-50341999D01*
X120007347Y-50409497D01*
X119972150Y-50433491D01*
X119943992Y-50423210D01*
X119908649Y-50360213D01*
X119922316Y-50272370D01*
X119984530Y-50162011D01*
X119999867Y-50141225D01*
X120068534Y-50046554D01*
X120117690Y-49962694D01*
X120146831Y-49881206D01*
X120155451Y-49793649D01*
X120143043Y-49691584D01*
X120109102Y-49566570D01*
X120053123Y-49410168D01*
X119974601Y-49213938D01*
X119939182Y-49128222D01*
X119895526Y-49014755D01*
X119843521Y-48866959D01*
X119790010Y-48704862D01*
X119746359Y-48563777D01*
X119697685Y-48402973D01*
X119660166Y-48288731D01*
X119629902Y-48213210D01*
X119602996Y-48168573D01*
X119575550Y-48146978D01*
X119543665Y-48140588D01*
X119535862Y-48140444D01*
X119471407Y-48165740D01*
X119425795Y-48232655D01*
X119405523Y-48327728D01*
X119405523Y-48327728D01*
G36*
X118551165Y-46267509D02*
X118570405Y-46370677D01*
X118621380Y-46494704D01*
X118694863Y-46621617D01*
X118781622Y-46733445D01*
X118800637Y-46753303D01*
X118804338Y-46756258D01*
X118804338Y-46430984D01*
X118833170Y-46282907D01*
X118886771Y-46147122D01*
X118944746Y-46031615D01*
X118985216Y-45969124D01*
X119009623Y-45959494D01*
X119019411Y-46002571D01*
X119016025Y-46098204D01*
X119012976Y-46133691D01*
X119005430Y-46248655D01*
X119010063Y-46325544D01*
X119028796Y-46381792D01*
X119043025Y-46406064D01*
X119112174Y-46474241D01*
X119214888Y-46534600D01*
X119328395Y-46575883D01*
X119410255Y-46587602D01*
X119464335Y-46594613D01*
X119467087Y-46612670D01*
X119421942Y-46639110D01*
X119332327Y-46671274D01*
X119284419Y-46685251D01*
X119114079Y-46715348D01*
X118977842Y-46701477D01*
X118874222Y-46643479D01*
X118871397Y-46640864D01*
X118817023Y-46552125D01*
X118804338Y-46430984D01*
X118804338Y-46756258D01*
X118924957Y-46852574D01*
X119060205Y-46907134D01*
X119217438Y-46919731D01*
X119383444Y-46898153D01*
X119469107Y-46877187D01*
X119582452Y-46844474D01*
X119691585Y-46809523D01*
X119796784Y-46771106D01*
X119864255Y-46735480D01*
X119910695Y-46690468D01*
X119952801Y-46623897D01*
X119957323Y-46615754D01*
X120027809Y-46488065D01*
X119966440Y-46286019D01*
X119883060Y-46075591D01*
X119775692Y-45915873D01*
X119643401Y-45806054D01*
X119485247Y-45745321D01*
X119327000Y-45731750D01*
X119140073Y-45754304D01*
X118965297Y-45808467D01*
X118810987Y-45888495D01*
X118685456Y-45988649D01*
X118597018Y-46103187D01*
X118553986Y-46226369D01*
X118551165Y-46267509D01*
X118551165Y-46267509D01*
X118551165Y-46267509D01*
G37*
X118551165Y-46267509D02*
X118570405Y-46370677D01*
X118621380Y-46494704D01*
X118694863Y-46621617D01*
X118781622Y-46733445D01*
X118800637Y-46753303D01*
X118804338Y-46756258D01*
X118804338Y-46430984D01*
X118833170Y-46282907D01*
X118886771Y-46147122D01*
X118944746Y-46031615D01*
X118985216Y-45969124D01*
X119009623Y-45959494D01*
X119019411Y-46002571D01*
X119016025Y-46098204D01*
X119012976Y-46133691D01*
X119005430Y-46248655D01*
X119010063Y-46325544D01*
X119028796Y-46381792D01*
X119043025Y-46406064D01*
X119112174Y-46474241D01*
X119214888Y-46534600D01*
X119328395Y-46575883D01*
X119410255Y-46587602D01*
X119464335Y-46594613D01*
X119467087Y-46612670D01*
X119421942Y-46639110D01*
X119332327Y-46671274D01*
X119284419Y-46685251D01*
X119114079Y-46715348D01*
X118977842Y-46701477D01*
X118874222Y-46643479D01*
X118871397Y-46640864D01*
X118817023Y-46552125D01*
X118804338Y-46430984D01*
X118804338Y-46756258D01*
X118924957Y-46852574D01*
X119060205Y-46907134D01*
X119217438Y-46919731D01*
X119383444Y-46898153D01*
X119469107Y-46877187D01*
X119582452Y-46844474D01*
X119691585Y-46809523D01*
X119796784Y-46771106D01*
X119864255Y-46735480D01*
X119910695Y-46690468D01*
X119952801Y-46623897D01*
X119957323Y-46615754D01*
X120027809Y-46488065D01*
X119966440Y-46286019D01*
X119883060Y-46075591D01*
X119775692Y-45915873D01*
X119643401Y-45806054D01*
X119485247Y-45745321D01*
X119327000Y-45731750D01*
X119140073Y-45754304D01*
X118965297Y-45808467D01*
X118810987Y-45888495D01*
X118685456Y-45988649D01*
X118597018Y-46103187D01*
X118553986Y-46226369D01*
X118551165Y-46267509D01*
X118551165Y-46267509D01*
G36*
X76501139Y-27000000D02*
X76500000Y-27000000D01*
X75700000Y-27000000D01*
X75698860Y-27000000D01*
X75698860Y-26100000D01*
X75700000Y-26100000D01*
X76500000Y-26100000D01*
X76501139Y-26100000D01*
X76501139Y-27000000D01*
X76501139Y-27000000D01*
G37*
G36*
X76501139Y-28100000D02*
X76500000Y-28100000D01*
X75700000Y-28100000D01*
X75698860Y-28100000D01*
X75698860Y-27200000D01*
X75700000Y-27200000D01*
X76500000Y-27200000D01*
X76501139Y-27200000D01*
X76501139Y-28100000D01*
X76501139Y-28100000D01*
G37*
G36*
X77431139Y-23240000D02*
X77430000Y-23240000D01*
X75030000Y-23240000D01*
X75028860Y-23240000D01*
X75028860Y-19940000D01*
X75030000Y-19940000D01*
X77430000Y-19940000D01*
X77431139Y-19940000D01*
X77431139Y-23240000D01*
X77431139Y-23240000D01*
G37*
G36*
X78051139Y-35000000D02*
X78050000Y-35000000D01*
X77250000Y-35000000D01*
X77248860Y-35000000D01*
X77248860Y-33800000D01*
X77250000Y-33800000D01*
X78050000Y-33800000D01*
X78051139Y-33800000D01*
X78051139Y-35000000D01*
X78051139Y-35000000D01*
G37*
G36*
X78370841Y-40555703D02*
X78368132Y-40749767D01*
X78327842Y-40927101D01*
X78256908Y-41086423D01*
X78155307Y-41230450D01*
X78024965Y-41354574D01*
X77880841Y-41446037D01*
X77707814Y-41513150D01*
X77545162Y-41541831D01*
X77359612Y-41537943D01*
X77192901Y-41501290D01*
X77027972Y-41429233D01*
X76883234Y-41328639D01*
X76762083Y-41203184D01*
X76663574Y-41050326D01*
X76601419Y-40893340D01*
X76567916Y-40710798D01*
X76570248Y-40543815D01*
X76608446Y-40364105D01*
X76676418Y-40205516D01*
X76777046Y-40058550D01*
X76904314Y-39933922D01*
X77048696Y-39839440D01*
X77219036Y-39770619D01*
X77383073Y-39739327D01*
X77568667Y-39740622D01*
X77734058Y-39774573D01*
X77901699Y-39845041D01*
X78046286Y-39942567D01*
X78170487Y-40067639D01*
X78270088Y-40217549D01*
X78335132Y-40375359D01*
X78370841Y-40555703D01*
X78370841Y-40555703D01*
G37*
G36*
X78370841Y-43095703D02*
X78368132Y-43289767D01*
X78327842Y-43467101D01*
X78256908Y-43626423D01*
X78155307Y-43770450D01*
X78024965Y-43894574D01*
X77880841Y-43986037D01*
X77707814Y-44053150D01*
X77545162Y-44081831D01*
X77359612Y-44077943D01*
X77192901Y-44041290D01*
X77027972Y-43969233D01*
X76883234Y-43868639D01*
X76762083Y-43743184D01*
X76663574Y-43590326D01*
X76601419Y-43433340D01*
X76567916Y-43250798D01*
X76570248Y-43083815D01*
X76608446Y-42904105D01*
X76676418Y-42745516D01*
X76777046Y-42598550D01*
X76904314Y-42473922D01*
X77048696Y-42379440D01*
X77219036Y-42310619D01*
X77383073Y-42279327D01*
X77568667Y-42280622D01*
X77734058Y-42314573D01*
X77901699Y-42385041D01*
X78046286Y-42482567D01*
X78170487Y-42607639D01*
X78270088Y-42757549D01*
X78335132Y-42915359D01*
X78370841Y-43095703D01*
X78370841Y-43095703D01*
G37*
G36*
X78370841Y-45635703D02*
X78368132Y-45829767D01*
X78327842Y-46007101D01*
X78256908Y-46166423D01*
X78155307Y-46310450D01*
X78024965Y-46434574D01*
X77880841Y-46526037D01*
X77707814Y-46593150D01*
X77545162Y-46621831D01*
X77359612Y-46617943D01*
X77192901Y-46581290D01*
X77027972Y-46509233D01*
X76883234Y-46408639D01*
X76762083Y-46283184D01*
X76663574Y-46130326D01*
X76601419Y-45973340D01*
X76567916Y-45790798D01*
X76570248Y-45623815D01*
X76608446Y-45444105D01*
X76676418Y-45285516D01*
X76777046Y-45138550D01*
X76904314Y-45013922D01*
X77048696Y-44919440D01*
X77219036Y-44850619D01*
X77383073Y-44819327D01*
X77568667Y-44820622D01*
X77734058Y-44854573D01*
X77901699Y-44925041D01*
X78046286Y-45022567D01*
X78170487Y-45147639D01*
X78270088Y-45297549D01*
X78335132Y-45455359D01*
X78370841Y-45635703D01*
X78370841Y-45635703D01*
G37*
G36*
X78370841Y-48175703D02*
X78368132Y-48369767D01*
X78327842Y-48547101D01*
X78256908Y-48706423D01*
X78155307Y-48850450D01*
X78024965Y-48974574D01*
X77880841Y-49066037D01*
X77707814Y-49133150D01*
X77545162Y-49161831D01*
X77359612Y-49157943D01*
X77192901Y-49121290D01*
X77027972Y-49049233D01*
X76883234Y-48948639D01*
X76762083Y-48823184D01*
X76663574Y-48670326D01*
X76601419Y-48513340D01*
X76567916Y-48330798D01*
X76570248Y-48163815D01*
X76608446Y-47984105D01*
X76676418Y-47825516D01*
X76777046Y-47678550D01*
X76904314Y-47553922D01*
X77048696Y-47459440D01*
X77219036Y-47390619D01*
X77383073Y-47359327D01*
X77568667Y-47360622D01*
X77734058Y-47394573D01*
X77901699Y-47465041D01*
X78046286Y-47562567D01*
X78170487Y-47687639D01*
X78270088Y-47837549D01*
X78335132Y-47995359D01*
X78370841Y-48175703D01*
X78370841Y-48175703D01*
G37*
G36*
X78370841Y-50715703D02*
X78368132Y-50909767D01*
X78327842Y-51087101D01*
X78256908Y-51246423D01*
X78155307Y-51390450D01*
X78024965Y-51514574D01*
X77880841Y-51606037D01*
X77707814Y-51673150D01*
X77545162Y-51701831D01*
X77359612Y-51697943D01*
X77192901Y-51661290D01*
X77027972Y-51589233D01*
X76883234Y-51488639D01*
X76762083Y-51363184D01*
X76663574Y-51210326D01*
X76601419Y-51053340D01*
X76567916Y-50870798D01*
X76570248Y-50703815D01*
X76608446Y-50524105D01*
X76676418Y-50365516D01*
X76777046Y-50218550D01*
X76904314Y-50093922D01*
X77048696Y-49999440D01*
X77219036Y-49930619D01*
X77383073Y-49899327D01*
X77568667Y-49900622D01*
X77734058Y-49934573D01*
X77901699Y-50005041D01*
X78046286Y-50102567D01*
X78170487Y-50227639D01*
X78270088Y-50377549D01*
X78335132Y-50535359D01*
X78370841Y-50715703D01*
X78370841Y-50715703D01*
G37*
G36*
X78370841Y-53255703D02*
X78368132Y-53449767D01*
X78327842Y-53627101D01*
X78256908Y-53786423D01*
X78155307Y-53930450D01*
X78024965Y-54054574D01*
X77880841Y-54146037D01*
X77707814Y-54213150D01*
X77545162Y-54241831D01*
X77359612Y-54237943D01*
X77192901Y-54201290D01*
X77027972Y-54129233D01*
X76883234Y-54028639D01*
X76762083Y-53903184D01*
X76663574Y-53750326D01*
X76601419Y-53593340D01*
X76567916Y-53410798D01*
X76570248Y-53243815D01*
X76608446Y-53064105D01*
X76676418Y-52905516D01*
X76777046Y-52758550D01*
X76904314Y-52633922D01*
X77048696Y-52539440D01*
X77219036Y-52470619D01*
X77383073Y-52439327D01*
X77568667Y-52440622D01*
X77734058Y-52474573D01*
X77901699Y-52545041D01*
X78046286Y-52642567D01*
X78170487Y-52767639D01*
X78270088Y-52917549D01*
X78335132Y-53075359D01*
X78370841Y-53255703D01*
X78370841Y-53255703D01*
G37*
G36*
X78370841Y-55795703D02*
X78368132Y-55989767D01*
X78327842Y-56167101D01*
X78256908Y-56326423D01*
X78155307Y-56470450D01*
X78024965Y-56594574D01*
X77880841Y-56686037D01*
X77707814Y-56753150D01*
X77545162Y-56781831D01*
X77359612Y-56777943D01*
X77192901Y-56741290D01*
X77027972Y-56669233D01*
X76883234Y-56568639D01*
X76762083Y-56443184D01*
X76663574Y-56290326D01*
X76601419Y-56133340D01*
X76567916Y-55950798D01*
X76570248Y-55783815D01*
X76608446Y-55604105D01*
X76676418Y-55445516D01*
X76777046Y-55298550D01*
X76904314Y-55173922D01*
X77048696Y-55079440D01*
X77219036Y-55010619D01*
X77383073Y-54979327D01*
X77568667Y-54980622D01*
X77734058Y-55014573D01*
X77901699Y-55085041D01*
X78046286Y-55182567D01*
X78170487Y-55307639D01*
X78270088Y-55457549D01*
X78335132Y-55615359D01*
X78370841Y-55795703D01*
X78370841Y-55795703D01*
G37*
G36*
X78370841Y-58335703D02*
X78368132Y-58529767D01*
X78327842Y-58707101D01*
X78256908Y-58866423D01*
X78155307Y-59010450D01*
X78024965Y-59134574D01*
X77880841Y-59226037D01*
X77707814Y-59293150D01*
X77545162Y-59321831D01*
X77359612Y-59317943D01*
X77192901Y-59281290D01*
X77027972Y-59209233D01*
X76883234Y-59108639D01*
X76762083Y-58983184D01*
X76663574Y-58830326D01*
X76601419Y-58673340D01*
X76567916Y-58490798D01*
X76570248Y-58323815D01*
X76608446Y-58144105D01*
X76676418Y-57985516D01*
X76777046Y-57838550D01*
X76904314Y-57713922D01*
X77048696Y-57619440D01*
X77219036Y-57550619D01*
X77383073Y-57519327D01*
X77568667Y-57520622D01*
X77734058Y-57554573D01*
X77901699Y-57625041D01*
X78046286Y-57722567D01*
X78170487Y-57847639D01*
X78270088Y-57997549D01*
X78335132Y-58155359D01*
X78370841Y-58335703D01*
X78370841Y-58335703D01*
G37*
G36*
X78751139Y-31500000D02*
X78750000Y-31500000D01*
X76650000Y-31500000D01*
X76648860Y-31500000D01*
X76648860Y-30638023D01*
X76648860Y-30611976D01*
X76648860Y-30538023D01*
X76648860Y-30511976D01*
X76648860Y-29688023D01*
X76648860Y-29661976D01*
X76648860Y-29588023D01*
X76648860Y-29561976D01*
X76648860Y-28700000D01*
X76650000Y-28700000D01*
X78750000Y-28700000D01*
X78751139Y-28700000D01*
X78751139Y-29561976D01*
X78751139Y-29588023D01*
X78751139Y-29661976D01*
X78751139Y-29688023D01*
X78751139Y-30511976D01*
X78751139Y-30538023D01*
X78751139Y-30611976D01*
X78751139Y-30638023D01*
X78751139Y-31500000D01*
X78751139Y-31500000D01*
G37*
G36*
X78767047Y-64246084D02*
X78767018Y-64250308D01*
X78765897Y-64260298D01*
X78765886Y-64261922D01*
X78740520Y-64488067D01*
X78740255Y-64488901D01*
X78740020Y-64490999D01*
X78672989Y-64702307D01*
X78671973Y-64704154D01*
X78671712Y-64704978D01*
X78562082Y-64904394D01*
X78561528Y-64905053D01*
X78559015Y-64909626D01*
X78420072Y-65075212D01*
X78416002Y-65078483D01*
X78415807Y-65078717D01*
X78238459Y-65221309D01*
X78238184Y-65221452D01*
X78235689Y-65223459D01*
X78039235Y-65326163D01*
X77817652Y-65391377D01*
X77591335Y-65411975D01*
X77367177Y-65388414D01*
X77144744Y-65319560D01*
X76951368Y-65215002D01*
X76948329Y-65212488D01*
X76947981Y-65212300D01*
X76772641Y-65067245D01*
X76772394Y-65066942D01*
X76769072Y-65064194D01*
X76631296Y-64895263D01*
X76629275Y-64891462D01*
X76628814Y-64890897D01*
X76521979Y-64689970D01*
X76521769Y-64689274D01*
X76521103Y-64688022D01*
X76456495Y-64474026D01*
X76456357Y-64472619D01*
X76456206Y-64472119D01*
X76434000Y-64245642D01*
X76434000Y-64244612D01*
X76432951Y-64233914D01*
X76432981Y-64229691D01*
X76434102Y-64219690D01*
X76434114Y-64218078D01*
X76459480Y-63991933D01*
X76459743Y-63991103D01*
X76459979Y-63989000D01*
X76527010Y-63777688D01*
X76528032Y-63775828D01*
X76528288Y-63775022D01*
X76637918Y-63575606D01*
X76638462Y-63574957D01*
X76640982Y-63570374D01*
X76640985Y-63570370D01*
X76779927Y-63404787D01*
X76784002Y-63401510D01*
X76784193Y-63401283D01*
X76961541Y-63258691D01*
X76961802Y-63258554D01*
X76964309Y-63256539D01*
X77160764Y-63153836D01*
X77382341Y-63088622D01*
X77608664Y-63068025D01*
X77832826Y-63091585D01*
X78055255Y-63160439D01*
X78248630Y-63264996D01*
X78251671Y-63267512D01*
X78252019Y-63267700D01*
X78427359Y-63412755D01*
X78427608Y-63413060D01*
X78430928Y-63415807D01*
X78568703Y-63584735D01*
X78570724Y-63588537D01*
X78571186Y-63589103D01*
X78678021Y-63790030D01*
X78678232Y-63790729D01*
X78678894Y-63791974D01*
X78743504Y-64005973D01*
X78743641Y-64007376D01*
X78743794Y-64007881D01*
X78766000Y-64234358D01*
X78766000Y-64235405D01*
X78767047Y-64246084D01*
X78767047Y-64246084D01*
G37*
G36*
X78767139Y-62866000D02*
X78766000Y-62866000D01*
X76434000Y-62866000D01*
X76432860Y-62866000D01*
X76432860Y-60534000D01*
X76434000Y-60534000D01*
X78766000Y-60534000D01*
X78767139Y-60534000D01*
X78767139Y-62866000D01*
X78767139Y-62866000D01*
G37*
G36*
X79551139Y-35000000D02*
X79550000Y-35000000D01*
X78750000Y-35000000D01*
X78748860Y-35000000D01*
X78748860Y-33800000D01*
X78750000Y-33800000D01*
X79550000Y-33800000D01*
X79551139Y-33800000D01*
X79551139Y-35000000D01*
X79551139Y-35000000D01*
G37*
G36*
X80526139Y-28300000D02*
X80525000Y-28300000D01*
X79475000Y-28300000D01*
X79473860Y-28300000D01*
X79473860Y-27200000D01*
X79475000Y-27200000D01*
X80525000Y-27200000D01*
X80526139Y-27200000D01*
X80526139Y-28300000D01*
X80526139Y-28300000D01*
G37*
G36*
X80601139Y-30750000D02*
X80600000Y-30750000D01*
X79400000Y-30750000D01*
X79398860Y-30750000D01*
X79398860Y-29950000D01*
X79400000Y-29950000D01*
X79425651Y-29945476D01*
X79448209Y-29932453D01*
X79464951Y-29912499D01*
X79473860Y-29888023D01*
X79473860Y-29861976D01*
X79473860Y-28700000D01*
X79475000Y-28700000D01*
X80525000Y-28700000D01*
X80526139Y-28700000D01*
X80526139Y-29861976D01*
X80526139Y-29888023D01*
X80535048Y-29912499D01*
X80551790Y-29932453D01*
X80574348Y-29945476D01*
X80600000Y-29950000D01*
X80601139Y-29950000D01*
X80601139Y-30750000D01*
X80601139Y-30750000D01*
G37*
G36*
X80601139Y-32250000D02*
X80600000Y-32250000D01*
X79400000Y-32250000D01*
X79398860Y-32250000D01*
X79398860Y-31450000D01*
X79400000Y-31450000D01*
X80600000Y-31450000D01*
X80601139Y-31450000D01*
X80601139Y-32250000D01*
X80601139Y-32250000D01*
G37*
G36*
X80910841Y-40555703D02*
X80908132Y-40749767D01*
X80867842Y-40927101D01*
X80796908Y-41086423D01*
X80695307Y-41230450D01*
X80564965Y-41354574D01*
X80420841Y-41446037D01*
X80247814Y-41513150D01*
X80085162Y-41541831D01*
X79899612Y-41537943D01*
X79732901Y-41501290D01*
X79567972Y-41429233D01*
X79423234Y-41328639D01*
X79302083Y-41203184D01*
X79203574Y-41050326D01*
X79141419Y-40893340D01*
X79107916Y-40710798D01*
X79110248Y-40543815D01*
X79148446Y-40364105D01*
X79216418Y-40205516D01*
X79317046Y-40058550D01*
X79444314Y-39933922D01*
X79588696Y-39839440D01*
X79759036Y-39770619D01*
X79923073Y-39739327D01*
X80108667Y-39740622D01*
X80274058Y-39774573D01*
X80441699Y-39845041D01*
X80586286Y-39942567D01*
X80710487Y-40067639D01*
X80810088Y-40217549D01*
X80875132Y-40375359D01*
X80910841Y-40555703D01*
X80910841Y-40555703D01*
G37*
G36*
X80910841Y-43095703D02*
X80908132Y-43289767D01*
X80867842Y-43467101D01*
X80796908Y-43626423D01*
X80695307Y-43770450D01*
X80564965Y-43894574D01*
X80420841Y-43986037D01*
X80247814Y-44053150D01*
X80085162Y-44081831D01*
X79899612Y-44077943D01*
X79732901Y-44041290D01*
X79567972Y-43969233D01*
X79423234Y-43868639D01*
X79302083Y-43743184D01*
X79203574Y-43590326D01*
X79141419Y-43433340D01*
X79107916Y-43250798D01*
X79110248Y-43083815D01*
X79148446Y-42904105D01*
X79216418Y-42745516D01*
X79317046Y-42598550D01*
X79444314Y-42473922D01*
X79588696Y-42379440D01*
X79759036Y-42310619D01*
X79923073Y-42279327D01*
X80108667Y-42280622D01*
X80274058Y-42314573D01*
X80441699Y-42385041D01*
X80586286Y-42482567D01*
X80710487Y-42607639D01*
X80810088Y-42757549D01*
X80875132Y-42915359D01*
X80910841Y-43095703D01*
X80910841Y-43095703D01*
G37*
G36*
X80910841Y-45635703D02*
X80908132Y-45829767D01*
X80867842Y-46007101D01*
X80796908Y-46166423D01*
X80695307Y-46310450D01*
X80564965Y-46434574D01*
X80420841Y-46526037D01*
X80247814Y-46593150D01*
X80085162Y-46621831D01*
X79899612Y-46617943D01*
X79732901Y-46581290D01*
X79567972Y-46509233D01*
X79423234Y-46408639D01*
X79302083Y-46283184D01*
X79203574Y-46130326D01*
X79141419Y-45973340D01*
X79107916Y-45790798D01*
X79110248Y-45623815D01*
X79148446Y-45444105D01*
X79216418Y-45285516D01*
X79317046Y-45138550D01*
X79444314Y-45013922D01*
X79588696Y-44919440D01*
X79759036Y-44850619D01*
X79923073Y-44819327D01*
X80108667Y-44820622D01*
X80274058Y-44854573D01*
X80441699Y-44925041D01*
X80586286Y-45022567D01*
X80710487Y-45147639D01*
X80810088Y-45297549D01*
X80875132Y-45455359D01*
X80910841Y-45635703D01*
X80910841Y-45635703D01*
G37*
G36*
X80910841Y-48175703D02*
X80908132Y-48369767D01*
X80867842Y-48547101D01*
X80796908Y-48706423D01*
X80695307Y-48850450D01*
X80564965Y-48974574D01*
X80420841Y-49066037D01*
X80247814Y-49133150D01*
X80085162Y-49161831D01*
X79899612Y-49157943D01*
X79732901Y-49121290D01*
X79567972Y-49049233D01*
X79423234Y-48948639D01*
X79302083Y-48823184D01*
X79203574Y-48670326D01*
X79141419Y-48513340D01*
X79107916Y-48330798D01*
X79110248Y-48163815D01*
X79148446Y-47984105D01*
X79216418Y-47825516D01*
X79317046Y-47678550D01*
X79444314Y-47553922D01*
X79588696Y-47459440D01*
X79759036Y-47390619D01*
X79923073Y-47359327D01*
X80108667Y-47360622D01*
X80274058Y-47394573D01*
X80441699Y-47465041D01*
X80586286Y-47562567D01*
X80710487Y-47687639D01*
X80810088Y-47837549D01*
X80875132Y-47995359D01*
X80910841Y-48175703D01*
X80910841Y-48175703D01*
G37*
G36*
X80910841Y-50715703D02*
X80908132Y-50909767D01*
X80867842Y-51087101D01*
X80796908Y-51246423D01*
X80695307Y-51390450D01*
X80564965Y-51514574D01*
X80420841Y-51606037D01*
X80247814Y-51673150D01*
X80085162Y-51701831D01*
X79899612Y-51697943D01*
X79732901Y-51661290D01*
X79567972Y-51589233D01*
X79423234Y-51488639D01*
X79302083Y-51363184D01*
X79203574Y-51210326D01*
X79141419Y-51053340D01*
X79107916Y-50870798D01*
X79110248Y-50703815D01*
X79148446Y-50524105D01*
X79216418Y-50365516D01*
X79317046Y-50218550D01*
X79444314Y-50093922D01*
X79588696Y-49999440D01*
X79759036Y-49930619D01*
X79923073Y-49899327D01*
X80108667Y-49900622D01*
X80274058Y-49934573D01*
X80441699Y-50005041D01*
X80586286Y-50102567D01*
X80710487Y-50227639D01*
X80810088Y-50377549D01*
X80875132Y-50535359D01*
X80910841Y-50715703D01*
X80910841Y-50715703D01*
G37*
G36*
X80910841Y-53255703D02*
X80908132Y-53449767D01*
X80867842Y-53627101D01*
X80796908Y-53786423D01*
X80695307Y-53930450D01*
X80564965Y-54054574D01*
X80420841Y-54146037D01*
X80247814Y-54213150D01*
X80085162Y-54241831D01*
X79899612Y-54237943D01*
X79732901Y-54201290D01*
X79567972Y-54129233D01*
X79423234Y-54028639D01*
X79302083Y-53903184D01*
X79203574Y-53750326D01*
X79141419Y-53593340D01*
X79107916Y-53410798D01*
X79110248Y-53243815D01*
X79148446Y-53064105D01*
X79216418Y-52905516D01*
X79317046Y-52758550D01*
X79444314Y-52633922D01*
X79588696Y-52539440D01*
X79759036Y-52470619D01*
X79923073Y-52439327D01*
X80108667Y-52440622D01*
X80274058Y-52474573D01*
X80441699Y-52545041D01*
X80586286Y-52642567D01*
X80710487Y-52767639D01*
X80810088Y-52917549D01*
X80875132Y-53075359D01*
X80910841Y-53255703D01*
X80910841Y-53255703D01*
G37*
G36*
X80910841Y-55795703D02*
X80908132Y-55989767D01*
X80867842Y-56167101D01*
X80796908Y-56326423D01*
X80695307Y-56470450D01*
X80564965Y-56594574D01*
X80420841Y-56686037D01*
X80247814Y-56753150D01*
X80085162Y-56781831D01*
X79899612Y-56777943D01*
X79732901Y-56741290D01*
X79567972Y-56669233D01*
X79423234Y-56568639D01*
X79302083Y-56443184D01*
X79203574Y-56290326D01*
X79141419Y-56133340D01*
X79107916Y-55950798D01*
X79110248Y-55783815D01*
X79148446Y-55604105D01*
X79216418Y-55445516D01*
X79317046Y-55298550D01*
X79444314Y-55173922D01*
X79588696Y-55079440D01*
X79759036Y-55010619D01*
X79923073Y-54979327D01*
X80108667Y-54980622D01*
X80274058Y-55014573D01*
X80441699Y-55085041D01*
X80586286Y-55182567D01*
X80710487Y-55307639D01*
X80810088Y-55457549D01*
X80875132Y-55615359D01*
X80910841Y-55795703D01*
X80910841Y-55795703D01*
G37*
G36*
X80910841Y-58335703D02*
X80908132Y-58529767D01*
X80867842Y-58707101D01*
X80796908Y-58866423D01*
X80695307Y-59010450D01*
X80564965Y-59134574D01*
X80420841Y-59226037D01*
X80247814Y-59293150D01*
X80085162Y-59321831D01*
X79899612Y-59317943D01*
X79732901Y-59281290D01*
X79567972Y-59209233D01*
X79423234Y-59108639D01*
X79302083Y-58983184D01*
X79203574Y-58830326D01*
X79141419Y-58673340D01*
X79107916Y-58490798D01*
X79110248Y-58323815D01*
X79148446Y-58144105D01*
X79216418Y-57985516D01*
X79317046Y-57838550D01*
X79444314Y-57713922D01*
X79588696Y-57619440D01*
X79759036Y-57550619D01*
X79923073Y-57519327D01*
X80108667Y-57520622D01*
X80274058Y-57554573D01*
X80441699Y-57625041D01*
X80586286Y-57722567D01*
X80710487Y-57847639D01*
X80810088Y-57997549D01*
X80875132Y-58155359D01*
X80910841Y-58335703D01*
X80910841Y-58335703D01*
G37*
G36*
X82181189Y-33551440D02*
X82180050Y-33551440D01*
X81079950Y-33551440D01*
X81078810Y-33551440D01*
X81078810Y-31950960D01*
X81079950Y-31950960D01*
X82180050Y-31950960D01*
X82181189Y-31950960D01*
X82181189Y-33551440D01*
X82181189Y-33551440D01*
G37*
G36*
X83102499Y-36400420D02*
X83101360Y-36400420D01*
X81201160Y-36400420D01*
X81200020Y-36400420D01*
X81200020Y-35201260D01*
X81201160Y-35201260D01*
X83101360Y-35201260D01*
X83102499Y-35201260D01*
X83102499Y-36400420D01*
X83102499Y-36400420D01*
G37*
G36*
X83102499Y-38198740D02*
X83101360Y-38198740D01*
X81201160Y-38198740D01*
X81200020Y-38198740D01*
X81200020Y-36999580D01*
X81201160Y-36999580D01*
X83101360Y-36999580D01*
X83102499Y-36999580D01*
X83102499Y-38198740D01*
X83102499Y-38198740D01*
G37*
G36*
X83450841Y-40555703D02*
X83448132Y-40749767D01*
X83407842Y-40927101D01*
X83336908Y-41086423D01*
X83235307Y-41230450D01*
X83104965Y-41354574D01*
X82960841Y-41446037D01*
X82787814Y-41513150D01*
X82625162Y-41541831D01*
X82439612Y-41537943D01*
X82272901Y-41501290D01*
X82107972Y-41429233D01*
X81963234Y-41328639D01*
X81842083Y-41203184D01*
X81743574Y-41050326D01*
X81681419Y-40893340D01*
X81647916Y-40710798D01*
X81650248Y-40543815D01*
X81688446Y-40364105D01*
X81756418Y-40205516D01*
X81857046Y-40058550D01*
X81984314Y-39933922D01*
X82128696Y-39839440D01*
X82299036Y-39770619D01*
X82463073Y-39739327D01*
X82648667Y-39740622D01*
X82814058Y-39774573D01*
X82981699Y-39845041D01*
X83126286Y-39942567D01*
X83250487Y-40067639D01*
X83350088Y-40217549D01*
X83415132Y-40375359D01*
X83450841Y-40555703D01*
X83450841Y-40555703D01*
G37*
G36*
X83450841Y-43095703D02*
X83448132Y-43289767D01*
X83407842Y-43467101D01*
X83336908Y-43626423D01*
X83235307Y-43770450D01*
X83104965Y-43894574D01*
X82960841Y-43986037D01*
X82787814Y-44053150D01*
X82625162Y-44081831D01*
X82439612Y-44077943D01*
X82272901Y-44041290D01*
X82107972Y-43969233D01*
X81963234Y-43868639D01*
X81842083Y-43743184D01*
X81743574Y-43590326D01*
X81681419Y-43433340D01*
X81647916Y-43250798D01*
X81650248Y-43083815D01*
X81688446Y-42904105D01*
X81756418Y-42745516D01*
X81857046Y-42598550D01*
X81984314Y-42473922D01*
X82128696Y-42379440D01*
X82299036Y-42310619D01*
X82463073Y-42279327D01*
X82648667Y-42280622D01*
X82814058Y-42314573D01*
X82981699Y-42385041D01*
X83126286Y-42482567D01*
X83250487Y-42607639D01*
X83350088Y-42757549D01*
X83415132Y-42915359D01*
X83450841Y-43095703D01*
X83450841Y-43095703D01*
G37*
G36*
X83450841Y-45635703D02*
X83448132Y-45829767D01*
X83407842Y-46007101D01*
X83336908Y-46166423D01*
X83235307Y-46310450D01*
X83104965Y-46434574D01*
X82960841Y-46526037D01*
X82787814Y-46593150D01*
X82625162Y-46621831D01*
X82439612Y-46617943D01*
X82272901Y-46581290D01*
X82107972Y-46509233D01*
X81963234Y-46408639D01*
X81842083Y-46283184D01*
X81743574Y-46130326D01*
X81681419Y-45973340D01*
X81647916Y-45790798D01*
X81650248Y-45623815D01*
X81688446Y-45444105D01*
X81756418Y-45285516D01*
X81857046Y-45138550D01*
X81984314Y-45013922D01*
X82128696Y-44919440D01*
X82299036Y-44850619D01*
X82463073Y-44819327D01*
X82648667Y-44820622D01*
X82814058Y-44854573D01*
X82981699Y-44925041D01*
X83126286Y-45022567D01*
X83250487Y-45147639D01*
X83350088Y-45297549D01*
X83415132Y-45455359D01*
X83450841Y-45635703D01*
X83450841Y-45635703D01*
G37*
G36*
X83450841Y-48175703D02*
X83448132Y-48369767D01*
X83407842Y-48547101D01*
X83336908Y-48706423D01*
X83235307Y-48850450D01*
X83104965Y-48974574D01*
X82960841Y-49066037D01*
X82787814Y-49133150D01*
X82625162Y-49161831D01*
X82439612Y-49157943D01*
X82272901Y-49121290D01*
X82107972Y-49049233D01*
X81963234Y-48948639D01*
X81842083Y-48823184D01*
X81743574Y-48670326D01*
X81681419Y-48513340D01*
X81647916Y-48330798D01*
X81650248Y-48163815D01*
X81688446Y-47984105D01*
X81756418Y-47825516D01*
X81857046Y-47678550D01*
X81984314Y-47553922D01*
X82128696Y-47459440D01*
X82299036Y-47390619D01*
X82463073Y-47359327D01*
X82648667Y-47360622D01*
X82814058Y-47394573D01*
X82981699Y-47465041D01*
X83126286Y-47562567D01*
X83250487Y-47687639D01*
X83350088Y-47837549D01*
X83415132Y-47995359D01*
X83450841Y-48175703D01*
X83450841Y-48175703D01*
G37*
G36*
X83450841Y-50715703D02*
X83448132Y-50909767D01*
X83407842Y-51087101D01*
X83336908Y-51246423D01*
X83235307Y-51390450D01*
X83104965Y-51514574D01*
X82960841Y-51606037D01*
X82787814Y-51673150D01*
X82625162Y-51701831D01*
X82439612Y-51697943D01*
X82272901Y-51661290D01*
X82107972Y-51589233D01*
X81963234Y-51488639D01*
X81842083Y-51363184D01*
X81743574Y-51210326D01*
X81681419Y-51053340D01*
X81647916Y-50870798D01*
X81650248Y-50703815D01*
X81688446Y-50524105D01*
X81756418Y-50365516D01*
X81857046Y-50218550D01*
X81984314Y-50093922D01*
X82128696Y-49999440D01*
X82299036Y-49930619D01*
X82463073Y-49899327D01*
X82648667Y-49900622D01*
X82814058Y-49934573D01*
X82981699Y-50005041D01*
X83126286Y-50102567D01*
X83250487Y-50227639D01*
X83350088Y-50377549D01*
X83415132Y-50535359D01*
X83450841Y-50715703D01*
X83450841Y-50715703D01*
G37*
G36*
X83450841Y-53255703D02*
X83448132Y-53449767D01*
X83407842Y-53627101D01*
X83336908Y-53786423D01*
X83235307Y-53930450D01*
X83104965Y-54054574D01*
X82960841Y-54146037D01*
X82787814Y-54213150D01*
X82625162Y-54241831D01*
X82439612Y-54237943D01*
X82272901Y-54201290D01*
X82107972Y-54129233D01*
X81963234Y-54028639D01*
X81842083Y-53903184D01*
X81743574Y-53750326D01*
X81681419Y-53593340D01*
X81647916Y-53410798D01*
X81650248Y-53243815D01*
X81688446Y-53064105D01*
X81756418Y-52905516D01*
X81857046Y-52758550D01*
X81984314Y-52633922D01*
X82128696Y-52539440D01*
X82299036Y-52470619D01*
X82463073Y-52439327D01*
X82648667Y-52440622D01*
X82814058Y-52474573D01*
X82981699Y-52545041D01*
X83126286Y-52642567D01*
X83250487Y-52767639D01*
X83350088Y-52917549D01*
X83415132Y-53075359D01*
X83450841Y-53255703D01*
X83450841Y-53255703D01*
G37*
G36*
X83450841Y-55795703D02*
X83448132Y-55989767D01*
X83407842Y-56167101D01*
X83336908Y-56326423D01*
X83235307Y-56470450D01*
X83104965Y-56594574D01*
X82960841Y-56686037D01*
X82787814Y-56753150D01*
X82625162Y-56781831D01*
X82439612Y-56777943D01*
X82272901Y-56741290D01*
X82107972Y-56669233D01*
X81963234Y-56568639D01*
X81842083Y-56443184D01*
X81743574Y-56290326D01*
X81681419Y-56133340D01*
X81647916Y-55950798D01*
X81650248Y-55783815D01*
X81688446Y-55604105D01*
X81756418Y-55445516D01*
X81857046Y-55298550D01*
X81984314Y-55173922D01*
X82128696Y-55079440D01*
X82299036Y-55010619D01*
X82463073Y-54979327D01*
X82648667Y-54980622D01*
X82814058Y-55014573D01*
X82981699Y-55085041D01*
X83126286Y-55182567D01*
X83250487Y-55307639D01*
X83350088Y-55457549D01*
X83415132Y-55615359D01*
X83450841Y-55795703D01*
X83450841Y-55795703D01*
G37*
G36*
X83450841Y-58335703D02*
X83448132Y-58529767D01*
X83407842Y-58707101D01*
X83336908Y-58866423D01*
X83235307Y-59010450D01*
X83104965Y-59134574D01*
X82960841Y-59226037D01*
X82787814Y-59293150D01*
X82625162Y-59321831D01*
X82439612Y-59317943D01*
X82272901Y-59281290D01*
X82107972Y-59209233D01*
X81963234Y-59108639D01*
X81842083Y-58983184D01*
X81743574Y-58830326D01*
X81681419Y-58673340D01*
X81647916Y-58490798D01*
X81650248Y-58323815D01*
X81688446Y-58144105D01*
X81756418Y-57985516D01*
X81857046Y-57838550D01*
X81984314Y-57713922D01*
X82128696Y-57619440D01*
X82299036Y-57550619D01*
X82463073Y-57519327D01*
X82648667Y-57520622D01*
X82814058Y-57554573D01*
X82981699Y-57625041D01*
X83126286Y-57722567D01*
X83250487Y-57847639D01*
X83350088Y-57997549D01*
X83415132Y-58155359D01*
X83450841Y-58335703D01*
X83450841Y-58335703D01*
G37*
G36*
X84401759Y-62850840D02*
X84400620Y-62850840D01*
X81799380Y-62850840D01*
X81798240Y-62850840D01*
X81798240Y-60051480D01*
X81799380Y-60051480D01*
X84400620Y-60051480D01*
X84401759Y-60051480D01*
X84401759Y-62850840D01*
X84401759Y-62850840D01*
G37*
G36*
X84401759Y-67148520D02*
X84400620Y-67148520D01*
X81799380Y-67148520D01*
X81798240Y-67148520D01*
X81798240Y-64349160D01*
X81799380Y-64349160D01*
X84400620Y-64349160D01*
X84401759Y-64349160D01*
X84401759Y-67148520D01*
X84401759Y-67148520D01*
G37*
G36*
X84721189Y-27049040D02*
X84720050Y-27049040D01*
X83619950Y-27049040D01*
X83618810Y-27049040D01*
X83618810Y-25528023D01*
X83618810Y-25501976D01*
X83609901Y-25477499D01*
X83593159Y-25457546D01*
X83570601Y-25444523D01*
X83544949Y-25440000D01*
X83230000Y-25440000D01*
X83154999Y-25440000D01*
X83080000Y-25440000D01*
X82255049Y-25440000D01*
X82229398Y-25444523D01*
X82206840Y-25457546D01*
X82190098Y-25477499D01*
X82181189Y-25501976D01*
X82181189Y-25528023D01*
X82181189Y-27049040D01*
X82180050Y-27049040D01*
X81079950Y-27049040D01*
X81078810Y-27049040D01*
X81078810Y-25528023D01*
X81078810Y-25501976D01*
X81069901Y-25477499D01*
X81053159Y-25457546D01*
X81030601Y-25444523D01*
X81004949Y-25440000D01*
X80730000Y-25440000D01*
X80654999Y-25440000D01*
X80580000Y-25440000D01*
X79480000Y-25440000D01*
X79404999Y-25440000D01*
X79330000Y-25440000D01*
X78230000Y-25440000D01*
X78228860Y-25440000D01*
X78228860Y-23540000D01*
X78230000Y-23540000D01*
X79330000Y-23540000D01*
X79405000Y-23540000D01*
X79480000Y-23540000D01*
X80580000Y-23540000D01*
X80655000Y-23540000D01*
X80730000Y-23540000D01*
X81830000Y-23540000D01*
X81905000Y-23540000D01*
X81980000Y-23540000D01*
X83080000Y-23540000D01*
X83155000Y-23540000D01*
X83230000Y-23540000D01*
X84330000Y-23540000D01*
X84331139Y-23540000D01*
X84331139Y-25360536D01*
X84331139Y-25386583D01*
X84340048Y-25411059D01*
X84356790Y-25431013D01*
X84379348Y-25444036D01*
X84405000Y-25448560D01*
X84720050Y-25448560D01*
X84721189Y-25448560D01*
X84721189Y-27049040D01*
X84721189Y-27049040D01*
G37*
G36*
X84721189Y-33551440D02*
X84720050Y-33551440D01*
X83619950Y-33551440D01*
X83618810Y-33551440D01*
X83618810Y-31950960D01*
X83619950Y-31950960D01*
X84720050Y-31950960D01*
X84721189Y-31950960D01*
X84721189Y-33551440D01*
X84721189Y-33551440D01*
G37*
G36*
X85601139Y-40100000D02*
X85600000Y-40100000D01*
X84700000Y-40100000D01*
X84698860Y-40100000D01*
X84698860Y-39300000D01*
X84700000Y-39300000D01*
X85600000Y-39300000D01*
X85601139Y-39300000D01*
X85601139Y-40100000D01*
X85601139Y-40100000D01*
G37*
G36*
X85601139Y-48550000D02*
X85600000Y-48550000D01*
X84400000Y-48550000D01*
X84398860Y-48550000D01*
X84398860Y-47750000D01*
X84400000Y-47750000D01*
X85600000Y-47750000D01*
X85601139Y-47750000D01*
X85601139Y-48550000D01*
X85601139Y-48550000D01*
G37*
G36*
X85601139Y-50050000D02*
X85600000Y-50050000D01*
X84400000Y-50050000D01*
X84398860Y-50050000D01*
X84398860Y-49250000D01*
X84400000Y-49250000D01*
X85600000Y-49250000D01*
X85601139Y-49250000D01*
X85601139Y-50050000D01*
X85601139Y-50050000D01*
G37*
G36*
X85799979Y-36400420D02*
X85798840Y-36400420D01*
X83898640Y-36400420D01*
X83897500Y-36400420D01*
X83897500Y-35201260D01*
X83898640Y-35201260D01*
X85798840Y-35201260D01*
X85799979Y-35201260D01*
X85799979Y-36400420D01*
X85799979Y-36400420D01*
G37*
G36*
X85799979Y-38198740D02*
X85798840Y-38198740D01*
X83898640Y-38198740D01*
X83897500Y-38198740D01*
X83897500Y-36999580D01*
X83898640Y-36999580D01*
X85798840Y-36999580D01*
X85799979Y-36999580D01*
X85799979Y-38198740D01*
X85799979Y-38198740D01*
G37*
G36*
X86701139Y-40100000D02*
X86700000Y-40100000D01*
X85800000Y-40100000D01*
X85798860Y-40100000D01*
X85798860Y-39300000D01*
X85800000Y-39300000D01*
X86700000Y-39300000D01*
X86701139Y-39300000D01*
X86701139Y-40100000D01*
X86701139Y-40100000D01*
G37*
G36*
X86701139Y-69700000D02*
X86700000Y-69700000D01*
X84500000Y-69700000D01*
X84498860Y-69700000D01*
X84498860Y-67500000D01*
X84500000Y-67500000D01*
X86700000Y-67500000D01*
X86701139Y-67500000D01*
X86701139Y-69700000D01*
X86701139Y-69700000D01*
G37*
G36*
X86868739Y-58367600D02*
X86867600Y-58367600D01*
X84332400Y-58367600D01*
X84331260Y-58367600D01*
X84331260Y-55832400D01*
X84332400Y-55832400D01*
X86867600Y-55832400D01*
X86868739Y-55832400D01*
X86868739Y-58367600D01*
X86868739Y-58367600D01*
G37*
G36*
X87401139Y-48550000D02*
X87400000Y-48550000D01*
X86200000Y-48550000D01*
X86198860Y-48550000D01*
X86198860Y-47750000D01*
X86200000Y-47750000D01*
X87400000Y-47750000D01*
X87401139Y-47750000D01*
X87401139Y-48550000D01*
X87401139Y-48550000D01*
G37*
G36*
X87401139Y-50050000D02*
X87400000Y-50050000D01*
X86200000Y-50050000D01*
X86198860Y-50050000D01*
X86198860Y-49250000D01*
X86200000Y-49250000D01*
X87400000Y-49250000D01*
X87401139Y-49250000D01*
X87401139Y-50050000D01*
X87401139Y-50050000D01*
G37*
G36*
X87451139Y-60300000D02*
X87450000Y-60300000D01*
X86650000Y-60300000D01*
X86648860Y-60300000D01*
X86648860Y-59100000D01*
X86650000Y-59100000D01*
X87450000Y-59100000D01*
X87451139Y-59100000D01*
X87451139Y-60300000D01*
X87451139Y-60300000D01*
G37*
G36*
X87531139Y-23240000D02*
X87530000Y-23240000D01*
X85130000Y-23240000D01*
X85128860Y-23240000D01*
X85128860Y-19940000D01*
X85130000Y-19940000D01*
X87530000Y-19940000D01*
X87531139Y-19940000D01*
X87531139Y-23240000D01*
X87531139Y-23240000D01*
G37*
G36*
X87801139Y-61500000D02*
X87800000Y-61500000D01*
X86900000Y-61500000D01*
X86898860Y-61500000D01*
X86898860Y-60700000D01*
X86900000Y-60700000D01*
X87800000Y-60700000D01*
X87801139Y-60700000D01*
X87801139Y-61500000D01*
X87801139Y-61500000D01*
G37*
G36*
X88051139Y-66850000D02*
X88050000Y-66850000D01*
X86750000Y-66850000D01*
X86748860Y-66850000D01*
X86748860Y-64950000D01*
X86750000Y-64950000D01*
X88050000Y-64950000D01*
X88051139Y-64950000D01*
X88051139Y-66850000D01*
X88051139Y-66850000D01*
G37*
G36*
X88551139Y-40575000D02*
X88550000Y-40575000D01*
X87150000Y-40575000D01*
X87148860Y-40575000D01*
X87148860Y-40013023D01*
X87148860Y-39986976D01*
X87148860Y-39813023D01*
X87148860Y-39786976D01*
X87148860Y-39363023D01*
X87148860Y-39336976D01*
X87148860Y-39163023D01*
X87148860Y-39136976D01*
X87148860Y-38713023D01*
X87148860Y-38686976D01*
X87148860Y-38513023D01*
X87148860Y-38486976D01*
X87148860Y-38063023D01*
X87148860Y-38036976D01*
X87148860Y-37863023D01*
X87148860Y-37836976D01*
X87148860Y-37413023D01*
X87148860Y-37386976D01*
X87148860Y-37213023D01*
X87148860Y-37186976D01*
X87148860Y-36763023D01*
X87148860Y-36736976D01*
X87148860Y-36563023D01*
X87148860Y-36536976D01*
X87148860Y-36113023D01*
X87148860Y-36086976D01*
X87148860Y-35913023D01*
X87148860Y-35886976D01*
X87148860Y-35463023D01*
X87148860Y-35436976D01*
X87148860Y-35263023D01*
X87148860Y-35236976D01*
X87148860Y-34813023D01*
X87148860Y-34786976D01*
X87148860Y-34613023D01*
X87148860Y-34586976D01*
X87148860Y-34163023D01*
X87148860Y-34136976D01*
X87148860Y-33963023D01*
X87148860Y-33936976D01*
X87148860Y-33513023D01*
X87148860Y-33486976D01*
X87148860Y-33313023D01*
X87148860Y-33286976D01*
X87148860Y-32863023D01*
X87148860Y-32836976D01*
X87148860Y-32663023D01*
X87148860Y-32636976D01*
X87148860Y-32213023D01*
X87148860Y-32186976D01*
X87148860Y-32013023D01*
X87148860Y-31986976D01*
X87148860Y-31425000D01*
X87150000Y-31425000D01*
X88550000Y-31425000D01*
X88551139Y-31425000D01*
X88551139Y-31986976D01*
X88551139Y-32013023D01*
X88551139Y-32186976D01*
X88551139Y-32213023D01*
X88551139Y-32636976D01*
X88551139Y-32663023D01*
X88551139Y-32836976D01*
X88551139Y-32863023D01*
X88551139Y-33286976D01*
X88551139Y-33313023D01*
X88551139Y-33486976D01*
X88551139Y-33513023D01*
X88551139Y-33936976D01*
X88551139Y-33963023D01*
X88551139Y-34136976D01*
X88551139Y-34163023D01*
X88551139Y-34586976D01*
X88551139Y-34613023D01*
X88551139Y-34786976D01*
X88551139Y-34813023D01*
X88551139Y-35236976D01*
X88551139Y-35263023D01*
X88551139Y-35436976D01*
X88551139Y-35463023D01*
X88551139Y-35886976D01*
X88551139Y-35913023D01*
X88551139Y-36086976D01*
X88551139Y-36113023D01*
X88551139Y-36536976D01*
X88551139Y-36563023D01*
X88551139Y-36736976D01*
X88551139Y-36763023D01*
X88551139Y-37186976D01*
X88551139Y-37213023D01*
X88551139Y-37386976D01*
X88551139Y-37413023D01*
X88551139Y-37836976D01*
X88551139Y-37863023D01*
X88551139Y-38036976D01*
X88551139Y-38063023D01*
X88551139Y-38486976D01*
X88551139Y-38513023D01*
X88551139Y-38686976D01*
X88551139Y-38713023D01*
X88551139Y-39136976D01*
X88551139Y-39163023D01*
X88551139Y-39336976D01*
X88551139Y-39363023D01*
X88551139Y-39786976D01*
X88551139Y-39813023D01*
X88551139Y-39986976D01*
X88551139Y-40013023D01*
X88551139Y-40575000D01*
X88551139Y-40575000D01*
G37*
G36*
X88901139Y-61500000D02*
X88900000Y-61500000D01*
X88000000Y-61500000D01*
X87998860Y-61500000D01*
X87998860Y-60700000D01*
X88000000Y-60700000D01*
X88900000Y-60700000D01*
X88901139Y-60700000D01*
X88901139Y-61500000D01*
X88901139Y-61500000D01*
G37*
G36*
X88951139Y-60300000D02*
X88950000Y-60300000D01*
X88150000Y-60300000D01*
X88148860Y-60300000D01*
X88148860Y-59100000D01*
X88150000Y-59100000D01*
X88950000Y-59100000D01*
X88951139Y-59100000D01*
X88951139Y-60300000D01*
X88951139Y-60300000D01*
G37*
G36*
X89501139Y-64625000D02*
X89500000Y-64625000D01*
X88400000Y-64625000D01*
X88398860Y-64625000D01*
X88398860Y-63575000D01*
X88400000Y-63575000D01*
X89500000Y-63575000D01*
X89501139Y-63575000D01*
X89501139Y-64625000D01*
X89501139Y-64625000D01*
G37*
G36*
X89846139Y-23725000D02*
X89845000Y-23725000D01*
X88945000Y-23725000D01*
X88943860Y-23725000D01*
X88943860Y-21875000D01*
X88945000Y-21875000D01*
X89845000Y-21875000D01*
X89846139Y-21875000D01*
X89846139Y-23725000D01*
X89846139Y-23725000D01*
G37*
G36*
X89846139Y-29125000D02*
X89845000Y-29125000D01*
X88945000Y-29125000D01*
X88943860Y-29125000D01*
X88943860Y-27275000D01*
X88945000Y-27275000D01*
X89845000Y-27275000D01*
X89846139Y-27275000D01*
X89846139Y-29125000D01*
X89846139Y-29125000D01*
G37*
G36*
X90251139Y-58700000D02*
X90250000Y-58700000D01*
X89450000Y-58700000D01*
X89448860Y-58700000D01*
X89448860Y-57500000D01*
X89450000Y-57500000D01*
X90250000Y-57500000D01*
X90251139Y-57500000D01*
X90251139Y-58700000D01*
X90251139Y-58700000D01*
G37*
G36*
X90401139Y-30400000D02*
X90400000Y-30400000D01*
X89500000Y-30400000D01*
X89498860Y-30400000D01*
X89498860Y-29600000D01*
X89500000Y-29600000D01*
X90400000Y-29600000D01*
X90401139Y-29600000D01*
X90401139Y-30400000D01*
X90401139Y-30400000D01*
G37*
G36*
X91001139Y-64625000D02*
X91000000Y-64625000D01*
X89900000Y-64625000D01*
X89898860Y-64625000D01*
X89898860Y-63575000D01*
X89900000Y-63575000D01*
X91000000Y-63575000D01*
X91001139Y-63575000D01*
X91001139Y-64625000D01*
X91001139Y-64625000D01*
G37*
G36*
X91051139Y-66850000D02*
X91050000Y-66850000D01*
X89750000Y-66850000D01*
X89748860Y-66850000D01*
X89748860Y-64950000D01*
X89750000Y-64950000D01*
X91050000Y-64950000D01*
X91051139Y-64950000D01*
X91051139Y-66850000D01*
X91051139Y-66850000D01*
G37*
G36*
X91101139Y-21600000D02*
X91100000Y-21600000D01*
X90200000Y-21600000D01*
X90198860Y-21600000D01*
X90198860Y-20800000D01*
X90200000Y-20800000D01*
X91100000Y-20800000D01*
X91101139Y-20800000D01*
X91101139Y-21600000D01*
X91101139Y-21600000D01*
G37*
G36*
X91116139Y-23725000D02*
X91115000Y-23725000D01*
X90215000Y-23725000D01*
X90213860Y-23725000D01*
X90213860Y-21875000D01*
X90215000Y-21875000D01*
X91115000Y-21875000D01*
X91116139Y-21875000D01*
X91116139Y-23725000D01*
X91116139Y-23725000D01*
G37*
G36*
X91116139Y-29125000D02*
X91115000Y-29125000D01*
X90215000Y-29125000D01*
X90213860Y-29125000D01*
X90213860Y-27275000D01*
X90215000Y-27275000D01*
X91115000Y-27275000D01*
X91116139Y-27275000D01*
X91116139Y-29125000D01*
X91116139Y-29125000D01*
G37*
G36*
X91501139Y-30400000D02*
X91500000Y-30400000D01*
X90600000Y-30400000D01*
X90598860Y-30400000D01*
X90598860Y-29600000D01*
X90600000Y-29600000D01*
X91500000Y-29600000D01*
X91501139Y-29600000D01*
X91501139Y-30400000D01*
X91501139Y-30400000D01*
G37*
G36*
X91751139Y-58700000D02*
X91750000Y-58700000D01*
X90950000Y-58700000D01*
X90948860Y-58700000D01*
X90948860Y-57500000D01*
X90950000Y-57500000D01*
X91750000Y-57500000D01*
X91751139Y-57500000D01*
X91751139Y-58700000D01*
X91751139Y-58700000D01*
G37*
G36*
X92113139Y-39317000D02*
X92112000Y-39317000D01*
X91424999Y-39317000D01*
X91350000Y-39317000D01*
X90812000Y-39317000D01*
X90736999Y-39317000D01*
X90662999Y-39317000D01*
X90588000Y-39317000D01*
X90050000Y-39317000D01*
X89974999Y-39317000D01*
X89288000Y-39317000D01*
X89286860Y-39317000D01*
X89286860Y-38643023D01*
X89286860Y-38616976D01*
X89286860Y-37955023D01*
X89286860Y-37928976D01*
X89286860Y-37881023D01*
X89286860Y-37854976D01*
X89286860Y-37193023D01*
X89286860Y-37166976D01*
X89286860Y-37119023D01*
X89286860Y-37092976D01*
X89286860Y-36431023D01*
X89286860Y-36404976D01*
X89286860Y-36357023D01*
X89286860Y-36330976D01*
X89286860Y-35669023D01*
X89286860Y-35642976D01*
X89286860Y-35595023D01*
X89286860Y-35568976D01*
X89286860Y-34907023D01*
X89286860Y-34880976D01*
X89286860Y-34833023D01*
X89286860Y-34806976D01*
X89286860Y-34145023D01*
X89286860Y-34118976D01*
X89286860Y-34071023D01*
X89286860Y-34044976D01*
X89286860Y-33383023D01*
X89286860Y-33356976D01*
X89286860Y-32683000D01*
X89288000Y-32683000D01*
X89975000Y-32683000D01*
X90050000Y-32683000D01*
X90588000Y-32683000D01*
X90663000Y-32683000D01*
X90737000Y-32683000D01*
X90812000Y-32683000D01*
X91350000Y-32683000D01*
X91425000Y-32683000D01*
X92112000Y-32683000D01*
X92113139Y-32683000D01*
X92113139Y-33356976D01*
X92113139Y-33383023D01*
X92113139Y-34044976D01*
X92113139Y-34071023D01*
X92113139Y-34118976D01*
X92113139Y-34145023D01*
X92113139Y-34806976D01*
X92113139Y-34833023D01*
X92113139Y-34880976D01*
X92113139Y-34907023D01*
X92113139Y-35568976D01*
X92113139Y-35595023D01*
X92113139Y-35642976D01*
X92113139Y-35669023D01*
X92113139Y-36330976D01*
X92113139Y-36357023D01*
X92113139Y-36404976D01*
X92113139Y-36431023D01*
X92113139Y-37092976D01*
X92113139Y-37119023D01*
X92113139Y-37166976D01*
X92113139Y-37193023D01*
X92113139Y-37854976D01*
X92113139Y-37881023D01*
X92113139Y-37928976D01*
X92113139Y-37955023D01*
X92113139Y-38616976D01*
X92113139Y-38643023D01*
X92113139Y-39317000D01*
X92113139Y-39317000D01*
G37*
G36*
X92201139Y-21600000D02*
X92200000Y-21600000D01*
X91300000Y-21600000D01*
X91298860Y-21600000D01*
X91298860Y-20800000D01*
X91300000Y-20800000D01*
X92200000Y-20800000D01*
X92201139Y-20800000D01*
X92201139Y-21600000D01*
X92201139Y-21600000D01*
G37*
G36*
X92386139Y-23725000D02*
X92385000Y-23725000D01*
X91485000Y-23725000D01*
X91483860Y-23725000D01*
X91483860Y-21875000D01*
X91485000Y-21875000D01*
X92385000Y-21875000D01*
X92386139Y-21875000D01*
X92386139Y-23725000D01*
X92386139Y-23725000D01*
G37*
G36*
X92386139Y-29125000D02*
X92385000Y-29125000D01*
X91485000Y-29125000D01*
X91483860Y-29125000D01*
X91483860Y-27275000D01*
X91485000Y-27275000D01*
X92385000Y-27275000D01*
X92386139Y-27275000D01*
X92386139Y-29125000D01*
X92386139Y-29125000D01*
G37*
G36*
X92401139Y-64500000D02*
X92400000Y-64500000D01*
X91500000Y-64500000D01*
X91498860Y-64500000D01*
X91498860Y-63700000D01*
X91500000Y-63700000D01*
X92400000Y-63700000D01*
X92401139Y-63700000D01*
X92401139Y-64500000D01*
X92401139Y-64500000D01*
G37*
G36*
X92601139Y-66025000D02*
X92600000Y-66025000D01*
X91500000Y-66025000D01*
X91498860Y-66025000D01*
X91498860Y-64975000D01*
X91500000Y-64975000D01*
X92600000Y-64975000D01*
X92601139Y-64975000D01*
X92601139Y-66025000D01*
X92601139Y-66025000D01*
G37*
G36*
X93302762Y-61851681D02*
X93296383Y-61912380D01*
X93280533Y-61963579D01*
X93279116Y-61966199D01*
X93279099Y-61966255D01*
X93251251Y-62017758D01*
X93251217Y-62017798D01*
X93248840Y-62022196D01*
X93218206Y-62059225D01*
X93214333Y-62062383D01*
X93213930Y-62062871D01*
X93168557Y-62099876D01*
X93167998Y-62100172D01*
X93165838Y-62101935D01*
X93120152Y-62126228D01*
X93117480Y-62127034D01*
X93116861Y-62127364D01*
X93060810Y-62144287D01*
X93060107Y-62144355D01*
X93059938Y-62144407D01*
X93002902Y-62150000D01*
X93002540Y-62150000D01*
X92547460Y-62150000D01*
X92547096Y-62150000D01*
X92541860Y-62149963D01*
X92486755Y-62143782D01*
X92486019Y-62143548D01*
X92485086Y-62143444D01*
X92449288Y-62132088D01*
X92424999Y-62127806D01*
X92399348Y-62132329D01*
X92376790Y-62145352D01*
X92361354Y-62163748D01*
X92354776Y-62167546D01*
X92338034Y-62187499D01*
X92329125Y-62211976D01*
X92329125Y-62238023D01*
X92343997Y-62287282D01*
X92344134Y-62288685D01*
X92344287Y-62289190D01*
X92350000Y-62347460D01*
X92350000Y-62348503D01*
X92351139Y-62360120D01*
X92351139Y-62789879D01*
X92351102Y-62795115D01*
X92349982Y-62805097D01*
X92349971Y-62806729D01*
X92343444Y-62864914D01*
X92343179Y-62865748D01*
X92342944Y-62867846D01*
X92327017Y-62918052D01*
X92326003Y-62919895D01*
X92325741Y-62920723D01*
X92297534Y-62972030D01*
X92296980Y-62972689D01*
X92294467Y-62977262D01*
X92264164Y-63013376D01*
X92260097Y-63016645D01*
X92259899Y-63016882D01*
X92214269Y-63053569D01*
X92213994Y-63053712D01*
X92211499Y-63055719D01*
X92164825Y-63080120D01*
X92105380Y-63097615D01*
X92047381Y-63102894D01*
X91991311Y-63097000D01*
X91930333Y-63078125D01*
X91885630Y-63053954D01*
X91882590Y-63051439D01*
X91882242Y-63051251D01*
X91848011Y-63022933D01*
X91825852Y-63010140D01*
X91800200Y-63005617D01*
X91774549Y-63010140D01*
X91752331Y-63022966D01*
X91714269Y-63053569D01*
X91713994Y-63053712D01*
X91711499Y-63055719D01*
X91664825Y-63080120D01*
X91605380Y-63097615D01*
X91547381Y-63102894D01*
X91491311Y-63097000D01*
X91430333Y-63078125D01*
X91385630Y-63053954D01*
X91382590Y-63051439D01*
X91382242Y-63051251D01*
X91348011Y-63022933D01*
X91325852Y-63010140D01*
X91300200Y-63005617D01*
X91274549Y-63010140D01*
X91252331Y-63022966D01*
X91214269Y-63053569D01*
X91213994Y-63053712D01*
X91211499Y-63055719D01*
X91164825Y-63080120D01*
X91105380Y-63097615D01*
X91047381Y-63102894D01*
X90991311Y-63097000D01*
X90930333Y-63078125D01*
X90885630Y-63053954D01*
X90882590Y-63051439D01*
X90882242Y-63051251D01*
X90848011Y-63022933D01*
X90825852Y-63010140D01*
X90800200Y-63005617D01*
X90774549Y-63010140D01*
X90752331Y-63022966D01*
X90714269Y-63053569D01*
X90713994Y-63053712D01*
X90711499Y-63055719D01*
X90664825Y-63080120D01*
X90605380Y-63097615D01*
X90547381Y-63102894D01*
X90491311Y-63097000D01*
X90430333Y-63078125D01*
X90385630Y-63053954D01*
X90382590Y-63051439D01*
X90382242Y-63051251D01*
X90337129Y-63013930D01*
X90336880Y-63013624D01*
X90333561Y-63010879D01*
X90302606Y-62972924D01*
X90300583Y-62969120D01*
X90300124Y-62968557D01*
X90272636Y-62916861D01*
X90272426Y-62916165D01*
X90271760Y-62914913D01*
X90256002Y-62862717D01*
X90255864Y-62861310D01*
X90255713Y-62860810D01*
X90250000Y-62802540D01*
X90250000Y-62801505D01*
X90248860Y-62789879D01*
X90248860Y-62360120D01*
X90248897Y-62354884D01*
X90250017Y-62344891D01*
X90250029Y-62343271D01*
X90256556Y-62285086D01*
X90256819Y-62284256D01*
X90257055Y-62282153D01*
X90271053Y-62238023D01*
X90271053Y-62211976D01*
X90262144Y-62187499D01*
X90245402Y-62167546D01*
X90238183Y-62163378D01*
X90223209Y-62145532D01*
X90200651Y-62132509D01*
X90174999Y-62127986D01*
X90150483Y-62132308D01*
X90110810Y-62144287D01*
X90110107Y-62144355D01*
X90109938Y-62144407D01*
X90052902Y-62150000D01*
X90052540Y-62150000D01*
X89597460Y-62150000D01*
X89597096Y-62150000D01*
X89591860Y-62149963D01*
X89536754Y-62143782D01*
X89536018Y-62143548D01*
X89535086Y-62143444D01*
X89479277Y-62125741D01*
X89478453Y-62125288D01*
X89475020Y-62124199D01*
X89431294Y-62100160D01*
X89428533Y-62097844D01*
X89427970Y-62097534D01*
X89383118Y-62059899D01*
X89382713Y-62059396D01*
X89379528Y-62056723D01*
X89348261Y-62017835D01*
X89318255Y-61960438D01*
X89302599Y-61907244D01*
X89297236Y-61848317D01*
X89303616Y-61787619D01*
X89319465Y-61736416D01*
X89320889Y-61733780D01*
X89320901Y-61733745D01*
X89348749Y-61682242D01*
X89348775Y-61682209D01*
X89351159Y-61677802D01*
X89384333Y-61637700D01*
X89393242Y-61613224D01*
X89393242Y-61587177D01*
X89384333Y-61562700D01*
X89348261Y-61517835D01*
X89318255Y-61460438D01*
X89302599Y-61407244D01*
X89297236Y-61348317D01*
X89303616Y-61287619D01*
X89319465Y-61236416D01*
X89320889Y-61233780D01*
X89320901Y-61233745D01*
X89348749Y-61182242D01*
X89348775Y-61182209D01*
X89351159Y-61177802D01*
X89384333Y-61137700D01*
X89393242Y-61113224D01*
X89393242Y-61087177D01*
X89384333Y-61062700D01*
X89348261Y-61017835D01*
X89318255Y-60960438D01*
X89302599Y-60907244D01*
X89297236Y-60848317D01*
X89303616Y-60787619D01*
X89319465Y-60736416D01*
X89320889Y-60733780D01*
X89320901Y-60733745D01*
X89348749Y-60682242D01*
X89348775Y-60682209D01*
X89351159Y-60677802D01*
X89384333Y-60637700D01*
X89393242Y-60613224D01*
X89393242Y-60587177D01*
X89384333Y-60562700D01*
X89348261Y-60517835D01*
X89318255Y-60460438D01*
X89302599Y-60407244D01*
X89297236Y-60348317D01*
X89303616Y-60287619D01*
X89319465Y-60236416D01*
X89320889Y-60233780D01*
X89320901Y-60233745D01*
X89348749Y-60182242D01*
X89348775Y-60182209D01*
X89351159Y-60177802D01*
X89381789Y-60140775D01*
X89385676Y-60137604D01*
X89386070Y-60137129D01*
X89431443Y-60100124D01*
X89431988Y-60099833D01*
X89434160Y-60098063D01*
X89479847Y-60073771D01*
X89482525Y-60072962D01*
X89483139Y-60072636D01*
X89539190Y-60055713D01*
X89539883Y-60055644D01*
X89540056Y-60055593D01*
X89597097Y-60050000D01*
X89597460Y-60050000D01*
X90052540Y-60050000D01*
X90052903Y-60050000D01*
X90058139Y-60050037D01*
X90113249Y-60056218D01*
X90113986Y-60056451D01*
X90114914Y-60056556D01*
X90150699Y-60067907D01*
X90175000Y-60072193D01*
X90200651Y-60067669D01*
X90223209Y-60054646D01*
X90238642Y-60036251D01*
X90245222Y-60032453D01*
X90261964Y-60012499D01*
X90270873Y-59988023D01*
X90270873Y-59961976D01*
X90256002Y-59912717D01*
X90255864Y-59911310D01*
X90255713Y-59910810D01*
X90250000Y-59852540D01*
X90250000Y-59851505D01*
X90248860Y-59839879D01*
X90248860Y-59410120D01*
X90248897Y-59404884D01*
X90250017Y-59394891D01*
X90250029Y-59393271D01*
X90256556Y-59335086D01*
X90256819Y-59334256D01*
X90257055Y-59332153D01*
X90272981Y-59281944D01*
X90274002Y-59280086D01*
X90274259Y-59279277D01*
X90302466Y-59227970D01*
X90303007Y-59227324D01*
X90305529Y-59222738D01*
X90305533Y-59222733D01*
X90335835Y-59186623D01*
X90339907Y-59183348D01*
X90340101Y-59183118D01*
X90385731Y-59146431D01*
X90385992Y-59146294D01*
X90388499Y-59144279D01*
X90435174Y-59119879D01*
X90494613Y-59102384D01*
X90552618Y-59097106D01*
X90608692Y-59102999D01*
X90669666Y-59121874D01*
X90714368Y-59146044D01*
X90717410Y-59148561D01*
X90717758Y-59148749D01*
X90751984Y-59177064D01*
X90774146Y-59189858D01*
X90799798Y-59194382D01*
X90825449Y-59189858D01*
X90847682Y-59177022D01*
X90885731Y-59146431D01*
X90885989Y-59146295D01*
X90888498Y-59144279D01*
X90935174Y-59119879D01*
X90994613Y-59102384D01*
X91052618Y-59097106D01*
X91108692Y-59102999D01*
X91169666Y-59121874D01*
X91214368Y-59146044D01*
X91217410Y-59148561D01*
X91217758Y-59148749D01*
X91251984Y-59177064D01*
X91274146Y-59189858D01*
X91299798Y-59194382D01*
X91325449Y-59189858D01*
X91347682Y-59177022D01*
X91385731Y-59146431D01*
X91385989Y-59146295D01*
X91388498Y-59144279D01*
X91435174Y-59119879D01*
X91494613Y-59102384D01*
X91552618Y-59097106D01*
X91608692Y-59102999D01*
X91669666Y-59121874D01*
X91714368Y-59146044D01*
X91717410Y-59148561D01*
X91717758Y-59148749D01*
X91751984Y-59177064D01*
X91774146Y-59189858D01*
X91799798Y-59194382D01*
X91825449Y-59189858D01*
X91847682Y-59177022D01*
X91885731Y-59146431D01*
X91885989Y-59146295D01*
X91888498Y-59144279D01*
X91935174Y-59119879D01*
X91994613Y-59102384D01*
X92052618Y-59097106D01*
X92108692Y-59102999D01*
X92169666Y-59121874D01*
X92214368Y-59146044D01*
X92217411Y-59148561D01*
X92217758Y-59148749D01*
X92262871Y-59186070D01*
X92263117Y-59186372D01*
X92266440Y-59189121D01*
X92297393Y-59227074D01*
X92299416Y-59230879D01*
X92299876Y-59231443D01*
X92327364Y-59283139D01*
X92327575Y-59283838D01*
X92328237Y-59285083D01*
X92343997Y-59337282D01*
X92344134Y-59338685D01*
X92344287Y-59339190D01*
X92350000Y-59397460D01*
X92350000Y-59398503D01*
X92351139Y-59410120D01*
X92351139Y-59839879D01*
X92351102Y-59845115D01*
X92349982Y-59855097D01*
X92349971Y-59856729D01*
X92343444Y-59914914D01*
X92343179Y-59915748D01*
X92342944Y-59917846D01*
X92328945Y-59961976D01*
X92328945Y-59988023D01*
X92337854Y-60012499D01*
X92354596Y-60032453D01*
X92361819Y-60036623D01*
X92376790Y-60054466D01*
X92399348Y-60067489D01*
X92425000Y-60072013D01*
X92449533Y-60067686D01*
X92489190Y-60055713D01*
X92489882Y-60055645D01*
X92490055Y-60055593D01*
X92547097Y-60050000D01*
X92547460Y-60050000D01*
X93002540Y-60050000D01*
X93002903Y-60050000D01*
X93008139Y-60050037D01*
X93063248Y-60056218D01*
X93063985Y-60056451D01*
X93064914Y-60056556D01*
X93120723Y-60074259D01*
X93121544Y-60074710D01*
X93124979Y-60075800D01*
X93168704Y-60099838D01*
X93171467Y-60102156D01*
X93172030Y-60102466D01*
X93216882Y-60140101D01*
X93217284Y-60140601D01*
X93220473Y-60143277D01*
X93251738Y-60182163D01*
X93281743Y-60239558D01*
X93297400Y-60292755D01*
X93302762Y-60351681D01*
X93296383Y-60412380D01*
X93280533Y-60463579D01*
X93279116Y-60466199D01*
X93279099Y-60466255D01*
X93251251Y-60517758D01*
X93251217Y-60517798D01*
X93248840Y-60522196D01*
X93215665Y-60562297D01*
X93206756Y-60586774D01*
X93206756Y-60612821D01*
X93215665Y-60637297D01*
X93251738Y-60682163D01*
X93281743Y-60739558D01*
X93297400Y-60792755D01*
X93302762Y-60851681D01*
X93296383Y-60912380D01*
X93280533Y-60963579D01*
X93279116Y-60966199D01*
X93279099Y-60966255D01*
X93251251Y-61017758D01*
X93251217Y-61017798D01*
X93248840Y-61022196D01*
X93215665Y-61062297D01*
X93206756Y-61086774D01*
X93206756Y-61112821D01*
X93215665Y-61137297D01*
X93251738Y-61182163D01*
X93281743Y-61239558D01*
X93297400Y-61292755D01*
X93302762Y-61351681D01*
X93296383Y-61412380D01*
X93280533Y-61463579D01*
X93279116Y-61466199D01*
X93279099Y-61466255D01*
X93251251Y-61517758D01*
X93251217Y-61517798D01*
X93248840Y-61522196D01*
X93215665Y-61562297D01*
X93206756Y-61586774D01*
X93206756Y-61612821D01*
X93215665Y-61637297D01*
X93251738Y-61682163D01*
X93281743Y-61739558D01*
X93297400Y-61792755D01*
X93302762Y-61851681D01*
X93302762Y-61851681D01*
G37*
G36*
X93501139Y-64500000D02*
X93500000Y-64500000D01*
X92600000Y-64500000D01*
X92598860Y-64500000D01*
X92598860Y-63700000D01*
X92600000Y-63700000D01*
X93500000Y-63700000D01*
X93501139Y-63700000D01*
X93501139Y-64500000D01*
X93501139Y-64500000D01*
G37*
G36*
X93656139Y-23725000D02*
X93655000Y-23725000D01*
X92755000Y-23725000D01*
X92753860Y-23725000D01*
X92753860Y-21875000D01*
X92755000Y-21875000D01*
X93655000Y-21875000D01*
X93656139Y-21875000D01*
X93656139Y-23725000D01*
X93656139Y-23725000D01*
G37*
G36*
X93656139Y-29125000D02*
X93655000Y-29125000D01*
X92755000Y-29125000D01*
X92753860Y-29125000D01*
X92753860Y-27275000D01*
X92755000Y-27275000D01*
X93655000Y-27275000D01*
X93656139Y-27275000D01*
X93656139Y-29125000D01*
X93656139Y-29125000D01*
G37*
G36*
X94101139Y-66025000D02*
X94100000Y-66025000D01*
X93000000Y-66025000D01*
X92998860Y-66025000D01*
X92998860Y-64975000D01*
X93000000Y-64975000D01*
X94100000Y-64975000D01*
X94101139Y-64975000D01*
X94101139Y-66025000D01*
X94101139Y-66025000D01*
G37*
G36*
X94251139Y-40575000D02*
X94250000Y-40575000D01*
X92850000Y-40575000D01*
X92848860Y-40575000D01*
X92848860Y-40013023D01*
X92848860Y-39986976D01*
X92848860Y-39813023D01*
X92848860Y-39786976D01*
X92848860Y-39363023D01*
X92848860Y-39336976D01*
X92848860Y-39163023D01*
X92848860Y-39136976D01*
X92848860Y-38713023D01*
X92848860Y-38686976D01*
X92848860Y-38513023D01*
X92848860Y-38486976D01*
X92848860Y-38063023D01*
X92848860Y-38036976D01*
X92848860Y-37863023D01*
X92848860Y-37836976D01*
X92848860Y-37413023D01*
X92848860Y-37386976D01*
X92848860Y-37213023D01*
X92848860Y-37186976D01*
X92848860Y-36763023D01*
X92848860Y-36736976D01*
X92848860Y-36563023D01*
X92848860Y-36536976D01*
X92848860Y-36113023D01*
X92848860Y-36086976D01*
X92848860Y-35913023D01*
X92848860Y-35886976D01*
X92848860Y-35463023D01*
X92848860Y-35436976D01*
X92848860Y-35263023D01*
X92848860Y-35236976D01*
X92848860Y-34813023D01*
X92848860Y-34786976D01*
X92848860Y-34613023D01*
X92848860Y-34586976D01*
X92848860Y-34163023D01*
X92848860Y-34136976D01*
X92848860Y-33963023D01*
X92848860Y-33936976D01*
X92848860Y-33513023D01*
X92848860Y-33486976D01*
X92848860Y-33313023D01*
X92848860Y-33286976D01*
X92848860Y-32863023D01*
X92848860Y-32836976D01*
X92848860Y-32663023D01*
X92848860Y-32636976D01*
X92848860Y-32213023D01*
X92848860Y-32186976D01*
X92848860Y-32013023D01*
X92848860Y-31986976D01*
X92848860Y-31425000D01*
X92850000Y-31425000D01*
X94250000Y-31425000D01*
X94251139Y-31425000D01*
X94251139Y-31986976D01*
X94251139Y-32013023D01*
X94251139Y-32186976D01*
X94251139Y-32213023D01*
X94251139Y-32636976D01*
X94251139Y-32663023D01*
X94251139Y-32836976D01*
X94251139Y-32863023D01*
X94251139Y-33286976D01*
X94251139Y-33313023D01*
X94251139Y-33486976D01*
X94251139Y-33513023D01*
X94251139Y-33936976D01*
X94251139Y-33963023D01*
X94251139Y-34136976D01*
X94251139Y-34163023D01*
X94251139Y-34586976D01*
X94251139Y-34613023D01*
X94251139Y-34786976D01*
X94251139Y-34813023D01*
X94251139Y-35236976D01*
X94251139Y-35263023D01*
X94251139Y-35436976D01*
X94251139Y-35463023D01*
X94251139Y-35886976D01*
X94251139Y-35913023D01*
X94251139Y-36086976D01*
X94251139Y-36113023D01*
X94251139Y-36536976D01*
X94251139Y-36563023D01*
X94251139Y-36736976D01*
X94251139Y-36763023D01*
X94251139Y-37186976D01*
X94251139Y-37213023D01*
X94251139Y-37386976D01*
X94251139Y-37413023D01*
X94251139Y-37836976D01*
X94251139Y-37863023D01*
X94251139Y-38036976D01*
X94251139Y-38063023D01*
X94251139Y-38486976D01*
X94251139Y-38513023D01*
X94251139Y-38686976D01*
X94251139Y-38713023D01*
X94251139Y-39136976D01*
X94251139Y-39163023D01*
X94251139Y-39336976D01*
X94251139Y-39363023D01*
X94251139Y-39786976D01*
X94251139Y-39813023D01*
X94251139Y-39986976D01*
X94251139Y-40013023D01*
X94251139Y-40575000D01*
X94251139Y-40575000D01*
G37*
G36*
X94701139Y-60700000D02*
X94700000Y-60700000D01*
X93900000Y-60700000D01*
X93898860Y-60700000D01*
X93898860Y-59800000D01*
X93900000Y-59800000D01*
X94700000Y-59800000D01*
X94701139Y-59800000D01*
X94701139Y-60700000D01*
X94701139Y-60700000D01*
G37*
G36*
X94701139Y-61800000D02*
X94700000Y-61800000D01*
X93900000Y-61800000D01*
X93898860Y-61800000D01*
X93898860Y-60900000D01*
X93900000Y-60900000D01*
X94700000Y-60900000D01*
X94701139Y-60900000D01*
X94701139Y-61800000D01*
X94701139Y-61800000D01*
G37*
G36*
X96501139Y-35725000D02*
X96500000Y-35725000D01*
X95400000Y-35725000D01*
X95398860Y-35725000D01*
X95398860Y-34675000D01*
X95400000Y-34675000D01*
X96500000Y-34675000D01*
X96501139Y-34675000D01*
X96501139Y-35725000D01*
X96501139Y-35725000D01*
G37*
G36*
X96601139Y-37000000D02*
X96600000Y-37000000D01*
X95700000Y-37000000D01*
X95698860Y-37000000D01*
X95698860Y-36200000D01*
X95700000Y-36200000D01*
X96600000Y-36200000D01*
X96601139Y-36200000D01*
X96601139Y-37000000D01*
X96601139Y-37000000D01*
G37*
G36*
X97251139Y-34050000D02*
X97250000Y-34050000D01*
X96050000Y-34050000D01*
X96048860Y-34050000D01*
X96048860Y-33338023D01*
X96048860Y-33311976D01*
X96048860Y-33288023D01*
X96048860Y-33261976D01*
X96048860Y-32538023D01*
X96048860Y-32511976D01*
X96048860Y-32488023D01*
X96048860Y-32461976D01*
X96048860Y-31738023D01*
X96048860Y-31711976D01*
X96048860Y-31688023D01*
X96048860Y-31661976D01*
X96048860Y-30950000D01*
X96050000Y-30950000D01*
X97250000Y-30950000D01*
X97251139Y-30950000D01*
X97251139Y-31661976D01*
X97251139Y-31688023D01*
X97251139Y-31711976D01*
X97251139Y-31738023D01*
X97251139Y-32461976D01*
X97251139Y-32488023D01*
X97251139Y-32511976D01*
X97251139Y-32538023D01*
X97251139Y-33261976D01*
X97251139Y-33288023D01*
X97251139Y-33311976D01*
X97251139Y-33338023D01*
X97251139Y-34050000D01*
X97251139Y-34050000D01*
G37*
G36*
X97701139Y-37000000D02*
X97700000Y-37000000D01*
X96800000Y-37000000D01*
X96798860Y-37000000D01*
X96798860Y-36200000D01*
X96800000Y-36200000D01*
X97700000Y-36200000D01*
X97701139Y-36200000D01*
X97701139Y-37000000D01*
X97701139Y-37000000D01*
G37*
G36*
X98001139Y-35725000D02*
X98000000Y-35725000D01*
X96900000Y-35725000D01*
X96898860Y-35725000D01*
X96898860Y-34675000D01*
X96900000Y-34675000D01*
X98000000Y-34675000D01*
X98001139Y-34675000D01*
X98001139Y-35725000D01*
X98001139Y-35725000D01*
G37*
G36*
X98876139Y-28660000D02*
X98875000Y-28660000D01*
X97305000Y-28660000D01*
X97303860Y-28660000D01*
X97303860Y-25820000D01*
X97305000Y-25820000D01*
X98875000Y-25820000D01*
X98876139Y-25820000D01*
X98876139Y-28660000D01*
X98876139Y-28660000D01*
G37*
G36*
X98951139Y-34050000D02*
X98950000Y-34050000D01*
X97750000Y-34050000D01*
X97748860Y-34050000D01*
X97748860Y-33338023D01*
X97748860Y-33311976D01*
X97748860Y-33288023D01*
X97748860Y-33261976D01*
X97748860Y-32538023D01*
X97748860Y-32511976D01*
X97748860Y-32488023D01*
X97748860Y-32461976D01*
X97748860Y-31738023D01*
X97748860Y-31711976D01*
X97748860Y-31688023D01*
X97748860Y-31661976D01*
X97748860Y-30950000D01*
X97750000Y-30950000D01*
X98950000Y-30950000D01*
X98951139Y-30950000D01*
X98951139Y-31661976D01*
X98951139Y-31688023D01*
X98951139Y-31711976D01*
X98951139Y-31738023D01*
X98951139Y-32461976D01*
X98951139Y-32488023D01*
X98951139Y-32511976D01*
X98951139Y-32538023D01*
X98951139Y-33261976D01*
X98951139Y-33288023D01*
X98951139Y-33311976D01*
X98951139Y-33338023D01*
X98951139Y-34050000D01*
X98951139Y-34050000D01*
G37*
G36*
X100146139Y-23580000D02*
X100145000Y-23580000D01*
X98575000Y-23580000D01*
X98573860Y-23580000D01*
X98573860Y-20740000D01*
X98575000Y-20740000D01*
X100145000Y-20740000D01*
X100146139Y-20740000D01*
X100146139Y-23580000D01*
X100146139Y-23580000D01*
G37*
G36*
X101416139Y-28660000D02*
X101415000Y-28660000D01*
X99845000Y-28660000D01*
X99843860Y-28660000D01*
X99843860Y-25820000D01*
X99845000Y-25820000D01*
X101415000Y-25820000D01*
X101416139Y-25820000D01*
X101416139Y-28660000D01*
X101416139Y-28660000D01*
G37*
G36*
X101951139Y-34275000D02*
X101950000Y-34275000D01*
X100650000Y-34275000D01*
X100648860Y-34275000D01*
X100648860Y-32725000D01*
X100650000Y-32725000D01*
X101950000Y-32725000D01*
X101951139Y-32725000D01*
X101951139Y-34275000D01*
X101951139Y-34275000D01*
G37*
G36*
X101977099Y-37999680D02*
X101975960Y-37999680D01*
X99725240Y-37999680D01*
X99724100Y-37999680D01*
X99724100Y-35200320D01*
X99725240Y-35200320D01*
X101975960Y-35200320D01*
X101977099Y-35200320D01*
X101977099Y-37999680D01*
X101977099Y-37999680D01*
G37*
G36*
X101977099Y-40999680D02*
X101975960Y-40999680D01*
X99725240Y-40999680D01*
X99724100Y-40999680D01*
X99724100Y-38200320D01*
X99725240Y-38200320D01*
X101975960Y-38200320D01*
X101977099Y-38200320D01*
X101977099Y-40999680D01*
X101977099Y-40999680D01*
G37*
G36*
X102686139Y-23580000D02*
X102685000Y-23580000D01*
X101115000Y-23580000D01*
X101113860Y-23580000D01*
X101113860Y-20740000D01*
X101115000Y-20740000D01*
X102685000Y-20740000D01*
X102686139Y-20740000D01*
X102686139Y-23580000D01*
X102686139Y-23580000D01*
G37*
G36*
X103951139Y-34275000D02*
X103950000Y-34275000D01*
X102650000Y-34275000D01*
X102648860Y-34275000D01*
X102648860Y-32725000D01*
X102650000Y-32725000D01*
X103950000Y-32725000D01*
X103951139Y-32725000D01*
X103951139Y-34275000D01*
X103951139Y-34275000D01*
G37*
G36*
X103956139Y-28660000D02*
X103955000Y-28660000D01*
X102385000Y-28660000D01*
X102383860Y-28660000D01*
X102383860Y-25820000D01*
X102385000Y-25820000D01*
X103955000Y-25820000D01*
X103956139Y-25820000D01*
X103956139Y-28660000D01*
X103956139Y-28660000D01*
G37*
G36*
X105075899Y-37999680D02*
X105074760Y-37999680D01*
X102824040Y-37999680D01*
X102822900Y-37999680D01*
X102822900Y-35200320D01*
X102824040Y-35200320D01*
X105074760Y-35200320D01*
X105075899Y-35200320D01*
X105075899Y-37999680D01*
X105075899Y-37999680D01*
G37*
G36*
X105075899Y-40999680D02*
X105074760Y-40999680D01*
X102824040Y-40999680D01*
X102822900Y-40999680D01*
X102822900Y-38200320D01*
X102824040Y-38200320D01*
X105074760Y-38200320D01*
X105075899Y-38200320D01*
X105075899Y-40999680D01*
X105075899Y-40999680D01*
G37*
G36*
X105226139Y-23580000D02*
X105225000Y-23580000D01*
X103655000Y-23580000D01*
X103653860Y-23580000D01*
X103653860Y-20740000D01*
X103655000Y-20740000D01*
X105225000Y-20740000D01*
X105226139Y-20740000D01*
X105226139Y-23580000D01*
X105226139Y-23580000D01*
G37*
G36*
X108901139Y-27500000D02*
X108900000Y-27500000D01*
X108100000Y-27500000D01*
X108098860Y-27500000D01*
X108098860Y-26600000D01*
X108100000Y-26600000D01*
X108900000Y-26600000D01*
X108901139Y-26600000D01*
X108901139Y-27500000D01*
X108901139Y-27500000D01*
G37*
G36*
X108901139Y-28600000D02*
X108900000Y-28600000D01*
X108100000Y-28600000D01*
X108098860Y-28600000D01*
X108098860Y-27700000D01*
X108100000Y-27700000D01*
X108900000Y-27700000D01*
X108901139Y-27700000D01*
X108901139Y-28600000D01*
X108901139Y-28600000D01*
G37*
G36*
X109101139Y-23250000D02*
X109100000Y-23250000D01*
X107900000Y-23250000D01*
X107898860Y-23250000D01*
X107898860Y-22450000D01*
X107900000Y-22450000D01*
X109100000Y-22450000D01*
X109101139Y-22450000D01*
X109101139Y-23250000D01*
X109101139Y-23250000D01*
G37*
G36*
X109101139Y-24750000D02*
X109100000Y-24750000D01*
X107900000Y-24750000D01*
X107898860Y-24750000D01*
X107898860Y-23950000D01*
X107900000Y-23950000D01*
X109100000Y-23950000D01*
X109101139Y-23950000D01*
X109101139Y-24750000D01*
X109101139Y-24750000D01*
G37*
G36*
X110900139Y-22046500D02*
X110899000Y-22046500D01*
X110091000Y-22046500D01*
X110089860Y-22046500D01*
X110089860Y-20603500D01*
X110091000Y-20603500D01*
X110899000Y-20603500D01*
X110900139Y-20603500D01*
X110900139Y-22046500D01*
X110900139Y-22046500D01*
G37*
G36*
X110900139Y-28396500D02*
X110899000Y-28396500D01*
X110091000Y-28396500D01*
X110089860Y-28396500D01*
X110089860Y-26953500D01*
X110091000Y-26953500D01*
X110899000Y-26953500D01*
X110900139Y-26953500D01*
X110900139Y-28396500D01*
X110900139Y-28396500D01*
G37*
G36*
X112170139Y-22046500D02*
X112169000Y-22046500D01*
X111361000Y-22046500D01*
X111359860Y-22046500D01*
X111359860Y-20603500D01*
X111361000Y-20603500D01*
X112169000Y-20603500D01*
X112170139Y-20603500D01*
X112170139Y-22046500D01*
X112170139Y-22046500D01*
G37*
G36*
X112170139Y-28396500D02*
X112169000Y-28396500D01*
X111361000Y-28396500D01*
X111359860Y-28396500D01*
X111359860Y-26953500D01*
X111361000Y-26953500D01*
X112169000Y-26953500D01*
X112170139Y-26953500D01*
X112170139Y-28396500D01*
X112170139Y-28396500D01*
G37*
G36*
X112368739Y-45267600D02*
X112367600Y-45267600D01*
X109832400Y-45267600D01*
X109831260Y-45267600D01*
X109831260Y-42732400D01*
X109832400Y-42732400D01*
X112367600Y-42732400D01*
X112368739Y-42732400D01*
X112368739Y-45267600D01*
X112368739Y-45267600D01*
G37*
G36*
X112849159Y-34080380D02*
X112848020Y-34080380D01*
X111846980Y-34080380D01*
X111845840Y-34080380D01*
X111845840Y-32779620D01*
X111846980Y-32779620D01*
X112848020Y-32779620D01*
X112849159Y-32779620D01*
X112849159Y-34080380D01*
X112849159Y-34080380D01*
G37*
G36*
X113101139Y-30350000D02*
X113100000Y-30350000D01*
X111500000Y-30350000D01*
X111498860Y-30350000D01*
X111498860Y-29350000D01*
X111500000Y-29350000D01*
X113100000Y-29350000D01*
X113101139Y-29350000D01*
X113101139Y-30350000D01*
X113101139Y-30350000D01*
G37*
G36*
X113101139Y-32250000D02*
X113100000Y-32250000D01*
X111500000Y-32250000D01*
X111498860Y-32250000D01*
X111498860Y-31250000D01*
X111500000Y-31250000D01*
X113100000Y-31250000D01*
X113101139Y-31250000D01*
X113101139Y-32250000D01*
X113101139Y-32250000D01*
G37*
G36*
X113440139Y-22046500D02*
X113439000Y-22046500D01*
X112631000Y-22046500D01*
X112629860Y-22046500D01*
X112629860Y-20603500D01*
X112631000Y-20603500D01*
X113439000Y-20603500D01*
X113440139Y-20603500D01*
X113440139Y-22046500D01*
X113440139Y-22046500D01*
G37*
G36*
X113440139Y-28396500D02*
X113439000Y-28396500D01*
X112631000Y-28396500D01*
X112629860Y-28396500D01*
X112629860Y-26953500D01*
X112631000Y-26953500D01*
X113439000Y-26953500D01*
X113440139Y-26953500D01*
X113440139Y-28396500D01*
X113440139Y-28396500D01*
G37*
G36*
X113801659Y-36620380D02*
X113800520Y-36620380D01*
X112799480Y-36620380D01*
X112798340Y-36620380D01*
X112798340Y-35319620D01*
X112799480Y-35319620D01*
X113800520Y-35319620D01*
X113801659Y-35319620D01*
X113801659Y-36620380D01*
X113801659Y-36620380D01*
G37*
G36*
X114710139Y-22046500D02*
X114709000Y-22046500D01*
X113901000Y-22046500D01*
X113899860Y-22046500D01*
X113899860Y-20603500D01*
X113901000Y-20603500D01*
X114709000Y-20603500D01*
X114710139Y-20603500D01*
X114710139Y-22046500D01*
X114710139Y-22046500D01*
G37*
G36*
X114710139Y-28396500D02*
X114709000Y-28396500D01*
X113901000Y-28396500D01*
X113899860Y-28396500D01*
X113899860Y-26953500D01*
X113901000Y-26953500D01*
X114709000Y-26953500D01*
X114710139Y-26953500D01*
X114710139Y-28396500D01*
X114710139Y-28396500D01*
G37*
G36*
X114754159Y-34080380D02*
X114753020Y-34080380D01*
X113751980Y-34080380D01*
X113750840Y-34080380D01*
X113750840Y-32779620D01*
X113751980Y-32779620D01*
X114753020Y-32779620D01*
X114754159Y-32779620D01*
X114754159Y-34080380D01*
X114754159Y-34080380D01*
G37*
G36*
X120568739Y-69467600D02*
X120567600Y-69467600D01*
X118032400Y-69467600D01*
X118031260Y-69467600D01*
X118031260Y-66932400D01*
X118032400Y-66932400D01*
X120567600Y-66932400D01*
X120568739Y-66932400D01*
X120568739Y-69467600D01*
X120568739Y-69467600D01*
G37*
G36*
X122073310Y-62687038D02*
X122072876Y-62718146D01*
X122064195Y-62756355D01*
X122051290Y-62785341D01*
X122031928Y-62812787D01*
X122004904Y-62838523D01*
X121981242Y-62853538D01*
X121941229Y-62869059D01*
X121919079Y-62872965D01*
X121876167Y-62872066D01*
X121848799Y-62866049D01*
X121814607Y-62851111D01*
X121787023Y-62831939D01*
X121764979Y-62809112D01*
X121743755Y-62776178D01*
X121734120Y-62751843D01*
X121726372Y-62709629D01*
X121726712Y-62685301D01*
X121735247Y-62645144D01*
X121747015Y-62617688D01*
X121767040Y-62588441D01*
X121792374Y-62563633D01*
X121817373Y-62547273D01*
X121855433Y-62531897D01*
X121879327Y-62527339D01*
X121922255Y-62527637D01*
X121947890Y-62532900D01*
X121984007Y-62548082D01*
X122010316Y-62565828D01*
X122033987Y-62589665D01*
X122054635Y-62620742D01*
X122065312Y-62646647D01*
X122073310Y-62687038D01*
X122073310Y-62687038D01*
G37*
G36*
X122073310Y-63187038D02*
X122072876Y-63218146D01*
X122064195Y-63256355D01*
X122051290Y-63285341D01*
X122031928Y-63312787D01*
X122004904Y-63338523D01*
X121981242Y-63353538D01*
X121941229Y-63369059D01*
X121919079Y-63372965D01*
X121876167Y-63372066D01*
X121848799Y-63366049D01*
X121814607Y-63351111D01*
X121787023Y-63331939D01*
X121764979Y-63309112D01*
X121743755Y-63276178D01*
X121734120Y-63251843D01*
X121726372Y-63209629D01*
X121726712Y-63185301D01*
X121735247Y-63145144D01*
X121747015Y-63117688D01*
X121767040Y-63088441D01*
X121792374Y-63063633D01*
X121817373Y-63047273D01*
X121855433Y-63031897D01*
X121879327Y-63027339D01*
X121922255Y-63027637D01*
X121947890Y-63032900D01*
X121984007Y-63048082D01*
X122010316Y-63065828D01*
X122033987Y-63089665D01*
X122054635Y-63120742D01*
X122065312Y-63146647D01*
X122073310Y-63187038D01*
X122073310Y-63187038D01*
G37*
G36*
X122073310Y-63687038D02*
X122072876Y-63718146D01*
X122064195Y-63756355D01*
X122051290Y-63785341D01*
X122031928Y-63812787D01*
X122004904Y-63838523D01*
X121981242Y-63853538D01*
X121941229Y-63869059D01*
X121919079Y-63872965D01*
X121876167Y-63872066D01*
X121848799Y-63866049D01*
X121814607Y-63851111D01*
X121787023Y-63831939D01*
X121764979Y-63809112D01*
X121743755Y-63776178D01*
X121734120Y-63751843D01*
X121726372Y-63709629D01*
X121726712Y-63685301D01*
X121735247Y-63645144D01*
X121747015Y-63617688D01*
X121767040Y-63588441D01*
X121792374Y-63563633D01*
X121817373Y-63547273D01*
X121855433Y-63531897D01*
X121879327Y-63527339D01*
X121922255Y-63527637D01*
X121947890Y-63532900D01*
X121984007Y-63548082D01*
X122010316Y-63565828D01*
X122033987Y-63589665D01*
X122054635Y-63620742D01*
X122065312Y-63646647D01*
X122073310Y-63687038D01*
X122073310Y-63687038D01*
G37*
G36*
X122573310Y-62687038D02*
X122572876Y-62718146D01*
X122564195Y-62756355D01*
X122551290Y-62785341D01*
X122531928Y-62812787D01*
X122504904Y-62838523D01*
X122481242Y-62853538D01*
X122441229Y-62869059D01*
X122419079Y-62872965D01*
X122376167Y-62872066D01*
X122348799Y-62866049D01*
X122314607Y-62851111D01*
X122287023Y-62831939D01*
X122264979Y-62809112D01*
X122243755Y-62776178D01*
X122234120Y-62751843D01*
X122226372Y-62709629D01*
X122226712Y-62685301D01*
X122235247Y-62645144D01*
X122247015Y-62617688D01*
X122267040Y-62588441D01*
X122292374Y-62563633D01*
X122317373Y-62547273D01*
X122355433Y-62531897D01*
X122379327Y-62527339D01*
X122422255Y-62527637D01*
X122447890Y-62532900D01*
X122484007Y-62548082D01*
X122510316Y-62565828D01*
X122533987Y-62589665D01*
X122554635Y-62620742D01*
X122565312Y-62646647D01*
X122573310Y-62687038D01*
X122573310Y-62687038D01*
G37*
G36*
X122573310Y-63187038D02*
X122572876Y-63218146D01*
X122564195Y-63256355D01*
X122551290Y-63285341D01*
X122531928Y-63312787D01*
X122504904Y-63338523D01*
X122481242Y-63353538D01*
X122441229Y-63369059D01*
X122419079Y-63372965D01*
X122376167Y-63372066D01*
X122348799Y-63366049D01*
X122314607Y-63351111D01*
X122287023Y-63331939D01*
X122264979Y-63309112D01*
X122243755Y-63276178D01*
X122234120Y-63251843D01*
X122226372Y-63209629D01*
X122226712Y-63185301D01*
X122235247Y-63145144D01*
X122247015Y-63117688D01*
X122267040Y-63088441D01*
X122292374Y-63063633D01*
X122317373Y-63047273D01*
X122355433Y-63031897D01*
X122379327Y-63027339D01*
X122422255Y-63027637D01*
X122447890Y-63032900D01*
X122484007Y-63048082D01*
X122510316Y-63065828D01*
X122533987Y-63089665D01*
X122554635Y-63120742D01*
X122565312Y-63146647D01*
X122573310Y-63187038D01*
X122573310Y-63187038D01*
G37*
G36*
X122573310Y-63687038D02*
X122572876Y-63718146D01*
X122564195Y-63756355D01*
X122551290Y-63785341D01*
X122531928Y-63812787D01*
X122504904Y-63838523D01*
X122481242Y-63853538D01*
X122441229Y-63869059D01*
X122419079Y-63872965D01*
X122376167Y-63872066D01*
X122348799Y-63866049D01*
X122314607Y-63851111D01*
X122287023Y-63831939D01*
X122264979Y-63809112D01*
X122243755Y-63776178D01*
X122234120Y-63751843D01*
X122226372Y-63709629D01*
X122226712Y-63685301D01*
X122235247Y-63645144D01*
X122247015Y-63617688D01*
X122267040Y-63588441D01*
X122292374Y-63563633D01*
X122317373Y-63547273D01*
X122355433Y-63531897D01*
X122379327Y-63527339D01*
X122422255Y-63527637D01*
X122447890Y-63532900D01*
X122484007Y-63548082D01*
X122510316Y-63565828D01*
X122533987Y-63589665D01*
X122554635Y-63620742D01*
X122565312Y-63646647D01*
X122573310Y-63687038D01*
X122573310Y-63687038D01*
G37*
G36*
X125004839Y-23147160D02*
X125003700Y-23147160D01*
X120131700Y-23147160D01*
X120130560Y-23147160D01*
X120130560Y-21323160D01*
X120131700Y-21323160D01*
X125003700Y-21323160D01*
X125004839Y-21323160D01*
X125004839Y-23147160D01*
X125004839Y-23147160D01*
G37*
G36*
X125004839Y-29471760D02*
X125003700Y-29471760D01*
X120131700Y-29471760D01*
X120130560Y-29471760D01*
X120130560Y-27647760D01*
X120131700Y-27647760D01*
X125003700Y-27647760D01*
X125004839Y-27647760D01*
X125004839Y-29471760D01*
X125004839Y-29471760D01*
G37*
M02*
