%FSLAX46Y46*%
G04 Gerber Fmt 4.6, Leading zero omitted, Abs format (unit mm)*
G04 Created by KiCad (PCBNEW (2014-10-31 BZR 5243)-product) date So 05 Apr 2015 19:44:44 CEST*
%MOMM*%
G01*
G04 APERTURE LIST*
%ADD10C,0.100000*%
%ADD11C,0.300000*%
%ADD12C,0.150000*%
%ADD13C,0.381000*%
%ADD14C,0.200660*%
%ADD15C,0.099060*%
%ADD16C,0.127000*%
%ADD17C,0.050000*%
%ADD18C,0.304800*%
%ADD19C,0.076200*%
%ADD20C,0.152400*%
%ADD21R,1.100000X1.900000*%
%ADD22R,2.400000X3.300000*%
%ADD23R,2.332000X2.332000*%
%ADD24O,2.332000X2.332000*%
%ADD25R,0.800000X0.900000*%
%ADD26R,1.050000X1.100000*%
%ADD27R,0.900000X0.800000*%
%ADD28R,1.100000X1.050000*%
%ADD29R,1.200000X0.800000*%
%ADD30R,1.570000X2.840000*%
%ADD31R,1.600000X1.000000*%
%ADD32R,1.300000X1.550000*%
%ADD33R,1.200000X0.700000*%
%ADD34R,2.100000X0.900000*%
%ADD35R,2.250720X2.799360*%
%ADD36R,0.808000X1.443000*%
%ADD37C,1.800000*%
%ADD38R,1.900200X1.199160*%
%ADD39R,1.001040X1.300760*%
%ADD40R,1.300000X1.300000*%
%ADD41R,1.400000X0.700000*%
%ADD42R,4.872000X1.824000*%
%ADD43R,1.300000X1.900000*%
%ADD44O,1.050000X0.600000*%
%ADD45O,0.600000X1.050000*%
%ADD46R,1.200000X1.200000*%
%ADD47R,0.800000X1.200000*%
%ADD48R,2.535200X2.535200*%
%ADD49R,2.200000X2.200000*%
%ADD50C,0.345000*%
%ADD51R,0.900000X1.850000*%
%ADD52R,1.100100X1.600480*%
%ADD53R,2.601240X2.799360*%
G04 APERTURE END LIST*
D10*
D11*
X122742857Y-57078571D02*
X122742857Y-55578571D01*
X122100000Y-57078571D02*
X122100000Y-56292857D01*
X122171429Y-56150000D01*
X122314286Y-56078571D01*
X122528571Y-56078571D01*
X122671429Y-56150000D01*
X122742857Y-56221429D01*
X121600000Y-56078571D02*
X121028571Y-56078571D01*
X121385714Y-55578571D02*
X121385714Y-56864286D01*
X121314286Y-57007143D01*
X121171428Y-57078571D01*
X121028571Y-57078571D01*
X120742857Y-56078571D02*
X120171428Y-56078571D01*
X120528571Y-55578571D02*
X120528571Y-56864286D01*
X120457143Y-57007143D01*
X120314285Y-57078571D01*
X120171428Y-57078571D01*
X119671428Y-56078571D02*
X119671428Y-57578571D01*
X119671428Y-56150000D02*
X119528571Y-56078571D01*
X119242857Y-56078571D01*
X119100000Y-56150000D01*
X119028571Y-56221429D01*
X118957142Y-56364286D01*
X118957142Y-56792857D01*
X119028571Y-56935714D01*
X119100000Y-57007143D01*
X119242857Y-57078571D01*
X119528571Y-57078571D01*
X119671428Y-57007143D01*
X118385714Y-57007143D02*
X118242857Y-57078571D01*
X117957142Y-57078571D01*
X117814285Y-57007143D01*
X117742857Y-56864286D01*
X117742857Y-56792857D01*
X117814285Y-56650000D01*
X117957142Y-56578571D01*
X118171428Y-56578571D01*
X118314285Y-56507143D01*
X118385714Y-56364286D01*
X118385714Y-56292857D01*
X118314285Y-56150000D01*
X118171428Y-56078571D01*
X117957142Y-56078571D01*
X117814285Y-56150000D01*
X117099999Y-56935714D02*
X117028571Y-57007143D01*
X117099999Y-57078571D01*
X117171428Y-57007143D01*
X117099999Y-56935714D01*
X117099999Y-57078571D01*
X117099999Y-56150000D02*
X117028571Y-56221429D01*
X117099999Y-56292857D01*
X117171428Y-56221429D01*
X117099999Y-56150000D01*
X117099999Y-56292857D01*
X115314285Y-55507143D02*
X116599999Y-57435714D01*
X113742856Y-55507143D02*
X115028570Y-57435714D01*
X112599998Y-56078571D02*
X112599998Y-57292857D01*
X112671427Y-57435714D01*
X112742855Y-57507143D01*
X112885712Y-57578571D01*
X113099998Y-57578571D01*
X113242855Y-57507143D01*
X112599998Y-57007143D02*
X112742855Y-57078571D01*
X113028569Y-57078571D01*
X113171427Y-57007143D01*
X113242855Y-56935714D01*
X113314284Y-56792857D01*
X113314284Y-56364286D01*
X113242855Y-56221429D01*
X113171427Y-56150000D01*
X113028569Y-56078571D01*
X112742855Y-56078571D01*
X112599998Y-56150000D01*
X111885712Y-57078571D02*
X111885712Y-56078571D01*
X111885712Y-55578571D02*
X111957141Y-55650000D01*
X111885712Y-55721429D01*
X111814284Y-55650000D01*
X111885712Y-55578571D01*
X111885712Y-55721429D01*
X111385712Y-56078571D02*
X110814283Y-56078571D01*
X111171426Y-55578571D02*
X111171426Y-56864286D01*
X111099998Y-57007143D01*
X110957140Y-57078571D01*
X110814283Y-57078571D01*
X110314283Y-57078571D02*
X110314283Y-55578571D01*
X109671426Y-57078571D02*
X109671426Y-56292857D01*
X109742855Y-56150000D01*
X109885712Y-56078571D01*
X110099997Y-56078571D01*
X110242855Y-56150000D01*
X110314283Y-56221429D01*
X108314283Y-56078571D02*
X108314283Y-57078571D01*
X108957140Y-56078571D02*
X108957140Y-56864286D01*
X108885712Y-57007143D01*
X108742854Y-57078571D01*
X108528569Y-57078571D01*
X108385712Y-57007143D01*
X108314283Y-56935714D01*
X107599997Y-57078571D02*
X107599997Y-55578571D01*
X107599997Y-56150000D02*
X107457140Y-56078571D01*
X107171426Y-56078571D01*
X107028569Y-56150000D01*
X106957140Y-56221429D01*
X106885711Y-56364286D01*
X106885711Y-56792857D01*
X106957140Y-56935714D01*
X107028569Y-57007143D01*
X107171426Y-57078571D01*
X107457140Y-57078571D01*
X107599997Y-57007143D01*
X106242854Y-56935714D02*
X106171426Y-57007143D01*
X106242854Y-57078571D01*
X106314283Y-57007143D01*
X106242854Y-56935714D01*
X106242854Y-57078571D01*
X104885711Y-57007143D02*
X105028568Y-57078571D01*
X105314282Y-57078571D01*
X105457140Y-57007143D01*
X105528568Y-56935714D01*
X105599997Y-56792857D01*
X105599997Y-56364286D01*
X105528568Y-56221429D01*
X105457140Y-56150000D01*
X105314282Y-56078571D01*
X105028568Y-56078571D01*
X104885711Y-56150000D01*
X104028568Y-57078571D02*
X104171426Y-57007143D01*
X104242854Y-56935714D01*
X104314283Y-56792857D01*
X104314283Y-56364286D01*
X104242854Y-56221429D01*
X104171426Y-56150000D01*
X104028568Y-56078571D01*
X103814283Y-56078571D01*
X103671426Y-56150000D01*
X103599997Y-56221429D01*
X103528568Y-56364286D01*
X103528568Y-56792857D01*
X103599997Y-56935714D01*
X103671426Y-57007143D01*
X103814283Y-57078571D01*
X104028568Y-57078571D01*
X102885711Y-57078571D02*
X102885711Y-56078571D01*
X102885711Y-56221429D02*
X102814283Y-56150000D01*
X102671425Y-56078571D01*
X102457140Y-56078571D01*
X102314283Y-56150000D01*
X102242854Y-56292857D01*
X102242854Y-57078571D01*
X102242854Y-56292857D02*
X102171425Y-56150000D01*
X102028568Y-56078571D01*
X101814283Y-56078571D01*
X101671425Y-56150000D01*
X101599997Y-56292857D01*
X101599997Y-57078571D01*
X99814283Y-55507143D02*
X101099997Y-57435714D01*
X98742854Y-57007143D02*
X98885711Y-57078571D01*
X99171425Y-57078571D01*
X99314282Y-57007143D01*
X99385711Y-56864286D01*
X99385711Y-56292857D01*
X99314282Y-56150000D01*
X99171425Y-56078571D01*
X98885711Y-56078571D01*
X98742854Y-56150000D01*
X98671425Y-56292857D01*
X98671425Y-56435714D01*
X99385711Y-56578571D01*
X98028568Y-56078571D02*
X98028568Y-57578571D01*
X98028568Y-56150000D02*
X97885711Y-56078571D01*
X97599997Y-56078571D01*
X97457140Y-56150000D01*
X97385711Y-56221429D01*
X97314282Y-56364286D01*
X97314282Y-56792857D01*
X97385711Y-56935714D01*
X97457140Y-57007143D01*
X97599997Y-57078571D01*
X97885711Y-57078571D01*
X98028568Y-57007143D01*
X96385711Y-55578571D02*
X96242854Y-55578571D01*
X96099997Y-55650000D01*
X96028568Y-55721429D01*
X95957139Y-55864286D01*
X95885711Y-56150000D01*
X95885711Y-56507143D01*
X95957139Y-56792857D01*
X96028568Y-56935714D01*
X96099997Y-57007143D01*
X96242854Y-57078571D01*
X96385711Y-57078571D01*
X96528568Y-57007143D01*
X96599997Y-56935714D01*
X96671425Y-56792857D01*
X96742854Y-56507143D01*
X96742854Y-56150000D01*
X96671425Y-55864286D01*
X96599997Y-55721429D01*
X96528568Y-55650000D01*
X96385711Y-55578571D01*
X95171426Y-57078571D02*
X94885711Y-57078571D01*
X94742854Y-57007143D01*
X94671426Y-56935714D01*
X94528568Y-56721429D01*
X94457140Y-56435714D01*
X94457140Y-55864286D01*
X94528568Y-55721429D01*
X94599997Y-55650000D01*
X94742854Y-55578571D01*
X95028568Y-55578571D01*
X95171426Y-55650000D01*
X95242854Y-55721429D01*
X95314283Y-55864286D01*
X95314283Y-56221429D01*
X95242854Y-56364286D01*
X95171426Y-56435714D01*
X95028568Y-56507143D01*
X94742854Y-56507143D01*
X94599997Y-56435714D01*
X94528568Y-56364286D01*
X94457140Y-56221429D01*
X93885712Y-55721429D02*
X93814283Y-55650000D01*
X93671426Y-55578571D01*
X93314283Y-55578571D01*
X93171426Y-55650000D01*
X93099997Y-55721429D01*
X93028569Y-55864286D01*
X93028569Y-56007143D01*
X93099997Y-56221429D01*
X93957140Y-57078571D01*
X93028569Y-57078571D01*
X122885714Y-58478571D02*
X122528571Y-59478571D01*
X122171429Y-58478571D01*
X121314286Y-57978571D02*
X121171429Y-57978571D01*
X121028572Y-58050000D01*
X120957143Y-58121429D01*
X120885714Y-58264286D01*
X120814286Y-58550000D01*
X120814286Y-58907143D01*
X120885714Y-59192857D01*
X120957143Y-59335714D01*
X121028572Y-59407143D01*
X121171429Y-59478571D01*
X121314286Y-59478571D01*
X121457143Y-59407143D01*
X121528572Y-59335714D01*
X121600000Y-59192857D01*
X121671429Y-58907143D01*
X121671429Y-58550000D01*
X121600000Y-58264286D01*
X121528572Y-58121429D01*
X121457143Y-58050000D01*
X121314286Y-57978571D01*
X120171429Y-59335714D02*
X120100001Y-59407143D01*
X120171429Y-59478571D01*
X120242858Y-59407143D01*
X120171429Y-59335714D01*
X120171429Y-59478571D01*
X118671429Y-59478571D02*
X119528572Y-59478571D01*
X119100000Y-59478571D02*
X119100000Y-57978571D01*
X119242857Y-58192857D01*
X119385715Y-58335714D01*
X119528572Y-58407143D01*
D12*
X78780000Y-25790000D02*
X78280000Y-26290000D01*
X78280000Y-26290000D02*
X79280000Y-26290000D01*
X79280000Y-26290000D02*
X78780000Y-25790000D01*
X76575000Y-26850000D02*
X76575000Y-27350000D01*
X75625000Y-27350000D02*
X75625000Y-26850000D01*
X80600000Y-28850000D02*
X80600000Y-28150000D01*
X79400000Y-28150000D02*
X79400000Y-28850000D01*
X108975000Y-27350000D02*
X108975000Y-27850000D01*
X108025000Y-27850000D02*
X108025000Y-27350000D01*
X85450000Y-39225000D02*
X85950000Y-39225000D01*
X85950000Y-40175000D02*
X85450000Y-40175000D01*
X96450000Y-36125000D02*
X96950000Y-36125000D01*
X96950000Y-37075000D02*
X96450000Y-37075000D01*
X97050000Y-34600000D02*
X96350000Y-34600000D01*
X96350000Y-35800000D02*
X97050000Y-35800000D01*
X86125000Y-48400000D02*
X86125000Y-49400000D01*
X87475000Y-49400000D02*
X87475000Y-48400000D01*
X84325000Y-48400000D02*
X84325000Y-49400000D01*
X85675000Y-49400000D02*
X85675000Y-48400000D01*
D13*
X95804000Y-25716000D02*
X95804000Y-23684000D01*
X106980000Y-20890000D02*
X95550000Y-20890000D01*
X95550000Y-20890000D02*
X95550000Y-28510000D01*
X95550000Y-28510000D02*
X106980000Y-28510000D01*
X106980000Y-28510000D02*
X106980000Y-20890000D01*
D12*
X80675000Y-31600000D02*
X80675000Y-30600000D01*
X79325000Y-30600000D02*
X79325000Y-31600000D01*
X113175000Y-31400000D02*
X113175000Y-30200000D01*
X111425000Y-30200000D02*
X111425000Y-31400000D01*
X107825000Y-23100000D02*
X107825000Y-24100000D01*
X109175000Y-24100000D02*
X109175000Y-23100000D01*
X102800000Y-34350000D02*
X101800000Y-34350000D01*
X101800000Y-32650000D02*
X102800000Y-32650000D01*
X97100000Y-34125000D02*
X97900000Y-34125000D01*
X97100000Y-30875000D02*
X97900000Y-30875000D01*
X77950000Y-32000000D02*
G75*
G03X77950000Y-32000000I-250000J0D01*
G01*
X77050000Y-31700000D02*
X77050000Y-28400000D01*
X77050000Y-28400000D02*
X78350000Y-28400000D01*
X78350000Y-28400000D02*
X78350000Y-31700000D01*
X78350000Y-31700000D02*
X77050000Y-31700000D01*
X99400260Y-41499920D02*
X99400260Y-37700080D01*
X104899360Y-41499920D02*
X99900640Y-41499920D01*
X104896820Y-37700080D02*
X99898100Y-37700080D01*
X98798280Y-42602280D02*
X98798280Y-41502460D01*
X98198840Y-42101900D02*
X99397720Y-42101900D01*
X99400260Y-38499920D02*
X99400260Y-34700080D01*
X104899360Y-38499920D02*
X99900640Y-38499920D01*
X104896820Y-34700080D02*
X99898100Y-34700080D01*
X98798280Y-39602280D02*
X98798280Y-38502460D01*
X98198840Y-39101900D02*
X99397720Y-39101900D01*
X109860000Y-26786000D02*
X114940000Y-26786000D01*
X114940000Y-26786000D02*
X114940000Y-22214000D01*
X114940000Y-22214000D02*
X109860000Y-22214000D01*
X109860000Y-22214000D02*
X109860000Y-26786000D01*
X109860000Y-25262000D02*
X110368000Y-25262000D01*
X110368000Y-25262000D02*
X110368000Y-23992000D01*
X110368000Y-23992000D02*
X109860000Y-23992000D01*
D14*
X85999360Y-35049000D02*
X85999360Y-35000740D01*
X85999360Y-35000740D02*
X81000640Y-35000740D01*
X81000640Y-35000740D02*
X81000640Y-35049000D01*
X85999360Y-38399260D02*
X81000640Y-38399260D01*
X85999360Y-35049000D02*
X85999360Y-38399260D01*
X81000640Y-38399260D02*
X81000640Y-35000740D01*
D15*
X112487200Y-34496800D02*
X112487200Y-35081000D01*
X112487200Y-34598400D02*
X112487200Y-33963400D01*
X112284000Y-34598400D02*
X112157000Y-34496800D01*
X112284000Y-34598400D02*
X112665000Y-34598400D01*
X112665000Y-34598400D02*
X112766600Y-34725400D01*
X112334800Y-34369800D02*
X112614200Y-34369800D01*
X112614200Y-34369800D02*
X112487200Y-34573000D01*
X112487200Y-34573000D02*
X112334800Y-34369800D01*
X112487200Y-35081000D02*
X113300000Y-35081000D01*
X113300000Y-35081000D02*
X113300000Y-35462000D01*
D16*
X114570000Y-33938000D02*
X111966500Y-33938000D01*
X111966500Y-33938000D02*
X111966500Y-35462000D01*
X111966500Y-35462000D02*
X114570000Y-35462000D01*
X114570000Y-35462000D02*
X114570000Y-33938000D01*
D12*
X88375000Y-40975000D02*
X88375000Y-40650000D01*
X93025000Y-40975000D02*
X93025000Y-40650000D01*
X93025000Y-31025000D02*
X93025000Y-31350000D01*
X88375000Y-31025000D02*
X88375000Y-31350000D01*
X88375000Y-40975000D02*
X93025000Y-40975000D01*
X88375000Y-31025000D02*
X93025000Y-31025000D01*
X88375000Y-40650000D02*
X87300000Y-40650000D01*
X92450000Y-66100000D02*
X93150000Y-66100000D01*
X93150000Y-64900000D02*
X92450000Y-64900000D01*
X92750000Y-64575000D02*
X92250000Y-64575000D01*
X92250000Y-63625000D02*
X92750000Y-63625000D01*
X94775000Y-60550000D02*
X94775000Y-61050000D01*
X93825000Y-61050000D02*
X93825000Y-60550000D01*
X88150000Y-61575000D02*
X87650000Y-61575000D01*
X87650000Y-60625000D02*
X88150000Y-60625000D01*
X90050000Y-63500000D02*
X89350000Y-63500000D01*
X89350000Y-64700000D02*
X90050000Y-64700000D01*
X87900000Y-64875000D02*
X89900000Y-64875000D01*
X89900000Y-66925000D02*
X87900000Y-66925000D01*
X92925000Y-62725000D02*
X92925000Y-62225000D01*
X89675000Y-59475000D02*
X89675000Y-59975000D01*
X92925000Y-59475000D02*
X92925000Y-59975000D01*
X89675000Y-62725000D02*
X90175000Y-62725000D01*
X89675000Y-59475000D02*
X90175000Y-59475000D01*
X92925000Y-59475000D02*
X92425000Y-59475000D01*
X92925000Y-62725000D02*
X92425000Y-62725000D01*
X88300000Y-59025000D02*
X87300000Y-59025000D01*
X87300000Y-60375000D02*
X88300000Y-60375000D01*
X91100000Y-57425000D02*
X90100000Y-57425000D01*
X90100000Y-58775000D02*
X91100000Y-58775000D01*
D17*
X121650000Y-62450000D02*
X122650000Y-62450000D01*
X122650000Y-62450000D02*
X122650000Y-63950000D01*
X122650000Y-63950000D02*
X121650000Y-63950000D01*
X121650000Y-63950000D02*
X121650000Y-62450000D01*
D12*
X78900000Y-33725000D02*
X77900000Y-33725000D01*
X77900000Y-35075000D02*
X78900000Y-35075000D01*
X88725000Y-23425000D02*
X88870000Y-23425000D01*
X88725000Y-27575000D02*
X88870000Y-27575000D01*
X93875000Y-27575000D02*
X93730000Y-27575000D01*
X93875000Y-23425000D02*
X93730000Y-23425000D01*
X88725000Y-23425000D02*
X88725000Y-27575000D01*
X93875000Y-23425000D02*
X93875000Y-27575000D01*
X88870000Y-23425000D02*
X88870000Y-22025000D01*
D15*
X84932000Y-31405000D02*
X80868000Y-31405000D01*
X84932000Y-27595000D02*
X80868000Y-27595000D01*
X80868000Y-27595000D02*
X80868000Y-31405000D01*
X84932000Y-31278000D02*
X84932000Y-31405000D01*
X84932000Y-27595000D02*
X84932000Y-31278000D01*
X84932000Y-28992000D02*
X84424000Y-28992000D01*
X84424000Y-28992000D02*
X84424000Y-30008000D01*
X84424000Y-30008000D02*
X84932000Y-30008000D01*
D12*
X91450000Y-21675000D02*
X90950000Y-21675000D01*
X90950000Y-20725000D02*
X91450000Y-20725000D01*
X90750000Y-30475000D02*
X90250000Y-30475000D01*
X90250000Y-29525000D02*
X90750000Y-29525000D01*
X84850060Y-61298760D02*
X84700200Y-61298760D01*
X84850060Y-65550720D02*
X84751000Y-65550720D01*
X84850060Y-65901240D02*
X84751000Y-65901240D01*
X81349940Y-61298760D02*
X81449000Y-61298760D01*
X81349940Y-65550720D02*
X81449000Y-65550720D01*
X81349940Y-65901240D02*
X81449000Y-65901240D01*
X85098980Y-65550720D02*
X84900860Y-65550720D01*
X81101020Y-65550720D02*
X81299140Y-65550720D01*
X85096440Y-65896160D02*
X84898320Y-65896160D01*
X85096440Y-61293680D02*
X85096440Y-65896160D01*
X85096440Y-61293680D02*
X84898320Y-61293680D01*
X81101020Y-61298760D02*
X81299140Y-61298760D01*
X81101020Y-61298760D02*
X81101020Y-65901240D01*
X81101020Y-65901240D02*
X81299140Y-65901240D01*
X82038095Y-23252381D02*
X82038095Y-22252381D01*
X81657142Y-22252381D01*
X81561904Y-22300000D01*
X81514285Y-22347619D01*
X81466666Y-22442857D01*
X81466666Y-22585714D01*
X81514285Y-22680952D01*
X81561904Y-22728571D01*
X81657142Y-22776190D01*
X82038095Y-22776190D01*
X81133333Y-22252381D02*
X80514285Y-22252381D01*
X80847619Y-22633333D01*
X80704761Y-22633333D01*
X80609523Y-22680952D01*
X80561904Y-22728571D01*
X80514285Y-22823810D01*
X80514285Y-23061905D01*
X80561904Y-23157143D01*
X80609523Y-23204762D01*
X80704761Y-23252381D01*
X80990476Y-23252381D01*
X81085714Y-23204762D01*
X81133333Y-23157143D01*
X77657143Y-26157143D02*
X77704762Y-26109524D01*
X77752381Y-25966667D01*
X77752381Y-25871429D01*
X77704762Y-25728571D01*
X77609524Y-25633333D01*
X77514286Y-25585714D01*
X77323810Y-25538095D01*
X77180952Y-25538095D01*
X76990476Y-25585714D01*
X76895238Y-25633333D01*
X76800000Y-25728571D01*
X76752381Y-25871429D01*
X76752381Y-25966667D01*
X76800000Y-26109524D01*
X76847619Y-26157143D01*
X76847619Y-26538095D02*
X76800000Y-26585714D01*
X76752381Y-26680952D01*
X76752381Y-26919048D01*
X76800000Y-27014286D01*
X76847619Y-27061905D01*
X76942857Y-27109524D01*
X77038095Y-27109524D01*
X77180952Y-27061905D01*
X77752381Y-26490476D01*
X77752381Y-27109524D01*
X77085714Y-27966667D02*
X77752381Y-27966667D01*
X76704762Y-27728571D02*
X77419048Y-27490476D01*
X77419048Y-28109524D01*
X82742857Y-28857143D02*
X82790476Y-28904762D01*
X82933333Y-28952381D01*
X83028571Y-28952381D01*
X83171429Y-28904762D01*
X83266667Y-28809524D01*
X83314286Y-28714286D01*
X83361905Y-28523810D01*
X83361905Y-28380952D01*
X83314286Y-28190476D01*
X83266667Y-28095238D01*
X83171429Y-28000000D01*
X83028571Y-27952381D01*
X82933333Y-27952381D01*
X82790476Y-28000000D01*
X82742857Y-28047619D01*
X82361905Y-28047619D02*
X82314286Y-28000000D01*
X82219048Y-27952381D01*
X81980952Y-27952381D01*
X81885714Y-28000000D01*
X81838095Y-28047619D01*
X81790476Y-28142857D01*
X81790476Y-28238095D01*
X81838095Y-28380952D01*
X82409524Y-28952381D01*
X81790476Y-28952381D01*
X81219048Y-28380952D02*
X81314286Y-28333333D01*
X81361905Y-28285714D01*
X81409524Y-28190476D01*
X81409524Y-28142857D01*
X81361905Y-28047619D01*
X81314286Y-28000000D01*
X81219048Y-27952381D01*
X81028571Y-27952381D01*
X80933333Y-28000000D01*
X80885714Y-28047619D01*
X80838095Y-28142857D01*
X80838095Y-28190476D01*
X80885714Y-28285714D01*
X80933333Y-28333333D01*
X81028571Y-28380952D01*
X81219048Y-28380952D01*
X81314286Y-28428571D01*
X81361905Y-28476190D01*
X81409524Y-28571429D01*
X81409524Y-28761905D01*
X81361905Y-28857143D01*
X81314286Y-28904762D01*
X81219048Y-28952381D01*
X81028571Y-28952381D01*
X80933333Y-28904762D01*
X80885714Y-28857143D01*
X80838095Y-28761905D01*
X80838095Y-28571429D01*
X80885714Y-28476190D01*
X80933333Y-28428571D01*
X81028571Y-28380952D01*
X108842857Y-30057143D02*
X108890476Y-30104762D01*
X109033333Y-30152381D01*
X109128571Y-30152381D01*
X109271429Y-30104762D01*
X109366667Y-30009524D01*
X109414286Y-29914286D01*
X109461905Y-29723810D01*
X109461905Y-29580952D01*
X109414286Y-29390476D01*
X109366667Y-29295238D01*
X109271429Y-29200000D01*
X109128571Y-29152381D01*
X109033333Y-29152381D01*
X108890476Y-29200000D01*
X108842857Y-29247619D01*
X108461905Y-29247619D02*
X108414286Y-29200000D01*
X108319048Y-29152381D01*
X108080952Y-29152381D01*
X107985714Y-29200000D01*
X107938095Y-29247619D01*
X107890476Y-29342857D01*
X107890476Y-29438095D01*
X107938095Y-29580952D01*
X108509524Y-30152381D01*
X107890476Y-30152381D01*
X107414286Y-30152381D02*
X107223810Y-30152381D01*
X107128571Y-30104762D01*
X107080952Y-30057143D01*
X106985714Y-29914286D01*
X106938095Y-29723810D01*
X106938095Y-29342857D01*
X106985714Y-29247619D01*
X107033333Y-29200000D01*
X107128571Y-29152381D01*
X107319048Y-29152381D01*
X107414286Y-29200000D01*
X107461905Y-29247619D01*
X107509524Y-29342857D01*
X107509524Y-29580952D01*
X107461905Y-29676190D01*
X107414286Y-29723810D01*
X107319048Y-29771429D01*
X107128571Y-29771429D01*
X107033333Y-29723810D01*
X106985714Y-29676190D01*
X106938095Y-29580952D01*
X86150000Y-40850000D02*
X86183334Y-40883333D01*
X86283334Y-40916667D01*
X86350000Y-40916667D01*
X86450000Y-40883333D01*
X86516667Y-40816667D01*
X86550000Y-40750000D01*
X86583334Y-40616667D01*
X86583334Y-40516667D01*
X86550000Y-40383333D01*
X86516667Y-40316667D01*
X86450000Y-40250000D01*
X86350000Y-40216667D01*
X86283334Y-40216667D01*
X86183334Y-40250000D01*
X86150000Y-40283333D01*
X85916667Y-40216667D02*
X85483334Y-40216667D01*
X85716667Y-40483333D01*
X85616667Y-40483333D01*
X85550000Y-40516667D01*
X85516667Y-40550000D01*
X85483334Y-40616667D01*
X85483334Y-40783333D01*
X85516667Y-40850000D01*
X85550000Y-40883333D01*
X85616667Y-40916667D01*
X85816667Y-40916667D01*
X85883334Y-40883333D01*
X85916667Y-40850000D01*
X85050000Y-40216667D02*
X84983333Y-40216667D01*
X84916667Y-40250000D01*
X84883333Y-40283333D01*
X84850000Y-40350000D01*
X84816667Y-40483333D01*
X84816667Y-40650000D01*
X84850000Y-40783333D01*
X84883333Y-40850000D01*
X84916667Y-40883333D01*
X84983333Y-40916667D01*
X85050000Y-40916667D01*
X85116667Y-40883333D01*
X85150000Y-40850000D01*
X85183333Y-40783333D01*
X85216667Y-40650000D01*
X85216667Y-40483333D01*
X85183333Y-40350000D01*
X85150000Y-40283333D01*
X85116667Y-40250000D01*
X85050000Y-40216667D01*
X98142857Y-38257143D02*
X98190476Y-38304762D01*
X98333333Y-38352381D01*
X98428571Y-38352381D01*
X98571429Y-38304762D01*
X98666667Y-38209524D01*
X98714286Y-38114286D01*
X98761905Y-37923810D01*
X98761905Y-37780952D01*
X98714286Y-37590476D01*
X98666667Y-37495238D01*
X98571429Y-37400000D01*
X98428571Y-37352381D01*
X98333333Y-37352381D01*
X98190476Y-37400000D01*
X98142857Y-37447619D01*
X97809524Y-37352381D02*
X97190476Y-37352381D01*
X97523810Y-37733333D01*
X97380952Y-37733333D01*
X97285714Y-37780952D01*
X97238095Y-37828571D01*
X97190476Y-37923810D01*
X97190476Y-38161905D01*
X97238095Y-38257143D01*
X97285714Y-38304762D01*
X97380952Y-38352381D01*
X97666667Y-38352381D01*
X97761905Y-38304762D01*
X97809524Y-38257143D01*
X96857143Y-37352381D02*
X96238095Y-37352381D01*
X96571429Y-37733333D01*
X96428571Y-37733333D01*
X96333333Y-37780952D01*
X96285714Y-37828571D01*
X96238095Y-37923810D01*
X96238095Y-38161905D01*
X96285714Y-38257143D01*
X96333333Y-38304762D01*
X96428571Y-38352381D01*
X96714286Y-38352381D01*
X96809524Y-38304762D01*
X96857143Y-38257143D01*
X95257143Y-34457143D02*
X95304762Y-34409524D01*
X95352381Y-34266667D01*
X95352381Y-34171429D01*
X95304762Y-34028571D01*
X95209524Y-33933333D01*
X95114286Y-33885714D01*
X94923810Y-33838095D01*
X94780952Y-33838095D01*
X94590476Y-33885714D01*
X94495238Y-33933333D01*
X94400000Y-34028571D01*
X94352381Y-34171429D01*
X94352381Y-34266667D01*
X94400000Y-34409524D01*
X94447619Y-34457143D01*
X94352381Y-34790476D02*
X94352381Y-35409524D01*
X94733333Y-35076190D01*
X94733333Y-35219048D01*
X94780952Y-35314286D01*
X94828571Y-35361905D01*
X94923810Y-35409524D01*
X95161905Y-35409524D01*
X95257143Y-35361905D01*
X95304762Y-35314286D01*
X95352381Y-35219048D01*
X95352381Y-34933333D01*
X95304762Y-34838095D01*
X95257143Y-34790476D01*
X94685714Y-36266667D02*
X95352381Y-36266667D01*
X94304762Y-36028571D02*
X95019048Y-35790476D01*
X95019048Y-36409524D01*
X87252381Y-50857143D02*
X86776190Y-50523809D01*
X87252381Y-50285714D02*
X86252381Y-50285714D01*
X86252381Y-50666667D01*
X86300000Y-50761905D01*
X86347619Y-50809524D01*
X86442857Y-50857143D01*
X86585714Y-50857143D01*
X86680952Y-50809524D01*
X86728571Y-50761905D01*
X86776190Y-50666667D01*
X86776190Y-50285714D01*
X87252381Y-51809524D02*
X87252381Y-51238095D01*
X87252381Y-51523809D02*
X86252381Y-51523809D01*
X86395238Y-51428571D01*
X86490476Y-51333333D01*
X86538095Y-51238095D01*
X86347619Y-52190476D02*
X86300000Y-52238095D01*
X86252381Y-52333333D01*
X86252381Y-52571429D01*
X86300000Y-52666667D01*
X86347619Y-52714286D01*
X86442857Y-52761905D01*
X86538095Y-52761905D01*
X86680952Y-52714286D01*
X87252381Y-52142857D01*
X87252381Y-52761905D01*
X85452381Y-50857143D02*
X84976190Y-50523809D01*
X85452381Y-50285714D02*
X84452381Y-50285714D01*
X84452381Y-50666667D01*
X84500000Y-50761905D01*
X84547619Y-50809524D01*
X84642857Y-50857143D01*
X84785714Y-50857143D01*
X84880952Y-50809524D01*
X84928571Y-50761905D01*
X84976190Y-50666667D01*
X84976190Y-50285714D01*
X85452381Y-51809524D02*
X85452381Y-51238095D01*
X85452381Y-51523809D02*
X84452381Y-51523809D01*
X84595238Y-51428571D01*
X84690476Y-51333333D01*
X84738095Y-51238095D01*
X84785714Y-52666667D02*
X85452381Y-52666667D01*
X84404762Y-52428571D02*
X85119048Y-52190476D01*
X85119048Y-52809524D01*
D18*
X99424857Y-25389429D02*
X99424857Y-23865429D01*
X98844285Y-23865429D01*
X98699143Y-23938000D01*
X98626571Y-24010571D01*
X98554000Y-24155714D01*
X98554000Y-24373429D01*
X98626571Y-24518571D01*
X98699143Y-24591143D01*
X98844285Y-24663714D01*
X99424857Y-24663714D01*
X97973428Y-24010571D02*
X97900857Y-23938000D01*
X97755714Y-23865429D01*
X97392857Y-23865429D01*
X97247714Y-23938000D01*
X97175143Y-24010571D01*
X97102571Y-24155714D01*
X97102571Y-24300857D01*
X97175143Y-24518571D01*
X98046000Y-25389429D01*
X97102571Y-25389429D01*
D12*
X82642857Y-31752381D02*
X82976191Y-31276190D01*
X83214286Y-31752381D02*
X83214286Y-30752381D01*
X82833333Y-30752381D01*
X82738095Y-30800000D01*
X82690476Y-30847619D01*
X82642857Y-30942857D01*
X82642857Y-31085714D01*
X82690476Y-31180952D01*
X82738095Y-31228571D01*
X82833333Y-31276190D01*
X83214286Y-31276190D01*
X81690476Y-31752381D02*
X82261905Y-31752381D01*
X81976191Y-31752381D02*
X81976191Y-30752381D01*
X82071429Y-30895238D01*
X82166667Y-30990476D01*
X82261905Y-31038095D01*
X81357143Y-30752381D02*
X80738095Y-30752381D01*
X81071429Y-31133333D01*
X80928571Y-31133333D01*
X80833333Y-31180952D01*
X80785714Y-31228571D01*
X80738095Y-31323810D01*
X80738095Y-31561905D01*
X80785714Y-31657143D01*
X80833333Y-31704762D01*
X80928571Y-31752381D01*
X81214286Y-31752381D01*
X81309524Y-31704762D01*
X81357143Y-31657143D01*
X114452381Y-29657143D02*
X113976190Y-29323809D01*
X114452381Y-29085714D02*
X113452381Y-29085714D01*
X113452381Y-29466667D01*
X113500000Y-29561905D01*
X113547619Y-29609524D01*
X113642857Y-29657143D01*
X113785714Y-29657143D01*
X113880952Y-29609524D01*
X113928571Y-29561905D01*
X113976190Y-29466667D01*
X113976190Y-29085714D01*
X113547619Y-30038095D02*
X113500000Y-30085714D01*
X113452381Y-30180952D01*
X113452381Y-30419048D01*
X113500000Y-30514286D01*
X113547619Y-30561905D01*
X113642857Y-30609524D01*
X113738095Y-30609524D01*
X113880952Y-30561905D01*
X114452381Y-29990476D01*
X114452381Y-30609524D01*
X113452381Y-30942857D02*
X113452381Y-31561905D01*
X113833333Y-31228571D01*
X113833333Y-31371429D01*
X113880952Y-31466667D01*
X113928571Y-31514286D01*
X114023810Y-31561905D01*
X114261905Y-31561905D01*
X114357143Y-31514286D01*
X114404762Y-31466667D01*
X114452381Y-31371429D01*
X114452381Y-31085714D01*
X114404762Y-30990476D01*
X114357143Y-30942857D01*
X109242857Y-22052381D02*
X109576191Y-21576190D01*
X109814286Y-22052381D02*
X109814286Y-21052381D01*
X109433333Y-21052381D01*
X109338095Y-21100000D01*
X109290476Y-21147619D01*
X109242857Y-21242857D01*
X109242857Y-21385714D01*
X109290476Y-21480952D01*
X109338095Y-21528571D01*
X109433333Y-21576190D01*
X109814286Y-21576190D01*
X108861905Y-21147619D02*
X108814286Y-21100000D01*
X108719048Y-21052381D01*
X108480952Y-21052381D01*
X108385714Y-21100000D01*
X108338095Y-21147619D01*
X108290476Y-21242857D01*
X108290476Y-21338095D01*
X108338095Y-21480952D01*
X108909524Y-22052381D01*
X108290476Y-22052381D01*
X107433333Y-21385714D02*
X107433333Y-22052381D01*
X107671429Y-21004762D02*
X107909524Y-21719048D01*
X107290476Y-21719048D01*
X106242857Y-33952381D02*
X106576191Y-33476190D01*
X106814286Y-33952381D02*
X106814286Y-32952381D01*
X106433333Y-32952381D01*
X106338095Y-33000000D01*
X106290476Y-33047619D01*
X106242857Y-33142857D01*
X106242857Y-33285714D01*
X106290476Y-33380952D01*
X106338095Y-33428571D01*
X106433333Y-33476190D01*
X106814286Y-33476190D01*
X105861905Y-33047619D02*
X105814286Y-33000000D01*
X105719048Y-32952381D01*
X105480952Y-32952381D01*
X105385714Y-33000000D01*
X105338095Y-33047619D01*
X105290476Y-33142857D01*
X105290476Y-33238095D01*
X105338095Y-33380952D01*
X105909524Y-33952381D01*
X105290476Y-33952381D01*
X104814286Y-33952381D02*
X104623810Y-33952381D01*
X104528571Y-33904762D01*
X104480952Y-33857143D01*
X104385714Y-33714286D01*
X104338095Y-33523810D01*
X104338095Y-33142857D01*
X104385714Y-33047619D01*
X104433333Y-33000000D01*
X104528571Y-32952381D01*
X104719048Y-32952381D01*
X104814286Y-33000000D01*
X104861905Y-33047619D01*
X104909524Y-33142857D01*
X104909524Y-33380952D01*
X104861905Y-33476190D01*
X104814286Y-33523810D01*
X104719048Y-33571429D01*
X104528571Y-33571429D01*
X104433333Y-33523810D01*
X104385714Y-33476190D01*
X104338095Y-33380952D01*
X100152381Y-31133334D02*
X99676190Y-30800000D01*
X100152381Y-30561905D02*
X99152381Y-30561905D01*
X99152381Y-30942858D01*
X99200000Y-31038096D01*
X99247619Y-31085715D01*
X99342857Y-31133334D01*
X99485714Y-31133334D01*
X99580952Y-31085715D01*
X99628571Y-31038096D01*
X99676190Y-30942858D01*
X99676190Y-30561905D01*
X100152381Y-31561905D02*
X99152381Y-31561905D01*
X99152381Y-31942858D01*
X99200000Y-32038096D01*
X99247619Y-32085715D01*
X99342857Y-32133334D01*
X99485714Y-32133334D01*
X99580952Y-32085715D01*
X99628571Y-32038096D01*
X99676190Y-31942858D01*
X99676190Y-31561905D01*
X100152381Y-33085715D02*
X100152381Y-32514286D01*
X100152381Y-32800000D02*
X99152381Y-32800000D01*
X99295238Y-32704762D01*
X99390476Y-32609524D01*
X99438095Y-32514286D01*
X78926190Y-29623809D02*
X79402381Y-29623809D01*
X78402381Y-29290476D02*
X78926190Y-29623809D01*
X78402381Y-29957143D01*
X79402381Y-30814286D02*
X79402381Y-30242857D01*
X79402381Y-30528571D02*
X78402381Y-30528571D01*
X78545238Y-30433333D01*
X78640476Y-30338095D01*
X78688095Y-30242857D01*
X107542857Y-39857143D02*
X107590476Y-39904762D01*
X107733333Y-39952381D01*
X107828571Y-39952381D01*
X107971429Y-39904762D01*
X108066667Y-39809524D01*
X108114286Y-39714286D01*
X108161905Y-39523810D01*
X108161905Y-39380952D01*
X108114286Y-39190476D01*
X108066667Y-39095238D01*
X107971429Y-39000000D01*
X107828571Y-38952381D01*
X107733333Y-38952381D01*
X107590476Y-39000000D01*
X107542857Y-39047619D01*
X107209524Y-38952381D02*
X106590476Y-38952381D01*
X106923810Y-39333333D01*
X106780952Y-39333333D01*
X106685714Y-39380952D01*
X106638095Y-39428571D01*
X106590476Y-39523810D01*
X106590476Y-39761905D01*
X106638095Y-39857143D01*
X106685714Y-39904762D01*
X106780952Y-39952381D01*
X107066667Y-39952381D01*
X107161905Y-39904762D01*
X107209524Y-39857143D01*
X105685714Y-38952381D02*
X106161905Y-38952381D01*
X106209524Y-39428571D01*
X106161905Y-39380952D01*
X106066667Y-39333333D01*
X105828571Y-39333333D01*
X105733333Y-39380952D01*
X105685714Y-39428571D01*
X105638095Y-39523810D01*
X105638095Y-39761905D01*
X105685714Y-39857143D01*
X105733333Y-39904762D01*
X105828571Y-39952381D01*
X106066667Y-39952381D01*
X106161905Y-39904762D01*
X106209524Y-39857143D01*
X99181772Y-42170789D02*
X98419867Y-42170789D01*
X98800819Y-42551741D02*
X98800819Y-41789836D01*
X107342857Y-36957143D02*
X107390476Y-37004762D01*
X107533333Y-37052381D01*
X107628571Y-37052381D01*
X107771429Y-37004762D01*
X107866667Y-36909524D01*
X107914286Y-36814286D01*
X107961905Y-36623810D01*
X107961905Y-36480952D01*
X107914286Y-36290476D01*
X107866667Y-36195238D01*
X107771429Y-36100000D01*
X107628571Y-36052381D01*
X107533333Y-36052381D01*
X107390476Y-36100000D01*
X107342857Y-36147619D01*
X107009524Y-36052381D02*
X106390476Y-36052381D01*
X106723810Y-36433333D01*
X106580952Y-36433333D01*
X106485714Y-36480952D01*
X106438095Y-36528571D01*
X106390476Y-36623810D01*
X106390476Y-36861905D01*
X106438095Y-36957143D01*
X106485714Y-37004762D01*
X106580952Y-37052381D01*
X106866667Y-37052381D01*
X106961905Y-37004762D01*
X107009524Y-36957143D01*
X105533333Y-36052381D02*
X105723810Y-36052381D01*
X105819048Y-36100000D01*
X105866667Y-36147619D01*
X105961905Y-36290476D01*
X106009524Y-36480952D01*
X106009524Y-36861905D01*
X105961905Y-36957143D01*
X105914286Y-37004762D01*
X105819048Y-37052381D01*
X105628571Y-37052381D01*
X105533333Y-37004762D01*
X105485714Y-36957143D01*
X105438095Y-36861905D01*
X105438095Y-36623810D01*
X105485714Y-36528571D01*
X105533333Y-36480952D01*
X105628571Y-36433333D01*
X105819048Y-36433333D01*
X105914286Y-36480952D01*
X105961905Y-36528571D01*
X106009524Y-36623810D01*
X99181772Y-39170789D02*
X98419867Y-39170789D01*
X98800819Y-39551741D02*
X98800819Y-38789836D01*
X113976190Y-25452381D02*
X113976190Y-24452381D01*
X112928571Y-25357143D02*
X112976190Y-25404762D01*
X113119047Y-25452381D01*
X113214285Y-25452381D01*
X113357143Y-25404762D01*
X113452381Y-25309524D01*
X113500000Y-25214286D01*
X113547619Y-25023810D01*
X113547619Y-24880952D01*
X113500000Y-24690476D01*
X113452381Y-24595238D01*
X113357143Y-24500000D01*
X113214285Y-24452381D01*
X113119047Y-24452381D01*
X112976190Y-24500000D01*
X112928571Y-24547619D01*
X112547619Y-24547619D02*
X112500000Y-24500000D01*
X112404762Y-24452381D01*
X112166666Y-24452381D01*
X112071428Y-24500000D01*
X112023809Y-24547619D01*
X111976190Y-24642857D01*
X111976190Y-24738095D01*
X112023809Y-24880952D01*
X112595238Y-25452381D01*
X111976190Y-25452381D01*
D18*
X80633715Y-37465429D02*
X79617715Y-38989429D01*
X79617715Y-37465429D02*
X80633715Y-38989429D01*
X78238857Y-38989429D02*
X79109714Y-38989429D01*
X78674286Y-38989429D02*
X78674286Y-37465429D01*
X78819429Y-37683143D01*
X78964571Y-37828286D01*
X79109714Y-37900857D01*
D19*
X115716266Y-34726489D02*
X115679980Y-34653917D01*
X115607409Y-34581346D01*
X115498551Y-34472489D01*
X115462266Y-34399917D01*
X115462266Y-34327346D01*
X115643694Y-34363631D02*
X115607409Y-34291060D01*
X115534837Y-34218489D01*
X115389694Y-34182203D01*
X115135694Y-34182203D01*
X114990551Y-34218489D01*
X114917980Y-34291060D01*
X114881694Y-34363631D01*
X114881694Y-34508774D01*
X114917980Y-34581346D01*
X114990551Y-34653917D01*
X115135694Y-34690203D01*
X115389694Y-34690203D01*
X115534837Y-34653917D01*
X115607409Y-34581346D01*
X115643694Y-34508774D01*
X115643694Y-34363631D01*
X114881694Y-34944203D02*
X114881694Y-35415917D01*
X115171980Y-35161917D01*
X115171980Y-35270775D01*
X115208266Y-35343346D01*
X115244551Y-35379632D01*
X115317123Y-35415917D01*
X115498551Y-35415917D01*
X115571123Y-35379632D01*
X115607409Y-35343346D01*
X115643694Y-35270775D01*
X115643694Y-35053060D01*
X115607409Y-34980489D01*
X115571123Y-34944203D01*
D12*
X91461905Y-41352381D02*
X91461905Y-42161905D01*
X91414286Y-42257143D01*
X91366667Y-42304762D01*
X91271429Y-42352381D01*
X91080952Y-42352381D01*
X90985714Y-42304762D01*
X90938095Y-42257143D01*
X90890476Y-42161905D01*
X90890476Y-41352381D01*
X90509524Y-41352381D02*
X89842857Y-41352381D01*
X90271429Y-42352381D01*
X92966666Y-67357143D02*
X93014285Y-67404762D01*
X93157142Y-67452381D01*
X93252380Y-67452381D01*
X93395238Y-67404762D01*
X93490476Y-67309524D01*
X93538095Y-67214286D01*
X93585714Y-67023810D01*
X93585714Y-66880952D01*
X93538095Y-66690476D01*
X93490476Y-66595238D01*
X93395238Y-66500000D01*
X93252380Y-66452381D01*
X93157142Y-66452381D01*
X93014285Y-66500000D01*
X92966666Y-66547619D01*
X92109523Y-66785714D02*
X92109523Y-67452381D01*
X92347619Y-66404762D02*
X92585714Y-67119048D01*
X91966666Y-67119048D01*
X94866666Y-64457143D02*
X94914285Y-64504762D01*
X95057142Y-64552381D01*
X95152380Y-64552381D01*
X95295238Y-64504762D01*
X95390476Y-64409524D01*
X95438095Y-64314286D01*
X95485714Y-64123810D01*
X95485714Y-63980952D01*
X95438095Y-63790476D01*
X95390476Y-63695238D01*
X95295238Y-63600000D01*
X95152380Y-63552381D01*
X95057142Y-63552381D01*
X94914285Y-63600000D01*
X94866666Y-63647619D01*
X94009523Y-63552381D02*
X94200000Y-63552381D01*
X94295238Y-63600000D01*
X94342857Y-63647619D01*
X94438095Y-63790476D01*
X94485714Y-63980952D01*
X94485714Y-64361905D01*
X94438095Y-64457143D01*
X94390476Y-64504762D01*
X94295238Y-64552381D01*
X94104761Y-64552381D01*
X94009523Y-64504762D01*
X93961904Y-64457143D01*
X93914285Y-64361905D01*
X93914285Y-64123810D01*
X93961904Y-64028571D01*
X94009523Y-63980952D01*
X94104761Y-63933333D01*
X94295238Y-63933333D01*
X94390476Y-63980952D01*
X94438095Y-64028571D01*
X94485714Y-64123810D01*
X95857143Y-60333334D02*
X95904762Y-60285715D01*
X95952381Y-60142858D01*
X95952381Y-60047620D01*
X95904762Y-59904762D01*
X95809524Y-59809524D01*
X95714286Y-59761905D01*
X95523810Y-59714286D01*
X95380952Y-59714286D01*
X95190476Y-59761905D01*
X95095238Y-59809524D01*
X95000000Y-59904762D01*
X94952381Y-60047620D01*
X94952381Y-60142858D01*
X95000000Y-60285715D01*
X95047619Y-60333334D01*
X94952381Y-60666667D02*
X94952381Y-61333334D01*
X95952381Y-60904762D01*
X85942857Y-61457143D02*
X85990476Y-61504762D01*
X86133333Y-61552381D01*
X86228571Y-61552381D01*
X86371429Y-61504762D01*
X86466667Y-61409524D01*
X86514286Y-61314286D01*
X86561905Y-61123810D01*
X86561905Y-60980952D01*
X86514286Y-60790476D01*
X86466667Y-60695238D01*
X86371429Y-60600000D01*
X86228571Y-60552381D01*
X86133333Y-60552381D01*
X85990476Y-60600000D01*
X85942857Y-60647619D01*
X84990476Y-61552381D02*
X85561905Y-61552381D01*
X85276191Y-61552381D02*
X85276191Y-60552381D01*
X85371429Y-60695238D01*
X85466667Y-60790476D01*
X85561905Y-60838095D01*
X84371429Y-60552381D02*
X84276190Y-60552381D01*
X84180952Y-60600000D01*
X84133333Y-60647619D01*
X84085714Y-60742857D01*
X84038095Y-60933333D01*
X84038095Y-61171429D01*
X84085714Y-61361905D01*
X84133333Y-61457143D01*
X84180952Y-61504762D01*
X84276190Y-61552381D01*
X84371429Y-61552381D01*
X84466667Y-61504762D01*
X84514286Y-61457143D01*
X84561905Y-61361905D01*
X84609524Y-61171429D01*
X84609524Y-60933333D01*
X84561905Y-60742857D01*
X84514286Y-60647619D01*
X84466667Y-60600000D01*
X84371429Y-60552381D01*
X87342857Y-64257143D02*
X87390476Y-64304762D01*
X87533333Y-64352381D01*
X87628571Y-64352381D01*
X87771429Y-64304762D01*
X87866667Y-64209524D01*
X87914286Y-64114286D01*
X87961905Y-63923810D01*
X87961905Y-63780952D01*
X87914286Y-63590476D01*
X87866667Y-63495238D01*
X87771429Y-63400000D01*
X87628571Y-63352381D01*
X87533333Y-63352381D01*
X87390476Y-63400000D01*
X87342857Y-63447619D01*
X86390476Y-64352381D02*
X86961905Y-64352381D01*
X86676191Y-64352381D02*
X86676191Y-63352381D01*
X86771429Y-63495238D01*
X86866667Y-63590476D01*
X86961905Y-63638095D01*
X86009524Y-63447619D02*
X85961905Y-63400000D01*
X85866667Y-63352381D01*
X85628571Y-63352381D01*
X85533333Y-63400000D01*
X85485714Y-63447619D01*
X85438095Y-63542857D01*
X85438095Y-63638095D01*
X85485714Y-63780952D01*
X86057143Y-64352381D01*
X85438095Y-64352381D01*
X89557143Y-65557143D02*
X89604762Y-65509524D01*
X89652381Y-65366667D01*
X89652381Y-65271429D01*
X89604762Y-65128571D01*
X89509524Y-65033333D01*
X89414286Y-64985714D01*
X89223810Y-64938095D01*
X89080952Y-64938095D01*
X88890476Y-64985714D01*
X88795238Y-65033333D01*
X88700000Y-65128571D01*
X88652381Y-65271429D01*
X88652381Y-65366667D01*
X88700000Y-65509524D01*
X88747619Y-65557143D01*
X89652381Y-66509524D02*
X89652381Y-65938095D01*
X89652381Y-66223809D02*
X88652381Y-66223809D01*
X88795238Y-66128571D01*
X88890476Y-66033333D01*
X88938095Y-65938095D01*
X88652381Y-66842857D02*
X88652381Y-67461905D01*
X89033333Y-67128571D01*
X89033333Y-67271429D01*
X89080952Y-67366667D01*
X89128571Y-67414286D01*
X89223810Y-67461905D01*
X89461905Y-67461905D01*
X89557143Y-67414286D01*
X89604762Y-67366667D01*
X89652381Y-67271429D01*
X89652381Y-66985714D01*
X89604762Y-66890476D01*
X89557143Y-66842857D01*
X87966666Y-59052381D02*
X88300000Y-58576190D01*
X88538095Y-59052381D02*
X88538095Y-58052381D01*
X88157142Y-58052381D01*
X88061904Y-58100000D01*
X88014285Y-58147619D01*
X87966666Y-58242857D01*
X87966666Y-58385714D01*
X88014285Y-58480952D01*
X88061904Y-58528571D01*
X88157142Y-58576190D01*
X88538095Y-58576190D01*
X87109523Y-58385714D02*
X87109523Y-59052381D01*
X87347619Y-58004762D02*
X87585714Y-58719048D01*
X86966666Y-58719048D01*
X89566666Y-57252381D02*
X89900000Y-56776190D01*
X90138095Y-57252381D02*
X90138095Y-56252381D01*
X89757142Y-56252381D01*
X89661904Y-56300000D01*
X89614285Y-56347619D01*
X89566666Y-56442857D01*
X89566666Y-56585714D01*
X89614285Y-56680952D01*
X89661904Y-56728571D01*
X89757142Y-56776190D01*
X90138095Y-56776190D01*
X88661904Y-56252381D02*
X89138095Y-56252381D01*
X89185714Y-56728571D01*
X89138095Y-56680952D01*
X89042857Y-56633333D01*
X88804761Y-56633333D01*
X88709523Y-56680952D01*
X88661904Y-56728571D01*
X88614285Y-56823810D01*
X88614285Y-57061905D01*
X88661904Y-57157143D01*
X88709523Y-57204762D01*
X88804761Y-57252381D01*
X89042857Y-57252381D01*
X89138095Y-57204762D01*
X89185714Y-57157143D01*
X123296857Y-66323571D02*
X123296857Y-67537857D01*
X123225429Y-67680714D01*
X123154000Y-67752143D01*
X123011143Y-67823571D01*
X122725429Y-67823571D01*
X122582571Y-67752143D01*
X122511143Y-67680714D01*
X122439714Y-67537857D01*
X122439714Y-66323571D01*
X121654000Y-67823571D02*
X121368285Y-67823571D01*
X121225428Y-67752143D01*
X121154000Y-67680714D01*
X121011142Y-67466429D01*
X120939714Y-67180714D01*
X120939714Y-66609286D01*
X121011142Y-66466429D01*
X121082571Y-66395000D01*
X121225428Y-66323571D01*
X121511142Y-66323571D01*
X121654000Y-66395000D01*
X121725428Y-66466429D01*
X121796857Y-66609286D01*
X121796857Y-66966429D01*
X121725428Y-67109286D01*
X121654000Y-67180714D01*
X121511142Y-67252143D01*
X121225428Y-67252143D01*
X121082571Y-67180714D01*
X121011142Y-67109286D01*
X120939714Y-66966429D01*
X78566666Y-36752381D02*
X78900000Y-36276190D01*
X79138095Y-36752381D02*
X79138095Y-35752381D01*
X78757142Y-35752381D01*
X78661904Y-35800000D01*
X78614285Y-35847619D01*
X78566666Y-35942857D01*
X78566666Y-36085714D01*
X78614285Y-36180952D01*
X78661904Y-36228571D01*
X78757142Y-36276190D01*
X79138095Y-36276190D01*
X77995238Y-36180952D02*
X78090476Y-36133333D01*
X78138095Y-36085714D01*
X78185714Y-35990476D01*
X78185714Y-35942857D01*
X78138095Y-35847619D01*
X78090476Y-35800000D01*
X77995238Y-35752381D01*
X77804761Y-35752381D01*
X77709523Y-35800000D01*
X77661904Y-35847619D01*
X77614285Y-35942857D01*
X77614285Y-35990476D01*
X77661904Y-36085714D01*
X77709523Y-36133333D01*
X77804761Y-36180952D01*
X77995238Y-36180952D01*
X78090476Y-36228571D01*
X78138095Y-36276190D01*
X78185714Y-36371429D01*
X78185714Y-36561905D01*
X78138095Y-36657143D01*
X78090476Y-36704762D01*
X77995238Y-36752381D01*
X77804761Y-36752381D01*
X77709523Y-36704762D01*
X77661904Y-36657143D01*
X77614285Y-36561905D01*
X77614285Y-36371429D01*
X77661904Y-36276190D01*
X77709523Y-36228571D01*
X77804761Y-36180952D01*
X91761905Y-25552381D02*
X91761905Y-26361905D01*
X91714286Y-26457143D01*
X91666667Y-26504762D01*
X91571429Y-26552381D01*
X91380952Y-26552381D01*
X91285714Y-26504762D01*
X91238095Y-26457143D01*
X91190476Y-26361905D01*
X91190476Y-25552381D01*
X90571429Y-25980952D02*
X90666667Y-25933333D01*
X90714286Y-25885714D01*
X90761905Y-25790476D01*
X90761905Y-25742857D01*
X90714286Y-25647619D01*
X90666667Y-25600000D01*
X90571429Y-25552381D01*
X90380952Y-25552381D01*
X90285714Y-25600000D01*
X90238095Y-25647619D01*
X90190476Y-25742857D01*
X90190476Y-25790476D01*
X90238095Y-25885714D01*
X90285714Y-25933333D01*
X90380952Y-25980952D01*
X90571429Y-25980952D01*
X90666667Y-26028571D01*
X90714286Y-26076190D01*
X90761905Y-26171429D01*
X90761905Y-26361905D01*
X90714286Y-26457143D01*
X90666667Y-26504762D01*
X90571429Y-26552381D01*
X90380952Y-26552381D01*
X90285714Y-26504762D01*
X90238095Y-26457143D01*
X90190476Y-26361905D01*
X90190476Y-26171429D01*
X90238095Y-26076190D01*
X90285714Y-26028571D01*
X90380952Y-25980952D01*
D20*
X84315142Y-29174071D02*
X84315142Y-30099357D01*
X84260714Y-30208214D01*
X84206285Y-30262643D01*
X84097428Y-30317071D01*
X83879714Y-30317071D01*
X83770856Y-30262643D01*
X83716428Y-30208214D01*
X83661999Y-30099357D01*
X83661999Y-29174071D01*
X82518999Y-30317071D02*
X83172142Y-30317071D01*
X82845570Y-30317071D02*
X82845570Y-29174071D01*
X82954427Y-29337357D01*
X83063285Y-29446214D01*
X83172142Y-29500643D01*
X81811428Y-29174071D02*
X81702571Y-29174071D01*
X81593714Y-29228500D01*
X81539285Y-29282929D01*
X81484856Y-29391786D01*
X81430428Y-29609500D01*
X81430428Y-29881643D01*
X81484856Y-30099357D01*
X81539285Y-30208214D01*
X81593714Y-30262643D01*
X81702571Y-30317071D01*
X81811428Y-30317071D01*
X81920285Y-30262643D01*
X81974714Y-30208214D01*
X82029142Y-30099357D01*
X82083571Y-29881643D01*
X82083571Y-29609500D01*
X82029142Y-29391786D01*
X81974714Y-29282929D01*
X81920285Y-29228500D01*
X81811428Y-29174071D01*
D12*
X91842857Y-23257143D02*
X91890476Y-23304762D01*
X92033333Y-23352381D01*
X92128571Y-23352381D01*
X92271429Y-23304762D01*
X92366667Y-23209524D01*
X92414286Y-23114286D01*
X92461905Y-22923810D01*
X92461905Y-22780952D01*
X92414286Y-22590476D01*
X92366667Y-22495238D01*
X92271429Y-22400000D01*
X92128571Y-22352381D01*
X92033333Y-22352381D01*
X91890476Y-22400000D01*
X91842857Y-22447619D01*
X90890476Y-23352381D02*
X91461905Y-23352381D01*
X91176191Y-23352381D02*
X91176191Y-22352381D01*
X91271429Y-22495238D01*
X91366667Y-22590476D01*
X91461905Y-22638095D01*
X89985714Y-22352381D02*
X90461905Y-22352381D01*
X90509524Y-22828571D01*
X90461905Y-22780952D01*
X90366667Y-22733333D01*
X90128571Y-22733333D01*
X90033333Y-22780952D01*
X89985714Y-22828571D01*
X89938095Y-22923810D01*
X89938095Y-23161905D01*
X89985714Y-23257143D01*
X90033333Y-23304762D01*
X90128571Y-23352381D01*
X90366667Y-23352381D01*
X90461905Y-23304762D01*
X90509524Y-23257143D01*
X91142857Y-32057143D02*
X91190476Y-32104762D01*
X91333333Y-32152381D01*
X91428571Y-32152381D01*
X91571429Y-32104762D01*
X91666667Y-32009524D01*
X91714286Y-31914286D01*
X91761905Y-31723810D01*
X91761905Y-31580952D01*
X91714286Y-31390476D01*
X91666667Y-31295238D01*
X91571429Y-31200000D01*
X91428571Y-31152381D01*
X91333333Y-31152381D01*
X91190476Y-31200000D01*
X91142857Y-31247619D01*
X90190476Y-32152381D02*
X90761905Y-32152381D01*
X90476191Y-32152381D02*
X90476191Y-31152381D01*
X90571429Y-31295238D01*
X90666667Y-31390476D01*
X90761905Y-31438095D01*
X89619048Y-31580952D02*
X89714286Y-31533333D01*
X89761905Y-31485714D01*
X89809524Y-31390476D01*
X89809524Y-31342857D01*
X89761905Y-31247619D01*
X89714286Y-31200000D01*
X89619048Y-31152381D01*
X89428571Y-31152381D01*
X89333333Y-31200000D01*
X89285714Y-31247619D01*
X89238095Y-31342857D01*
X89238095Y-31390476D01*
X89285714Y-31485714D01*
X89333333Y-31533333D01*
X89428571Y-31580952D01*
X89619048Y-31580952D01*
X89714286Y-31628571D01*
X89761905Y-31676190D01*
X89809524Y-31771429D01*
X89809524Y-31961905D01*
X89761905Y-32057143D01*
X89714286Y-32104762D01*
X89619048Y-32152381D01*
X89428571Y-32152381D01*
X89333333Y-32104762D01*
X89285714Y-32057143D01*
X89238095Y-31961905D01*
X89238095Y-31771429D01*
X89285714Y-31676190D01*
X89333333Y-31628571D01*
X89428571Y-31580952D01*
X79742381Y-62861905D02*
X78742381Y-62861905D01*
X78742381Y-63100000D01*
X78790000Y-63242858D01*
X78885238Y-63338096D01*
X78980476Y-63385715D01*
X79170952Y-63433334D01*
X79313810Y-63433334D01*
X79504286Y-63385715D01*
X79599524Y-63338096D01*
X79694762Y-63242858D01*
X79742381Y-63100000D01*
X79742381Y-62861905D01*
X78742381Y-63766667D02*
X78742381Y-64385715D01*
X79123333Y-64052381D01*
X79123333Y-64195239D01*
X79170952Y-64290477D01*
X79218571Y-64338096D01*
X79313810Y-64385715D01*
X79551905Y-64385715D01*
X79647143Y-64338096D01*
X79694762Y-64290477D01*
X79742381Y-64195239D01*
X79742381Y-63909524D01*
X79694762Y-63814286D01*
X79647143Y-63766667D01*
X85217387Y-60161505D02*
X85217387Y-60637696D01*
X85503101Y-60066267D02*
X84503101Y-60399600D01*
X85503101Y-60732934D01*
X85503101Y-66337835D02*
X84503101Y-66337835D01*
X85503101Y-66909264D02*
X84931672Y-66480692D01*
X84503101Y-66909264D02*
X85074530Y-66337835D01*
%LPC*%
D10*
G36*
X115541339Y-48731582D02*
X115542040Y-48738649D01*
X115548781Y-48791993D01*
X115558960Y-48841277D01*
X115576096Y-48892947D01*
X115603710Y-48953450D01*
X115645319Y-49029233D01*
X115704444Y-49126743D01*
X115784605Y-49252426D01*
X115785111Y-49253200D01*
X115785111Y-48761254D01*
X115798479Y-48638691D01*
X115843278Y-48554826D01*
X115926554Y-48497452D01*
X115941027Y-48491113D01*
X116028862Y-48465813D01*
X116095210Y-48480402D01*
X116155224Y-48540714D01*
X116184542Y-48584878D01*
X116256159Y-48685745D01*
X116362600Y-48815929D01*
X116496225Y-48967558D01*
X116649396Y-49132761D01*
X116814473Y-49303668D01*
X116983818Y-49472407D01*
X117149791Y-49631107D01*
X117304753Y-49771899D01*
X117441065Y-49886909D01*
X117471287Y-49910676D01*
X117562908Y-49981433D01*
X117437026Y-50064813D01*
X117291664Y-50180137D01*
X117154609Y-50323059D01*
X117040479Y-50476437D01*
X116966270Y-50617038D01*
X116932380Y-50715535D01*
X116913030Y-50813247D01*
X116905170Y-50931141D01*
X116904897Y-51039058D01*
X116908128Y-51298893D01*
X116819342Y-51326496D01*
X116677492Y-51365608D01*
X116569775Y-51381146D01*
X116479389Y-51373859D01*
X116391987Y-51345526D01*
X116309619Y-51295353D01*
X116270587Y-51229327D01*
X116275626Y-51144091D01*
X116325473Y-51036283D01*
X116420861Y-50902547D01*
X116512627Y-50794505D01*
X116587805Y-50708120D01*
X116627349Y-50656258D01*
X116634743Y-50632752D01*
X116613472Y-50631436D01*
X116603261Y-50634085D01*
X116486365Y-50659390D01*
X116365650Y-50672173D01*
X116260013Y-50671503D01*
X116188356Y-50656448D01*
X116184852Y-50654699D01*
X116135318Y-50601060D01*
X116127247Y-50529045D01*
X116161839Y-50459843D01*
X116173167Y-50448907D01*
X116229080Y-50417297D01*
X116315360Y-50385245D01*
X116363667Y-50371829D01*
X116445264Y-50346214D01*
X116543384Y-50307238D01*
X116644422Y-50261460D01*
X116734770Y-50215444D01*
X116800822Y-50175749D01*
X116828972Y-50148938D01*
X116829182Y-50147345D01*
X116810526Y-50122833D01*
X116758302Y-50063542D01*
X116677994Y-49975452D01*
X116575081Y-49864542D01*
X116455047Y-49736791D01*
X116384682Y-49662531D01*
X116204193Y-49469104D01*
X116061791Y-49307589D01*
X115953596Y-49172151D01*
X115875727Y-49056956D01*
X115824303Y-48956170D01*
X115795443Y-48863961D01*
X115785266Y-48774494D01*
X115785111Y-48761254D01*
X115785111Y-49253200D01*
X115889320Y-49412730D01*
X116009793Y-49595454D01*
X116373535Y-50146192D01*
X116269823Y-50211639D01*
X116189819Y-50257714D01*
X116119178Y-50291318D01*
X116104938Y-50296484D01*
X116038476Y-50328087D01*
X115970883Y-50373211D01*
X115909003Y-50449495D01*
X115898570Y-50534764D01*
X115936723Y-50622622D01*
X116020600Y-50706672D01*
X116147342Y-50780516D01*
X116154482Y-50783706D01*
X116262532Y-50831378D01*
X116195088Y-50893883D01*
X116123762Y-50995541D01*
X116089032Y-51122896D01*
X116091280Y-51258353D01*
X116130887Y-51384314D01*
X116182825Y-51459326D01*
X116287040Y-51530931D01*
X116432736Y-51572165D01*
X116613258Y-51582126D01*
X116821947Y-51559915D01*
X116865714Y-51551687D01*
X116956194Y-51535014D01*
X117010716Y-51534066D01*
X117048617Y-51553227D01*
X117089230Y-51596877D01*
X117094916Y-51603626D01*
X117144663Y-51653873D01*
X117196380Y-51700496D01*
X117196380Y-51127917D01*
X117210799Y-51004525D01*
X117249257Y-50857335D01*
X117304077Y-50709239D01*
X117367580Y-50583132D01*
X117390965Y-50547695D01*
X117490486Y-50431042D01*
X117605222Y-50340203D01*
X117743159Y-50272184D01*
X117912280Y-50223990D01*
X118120572Y-50192627D01*
X118376020Y-50175101D01*
X118385672Y-50174711D01*
X118551613Y-50167226D01*
X118670761Y-50159071D01*
X118752761Y-50148802D01*
X118807261Y-50134980D01*
X118843907Y-50116162D01*
X118859061Y-50103966D01*
X118895272Y-50059347D01*
X118897278Y-50029835D01*
X118852211Y-50005692D01*
X118770223Y-49974312D01*
X118669350Y-49941331D01*
X118567629Y-49912389D01*
X118483095Y-49893123D01*
X118444943Y-49888433D01*
X118393408Y-49885629D01*
X118394656Y-49876707D01*
X118429299Y-49861729D01*
X118504509Y-49805129D01*
X118567134Y-49708770D01*
X118592185Y-49643277D01*
X118598782Y-49600552D01*
X118574534Y-49583002D01*
X118514263Y-49579777D01*
X118417488Y-49596810D01*
X118338940Y-49640835D01*
X118287668Y-49701239D01*
X118272718Y-49767409D01*
X118302533Y-49828133D01*
X118309354Y-49846970D01*
X118277672Y-49857572D01*
X118199931Y-49861733D01*
X118159808Y-49862000D01*
X118039193Y-49867531D01*
X117918669Y-49881740D01*
X117855304Y-49894208D01*
X117774996Y-49911540D01*
X117723838Y-49907165D01*
X117676618Y-49874551D01*
X117639211Y-49838236D01*
X117586141Y-49782618D01*
X117569450Y-49750192D01*
X117585081Y-49724769D01*
X117606460Y-49707542D01*
X117705962Y-49645449D01*
X117837685Y-49581994D01*
X117978568Y-49527215D01*
X118101534Y-49492002D01*
X118238486Y-49475181D01*
X118407835Y-49472586D01*
X118587683Y-49483024D01*
X118756128Y-49505305D01*
X118879391Y-49534342D01*
X118965342Y-49565092D01*
X119011970Y-49596586D01*
X119034875Y-49642593D01*
X119042948Y-49678725D01*
X119062295Y-49745967D01*
X119096037Y-49773078D01*
X119137779Y-49776901D01*
X119204762Y-49772088D01*
X119250474Y-49752418D01*
X119279430Y-49708698D01*
X119296147Y-49631737D01*
X119305139Y-49512343D01*
X119308282Y-49429817D01*
X119317786Y-49136602D01*
X119034798Y-48278690D01*
X118896374Y-47853555D01*
X118777948Y-47477135D01*
X118678740Y-47145665D01*
X118597970Y-46855380D01*
X118534860Y-46602512D01*
X118488629Y-46383297D01*
X118458499Y-46193967D01*
X118443690Y-46030759D01*
X118443423Y-45889905D01*
X118456918Y-45767640D01*
X118483396Y-45660198D01*
X118489258Y-45642777D01*
X118528952Y-45547197D01*
X118586864Y-45428580D01*
X118650935Y-45311525D01*
X118655288Y-45304111D01*
X118779330Y-45115223D01*
X118902674Y-44976250D01*
X119034214Y-44881478D01*
X119182841Y-44825198D01*
X119357447Y-44801700D01*
X119439889Y-44800225D01*
X119560343Y-44806094D01*
X119677041Y-44823777D01*
X119800455Y-44856618D01*
X119941057Y-44907959D01*
X120109320Y-44981145D01*
X120315718Y-45079518D01*
X120317490Y-45080386D01*
X120579156Y-45208522D01*
X120482245Y-45410742D01*
X120419431Y-45560854D01*
X120389473Y-45684776D01*
X120385333Y-45748539D01*
X120385333Y-45884116D01*
X120298639Y-45839284D01*
X120215356Y-45815012D01*
X120158690Y-45836966D01*
X120135571Y-45901043D01*
X120136962Y-45935069D01*
X120148845Y-45971266D01*
X120181092Y-46007482D01*
X120242263Y-46050057D01*
X120340918Y-46105327D01*
X120427480Y-46150187D01*
X120577525Y-46231394D01*
X120587326Y-46237846D01*
X120587326Y-45783070D01*
X120592406Y-45709454D01*
X120613572Y-45600034D01*
X120646991Y-45492012D01*
X120656243Y-45469565D01*
X120704787Y-45360555D01*
X120725473Y-45509138D01*
X120768346Y-45660506D01*
X120846740Y-45786533D01*
X120952025Y-45874280D01*
X120977444Y-45886944D01*
X121044549Y-45923661D01*
X121056413Y-45950913D01*
X121013165Y-45970199D01*
X120985055Y-45975341D01*
X120850114Y-45991209D01*
X120756438Y-45988957D01*
X120691157Y-45966455D01*
X120641406Y-45921571D01*
X120638494Y-45917944D01*
X120599390Y-45854162D01*
X120587326Y-45783070D01*
X120587326Y-46237846D01*
X120674493Y-46295236D01*
X120718814Y-46342319D01*
X120710920Y-46373245D01*
X120651240Y-46388618D01*
X120599069Y-46390666D01*
X120519896Y-46387850D01*
X120482075Y-46373928D01*
X120470586Y-46340691D01*
X120470000Y-46320111D01*
X120452824Y-46264083D01*
X120406454Y-46250798D01*
X120338633Y-46280313D01*
X120290677Y-46318763D01*
X120230612Y-46397205D01*
X120221662Y-46469288D01*
X120264192Y-46527863D01*
X120279500Y-46537665D01*
X120350747Y-46559192D01*
X120461078Y-46571514D01*
X120593951Y-46575014D01*
X120732826Y-46570075D01*
X120861164Y-46557082D01*
X120962422Y-46536418D01*
X121002551Y-46520897D01*
X121064463Y-46482146D01*
X121087401Y-46440208D01*
X121084185Y-46370047D01*
X121083286Y-46363238D01*
X121068915Y-46256093D01*
X121225720Y-46224602D01*
X121336399Y-46203670D01*
X121405596Y-46199441D01*
X121447223Y-46217793D01*
X121475194Y-46264602D01*
X121501954Y-46341277D01*
X121531469Y-46430306D01*
X121554914Y-46499704D01*
X121563686Y-46524722D01*
X121550949Y-46552079D01*
X121498258Y-46559999D01*
X121439283Y-46566961D01*
X121333707Y-46586560D01*
X121189464Y-46616872D01*
X121014487Y-46655970D01*
X120816709Y-46701927D01*
X120604062Y-46752819D01*
X120384480Y-46806718D01*
X120165896Y-46861699D01*
X119956242Y-46915836D01*
X119763452Y-46967201D01*
X119595458Y-47013870D01*
X119460193Y-47053917D01*
X119446944Y-47058058D01*
X119322775Y-47101023D01*
X119252274Y-47135657D01*
X119233577Y-47163740D01*
X119264821Y-47187050D01*
X119300387Y-47197925D01*
X119337575Y-47204316D01*
X119386256Y-47206391D01*
X119451428Y-47203433D01*
X119538091Y-47194725D01*
X119651242Y-47179551D01*
X119795880Y-47157194D01*
X119977003Y-47126936D01*
X120199611Y-47088061D01*
X120468701Y-47039852D01*
X120717895Y-46994611D01*
X120947790Y-46952957D01*
X121159463Y-46915080D01*
X121346672Y-46882060D01*
X121503175Y-46854977D01*
X121622731Y-46834912D01*
X121699098Y-46822945D01*
X121726012Y-46820105D01*
X121738633Y-46847177D01*
X121770341Y-46918705D01*
X121817905Y-47027299D01*
X121878096Y-47165570D01*
X121947683Y-47326128D01*
X121988583Y-47420777D01*
X122244427Y-48013444D01*
X122289758Y-48490985D01*
X122316531Y-48934621D01*
X122311305Y-49355544D01*
X122274913Y-49749341D01*
X122208190Y-50111598D01*
X122111969Y-50437902D01*
X121987084Y-50723841D01*
X121834370Y-50965001D01*
X121818356Y-50985534D01*
X121714421Y-51095238D01*
X121570995Y-51216966D01*
X121400844Y-51341410D01*
X121216737Y-51459261D01*
X121031440Y-51561213D01*
X121022827Y-51565502D01*
X120836138Y-51647037D01*
X120610636Y-51728016D01*
X120363739Y-51802956D01*
X120112861Y-51866375D01*
X119976111Y-51895008D01*
X119818793Y-51934416D01*
X119692478Y-51984672D01*
X119607529Y-52041193D01*
X119585385Y-52067733D01*
X119576627Y-52105494D01*
X119593772Y-52160784D01*
X119640977Y-52244971D01*
X119662807Y-52279399D01*
X119732929Y-52389285D01*
X119804814Y-52503772D01*
X119850343Y-52577563D01*
X119926222Y-52678997D01*
X120004517Y-52727927D01*
X120096495Y-52727594D01*
X120212424Y-52681752D01*
X120290126Y-52642077D01*
X120346067Y-52613631D01*
X120361883Y-52605672D01*
X120367967Y-52621598D01*
X120355701Y-52678060D01*
X120328876Y-52763671D01*
X120291286Y-52867047D01*
X120246723Y-52976803D01*
X120213513Y-53051111D01*
X120128141Y-53210378D01*
X120047088Y-53313729D01*
X119970491Y-53361089D01*
X119898486Y-53352381D01*
X119831208Y-53287530D01*
X119819577Y-53269833D01*
X119717443Y-53083327D01*
X119608838Y-52842900D01*
X119494660Y-52550590D01*
X119457646Y-52447987D01*
X119326310Y-52077444D01*
X119162999Y-52068939D01*
X119053546Y-52070384D01*
X118916738Y-52082100D01*
X118780209Y-52101629D01*
X118766033Y-52104217D01*
X118546516Y-52137114D01*
X118363393Y-52142632D01*
X118201967Y-52117391D01*
X118047545Y-52058013D01*
X117885433Y-51961120D01*
X117766282Y-51874362D01*
X117584674Y-51732047D01*
X117445196Y-51613563D01*
X117342612Y-51512051D01*
X117271683Y-51420649D01*
X117227171Y-51332496D01*
X117203837Y-51240731D01*
X117196443Y-51138493D01*
X117196380Y-51127917D01*
X117196380Y-51700496D01*
X117228297Y-51729270D01*
X117334844Y-51820714D01*
X117453330Y-51919099D01*
X117572782Y-52015321D01*
X117682225Y-52100276D01*
X117770686Y-52164858D01*
X117774778Y-52167675D01*
X117840931Y-52205609D01*
X117940931Y-52254487D01*
X118055864Y-52305193D01*
X118085222Y-52317293D01*
X118242869Y-52372829D01*
X118387453Y-52402162D01*
X118535476Y-52405866D01*
X118703439Y-52384514D01*
X118882702Y-52344992D01*
X118995881Y-52318229D01*
X119086339Y-52299380D01*
X119141708Y-52290886D01*
X119152871Y-52291665D01*
X119166596Y-52319976D01*
X119199252Y-52391522D01*
X119247048Y-52497869D01*
X119306192Y-52630583D01*
X119366737Y-52767294D01*
X119466126Y-52987256D01*
X119551226Y-53162994D01*
X119627065Y-53303320D01*
X119698670Y-53417046D01*
X119771069Y-53512985D01*
X119830516Y-53580277D01*
X119917666Y-53650741D01*
X120001242Y-53666768D01*
X120090136Y-53628973D01*
X120126988Y-53600770D01*
X120201381Y-53523592D01*
X120289663Y-53410063D01*
X120382113Y-53275099D01*
X120469010Y-53133620D01*
X120540634Y-53000542D01*
X120584703Y-52898301D01*
X120640791Y-52705655D01*
X120662178Y-52549174D01*
X120648596Y-52431982D01*
X120628398Y-52388774D01*
X120589131Y-52343617D01*
X120536106Y-52322948D01*
X120448279Y-52318571D01*
X120448183Y-52318572D01*
X120337257Y-52328810D01*
X120226748Y-52352733D01*
X120201889Y-52360841D01*
X120129006Y-52384500D01*
X120085214Y-52383479D01*
X120047034Y-52353648D01*
X120025500Y-52329806D01*
X119982016Y-52271188D01*
X119962128Y-52226089D01*
X119962000Y-52223780D01*
X119987999Y-52201761D01*
X120058689Y-52174342D01*
X120163108Y-52145548D01*
X120194833Y-52138245D01*
X120420112Y-52081390D01*
X120643492Y-52012460D01*
X120846014Y-51937769D01*
X120989062Y-51873733D01*
X121127125Y-51804321D01*
X121203602Y-51884438D01*
X121245560Y-51928763D01*
X121297642Y-51984054D01*
X121297642Y-51704973D01*
X121329775Y-51678460D01*
X121392558Y-51639803D01*
X121416099Y-51626889D01*
X121520205Y-51571445D01*
X121580714Y-51654588D01*
X121654337Y-51750951D01*
X121742118Y-51858526D01*
X121836209Y-51968576D01*
X121928763Y-52072361D01*
X122011934Y-52161145D01*
X122077875Y-52226188D01*
X122118739Y-52258754D01*
X122125162Y-52260888D01*
X122144091Y-52258807D01*
X122165700Y-52248583D01*
X122196339Y-52224243D01*
X122242355Y-52179817D01*
X122310095Y-52109332D01*
X122405909Y-52006817D01*
X122478848Y-51928167D01*
X122585619Y-51816665D01*
X122660571Y-51749916D01*
X122706241Y-51729515D01*
X122725165Y-51757059D01*
X122719882Y-51834143D01*
X122692929Y-51962364D01*
X122671331Y-52049232D01*
X122613309Y-52246858D01*
X122549000Y-52415042D01*
X122481677Y-52547645D01*
X122414614Y-52638531D01*
X122351086Y-52681560D01*
X122332599Y-52684222D01*
X122291632Y-52666636D01*
X122220616Y-52619372D01*
X122131315Y-52550672D01*
X122075918Y-52504372D01*
X121972612Y-52412322D01*
X121857888Y-52304948D01*
X121738463Y-52189152D01*
X121621054Y-52071832D01*
X121512379Y-51959890D01*
X121419156Y-51860224D01*
X121348102Y-51779734D01*
X121305935Y-51725321D01*
X121297642Y-51704973D01*
X121297642Y-51984054D01*
X121319113Y-52006848D01*
X121417270Y-52111259D01*
X121533043Y-52234557D01*
X121659441Y-52369307D01*
X121697746Y-52410168D01*
X121825862Y-52545541D01*
X121945874Y-52669905D01*
X122050775Y-52776191D01*
X122133557Y-52857328D01*
X122187213Y-52906244D01*
X122196786Y-52913724D01*
X122255297Y-52950419D01*
X122296581Y-52953867D01*
X122346373Y-52926971D01*
X122447886Y-52844862D01*
X122538946Y-52734681D01*
X122628034Y-52585275D01*
X122670461Y-52500777D01*
X122751175Y-52310894D01*
X122811425Y-52123314D01*
X122849707Y-51947389D01*
X122864520Y-51792471D01*
X122854358Y-51667911D01*
X122817923Y-51583313D01*
X122766958Y-51520373D01*
X122641534Y-51584213D01*
X122562230Y-51635080D01*
X122463526Y-51713195D01*
X122363722Y-51803798D01*
X122339958Y-51827470D01*
X122259264Y-51907335D01*
X122192703Y-51968912D01*
X122150440Y-52002984D01*
X122142110Y-52006888D01*
X122118831Y-51984857D01*
X122071246Y-51924797D01*
X122006184Y-51835763D01*
X121930472Y-51726807D01*
X121926939Y-51721602D01*
X121733462Y-51436316D01*
X121917049Y-51270622D01*
X122042000Y-51151436D01*
X122140770Y-51039080D01*
X122219828Y-50921755D01*
X122285643Y-50787666D01*
X122344682Y-50625016D01*
X122403413Y-50422008D01*
X122422762Y-50348289D01*
X122537340Y-49904333D01*
X122551353Y-49035426D01*
X122555097Y-48736373D01*
X122555752Y-48490447D01*
X122553259Y-48294413D01*
X122547557Y-48145036D01*
X122538587Y-48039080D01*
X122532158Y-47997729D01*
X122508208Y-47914291D01*
X122462874Y-47790352D01*
X122400548Y-47635624D01*
X122325622Y-47459822D01*
X122242488Y-47272658D01*
X122155539Y-47083847D01*
X122069165Y-46903103D01*
X121987759Y-46740138D01*
X121915713Y-46604666D01*
X121858845Y-46508589D01*
X121774670Y-46371293D01*
X121722253Y-46261398D01*
X121697321Y-46162861D01*
X121695599Y-46059636D01*
X121710169Y-45950565D01*
X121725182Y-45738417D01*
X121694421Y-45552262D01*
X121621071Y-45396321D01*
X121508321Y-45274813D01*
X121359356Y-45191958D01*
X121177363Y-45151975D01*
X121104744Y-45148888D01*
X121045845Y-45146737D01*
X120988213Y-45138027D01*
X120923042Y-45119372D01*
X120841529Y-45087386D01*
X120734870Y-45038684D01*
X120594262Y-44969879D01*
X120447671Y-44896193D01*
X120190659Y-44770404D01*
X119973311Y-44673877D01*
X119788478Y-44604330D01*
X119629015Y-44559482D01*
X119487774Y-44537053D01*
X119357610Y-44534762D01*
X119323222Y-44537320D01*
X119108744Y-44580892D01*
X118882007Y-44669337D01*
X118654898Y-44796510D01*
X118439302Y-44956263D01*
X118340494Y-45045510D01*
X118275704Y-45117298D01*
X118227506Y-45196254D01*
X118193662Y-45291784D01*
X118171937Y-45413292D01*
X118160094Y-45570182D01*
X118155897Y-45771860D01*
X118155778Y-45822350D01*
X118167737Y-46174169D01*
X118204682Y-46540076D01*
X118268216Y-46933736D01*
X118311558Y-47150464D01*
X118348682Y-47317627D01*
X118385940Y-47462869D01*
X118427943Y-47599342D01*
X118479303Y-47740201D01*
X118544632Y-47898599D01*
X118628541Y-48087687D01*
X118678462Y-48196888D01*
X118739888Y-48340416D01*
X118800076Y-48499007D01*
X118856707Y-48664265D01*
X118907464Y-48827793D01*
X118950030Y-48981194D01*
X118982085Y-49116073D01*
X119001313Y-49224031D01*
X119005396Y-49296673D01*
X118992015Y-49325603D01*
X118990085Y-49325777D01*
X118958353Y-49319873D01*
X118887249Y-49304414D01*
X118794872Y-49283371D01*
X118661777Y-49255399D01*
X118516333Y-49229101D01*
X118433288Y-49216314D01*
X118221661Y-49205225D01*
X118008935Y-49226666D01*
X117808123Y-49277160D01*
X117632235Y-49353228D01*
X117494282Y-49451392D01*
X117472614Y-49473130D01*
X117386763Y-49565033D01*
X117273266Y-49438350D01*
X117216433Y-49374054D01*
X117131774Y-49277179D01*
X117028213Y-49157989D01*
X116914673Y-49026744D01*
X116835376Y-48934754D01*
X116715976Y-48800250D01*
X116594831Y-48671178D01*
X116482235Y-48557999D01*
X116388481Y-48471174D01*
X116342499Y-48433810D01*
X116247440Y-48367494D01*
X116175472Y-48330031D01*
X116106766Y-48313616D01*
X116028951Y-48310397D01*
X115857419Y-48331117D01*
X115717369Y-48388453D01*
X115614323Y-48477548D01*
X115553805Y-48593544D01*
X115541339Y-48731582D01*
X115541339Y-48731582D01*
X115541339Y-48731582D01*
G37*
X115541339Y-48731582D02*
X115542040Y-48738649D01*
X115548781Y-48791993D01*
X115558960Y-48841277D01*
X115576096Y-48892947D01*
X115603710Y-48953450D01*
X115645319Y-49029233D01*
X115704444Y-49126743D01*
X115784605Y-49252426D01*
X115785111Y-49253200D01*
X115785111Y-48761254D01*
X115798479Y-48638691D01*
X115843278Y-48554826D01*
X115926554Y-48497452D01*
X115941027Y-48491113D01*
X116028862Y-48465813D01*
X116095210Y-48480402D01*
X116155224Y-48540714D01*
X116184542Y-48584878D01*
X116256159Y-48685745D01*
X116362600Y-48815929D01*
X116496225Y-48967558D01*
X116649396Y-49132761D01*
X116814473Y-49303668D01*
X116983818Y-49472407D01*
X117149791Y-49631107D01*
X117304753Y-49771899D01*
X117441065Y-49886909D01*
X117471287Y-49910676D01*
X117562908Y-49981433D01*
X117437026Y-50064813D01*
X117291664Y-50180137D01*
X117154609Y-50323059D01*
X117040479Y-50476437D01*
X116966270Y-50617038D01*
X116932380Y-50715535D01*
X116913030Y-50813247D01*
X116905170Y-50931141D01*
X116904897Y-51039058D01*
X116908128Y-51298893D01*
X116819342Y-51326496D01*
X116677492Y-51365608D01*
X116569775Y-51381146D01*
X116479389Y-51373859D01*
X116391987Y-51345526D01*
X116309619Y-51295353D01*
X116270587Y-51229327D01*
X116275626Y-51144091D01*
X116325473Y-51036283D01*
X116420861Y-50902547D01*
X116512627Y-50794505D01*
X116587805Y-50708120D01*
X116627349Y-50656258D01*
X116634743Y-50632752D01*
X116613472Y-50631436D01*
X116603261Y-50634085D01*
X116486365Y-50659390D01*
X116365650Y-50672173D01*
X116260013Y-50671503D01*
X116188356Y-50656448D01*
X116184852Y-50654699D01*
X116135318Y-50601060D01*
X116127247Y-50529045D01*
X116161839Y-50459843D01*
X116173167Y-50448907D01*
X116229080Y-50417297D01*
X116315360Y-50385245D01*
X116363667Y-50371829D01*
X116445264Y-50346214D01*
X116543384Y-50307238D01*
X116644422Y-50261460D01*
X116734770Y-50215444D01*
X116800822Y-50175749D01*
X116828972Y-50148938D01*
X116829182Y-50147345D01*
X116810526Y-50122833D01*
X116758302Y-50063542D01*
X116677994Y-49975452D01*
X116575081Y-49864542D01*
X116455047Y-49736791D01*
X116384682Y-49662531D01*
X116204193Y-49469104D01*
X116061791Y-49307589D01*
X115953596Y-49172151D01*
X115875727Y-49056956D01*
X115824303Y-48956170D01*
X115795443Y-48863961D01*
X115785266Y-48774494D01*
X115785111Y-48761254D01*
X115785111Y-49253200D01*
X115889320Y-49412730D01*
X116009793Y-49595454D01*
X116373535Y-50146192D01*
X116269823Y-50211639D01*
X116189819Y-50257714D01*
X116119178Y-50291318D01*
X116104938Y-50296484D01*
X116038476Y-50328087D01*
X115970883Y-50373211D01*
X115909003Y-50449495D01*
X115898570Y-50534764D01*
X115936723Y-50622622D01*
X116020600Y-50706672D01*
X116147342Y-50780516D01*
X116154482Y-50783706D01*
X116262532Y-50831378D01*
X116195088Y-50893883D01*
X116123762Y-50995541D01*
X116089032Y-51122896D01*
X116091280Y-51258353D01*
X116130887Y-51384314D01*
X116182825Y-51459326D01*
X116287040Y-51530931D01*
X116432736Y-51572165D01*
X116613258Y-51582126D01*
X116821947Y-51559915D01*
X116865714Y-51551687D01*
X116956194Y-51535014D01*
X117010716Y-51534066D01*
X117048617Y-51553227D01*
X117089230Y-51596877D01*
X117094916Y-51603626D01*
X117144663Y-51653873D01*
X117196380Y-51700496D01*
X117196380Y-51127917D01*
X117210799Y-51004525D01*
X117249257Y-50857335D01*
X117304077Y-50709239D01*
X117367580Y-50583132D01*
X117390965Y-50547695D01*
X117490486Y-50431042D01*
X117605222Y-50340203D01*
X117743159Y-50272184D01*
X117912280Y-50223990D01*
X118120572Y-50192627D01*
X118376020Y-50175101D01*
X118385672Y-50174711D01*
X118551613Y-50167226D01*
X118670761Y-50159071D01*
X118752761Y-50148802D01*
X118807261Y-50134980D01*
X118843907Y-50116162D01*
X118859061Y-50103966D01*
X118895272Y-50059347D01*
X118897278Y-50029835D01*
X118852211Y-50005692D01*
X118770223Y-49974312D01*
X118669350Y-49941331D01*
X118567629Y-49912389D01*
X118483095Y-49893123D01*
X118444943Y-49888433D01*
X118393408Y-49885629D01*
X118394656Y-49876707D01*
X118429299Y-49861729D01*
X118504509Y-49805129D01*
X118567134Y-49708770D01*
X118592185Y-49643277D01*
X118598782Y-49600552D01*
X118574534Y-49583002D01*
X118514263Y-49579777D01*
X118417488Y-49596810D01*
X118338940Y-49640835D01*
X118287668Y-49701239D01*
X118272718Y-49767409D01*
X118302533Y-49828133D01*
X118309354Y-49846970D01*
X118277672Y-49857572D01*
X118199931Y-49861733D01*
X118159808Y-49862000D01*
X118039193Y-49867531D01*
X117918669Y-49881740D01*
X117855304Y-49894208D01*
X117774996Y-49911540D01*
X117723838Y-49907165D01*
X117676618Y-49874551D01*
X117639211Y-49838236D01*
X117586141Y-49782618D01*
X117569450Y-49750192D01*
X117585081Y-49724769D01*
X117606460Y-49707542D01*
X117705962Y-49645449D01*
X117837685Y-49581994D01*
X117978568Y-49527215D01*
X118101534Y-49492002D01*
X118238486Y-49475181D01*
X118407835Y-49472586D01*
X118587683Y-49483024D01*
X118756128Y-49505305D01*
X118879391Y-49534342D01*
X118965342Y-49565092D01*
X119011970Y-49596586D01*
X119034875Y-49642593D01*
X119042948Y-49678725D01*
X119062295Y-49745967D01*
X119096037Y-49773078D01*
X119137779Y-49776901D01*
X119204762Y-49772088D01*
X119250474Y-49752418D01*
X119279430Y-49708698D01*
X119296147Y-49631737D01*
X119305139Y-49512343D01*
X119308282Y-49429817D01*
X119317786Y-49136602D01*
X119034798Y-48278690D01*
X118896374Y-47853555D01*
X118777948Y-47477135D01*
X118678740Y-47145665D01*
X118597970Y-46855380D01*
X118534860Y-46602512D01*
X118488629Y-46383297D01*
X118458499Y-46193967D01*
X118443690Y-46030759D01*
X118443423Y-45889905D01*
X118456918Y-45767640D01*
X118483396Y-45660198D01*
X118489258Y-45642777D01*
X118528952Y-45547197D01*
X118586864Y-45428580D01*
X118650935Y-45311525D01*
X118655288Y-45304111D01*
X118779330Y-45115223D01*
X118902674Y-44976250D01*
X119034214Y-44881478D01*
X119182841Y-44825198D01*
X119357447Y-44801700D01*
X119439889Y-44800225D01*
X119560343Y-44806094D01*
X119677041Y-44823777D01*
X119800455Y-44856618D01*
X119941057Y-44907959D01*
X120109320Y-44981145D01*
X120315718Y-45079518D01*
X120317490Y-45080386D01*
X120579156Y-45208522D01*
X120482245Y-45410742D01*
X120419431Y-45560854D01*
X120389473Y-45684776D01*
X120385333Y-45748539D01*
X120385333Y-45884116D01*
X120298639Y-45839284D01*
X120215356Y-45815012D01*
X120158690Y-45836966D01*
X120135571Y-45901043D01*
X120136962Y-45935069D01*
X120148845Y-45971266D01*
X120181092Y-46007482D01*
X120242263Y-46050057D01*
X120340918Y-46105327D01*
X120427480Y-46150187D01*
X120577525Y-46231394D01*
X120587326Y-46237846D01*
X120587326Y-45783070D01*
X120592406Y-45709454D01*
X120613572Y-45600034D01*
X120646991Y-45492012D01*
X120656243Y-45469565D01*
X120704787Y-45360555D01*
X120725473Y-45509138D01*
X120768346Y-45660506D01*
X120846740Y-45786533D01*
X120952025Y-45874280D01*
X120977444Y-45886944D01*
X121044549Y-45923661D01*
X121056413Y-45950913D01*
X121013165Y-45970199D01*
X120985055Y-45975341D01*
X120850114Y-45991209D01*
X120756438Y-45988957D01*
X120691157Y-45966455D01*
X120641406Y-45921571D01*
X120638494Y-45917944D01*
X120599390Y-45854162D01*
X120587326Y-45783070D01*
X120587326Y-46237846D01*
X120674493Y-46295236D01*
X120718814Y-46342319D01*
X120710920Y-46373245D01*
X120651240Y-46388618D01*
X120599069Y-46390666D01*
X120519896Y-46387850D01*
X120482075Y-46373928D01*
X120470586Y-46340691D01*
X120470000Y-46320111D01*
X120452824Y-46264083D01*
X120406454Y-46250798D01*
X120338633Y-46280313D01*
X120290677Y-46318763D01*
X120230612Y-46397205D01*
X120221662Y-46469288D01*
X120264192Y-46527863D01*
X120279500Y-46537665D01*
X120350747Y-46559192D01*
X120461078Y-46571514D01*
X120593951Y-46575014D01*
X120732826Y-46570075D01*
X120861164Y-46557082D01*
X120962422Y-46536418D01*
X121002551Y-46520897D01*
X121064463Y-46482146D01*
X121087401Y-46440208D01*
X121084185Y-46370047D01*
X121083286Y-46363238D01*
X121068915Y-46256093D01*
X121225720Y-46224602D01*
X121336399Y-46203670D01*
X121405596Y-46199441D01*
X121447223Y-46217793D01*
X121475194Y-46264602D01*
X121501954Y-46341277D01*
X121531469Y-46430306D01*
X121554914Y-46499704D01*
X121563686Y-46524722D01*
X121550949Y-46552079D01*
X121498258Y-46559999D01*
X121439283Y-46566961D01*
X121333707Y-46586560D01*
X121189464Y-46616872D01*
X121014487Y-46655970D01*
X120816709Y-46701927D01*
X120604062Y-46752819D01*
X120384480Y-46806718D01*
X120165896Y-46861699D01*
X119956242Y-46915836D01*
X119763452Y-46967201D01*
X119595458Y-47013870D01*
X119460193Y-47053917D01*
X119446944Y-47058058D01*
X119322775Y-47101023D01*
X119252274Y-47135657D01*
X119233577Y-47163740D01*
X119264821Y-47187050D01*
X119300387Y-47197925D01*
X119337575Y-47204316D01*
X119386256Y-47206391D01*
X119451428Y-47203433D01*
X119538091Y-47194725D01*
X119651242Y-47179551D01*
X119795880Y-47157194D01*
X119977003Y-47126936D01*
X120199611Y-47088061D01*
X120468701Y-47039852D01*
X120717895Y-46994611D01*
X120947790Y-46952957D01*
X121159463Y-46915080D01*
X121346672Y-46882060D01*
X121503175Y-46854977D01*
X121622731Y-46834912D01*
X121699098Y-46822945D01*
X121726012Y-46820105D01*
X121738633Y-46847177D01*
X121770341Y-46918705D01*
X121817905Y-47027299D01*
X121878096Y-47165570D01*
X121947683Y-47326128D01*
X121988583Y-47420777D01*
X122244427Y-48013444D01*
X122289758Y-48490985D01*
X122316531Y-48934621D01*
X122311305Y-49355544D01*
X122274913Y-49749341D01*
X122208190Y-50111598D01*
X122111969Y-50437902D01*
X121987084Y-50723841D01*
X121834370Y-50965001D01*
X121818356Y-50985534D01*
X121714421Y-51095238D01*
X121570995Y-51216966D01*
X121400844Y-51341410D01*
X121216737Y-51459261D01*
X121031440Y-51561213D01*
X121022827Y-51565502D01*
X120836138Y-51647037D01*
X120610636Y-51728016D01*
X120363739Y-51802956D01*
X120112861Y-51866375D01*
X119976111Y-51895008D01*
X119818793Y-51934416D01*
X119692478Y-51984672D01*
X119607529Y-52041193D01*
X119585385Y-52067733D01*
X119576627Y-52105494D01*
X119593772Y-52160784D01*
X119640977Y-52244971D01*
X119662807Y-52279399D01*
X119732929Y-52389285D01*
X119804814Y-52503772D01*
X119850343Y-52577563D01*
X119926222Y-52678997D01*
X120004517Y-52727927D01*
X120096495Y-52727594D01*
X120212424Y-52681752D01*
X120290126Y-52642077D01*
X120346067Y-52613631D01*
X120361883Y-52605672D01*
X120367967Y-52621598D01*
X120355701Y-52678060D01*
X120328876Y-52763671D01*
X120291286Y-52867047D01*
X120246723Y-52976803D01*
X120213513Y-53051111D01*
X120128141Y-53210378D01*
X120047088Y-53313729D01*
X119970491Y-53361089D01*
X119898486Y-53352381D01*
X119831208Y-53287530D01*
X119819577Y-53269833D01*
X119717443Y-53083327D01*
X119608838Y-52842900D01*
X119494660Y-52550590D01*
X119457646Y-52447987D01*
X119326310Y-52077444D01*
X119162999Y-52068939D01*
X119053546Y-52070384D01*
X118916738Y-52082100D01*
X118780209Y-52101629D01*
X118766033Y-52104217D01*
X118546516Y-52137114D01*
X118363393Y-52142632D01*
X118201967Y-52117391D01*
X118047545Y-52058013D01*
X117885433Y-51961120D01*
X117766282Y-51874362D01*
X117584674Y-51732047D01*
X117445196Y-51613563D01*
X117342612Y-51512051D01*
X117271683Y-51420649D01*
X117227171Y-51332496D01*
X117203837Y-51240731D01*
X117196443Y-51138493D01*
X117196380Y-51127917D01*
X117196380Y-51700496D01*
X117228297Y-51729270D01*
X117334844Y-51820714D01*
X117453330Y-51919099D01*
X117572782Y-52015321D01*
X117682225Y-52100276D01*
X117770686Y-52164858D01*
X117774778Y-52167675D01*
X117840931Y-52205609D01*
X117940931Y-52254487D01*
X118055864Y-52305193D01*
X118085222Y-52317293D01*
X118242869Y-52372829D01*
X118387453Y-52402162D01*
X118535476Y-52405866D01*
X118703439Y-52384514D01*
X118882702Y-52344992D01*
X118995881Y-52318229D01*
X119086339Y-52299380D01*
X119141708Y-52290886D01*
X119152871Y-52291665D01*
X119166596Y-52319976D01*
X119199252Y-52391522D01*
X119247048Y-52497869D01*
X119306192Y-52630583D01*
X119366737Y-52767294D01*
X119466126Y-52987256D01*
X119551226Y-53162994D01*
X119627065Y-53303320D01*
X119698670Y-53417046D01*
X119771069Y-53512985D01*
X119830516Y-53580277D01*
X119917666Y-53650741D01*
X120001242Y-53666768D01*
X120090136Y-53628973D01*
X120126988Y-53600770D01*
X120201381Y-53523592D01*
X120289663Y-53410063D01*
X120382113Y-53275099D01*
X120469010Y-53133620D01*
X120540634Y-53000542D01*
X120584703Y-52898301D01*
X120640791Y-52705655D01*
X120662178Y-52549174D01*
X120648596Y-52431982D01*
X120628398Y-52388774D01*
X120589131Y-52343617D01*
X120536106Y-52322948D01*
X120448279Y-52318571D01*
X120448183Y-52318572D01*
X120337257Y-52328810D01*
X120226748Y-52352733D01*
X120201889Y-52360841D01*
X120129006Y-52384500D01*
X120085214Y-52383479D01*
X120047034Y-52353648D01*
X120025500Y-52329806D01*
X119982016Y-52271188D01*
X119962128Y-52226089D01*
X119962000Y-52223780D01*
X119987999Y-52201761D01*
X120058689Y-52174342D01*
X120163108Y-52145548D01*
X120194833Y-52138245D01*
X120420112Y-52081390D01*
X120643492Y-52012460D01*
X120846014Y-51937769D01*
X120989062Y-51873733D01*
X121127125Y-51804321D01*
X121203602Y-51884438D01*
X121245560Y-51928763D01*
X121297642Y-51984054D01*
X121297642Y-51704973D01*
X121329775Y-51678460D01*
X121392558Y-51639803D01*
X121416099Y-51626889D01*
X121520205Y-51571445D01*
X121580714Y-51654588D01*
X121654337Y-51750951D01*
X121742118Y-51858526D01*
X121836209Y-51968576D01*
X121928763Y-52072361D01*
X122011934Y-52161145D01*
X122077875Y-52226188D01*
X122118739Y-52258754D01*
X122125162Y-52260888D01*
X122144091Y-52258807D01*
X122165700Y-52248583D01*
X122196339Y-52224243D01*
X122242355Y-52179817D01*
X122310095Y-52109332D01*
X122405909Y-52006817D01*
X122478848Y-51928167D01*
X122585619Y-51816665D01*
X122660571Y-51749916D01*
X122706241Y-51729515D01*
X122725165Y-51757059D01*
X122719882Y-51834143D01*
X122692929Y-51962364D01*
X122671331Y-52049232D01*
X122613309Y-52246858D01*
X122549000Y-52415042D01*
X122481677Y-52547645D01*
X122414614Y-52638531D01*
X122351086Y-52681560D01*
X122332599Y-52684222D01*
X122291632Y-52666636D01*
X122220616Y-52619372D01*
X122131315Y-52550672D01*
X122075918Y-52504372D01*
X121972612Y-52412322D01*
X121857888Y-52304948D01*
X121738463Y-52189152D01*
X121621054Y-52071832D01*
X121512379Y-51959890D01*
X121419156Y-51860224D01*
X121348102Y-51779734D01*
X121305935Y-51725321D01*
X121297642Y-51704973D01*
X121297642Y-51984054D01*
X121319113Y-52006848D01*
X121417270Y-52111259D01*
X121533043Y-52234557D01*
X121659441Y-52369307D01*
X121697746Y-52410168D01*
X121825862Y-52545541D01*
X121945874Y-52669905D01*
X122050775Y-52776191D01*
X122133557Y-52857328D01*
X122187213Y-52906244D01*
X122196786Y-52913724D01*
X122255297Y-52950419D01*
X122296581Y-52953867D01*
X122346373Y-52926971D01*
X122447886Y-52844862D01*
X122538946Y-52734681D01*
X122628034Y-52585275D01*
X122670461Y-52500777D01*
X122751175Y-52310894D01*
X122811425Y-52123314D01*
X122849707Y-51947389D01*
X122864520Y-51792471D01*
X122854358Y-51667911D01*
X122817923Y-51583313D01*
X122766958Y-51520373D01*
X122641534Y-51584213D01*
X122562230Y-51635080D01*
X122463526Y-51713195D01*
X122363722Y-51803798D01*
X122339958Y-51827470D01*
X122259264Y-51907335D01*
X122192703Y-51968912D01*
X122150440Y-52002984D01*
X122142110Y-52006888D01*
X122118831Y-51984857D01*
X122071246Y-51924797D01*
X122006184Y-51835763D01*
X121930472Y-51726807D01*
X121926939Y-51721602D01*
X121733462Y-51436316D01*
X121917049Y-51270622D01*
X122042000Y-51151436D01*
X122140770Y-51039080D01*
X122219828Y-50921755D01*
X122285643Y-50787666D01*
X122344682Y-50625016D01*
X122403413Y-50422008D01*
X122422762Y-50348289D01*
X122537340Y-49904333D01*
X122551353Y-49035426D01*
X122555097Y-48736373D01*
X122555752Y-48490447D01*
X122553259Y-48294413D01*
X122547557Y-48145036D01*
X122538587Y-48039080D01*
X122532158Y-47997729D01*
X122508208Y-47914291D01*
X122462874Y-47790352D01*
X122400548Y-47635624D01*
X122325622Y-47459822D01*
X122242488Y-47272658D01*
X122155539Y-47083847D01*
X122069165Y-46903103D01*
X121987759Y-46740138D01*
X121915713Y-46604666D01*
X121858845Y-46508589D01*
X121774670Y-46371293D01*
X121722253Y-46261398D01*
X121697321Y-46162861D01*
X121695599Y-46059636D01*
X121710169Y-45950565D01*
X121725182Y-45738417D01*
X121694421Y-45552262D01*
X121621071Y-45396321D01*
X121508321Y-45274813D01*
X121359356Y-45191958D01*
X121177363Y-45151975D01*
X121104744Y-45148888D01*
X121045845Y-45146737D01*
X120988213Y-45138027D01*
X120923042Y-45119372D01*
X120841529Y-45087386D01*
X120734870Y-45038684D01*
X120594262Y-44969879D01*
X120447671Y-44896193D01*
X120190659Y-44770404D01*
X119973311Y-44673877D01*
X119788478Y-44604330D01*
X119629015Y-44559482D01*
X119487774Y-44537053D01*
X119357610Y-44534762D01*
X119323222Y-44537320D01*
X119108744Y-44580892D01*
X118882007Y-44669337D01*
X118654898Y-44796510D01*
X118439302Y-44956263D01*
X118340494Y-45045510D01*
X118275704Y-45117298D01*
X118227506Y-45196254D01*
X118193662Y-45291784D01*
X118171937Y-45413292D01*
X118160094Y-45570182D01*
X118155897Y-45771860D01*
X118155778Y-45822350D01*
X118167737Y-46174169D01*
X118204682Y-46540076D01*
X118268216Y-46933736D01*
X118311558Y-47150464D01*
X118348682Y-47317627D01*
X118385940Y-47462869D01*
X118427943Y-47599342D01*
X118479303Y-47740201D01*
X118544632Y-47898599D01*
X118628541Y-48087687D01*
X118678462Y-48196888D01*
X118739888Y-48340416D01*
X118800076Y-48499007D01*
X118856707Y-48664265D01*
X118907464Y-48827793D01*
X118950030Y-48981194D01*
X118982085Y-49116073D01*
X119001313Y-49224031D01*
X119005396Y-49296673D01*
X118992015Y-49325603D01*
X118990085Y-49325777D01*
X118958353Y-49319873D01*
X118887249Y-49304414D01*
X118794872Y-49283371D01*
X118661777Y-49255399D01*
X118516333Y-49229101D01*
X118433288Y-49216314D01*
X118221661Y-49205225D01*
X118008935Y-49226666D01*
X117808123Y-49277160D01*
X117632235Y-49353228D01*
X117494282Y-49451392D01*
X117472614Y-49473130D01*
X117386763Y-49565033D01*
X117273266Y-49438350D01*
X117216433Y-49374054D01*
X117131774Y-49277179D01*
X117028213Y-49157989D01*
X116914673Y-49026744D01*
X116835376Y-48934754D01*
X116715976Y-48800250D01*
X116594831Y-48671178D01*
X116482235Y-48557999D01*
X116388481Y-48471174D01*
X116342499Y-48433810D01*
X116247440Y-48367494D01*
X116175472Y-48330031D01*
X116106766Y-48313616D01*
X116028951Y-48310397D01*
X115857419Y-48331117D01*
X115717369Y-48388453D01*
X115614323Y-48477548D01*
X115553805Y-48593544D01*
X115541339Y-48731582D01*
X115541339Y-48731582D01*
G36*
X118384659Y-51943446D02*
X118398686Y-51990469D01*
X118434663Y-52030669D01*
X118485261Y-52022078D01*
X118535177Y-51972387D01*
X118574134Y-51897742D01*
X118567073Y-51842276D01*
X118538666Y-51810900D01*
X118500001Y-51794927D01*
X118455809Y-51820480D01*
X118439888Y-51835667D01*
X118392807Y-51892639D01*
X118384659Y-51943446D01*
X118384659Y-51943446D01*
X118384659Y-51943446D01*
G37*
X118384659Y-51943446D02*
X118398686Y-51990469D01*
X118434663Y-52030669D01*
X118485261Y-52022078D01*
X118535177Y-51972387D01*
X118574134Y-51897742D01*
X118567073Y-51842276D01*
X118538666Y-51810900D01*
X118500001Y-51794927D01*
X118455809Y-51820480D01*
X118439888Y-51835667D01*
X118392807Y-51892639D01*
X118384659Y-51943446D01*
X118384659Y-51943446D01*
G36*
X118557576Y-51538402D02*
X118560193Y-51567094D01*
X118599108Y-51600390D01*
X118665325Y-51611026D01*
X118734258Y-51598554D01*
X118775377Y-51570997D01*
X118798808Y-51511655D01*
X118799908Y-51465164D01*
X118779768Y-51416666D01*
X118728430Y-51407226D01*
X118720131Y-51408038D01*
X118645714Y-51433380D01*
X118586408Y-51481927D01*
X118557576Y-51538402D01*
X118557576Y-51538402D01*
X118557576Y-51538402D01*
G37*
X118557576Y-51538402D02*
X118560193Y-51567094D01*
X118599108Y-51600390D01*
X118665325Y-51611026D01*
X118734258Y-51598554D01*
X118775377Y-51570997D01*
X118798808Y-51511655D01*
X118799908Y-51465164D01*
X118779768Y-51416666D01*
X118728430Y-51407226D01*
X118720131Y-51408038D01*
X118645714Y-51433380D01*
X118586408Y-51481927D01*
X118557576Y-51538402D01*
X118557576Y-51538402D01*
G36*
X118596144Y-51065286D02*
X118598120Y-51129269D01*
X118645357Y-51206287D01*
X118651293Y-51213453D01*
X118724121Y-51279691D01*
X118787220Y-51299039D01*
X118833304Y-51270775D01*
X118849184Y-51233010D01*
X118858066Y-51133367D01*
X118822055Y-51060427D01*
X118762053Y-51014866D01*
X118683629Y-50983292D01*
X118630782Y-50999659D01*
X118596144Y-51065286D01*
X118596144Y-51065286D01*
X118596144Y-51065286D01*
G37*
X118596144Y-51065286D02*
X118598120Y-51129269D01*
X118645357Y-51206287D01*
X118651293Y-51213453D01*
X118724121Y-51279691D01*
X118787220Y-51299039D01*
X118833304Y-51270775D01*
X118849184Y-51233010D01*
X118858066Y-51133367D01*
X118822055Y-51060427D01*
X118762053Y-51014866D01*
X118683629Y-50983292D01*
X118630782Y-50999659D01*
X118596144Y-51065286D01*
X118596144Y-51065286D01*
G36*
X118189030Y-50668596D02*
X118189234Y-50671184D01*
X118205540Y-50749518D01*
X118243419Y-50783136D01*
X118311555Y-50775809D01*
X118374500Y-50751613D01*
X118435483Y-50716785D01*
X118465556Y-50683752D01*
X118466222Y-50679635D01*
X118446902Y-50640038D01*
X118400293Y-50583553D01*
X118343420Y-50527635D01*
X118293311Y-50489737D01*
X118274293Y-50482888D01*
X118225979Y-50508189D01*
X118195450Y-50574759D01*
X118189030Y-50668596D01*
X118189030Y-50668596D01*
X118189030Y-50668596D01*
G37*
X118189030Y-50668596D02*
X118189234Y-50671184D01*
X118205540Y-50749518D01*
X118243419Y-50783136D01*
X118311555Y-50775809D01*
X118374500Y-50751613D01*
X118435483Y-50716785D01*
X118465556Y-50683752D01*
X118466222Y-50679635D01*
X118446902Y-50640038D01*
X118400293Y-50583553D01*
X118343420Y-50527635D01*
X118293311Y-50489737D01*
X118274293Y-50482888D01*
X118225979Y-50508189D01*
X118195450Y-50574759D01*
X118189030Y-50668596D01*
X118189030Y-50668596D01*
G36*
X119405523Y-48327728D02*
X119409585Y-48401943D01*
X119429241Y-48477830D01*
X119469879Y-48597781D01*
X119528695Y-48754674D01*
X119602884Y-48941386D01*
X119689641Y-49150795D01*
X119786162Y-49375776D01*
X119851178Y-49523333D01*
X119914389Y-49667270D01*
X119955184Y-49770974D01*
X119974398Y-49845643D01*
X119972867Y-49902478D01*
X119951426Y-49952677D01*
X119910910Y-50007440D01*
X119889225Y-50033519D01*
X119797152Y-50153458D01*
X119746080Y-50248672D01*
X119732497Y-50329146D01*
X119752895Y-50404867D01*
X119756272Y-50411779D01*
X119818521Y-50512465D01*
X119886611Y-50586569D01*
X119949173Y-50622395D01*
X119962545Y-50624000D01*
X120016551Y-50604347D01*
X120058884Y-50569648D01*
X120087876Y-50541868D01*
X120114588Y-50538140D01*
X120151842Y-50563821D01*
X120212462Y-50624269D01*
X120227753Y-50640203D01*
X120319047Y-50723159D01*
X120394519Y-50759509D01*
X120465013Y-50752400D01*
X120516275Y-50723901D01*
X120570022Y-50667550D01*
X120609628Y-50599357D01*
X120665224Y-50524423D01*
X120719351Y-50497544D01*
X120827677Y-50455790D01*
X120898252Y-50396697D01*
X120921555Y-50332768D01*
X120900265Y-50277623D01*
X120835009Y-50198038D01*
X120723712Y-50091481D01*
X120723626Y-50091404D01*
X120631185Y-50004229D01*
X120551864Y-49921414D01*
X120497938Y-49856108D01*
X120485399Y-49836268D01*
X120454912Y-49758782D01*
X120416346Y-49630193D01*
X120370845Y-49455086D01*
X120319552Y-49238044D01*
X120263609Y-48983651D01*
X120217296Y-48761333D01*
X120174964Y-48555366D01*
X120141161Y-48397238D01*
X120113590Y-48279391D01*
X120089952Y-48194266D01*
X120067952Y-48134305D01*
X120045291Y-48091952D01*
X120019672Y-48059647D01*
X119997309Y-48037628D01*
X119929171Y-47987971D01*
X119883943Y-47989095D01*
X119858323Y-48041789D01*
X119853436Y-48072065D01*
X119851299Y-48121973D01*
X119856630Y-48184956D01*
X119870901Y-48266984D01*
X119895583Y-48374028D01*
X119932147Y-48512059D01*
X119982065Y-48687046D01*
X120046809Y-48904961D01*
X120110235Y-49114111D01*
X120168425Y-49305102D01*
X120223464Y-49486220D01*
X120272420Y-49647787D01*
X120312366Y-49780127D01*
X120340372Y-49873565D01*
X120349723Y-49905204D01*
X120373625Y-49978867D01*
X120401621Y-50028343D01*
X120447072Y-50066682D01*
X120523340Y-50106933D01*
X120585812Y-50135774D01*
X120694423Y-50191141D01*
X120761316Y-50238374D01*
X120780444Y-50268959D01*
X120775092Y-50297928D01*
X120750547Y-50312854D01*
X120694079Y-50316995D01*
X120603999Y-50314127D01*
X120538838Y-50314410D01*
X120501110Y-50331697D01*
X120477814Y-50379103D01*
X120457708Y-50461722D01*
X120431081Y-50524380D01*
X120395015Y-50535300D01*
X120356553Y-50496729D01*
X120325080Y-50419388D01*
X120280141Y-50300389D01*
X120228999Y-50237376D01*
X120171023Y-50230168D01*
X120105584Y-50278582D01*
X120057281Y-50341999D01*
X120007347Y-50409497D01*
X119972150Y-50433491D01*
X119943992Y-50423210D01*
X119908649Y-50360213D01*
X119922316Y-50272370D01*
X119984530Y-50162011D01*
X119999867Y-50141225D01*
X120068534Y-50046554D01*
X120117690Y-49962694D01*
X120146831Y-49881206D01*
X120155451Y-49793649D01*
X120143043Y-49691584D01*
X120109102Y-49566570D01*
X120053123Y-49410168D01*
X119974601Y-49213938D01*
X119939182Y-49128222D01*
X119895526Y-49014755D01*
X119843521Y-48866959D01*
X119790010Y-48704862D01*
X119746359Y-48563777D01*
X119697685Y-48402973D01*
X119660166Y-48288731D01*
X119629902Y-48213210D01*
X119602996Y-48168573D01*
X119575550Y-48146978D01*
X119543665Y-48140588D01*
X119535862Y-48140444D01*
X119471407Y-48165740D01*
X119425795Y-48232655D01*
X119405523Y-48327728D01*
X119405523Y-48327728D01*
X119405523Y-48327728D01*
G37*
X119405523Y-48327728D02*
X119409585Y-48401943D01*
X119429241Y-48477830D01*
X119469879Y-48597781D01*
X119528695Y-48754674D01*
X119602884Y-48941386D01*
X119689641Y-49150795D01*
X119786162Y-49375776D01*
X119851178Y-49523333D01*
X119914389Y-49667270D01*
X119955184Y-49770974D01*
X119974398Y-49845643D01*
X119972867Y-49902478D01*
X119951426Y-49952677D01*
X119910910Y-50007440D01*
X119889225Y-50033519D01*
X119797152Y-50153458D01*
X119746080Y-50248672D01*
X119732497Y-50329146D01*
X119752895Y-50404867D01*
X119756272Y-50411779D01*
X119818521Y-50512465D01*
X119886611Y-50586569D01*
X119949173Y-50622395D01*
X119962545Y-50624000D01*
X120016551Y-50604347D01*
X120058884Y-50569648D01*
X120087876Y-50541868D01*
X120114588Y-50538140D01*
X120151842Y-50563821D01*
X120212462Y-50624269D01*
X120227753Y-50640203D01*
X120319047Y-50723159D01*
X120394519Y-50759509D01*
X120465013Y-50752400D01*
X120516275Y-50723901D01*
X120570022Y-50667550D01*
X120609628Y-50599357D01*
X120665224Y-50524423D01*
X120719351Y-50497544D01*
X120827677Y-50455790D01*
X120898252Y-50396697D01*
X120921555Y-50332768D01*
X120900265Y-50277623D01*
X120835009Y-50198038D01*
X120723712Y-50091481D01*
X120723626Y-50091404D01*
X120631185Y-50004229D01*
X120551864Y-49921414D01*
X120497938Y-49856108D01*
X120485399Y-49836268D01*
X120454912Y-49758782D01*
X120416346Y-49630193D01*
X120370845Y-49455086D01*
X120319552Y-49238044D01*
X120263609Y-48983651D01*
X120217296Y-48761333D01*
X120174964Y-48555366D01*
X120141161Y-48397238D01*
X120113590Y-48279391D01*
X120089952Y-48194266D01*
X120067952Y-48134305D01*
X120045291Y-48091952D01*
X120019672Y-48059647D01*
X119997309Y-48037628D01*
X119929171Y-47987971D01*
X119883943Y-47989095D01*
X119858323Y-48041789D01*
X119853436Y-48072065D01*
X119851299Y-48121973D01*
X119856630Y-48184956D01*
X119870901Y-48266984D01*
X119895583Y-48374028D01*
X119932147Y-48512059D01*
X119982065Y-48687046D01*
X120046809Y-48904961D01*
X120110235Y-49114111D01*
X120168425Y-49305102D01*
X120223464Y-49486220D01*
X120272420Y-49647787D01*
X120312366Y-49780127D01*
X120340372Y-49873565D01*
X120349723Y-49905204D01*
X120373625Y-49978867D01*
X120401621Y-50028343D01*
X120447072Y-50066682D01*
X120523340Y-50106933D01*
X120585812Y-50135774D01*
X120694423Y-50191141D01*
X120761316Y-50238374D01*
X120780444Y-50268959D01*
X120775092Y-50297928D01*
X120750547Y-50312854D01*
X120694079Y-50316995D01*
X120603999Y-50314127D01*
X120538838Y-50314410D01*
X120501110Y-50331697D01*
X120477814Y-50379103D01*
X120457708Y-50461722D01*
X120431081Y-50524380D01*
X120395015Y-50535300D01*
X120356553Y-50496729D01*
X120325080Y-50419388D01*
X120280141Y-50300389D01*
X120228999Y-50237376D01*
X120171023Y-50230168D01*
X120105584Y-50278582D01*
X120057281Y-50341999D01*
X120007347Y-50409497D01*
X119972150Y-50433491D01*
X119943992Y-50423210D01*
X119908649Y-50360213D01*
X119922316Y-50272370D01*
X119984530Y-50162011D01*
X119999867Y-50141225D01*
X120068534Y-50046554D01*
X120117690Y-49962694D01*
X120146831Y-49881206D01*
X120155451Y-49793649D01*
X120143043Y-49691584D01*
X120109102Y-49566570D01*
X120053123Y-49410168D01*
X119974601Y-49213938D01*
X119939182Y-49128222D01*
X119895526Y-49014755D01*
X119843521Y-48866959D01*
X119790010Y-48704862D01*
X119746359Y-48563777D01*
X119697685Y-48402973D01*
X119660166Y-48288731D01*
X119629902Y-48213210D01*
X119602996Y-48168573D01*
X119575550Y-48146978D01*
X119543665Y-48140588D01*
X119535862Y-48140444D01*
X119471407Y-48165740D01*
X119425795Y-48232655D01*
X119405523Y-48327728D01*
X119405523Y-48327728D01*
G36*
X118551165Y-46267509D02*
X118570405Y-46370677D01*
X118621380Y-46494704D01*
X118694863Y-46621617D01*
X118781622Y-46733445D01*
X118800637Y-46753303D01*
X118804338Y-46756258D01*
X118804338Y-46430984D01*
X118833170Y-46282907D01*
X118886771Y-46147122D01*
X118944746Y-46031615D01*
X118985216Y-45969124D01*
X119009623Y-45959494D01*
X119019411Y-46002571D01*
X119016025Y-46098204D01*
X119012976Y-46133691D01*
X119005430Y-46248655D01*
X119010063Y-46325544D01*
X119028796Y-46381792D01*
X119043025Y-46406064D01*
X119112174Y-46474241D01*
X119214888Y-46534600D01*
X119328395Y-46575883D01*
X119410255Y-46587602D01*
X119464335Y-46594613D01*
X119467087Y-46612670D01*
X119421942Y-46639110D01*
X119332327Y-46671274D01*
X119284419Y-46685251D01*
X119114079Y-46715348D01*
X118977842Y-46701477D01*
X118874222Y-46643479D01*
X118871397Y-46640864D01*
X118817023Y-46552125D01*
X118804338Y-46430984D01*
X118804338Y-46756258D01*
X118924957Y-46852574D01*
X119060205Y-46907134D01*
X119217438Y-46919731D01*
X119383444Y-46898153D01*
X119469107Y-46877187D01*
X119582452Y-46844474D01*
X119691585Y-46809523D01*
X119796784Y-46771106D01*
X119864255Y-46735480D01*
X119910695Y-46690468D01*
X119952801Y-46623897D01*
X119957323Y-46615754D01*
X120027809Y-46488065D01*
X119966440Y-46286019D01*
X119883060Y-46075591D01*
X119775692Y-45915873D01*
X119643401Y-45806054D01*
X119485247Y-45745321D01*
X119327000Y-45731750D01*
X119140073Y-45754304D01*
X118965297Y-45808467D01*
X118810987Y-45888495D01*
X118685456Y-45988649D01*
X118597018Y-46103187D01*
X118553986Y-46226369D01*
X118551165Y-46267509D01*
X118551165Y-46267509D01*
X118551165Y-46267509D01*
G37*
X118551165Y-46267509D02*
X118570405Y-46370677D01*
X118621380Y-46494704D01*
X118694863Y-46621617D01*
X118781622Y-46733445D01*
X118800637Y-46753303D01*
X118804338Y-46756258D01*
X118804338Y-46430984D01*
X118833170Y-46282907D01*
X118886771Y-46147122D01*
X118944746Y-46031615D01*
X118985216Y-45969124D01*
X119009623Y-45959494D01*
X119019411Y-46002571D01*
X119016025Y-46098204D01*
X119012976Y-46133691D01*
X119005430Y-46248655D01*
X119010063Y-46325544D01*
X119028796Y-46381792D01*
X119043025Y-46406064D01*
X119112174Y-46474241D01*
X119214888Y-46534600D01*
X119328395Y-46575883D01*
X119410255Y-46587602D01*
X119464335Y-46594613D01*
X119467087Y-46612670D01*
X119421942Y-46639110D01*
X119332327Y-46671274D01*
X119284419Y-46685251D01*
X119114079Y-46715348D01*
X118977842Y-46701477D01*
X118874222Y-46643479D01*
X118871397Y-46640864D01*
X118817023Y-46552125D01*
X118804338Y-46430984D01*
X118804338Y-46756258D01*
X118924957Y-46852574D01*
X119060205Y-46907134D01*
X119217438Y-46919731D01*
X119383444Y-46898153D01*
X119469107Y-46877187D01*
X119582452Y-46844474D01*
X119691585Y-46809523D01*
X119796784Y-46771106D01*
X119864255Y-46735480D01*
X119910695Y-46690468D01*
X119952801Y-46623897D01*
X119957323Y-46615754D01*
X120027809Y-46488065D01*
X119966440Y-46286019D01*
X119883060Y-46075591D01*
X119775692Y-45915873D01*
X119643401Y-45806054D01*
X119485247Y-45745321D01*
X119327000Y-45731750D01*
X119140073Y-45754304D01*
X118965297Y-45808467D01*
X118810987Y-45888495D01*
X118685456Y-45988649D01*
X118597018Y-46103187D01*
X118553986Y-46226369D01*
X118551165Y-46267509D01*
X118551165Y-46267509D01*
D21*
X78780000Y-24490000D03*
X80030000Y-24490000D03*
X81280000Y-24490000D03*
X82530000Y-24490000D03*
X83780000Y-24490000D03*
D22*
X76230000Y-21590000D03*
X86330000Y-21590000D03*
D23*
X77600000Y-61700000D03*
D24*
X77600000Y-64240000D03*
D25*
X76100000Y-27650000D03*
X76100000Y-26550000D03*
D26*
X80000000Y-29250000D03*
X80000000Y-27750000D03*
D25*
X108500000Y-28150000D03*
X108500000Y-27050000D03*
D27*
X86250000Y-39700000D03*
X85150000Y-39700000D03*
X97250000Y-36600000D03*
X96150000Y-36600000D03*
D28*
X97450000Y-35200000D03*
X95950000Y-35200000D03*
D29*
X86800000Y-49650000D03*
X86800000Y-48150000D03*
X85000000Y-49650000D03*
X85000000Y-48150000D03*
D30*
X98090000Y-27240000D03*
X99360000Y-22160000D03*
X100630000Y-27240000D03*
X101900000Y-22160000D03*
X103170000Y-27240000D03*
X104440000Y-22160000D03*
D29*
X80000000Y-30350000D03*
X80000000Y-31850000D03*
D31*
X112300000Y-29850000D03*
X112300000Y-31750000D03*
D29*
X108500000Y-24350000D03*
X108500000Y-22850000D03*
D32*
X101300000Y-33500000D03*
X103300000Y-33500000D03*
D33*
X98350000Y-32100000D03*
X98350000Y-32900000D03*
X98350000Y-31300000D03*
X98350000Y-33700000D03*
X96650000Y-31300000D03*
X96650000Y-32100000D03*
X96650000Y-32900000D03*
X96650000Y-33700000D03*
D34*
X77700000Y-31050000D03*
X77700000Y-30100000D03*
X77700000Y-29150000D03*
D35*
X103949400Y-39600000D03*
X100850600Y-39600000D03*
X103949400Y-36600000D03*
X100850600Y-36600000D03*
D36*
X110495000Y-27675000D03*
X111765000Y-27675000D03*
X113035000Y-27675000D03*
X114305000Y-27675000D03*
X114305000Y-21325000D03*
X113035000Y-21325000D03*
X111765000Y-21325000D03*
X110495000Y-21325000D03*
D37*
X77470000Y-40640000D03*
X80010000Y-40640000D03*
X82550000Y-40640000D03*
X77470000Y-43180000D03*
X80010000Y-43180000D03*
X82550000Y-43180000D03*
X77470000Y-45720000D03*
X80010000Y-45720000D03*
X82550000Y-45720000D03*
X77470000Y-48260000D03*
X80010000Y-48260000D03*
X82550000Y-48260000D03*
X77470000Y-50800000D03*
X80010000Y-50800000D03*
X82550000Y-50800000D03*
X77470000Y-53340000D03*
X80010000Y-53340000D03*
X82550000Y-53340000D03*
X77470000Y-55880000D03*
X80010000Y-55880000D03*
X82550000Y-55880000D03*
X77470000Y-58420000D03*
X80010000Y-58420000D03*
X82550000Y-58420000D03*
D38*
X84848740Y-37599160D03*
X82151260Y-35800840D03*
X84848740Y-35800840D03*
X82151260Y-37599160D03*
D39*
X113300000Y-35970000D03*
X114252500Y-33430000D03*
X112347500Y-33430000D03*
D40*
X90700000Y-36381000D03*
X91462000Y-36381000D03*
X89938000Y-36381000D03*
X89938000Y-35619000D03*
X91462000Y-35619000D03*
X90700000Y-35619000D03*
X89938000Y-34857000D03*
X91462000Y-34857000D03*
X90700000Y-34857000D03*
X90700000Y-33333000D03*
X91462000Y-33333000D03*
X89938000Y-33333000D03*
X89938000Y-34095000D03*
X91462000Y-34095000D03*
X90700000Y-34095000D03*
X90700000Y-37143000D03*
X91462000Y-37143000D03*
X89938000Y-37143000D03*
X90700000Y-37905000D03*
X91462000Y-37905000D03*
X89938000Y-37905000D03*
D41*
X87850000Y-40225000D03*
X87850000Y-39575000D03*
X87850000Y-38925000D03*
X87850000Y-38275000D03*
X87850000Y-37625000D03*
X87850000Y-36975000D03*
X87850000Y-36325000D03*
X87850000Y-35675000D03*
X87850000Y-35025000D03*
X87850000Y-34375000D03*
X87850000Y-33725000D03*
X87850000Y-33075000D03*
X87850000Y-32425000D03*
X87850000Y-31775000D03*
X93550000Y-31775000D03*
X93550000Y-32425000D03*
X93550000Y-33075000D03*
X93550000Y-33725000D03*
X93550000Y-34375000D03*
X93550000Y-35025000D03*
X93550000Y-35675000D03*
X93550000Y-36325000D03*
X93550000Y-36975000D03*
X93550000Y-37625000D03*
X93550000Y-38275000D03*
X93550000Y-38925000D03*
X93550000Y-39575000D03*
X93550000Y-40225000D03*
D40*
X89938000Y-38667000D03*
X91462000Y-38667000D03*
X90700000Y-38667000D03*
D42*
X122567700Y-28559760D03*
X122567700Y-22235160D03*
D28*
X92050000Y-65500000D03*
X93550000Y-65500000D03*
D27*
X91950000Y-64100000D03*
X93050000Y-64100000D03*
D25*
X94300000Y-61350000D03*
X94300000Y-60250000D03*
D27*
X87350000Y-61100000D03*
X88450000Y-61100000D03*
D28*
X90450000Y-64100000D03*
X88950000Y-64100000D03*
D43*
X90400000Y-65900000D03*
X87400000Y-65900000D03*
D44*
X89825000Y-61850000D03*
X89825000Y-61350000D03*
X89825000Y-60850000D03*
X89825000Y-60350000D03*
D45*
X90550000Y-59625000D03*
X91050000Y-59625000D03*
X91550000Y-59625000D03*
X92050000Y-59625000D03*
D44*
X92775000Y-60350000D03*
X92775000Y-60850000D03*
X92775000Y-61350000D03*
X92775000Y-61850000D03*
D45*
X92050000Y-62575000D03*
X91550000Y-62575000D03*
X91050000Y-62575000D03*
X90550000Y-62575000D03*
D46*
X91750000Y-60650000D03*
X91750000Y-61550000D03*
X90850000Y-60650000D03*
X90850000Y-61550000D03*
D47*
X87050000Y-59700000D03*
X88550000Y-59700000D03*
X89850000Y-58100000D03*
X91350000Y-58100000D03*
D48*
X111100000Y-44000000D03*
D49*
X85600000Y-68600000D03*
D48*
X85600000Y-57100000D03*
X119300000Y-68200000D03*
D50*
X121900000Y-62700000D03*
X122400000Y-62700000D03*
X121900000Y-63200000D03*
X122400000Y-63200000D03*
X122400000Y-63700000D03*
X121900000Y-63700000D03*
D47*
X77650000Y-34400000D03*
X79150000Y-34400000D03*
D51*
X89395000Y-22800000D03*
X90665000Y-22800000D03*
X91935000Y-22800000D03*
X93205000Y-22800000D03*
X93205000Y-28200000D03*
X91935000Y-28200000D03*
X90665000Y-28200000D03*
X89395000Y-28200000D03*
D52*
X81630000Y-32751200D03*
X84170000Y-32751200D03*
X84170000Y-26248800D03*
X81630000Y-26248800D03*
D27*
X90650000Y-21200000D03*
X91750000Y-21200000D03*
X89950000Y-30000000D03*
X91050000Y-30000000D03*
D53*
X83100000Y-61451160D03*
X83100000Y-65748840D03*
M02*
