M48
;DRILL file {kicad (2014-10-31 BZR 5243)-product} date So 05 Apr 2015 19:45:10 CEST
;FORMAT={-:-/ absolute / metric / decimal}
FMAT,2
METRIC,TZ
T1C0.400
T2C0.635
T3C1.000
T4C1.016
T5C1.200
%
G90
G05
M71
T1
X75.8Y-28.7
X75.9Y-25.5
X76.Y-29.7
X76.1Y-30.8
X76.2Y-34.
X76.3Y-32.
X76.4Y-24.
X76.8Y-36.2
X78.4Y-22.
X78.7Y-60.
X79.055Y-36.2
X79.074Y-26.367
X79.3Y-21.2
X79.3Y-62.7
X79.6Y-61.6
X79.8Y-60.5
X80.Y-28.873
X80.581Y-25.903
X80.7Y-21.6
X80.7Y-34.4
X81.Y-60.5
X81.4Y-27.7
X81.5Y-30.5
X82.35Y-21.5
X82.8Y-33.7
X83.414Y-28.108
X84.1Y-21.5
X84.519Y-29.792
X84.588Y-45.009
X84.6Y-25.9
X84.8Y-27.716
X84.807Y-31.293
X85.2Y-45.8
X85.7Y-33.3
X86.7Y-41.8
X87.4Y-68.4
X88.Y-26.2
X88.2Y-53.7
X88.3Y-52.4
X88.4Y-68.4
X89.3Y-21.4
X89.5Y-53.9
X89.9Y-24.9
X89.9Y-52.
X89.938Y-33.333
X89.938Y-34.095
X89.938Y-34.857
X89.938Y-35.619
X89.938Y-36.381
X89.938Y-37.143
X89.938Y-37.905
X89.938Y-38.667
X90.136Y-31.636
X90.4Y-67.4
X90.4Y-68.6
X90.6Y-53.1
X90.7Y-33.333
X90.7Y-34.095
X90.7Y-34.857
X90.7Y-35.619
X90.7Y-36.381
X90.7Y-37.143
X90.7Y-37.905
X90.7Y-38.667
X90.7Y-51.3
X90.7Y-55.
X90.7Y-56.2
X90.85Y-60.65
X90.85Y-61.55
X90.9Y-24.4
X91.462Y-33.333
X91.462Y-34.095
X91.462Y-34.857
X91.462Y-35.619
X91.462Y-36.381
X91.462Y-37.143
X91.462Y-37.905
X91.462Y-38.667
X91.75Y-60.65
X91.75Y-61.55
X91.9Y-27.4
X91.9Y-54.8
X92.Y-24.3
X92.1Y-68.6
X92.183Y-49.96
X92.6Y-48.9
X92.711Y-25.57
X93.Y-29.8
X93.1Y-54.9
X93.2Y-68.6
X93.6Y-26.5
X93.9Y-29.8
X93.9Y-48.9
X94.3Y-45.5
X94.4Y-68.6
X95.Y-49.4
X95.1Y-21.6
X95.1Y-65.5
X95.5Y-45.5
X95.8Y-38.1
X96.3Y-60.3
X96.5Y-68.6
X97.2Y-45.
X97.3Y-59.4
X97.45Y-52.05
X97.45Y-52.95
X97.6Y-68.6
X98.1Y-30.
X98.3Y-59.1
X98.35Y-52.05
X98.35Y-52.95
X98.5Y-34.6
X98.6Y-36.4
X99.4Y-21.5
X99.4Y-23.
X99.5Y-59.1
X100.Y-33.5
X100.3Y-30.2
X100.6Y-59.1
X100.7Y-25.3
X100.7Y-48.4
X101.9Y-59.1
X102.5Y-24.8
X102.8Y-52.2
X102.8Y-53.2
X103.2Y-31.2
X103.586Y-29.184
X105.Y-31.1
X105.3Y-43.2
X105.4Y-60.2
X106.Y-22.2
X107.886Y-62.352
X107.886Y-63.305
X107.886Y-64.257
X109.093Y-62.352
X109.093Y-63.305
X109.093Y-64.257
X110.1Y-50.7
X110.1Y-52.1
X110.2Y-47.8
X110.2Y-49.1
X110.7Y-25.7
X110.9Y-60.
X111.3Y-22.8
X111.5Y-50.7
X111.5Y-52.1
X111.6Y-47.8
X111.6Y-49.1
X112.2Y-26.2
X112.3Y-28.9
X113.Y-23.2
X113.Y-47.7
X113.Y-49.2
X113.Y-50.6
X113.Y-52.1
X113.4Y-67.5
X114.4Y-32.2
X114.6Y-23.2
X115.7Y-30.4
X115.8Y-27.1
X116.1Y-24.1
X117.4Y-21.2
X119.2Y-21.3
X119.6Y-29.1
X120.3Y-33.
X120.6Y-35.5
X121.2Y-30.1
X123.Y-30.1
T2
X79.5Y-27.6
X84.9Y-59.1
X87.5Y-55.8
X87.6Y-57.1
X116.9Y-68.2
X119.3Y-66.1
X121.6Y-66.6
X121.6Y-68.2
T3
X77.47Y-40.64
X77.47Y-43.18
X77.47Y-45.72
X77.47Y-48.26
X77.47Y-50.8
X77.47Y-53.34
X77.47Y-55.88
X77.47Y-58.42
X80.01Y-40.64
X80.01Y-43.18
X80.01Y-45.72
X80.01Y-48.26
X80.01Y-50.8
X80.01Y-53.34
X80.01Y-55.88
X80.01Y-58.42
X82.55Y-40.64
X82.55Y-43.18
X82.55Y-45.72
X82.55Y-48.26
X82.55Y-50.8
X82.55Y-53.34
X82.55Y-55.88
X82.55Y-58.42
T4
X85.6Y-57.1
X85.6Y-68.6
X111.1Y-44.
X119.3Y-68.2
T5
X77.6Y-61.7
X77.6Y-64.24
T0
M30
